<?xml version="1.0" encoding="utf-8" standalone="no"?>
<!DOCTYPE svg PUBLIC "-//W3C//DTD SVG 1.1//EN"
  "http://www.w3.org/Graphics/SVG/1.1/DTD/svg11.dtd">
<svg xmlns:xlink="http://www.w3.org/1999/xlink" width="651.4pt" height="939.4pt" viewBox="0 0 651.4 939.4" xmlns="http://www.w3.org/2000/svg" version="1.1">
 <metadata>
  <rdf:RDF xmlns:dc="http://purl.org/dc/elements/1.1/" xmlns:cc="http://creativecommons.org/ns#" xmlns:rdf="http://www.w3.org/1999/02/22-rdf-syntax-ns#">
   <cc:Work>
    <dc:type rdf:resource="http://purl.org/dc/dcmitype/StillImage"/>
    <dc:date>2026-01-28T23:21:12.265845</dc:date>
    <dc:format>image/svg+xml</dc:format>
    <dc:creator>
     <cc:Agent>
      <dc:title>Matplotlib v3.10.8, https://matplotlib.org/</dc:title>
     </cc:Agent>
    </dc:creator>
   </cc:Work>
  </rdf:RDF>
 </metadata>
 <defs>
  <style type="text/css">*{stroke-linejoin: round; stroke-linecap: butt}</style>
 </defs>
 <g id="figure_1">
  <g id="patch_1">
   <path d="M 0 939.4 
L 651.4 939.4 
L 651.4 0 
L 0 0 
z
" style="fill: #ffffff"/>
  </g>
  <g id="axes_1">
   <g id="patch_2">
    <path d="M 247.986 136.7 
L 403.414 136.7 
Q 422.524 136.7 422.524 115.353846 
L 422.524 91.161538 
Q 422.524 69.815385 403.414 69.815385 
L 247.986 69.815385 
Q 228.876 69.815385 228.876 91.161538 
L 228.876 115.353846 
Q 228.876 136.7 247.986 136.7 
z
" clip-path="url(#p67079c3c24)" style="fill: #e3f2fd; stroke: #1565c0; stroke-width: 1.5; stroke-linejoin: miter"/>
   </g>
   <g id="patch_3">
    <path d="M 44.146 279.007692 
L 174.094 279.007692 
Q 193.204 279.007692 193.204 257.661538 
L 193.204 212.123077 
Q 193.204 190.776923 174.094 190.776923 
L 44.146 190.776923 
Q 25.036 190.776923 25.036 212.123077 
L 25.036 257.661538 
Q 25.036 279.007692 44.146 279.007692 
z
" clip-path="url(#p67079c3c24)" style="fill: #fff3e0; stroke: #e65100; stroke-width: 1.5; stroke-linejoin: miter"/>
   </g>
   <g id="patch_4">
    <path d="M 44.146 399.969231 
L 59.434 399.969231 
Q 78.544 399.969231 78.544 378.623077 
L 78.544 368.661538 
Q 78.544 347.315385 59.434 347.315385 
L 44.146 347.315385 
Q 25.036 347.315385 25.036 368.661538 
L 25.036 378.623077 
Q 25.036 399.969231 44.146 399.969231 
z
" clip-path="url(#p67079c3c24)" style="fill: #e3f2fd; stroke: #1565c0; stroke-width: 1.5; stroke-linejoin: miter"/>
   </g>
   <g id="patch_5">
    <path d="M 101.476 399.969231 
L 116.764 399.969231 
Q 135.874 399.969231 135.874 378.623077 
L 135.874 368.661538 
Q 135.874 347.315385 116.764 347.315385 
L 101.476 347.315385 
Q 82.366 347.315385 82.366 368.661538 
L 82.366 378.623077 
Q 82.366 399.969231 101.476 399.969231 
z
" clip-path="url(#p67079c3c24)" style="fill: #e3f2fd; stroke: #1565c0; stroke-width: 1.5; stroke-linejoin: miter"/>
   </g>
   <g id="patch_6">
    <path d="M 158.806 399.969231 
L 174.094 399.969231 
Q 193.204 399.969231 193.204 378.623077 
L 193.204 368.661538 
Q 193.204 347.315385 174.094 347.315385 
L 158.806 347.315385 
Q 139.696 347.315385 139.696 368.661538 
L 139.696 378.623077 
Q 139.696 399.969231 158.806 399.969231 
z
" clip-path="url(#p67079c3c24)" style="fill: #e3f2fd; stroke: #1565c0; stroke-width: 1.5; stroke-linejoin: miter"/>
   </g>
   <g id="patch_7">
    <path d="M 247.986 478.238462 
L 403.414 478.238462 
Q 422.524 478.238462 422.524 456.892308 
L 422.524 418.469231 
Q 422.524 397.123077 403.414 397.123077 
L 247.986 397.123077 
Q 228.876 397.123077 228.876 418.469231 
L 228.876 456.892308 
Q 228.876 478.238462 247.986 478.238462 
z
" clip-path="url(#p67079c3c24)" style="fill: #fff3e0; stroke: #e65100; stroke-width: 1.5; stroke-linejoin: miter"/>
   </g>
   <g id="patch_8">
    <path d="M 247.986 592.084615 
L 403.414 592.084615 
Q 422.524 592.084615 422.524 570.738462 
L 422.524 553.661538 
Q 422.524 532.315385 403.414 532.315385 
L 247.986 532.315385 
Q 228.876 532.315385 228.876 553.661538 
L 228.876 570.738462 
Q 228.876 592.084615 247.986 592.084615 
z
" clip-path="url(#p67079c3c24)" style="fill: #e3f2fd; stroke: #1565c0; stroke-width: 1.5; stroke-linejoin: miter"/>
   </g>
   <g id="patch_9">
    <path d="M 483.676 592.084615 
L 594.514 592.084615 
Q 613.624 592.084615 613.624 570.738462 
L 613.624 553.661538 
Q 613.624 532.315385 594.514 532.315385 
L 483.676 532.315385 
Q 464.566 532.315385 464.566 553.661538 
L 464.566 570.738462 
Q 464.566 592.084615 483.676 592.084615 
z
" clip-path="url(#p67079c3c24)" style="fill: #e3f2fd; stroke: #1565c0; stroke-width: 1.5; stroke-linejoin: miter"/>
   </g>
   <g id="patch_10">
    <path d="M 247.986 705.930769 
L 403.414 705.930769 
Q 422.524 705.930769 422.524 684.584615 
L 422.524 660.392308 
Q 422.524 639.046154 403.414 639.046154 
L 247.986 639.046154 
Q 228.876 639.046154 228.876 660.392308 
L 228.876 684.584615 
Q 228.876 705.930769 247.986 705.930769 
z
" clip-path="url(#p67079c3c24)" style="fill: #f3e5f5; stroke: #7b1fa2; stroke-width: 1.5; stroke-linejoin: miter"/>
   </g>
   <g id="patch_11">
    <path d="M 247.986 819.776923 
L 403.414 819.776923 
Q 422.524 819.776923 422.524 798.430769 
L 422.524 774.238462 
Q 422.524 752.892308 403.414 752.892308 
L 247.986 752.892308 
Q 228.876 752.892308 228.876 774.238462 
L 228.876 798.430769 
Q 228.876 819.776923 247.986 819.776923 
z
" clip-path="url(#p67079c3c24)" style="fill: #fff3e0; stroke: #e65100; stroke-width: 1.5; stroke-linejoin: miter"/>
   </g>
   <g id="patch_12">
    <path d="M 247.986 926.507692 
L 403.414 926.507692 
Q 422.524 926.507692 422.524 905.161538 
L 422.524 880.969231 
Q 422.524 859.623077 403.414 859.623077 
L 247.986 859.623077 
Q 228.876 859.623077 228.876 880.969231 
L 228.876 905.161538 
Q 228.876 926.507692 247.986 926.507692 
z
" clip-path="url(#p67079c3c24)" style="fill: #e3f2fd; stroke: #1565c0; stroke-width: 1.5; stroke-linejoin: miter"/>
   </g>
   <g id="patch_13">
    <path d="M 458.196 165.161538 
L 470.299 165.161538 
Q 476.669 165.161538 476.669 158.046154 
L 476.669 144.526923 
Q 476.669 137.411538 470.299 137.411538 
L 458.196 137.411538 
Q 451.826 137.411538 451.826 144.526923 
L 451.826 158.046154 
Q 451.826 165.161538 458.196 165.161538 
z
" clip-path="url(#p67079c3c24)" style="fill: #fff3e0; stroke: #e65100; stroke-linejoin: miter"/>
   </g>
   <g id="patch_14">
    <path d="M 458.196 204.296154 
L 470.299 204.296154 
Q 476.669 204.296154 476.669 197.180769 
L 476.669 183.661538 
Q 476.669 176.546154 470.299 176.546154 
L 458.196 176.546154 
Q 451.826 176.546154 451.826 183.661538 
L 451.826 197.180769 
Q 451.826 204.296154 458.196 204.296154 
z
" clip-path="url(#p67079c3c24)" style="fill: #e3f2fd; stroke: #1565c0; stroke-linejoin: miter"/>
   </g>
   <g id="patch_15">
    <path d="M 458.196 243.430769 
L 470.299 243.430769 
Q 476.669 243.430769 476.669 236.315385 
L 476.669 222.796154 
Q 476.669 215.680769 470.299 215.680769 
L 458.196 215.680769 
Q 451.826 215.680769 451.826 222.796154 
L 451.826 236.315385 
Q 451.826 243.430769 458.196 243.430769 
z
" clip-path="url(#p67079c3c24)" style="fill: #f3e5f5; stroke: #7b1fa2; stroke-linejoin: miter"/>
   </g>
   <g id="line2d_1">
    <path d="M 325.7 135.276923 
L 325.7 163.738462 
" clip-path="url(#p67079c3c24)" style="fill: none; stroke: #37474f; stroke-width: 1.5; stroke-linecap: round"/>
   </g>
   <g id="line2d_2">
    <path d="M 325.7 163.738462 
L 109.12 163.738462 
" clip-path="url(#p67079c3c24)" style="fill: none; stroke: #37474f; stroke-width: 1.5; stroke-linecap: round"/>
   </g>
   <g id="line2d_3">
    <path d="M 109.12 163.738462 
L 109.12 192.2 
" clip-path="url(#p67079c3c24)" style="fill: none; stroke: #37474f; stroke-width: 1.5; stroke-linecap: round"/>
   </g>
   <g id="line2d_4">
    <path d="M 325.7 135.276923 
L 325.7 398.546154 
" clip-path="url(#p67079c3c24)" style="fill: none; stroke: #37474f; stroke-width: 1.5; stroke-linecap: round"/>
   </g>
   <g id="line2d_5">
    <path d="M 109.12 277.584615 
L 109.12 320.276923 
" clip-path="url(#p67079c3c24)" style="fill: none; stroke: #37474f; stroke-width: 1.5; stroke-linecap: round"/>
   </g>
   <g id="line2d_6">
    <path d="M 109.12 320.276923 
L 51.79 320.276923 
" clip-path="url(#p67079c3c24)" style="fill: none; stroke: #37474f; stroke-width: 1.5; stroke-linecap: round"/>
   </g>
   <g id="line2d_7">
    <path d="M 51.79 320.276923 
L 51.79 348.738462 
" clip-path="url(#p67079c3c24)" style="fill: none; stroke: #37474f; stroke-width: 1.5; stroke-linecap: round"/>
   </g>
   <g id="line2d_8">
    <path d="M 109.12 277.584615 
L 109.12 348.738462 
" clip-path="url(#p67079c3c24)" style="fill: none; stroke: #37474f; stroke-width: 1.5; stroke-linecap: round"/>
   </g>
   <g id="line2d_9">
    <path d="M 109.12 277.584615 
L 109.12 320.276923 
" clip-path="url(#p67079c3c24)" style="fill: none; stroke: #37474f; stroke-width: 1.5; stroke-linecap: round"/>
   </g>
   <g id="line2d_10">
    <path d="M 109.12 320.276923 
L 166.45 320.276923 
" clip-path="url(#p67079c3c24)" style="fill: none; stroke: #37474f; stroke-width: 1.5; stroke-linecap: round"/>
   </g>
   <g id="line2d_11">
    <path d="M 166.45 320.276923 
L 166.45 348.738462 
" clip-path="url(#p67079c3c24)" style="fill: none; stroke: #37474f; stroke-width: 1.5; stroke-linecap: round"/>
   </g>
   <g id="line2d_12">
    <path d="M 51.79 398.546154 
L 51.79 437.680769 
" clip-path="url(#p67079c3c24)" style="fill: none; stroke: #37474f; stroke-width: 1.5; stroke-linecap: round"/>
   </g>
   <g id="line2d_13">
    <path d="M 51.79 437.680769 
L 230.15 437.680769 
" clip-path="url(#p67079c3c24)" style="fill: none; stroke: #37474f; stroke-width: 1.5; stroke-linecap: round"/>
   </g>
   <g id="line2d_14">
    <path d="M 109.12 398.546154 
L 109.12 455.469231 
" clip-path="url(#p67079c3c24)" style="fill: none; stroke: #37474f; stroke-width: 1.5; stroke-linecap: round"/>
   </g>
   <g id="line2d_15">
    <path d="M 109.12 455.469231 
L 230.15 455.469231 
" clip-path="url(#p67079c3c24)" style="fill: none; stroke: #37474f; stroke-width: 1.5; stroke-linecap: round"/>
   </g>
   <g id="line2d_16">
    <path d="M 166.45 398.546154 
L 166.45 786.334615 
" clip-path="url(#p67079c3c24)" style="fill: none; stroke: #37474f; stroke-width: 1.5; stroke-linecap: round"/>
   </g>
   <g id="line2d_17">
    <path d="M 166.45 786.334615 
L 230.15 786.334615 
" clip-path="url(#p67079c3c24)" style="fill: none; stroke: #37474f; stroke-width: 1.5; stroke-linecap: round"/>
   </g>
   <g id="line2d_18">
    <path d="M 325.7 476.815385 
L 325.7 533.738462 
" clip-path="url(#p67079c3c24)" style="fill: none; stroke: #37474f; stroke-width: 1.5; stroke-linecap: round"/>
   </g>
   <g id="line2d_19">
    <path d="M 421.25 437.680769 
L 539.095 437.680769 
" clip-path="url(#p67079c3c24)" style="fill: none; stroke: #37474f; stroke-width: 1.5; stroke-linecap: round"/>
   </g>
   <g id="line2d_20">
    <path d="M 539.095 437.680769 
L 539.095 533.738462 
" clip-path="url(#p67079c3c24)" style="fill: none; stroke: #37474f; stroke-width: 1.5; stroke-linecap: round"/>
   </g>
   <g id="line2d_21">
    <path d="M 325.7 590.661538 
L 325.7 640.469231 
" clip-path="url(#p67079c3c24)" style="fill: none; stroke: #37474f; stroke-width: 1.5; stroke-linecap: round"/>
   </g>
   <g id="line2d_22">
    <path d="M 325.7 704.507692 
L 325.7 754.315385 
" clip-path="url(#p67079c3c24)" style="fill: none; stroke: #37474f; stroke-width: 1.5; stroke-linecap: round"/>
   </g>
   <g id="line2d_23">
    <path d="M 539.095 590.661538 
L 539.095 786.334615 
" clip-path="url(#p67079c3c24)" style="fill: none; stroke: #37474f; stroke-width: 1.5; stroke-linecap: round"/>
   </g>
   <g id="line2d_24">
    <path d="M 539.095 786.334615 
L 421.25 786.334615 
" clip-path="url(#p67079c3c24)" style="fill: none; stroke: #37474f; stroke-width: 1.5; stroke-linecap: round"/>
   </g>
   <g id="line2d_25">
    <path d="M 325.7 818.353846 
L 325.7 861.046154 
" clip-path="url(#p67079c3c24)" style="fill: none; stroke: #37474f; stroke-width: 1.5; stroke-linecap: round"/>
   </g>
   <g id="text_1">
    <!-- Architecture Diagram -->
    <g style="fill: #1a1a1a" transform="translate(239.929219 35.661538) scale(0.14 -0.14)">
     <defs>
      <path id="DejaVuSerif-Bold-41" d="M -50 0 
L -50 378 
L 331 378 
L 2088 4666 
L 2834 4666 
L 4594 378 
L 5038 378 
L 5038 0 
L 2853 0 
L 2853 378 
L 3309 378 
L 2925 1331 
L 1172 1331 
L 781 378 
L 1338 378 
L 1338 0 
L -50 0 
z
M 1325 1709 
L 2772 1709 
L 2053 3494 
L 1325 1709 
z
" transform="scale(0.015625)"/>
      <path id="DejaVuSerif-Bold-72" d="M 3438 3359 
L 3438 2369 
L 3084 2369 
Q 3066 2634 2941 2764 
Q 2816 2894 2578 2894 
Q 2216 2894 2006 2575 
Q 1797 2256 1797 1691 
L 1797 378 
L 2400 378 
L 2400 0 
L 219 0 
L 219 378 
L 691 378 
L 691 2944 
L 184 2944 
L 184 3322 
L 1797 3322 
L 1797 2731 
Q 1959 3078 2226 3245 
Q 2494 3413 2881 3413 
Q 2978 3413 3117 3398 
Q 3256 3384 3438 3359 
z
" transform="scale(0.015625)"/>
      <path id="DejaVuSerif-Bold-63" d="M 3609 1038 
Q 3491 469 3123 189 
Q 2756 -91 2125 -91 
Q 1238 -91 750 368 
Q 263 828 263 1663 
Q 263 2488 744 2950 
Q 1225 3413 2081 3413 
Q 2428 3413 2781 3347 
Q 3134 3281 3500 3150 
L 3500 2228 
L 3150 2228 
Q 3100 2650 2903 2854 
Q 2706 3059 2350 3059 
Q 1888 3059 1692 2746 
Q 1497 2434 1497 1663 
Q 1497 909 1687 586 
Q 1878 263 2309 263 
Q 2644 263 2845 463 
Q 3047 663 3091 1038 
L 3609 1038 
z
" transform="scale(0.015625)"/>
      <path id="DejaVuSerif-Bold-68" d="M 219 0 
L 219 378 
L 691 378 
L 691 4488 
L 197 4488 
L 197 4863 
L 1797 4863 
L 1797 2853 
Q 1997 3150 2253 3281 
Q 2509 3413 2900 3413 
Q 3459 3413 3745 3083 
Q 4031 2753 4031 2113 
L 4031 378 
L 4506 378 
L 4506 0 
L 2522 0 
L 2522 378 
L 2925 378 
L 2925 2144 
Q 2925 2566 2817 2730 
Q 2709 2894 2444 2894 
Q 2109 2894 1953 2648 
Q 1797 2403 1797 1869 
L 1797 378 
L 2203 378 
L 2203 0 
L 219 0 
z
" transform="scale(0.015625)"/>
      <path id="DejaVuSerif-Bold-69" d="M 588 4263 
Q 588 4516 763 4689 
Q 938 4863 1191 4863 
Q 1438 4863 1611 4689 
Q 1784 4516 1784 4263 
Q 1784 4016 1611 3842 
Q 1438 3669 1191 3669 
Q 938 3669 763 3841 
Q 588 4013 588 4263 
z
M 1797 378 
L 2272 378 
L 2272 0 
L 219 0 
L 219 378 
L 691 378 
L 691 2944 
L 219 2944 
L 219 3322 
L 1797 3322 
L 1797 378 
z
" transform="scale(0.015625)"/>
      <path id="DejaVuSerif-Bold-74" d="M 634 2944 
L 153 2944 
L 153 3322 
L 634 3322 
L 634 4353 
L 1741 4353 
L 1741 3322 
L 2663 3322 
L 2663 2944 
L 1741 2944 
L 1741 909 
Q 1741 475 1809 369 
Q 1878 263 2059 263 
Q 2259 263 2356 397 
Q 2453 531 2459 813 
L 2925 813 
Q 2897 313 2651 111 
Q 2406 -91 1806 -91 
Q 1122 -91 878 123 
Q 634 338 634 909 
L 634 2944 
z
" transform="scale(0.015625)"/>
      <path id="DejaVuSerif-Bold-65" d="M 2566 1875 
Q 2566 2531 2444 2795 
Q 2322 3059 2028 3059 
Q 1744 3059 1620 2800 
Q 1497 2541 1497 1931 
L 1497 1875 
L 2566 1875 
z
M 3781 1503 
L 1497 1503 
L 1497 1478 
Q 1497 834 1690 548 
Q 1884 263 2316 263 
Q 2675 263 2897 453 
Q 3119 644 3181 1006 
L 3700 1006 
Q 3566 441 3166 175 
Q 2766 -91 2047 -91 
Q 1184 -91 723 364 
Q 263 819 263 1663 
Q 263 2488 734 2950 
Q 1206 3413 2047 3413 
Q 2872 3413 3312 2927 
Q 3753 2441 3781 1503 
z
" transform="scale(0.015625)"/>
      <path id="DejaVuSerif-Bold-75" d="M 3963 3322 
L 3963 378 
L 4434 378 
L 4434 0 
L 2853 0 
L 2853 469 
Q 2656 172 2400 40 
Q 2144 -91 1753 -91 
Q 1194 -91 908 239 
Q 622 569 622 1209 
L 622 2944 
L 147 2944 
L 147 3322 
L 1728 3322 
L 1728 1381 
Q 1728 763 1831 595 
Q 1934 428 2209 428 
Q 2544 428 2698 675 
Q 2853 922 2853 1459 
L 2853 2944 
L 2450 2944 
L 2450 3322 
L 3963 3322 
z
" transform="scale(0.015625)"/>
      <path id="DejaVuSerif-Bold-20" transform="scale(0.015625)"/>
      <path id="DejaVuSerif-Bold-44" d="M 2100 378 
L 2534 378 
Q 3266 378 3605 847 
Q 3944 1316 3944 2338 
Q 3944 3353 3606 3820 
Q 3269 4288 2534 4288 
L 2100 4288 
L 2100 378 
z
M 300 0 
L 300 378 
L 897 378 
L 897 4288 
L 300 4288 
L 300 4666 
L 2694 4666 
Q 3950 4666 4615 4066 
Q 5281 3466 5281 2338 
Q 5281 1203 4614 601 
Q 3947 0 2694 0 
L 300 0 
z
" transform="scale(0.015625)"/>
      <path id="DejaVuSerif-Bold-61" d="M 3525 2041 
L 3525 378 
L 4000 378 
L 4000 0 
L 2419 0 
L 2419 422 
Q 2200 159 1931 34 
Q 1663 -91 1319 -91 
Q 809 -91 536 182 
Q 263 456 263 966 
Q 263 1525 655 1803 
Q 1047 2081 1838 2081 
L 2419 2081 
L 2419 2278 
Q 2419 2681 2228 2873 
Q 2038 3066 1638 3066 
Q 1306 3066 1126 2930 
Q 947 2794 872 2484 
L 519 2484 
L 519 3200 
Q 816 3306 1134 3359 
Q 1453 3413 1806 3413 
Q 2697 3413 3111 3081 
Q 3525 2750 3525 2041 
z
M 2419 1044 
L 2419 1709 
L 2003 1709 
Q 1694 1709 1528 1540 
Q 1363 1372 1363 1056 
Q 1363 741 1483 584 
Q 1603 428 1850 428 
Q 2106 428 2262 597 
Q 2419 766 2419 1044 
z
" transform="scale(0.015625)"/>
      <path id="DejaVuSerif-Bold-67" d="M 3853 2944 
L 3853 44 
Q 3853 -656 3354 -1039 
Q 2856 -1422 1947 -1422 
Q 1616 -1422 1275 -1370 
Q 934 -1319 575 -1216 
L 575 -422 
L 928 -422 
Q 975 -750 1192 -909 
Q 1409 -1069 1813 -1069 
Q 2325 -1069 2536 -823 
Q 2747 -578 2747 44 
L 2747 422 
Q 2606 163 2367 36 
Q 2128 -91 1778 -91 
Q 1072 -91 667 378 
Q 263 847 263 1663 
Q 263 2481 667 2947 
Q 1072 3413 1778 3413 
Q 2128 3413 2367 3286 
Q 2606 3159 2747 2900 
L 2747 3322 
L 4325 3322 
L 4325 2944 
L 3853 2944 
z
M 2747 1825 
Q 2747 2406 2597 2665 
Q 2447 2925 2119 2925 
Q 1775 2925 1636 2651 
Q 1497 2378 1497 1663 
Q 1497 947 1637 672 
Q 1778 397 2119 397 
Q 2447 397 2597 656 
Q 2747 916 2747 1497 
L 2747 1825 
z
" transform="scale(0.015625)"/>
      <path id="DejaVuSerif-Bold-6d" d="M 3884 2778 
Q 4116 3109 4384 3261 
Q 4653 3413 5013 3413 
Q 5584 3413 5867 3089 
Q 6150 2766 6150 2113 
L 6150 378 
L 6625 378 
L 6625 0 
L 4647 0 
L 4647 378 
L 5044 378 
L 5044 1947 
Q 5044 2569 4948 2731 
Q 4853 2894 4594 2894 
Q 4300 2894 4137 2667 
Q 3975 2441 3975 2022 
L 3975 378 
L 4372 378 
L 4372 0 
L 2472 0 
L 2472 378 
L 2869 378 
L 2869 1947 
Q 2869 2569 2772 2731 
Q 2675 2894 2419 2894 
Q 2122 2894 1959 2667 
Q 1797 2441 1797 2022 
L 1797 378 
L 2194 378 
L 2194 0 
L 219 0 
L 219 378 
L 691 378 
L 691 2944 
L 219 2944 
L 219 3322 
L 1797 3322 
L 1797 2853 
Q 1991 3144 2241 3278 
Q 2491 3413 2834 3413 
Q 3241 3413 3494 3258 
Q 3747 3103 3884 2778 
z
" transform="scale(0.015625)"/>
     </defs>
     <use xlink:href="#DejaVuSerif-Bold-41"/>
     <use xlink:href="#DejaVuSerif-Bold-72" transform="translate(77.587891 0)"/>
     <use xlink:href="#DejaVuSerif-Bold-63" transform="translate(130.273438 0)"/>
     <use xlink:href="#DejaVuSerif-Bold-68" transform="translate(191.162109 0)"/>
     <use xlink:href="#DejaVuSerif-Bold-69" transform="translate(263.867188 0)"/>
     <use xlink:href="#DejaVuSerif-Bold-74" transform="translate(301.855469 0)"/>
     <use xlink:href="#DejaVuSerif-Bold-65" transform="translate(348.046875 0)"/>
     <use xlink:href="#DejaVuSerif-Bold-63" transform="translate(411.669922 0)"/>
     <use xlink:href="#DejaVuSerif-Bold-74" transform="translate(472.558594 0)"/>
     <use xlink:href="#DejaVuSerif-Bold-75" transform="translate(518.75 0)"/>
     <use xlink:href="#DejaVuSerif-Bold-72" transform="translate(591.455078 0)"/>
     <use xlink:href="#DejaVuSerif-Bold-65" transform="translate(644.140625 0)"/>
     <use xlink:href="#DejaVuSerif-Bold-20" transform="translate(707.763672 0)"/>
     <use xlink:href="#DejaVuSerif-Bold-44" transform="translate(742.578125 0)"/>
     <use xlink:href="#DejaVuSerif-Bold-69" transform="translate(829.296875 0)"/>
     <use xlink:href="#DejaVuSerif-Bold-61" transform="translate(867.285156 0)"/>
     <use xlink:href="#DejaVuSerif-Bold-67" transform="translate(932.080078 0)"/>
     <use xlink:href="#DejaVuSerif-Bold-72" transform="translate(1002.001953 0)"/>
     <use xlink:href="#DejaVuSerif-Bold-61" transform="translate(1054.6875 0)"/>
     <use xlink:href="#DejaVuSerif-Bold-6d" transform="translate(1119.482422 0)"/>
    </g>
   </g>
   <g id="text_2">
    <!-- H -->
    <g style="fill: #263238" transform="translate(320.975781 97.478606) scale(0.1 -0.1)">
     <defs>
      <path id="DejaVuSerif-Bold-48" d="M 300 0 
L 300 378 
L 897 378 
L 897 4288 
L 300 4288 
L 300 4666 
L 2700 4666 
L 2700 4288 
L 2100 4288 
L 2100 2719 
L 3956 2719 
L 3956 4288 
L 3359 4288 
L 3359 4666 
L 5759 4666 
L 5759 4288 
L 5159 4288 
L 5159 378 
L 5759 378 
L 5759 0 
L 3359 0 
L 3359 378 
L 3956 378 
L 3956 2291 
L 2100 2291 
L 2100 378 
L 2700 378 
L 2700 0 
L 300 0 
z
" transform="scale(0.015625)"/>
     </defs>
     <use xlink:href="#DejaVuSerif-Bold-48"/>
    </g>
   </g>
   <g id="text_3">
    <!-- [batch, seq, 4, dim] -->
    <g style="fill: #546e7a" transform="translate(286.423125 118.272885) scale(0.08 -0.08)">
     <defs>
      <path id="DejaVuSerif-Italic-5b" d="M 1106 4863 
L 2559 4863 
L 2497 4531 
L 1641 4531 
L 659 -513 
L 1516 -513 
L 1453 -844 
L 0 -844 
L 1106 4863 
z
" transform="scale(0.015625)"/>
      <path id="DejaVuSerif-Italic-62" d="M 1153 4531 
L 600 4531 
L 666 4863 
L 1794 4863 
L 1394 2803 
Q 1622 3116 1912 3264 
Q 2203 3413 2588 3413 
Q 3200 3413 3494 2928 
Q 3688 2609 3688 2163 
Q 3688 1928 3634 1663 
Q 3481 881 3000 395 
Q 2519 -91 1906 -91 
Q 1522 -91 1289 57 
Q 1056 206 950 519 
L 850 0 
L 275 0 
L 1153 4531 
z
M 1141 1497 
Q 1091 1250 1091 1053 
Q 1091 769 1191 581 
Q 1359 269 1797 269 
Q 2238 269 2533 622 
Q 2828 975 2963 1663 
Q 3025 1978 3025 2225 
Q 3025 2513 2938 2703 
Q 2781 3053 2338 3053 
Q 1900 3053 1609 2737 
Q 1319 2422 1203 1825 
L 1141 1497 
z
" transform="scale(0.015625)"/>
      <path id="DejaVuSerif-Italic-61" d="M 2325 519 
Q 1909 -91 1238 -91 
Q 688 -91 409 281 
Q 216 544 216 919 
Q 216 1078 250 1256 
Q 463 2359 1231 2928 
Q 1884 3413 2675 3413 
Q 3206 3413 3388 3322 
L 2806 331 
L 3300 331 
L 3238 0 
L 2225 0 
L 2325 519 
z
M 822 938 
Q 822 269 1469 269 
Q 1863 269 2130 583 
Q 2397 897 2516 1497 
L 2806 3003 
L 2806 3003 
Q 2806 3094 2556 3094 
Q 1956 3094 1491 2625 
Q 1028 2153 863 1297 
Q 822 1097 822 938 
z
" transform="scale(0.015625)"/>
      <path id="DejaVuSerif-Italic-74" d="M 856 2988 
L 350 2988 
L 416 3322 
L 922 3322 
L 1122 4353 
L 1700 4353 
L 1500 3322 
L 2581 3322 
L 2516 2988 
L 1434 2988 
L 1025 878 
Q 978 631 978 488 
Q 978 388 1000 338 
Q 1059 219 1278 219 
Q 1503 219 1633 351 
Q 1763 484 1825 781 
L 2259 781 
Q 2147 328 1884 118 
Q 1622 -91 1169 -91 
Q 672 -91 506 131 
Q 406 266 406 516 
Q 406 675 447 878 
L 856 2988 
z
" transform="scale(0.015625)"/>
      <path id="DejaVuSerif-Italic-63" d="M 3163 997 
Q 2938 466 2536 187 
Q 2134 -91 1584 -91 
Q 859 -91 513 388 
Q 272 722 272 1203 
Q 272 1419 319 1663 
Q 475 2459 1008 2936 
Q 1541 3413 2266 3413 
Q 2581 3413 2879 3339 
Q 3178 3266 3463 3116 
L 3300 2266 
L 2966 2266 
Q 2966 2309 2966 2347 
Q 2966 2722 2803 2903 
Q 2622 3103 2213 3103 
Q 1747 3103 1439 2742 
Q 1131 2381 991 1663 
Q 928 1334 928 1078 
Q 928 778 1016 581 
Q 1181 219 1650 219 
Q 2022 219 2281 412 
Q 2541 606 2700 997 
L 3163 997 
z
" transform="scale(0.015625)"/>
      <path id="DejaVuSerif-Italic-68" d="M 309 0 
L 1191 4531 
L 641 4531 
L 703 4863 
L 1828 4863 
L 1416 2731 
Q 1641 3069 1928 3241 
Q 2216 3413 2553 3413 
Q 3103 3413 3300 3097 
Q 3422 2906 3422 2588 
Q 3422 2378 3369 2113 
L 3022 331 
L 3534 331 
L 3472 0 
L 2381 0 
L 2756 1931 
Q 2819 2253 2819 2469 
Q 2819 2659 2769 2763 
Q 2666 2988 2284 2988 
Q 1884 2988 1617 2697 
Q 1350 2406 1244 1850 
L 884 0 
L 309 0 
z
" transform="scale(0.015625)"/>
      <path id="DejaVuSerif-Italic-2c" d="M 125 -622 
Q 463 -406 656 -114 
Q 850 178 931 594 
L 953 709 
L 1569 709 
Q 1441 175 1139 -208 
Q 838 -591 328 -872 
L 125 -622 
z
" transform="scale(0.015625)"/>
      <path id="DejaVuSerif-Italic-20" transform="scale(0.015625)"/>
      <path id="DejaVuSerif-Italic-73" d="M 222 959 
L 553 959 
Q 541 869 541 788 
Q 541 219 1313 219 
Q 2088 219 2200 788 
Q 2209 844 2209 944 
Q 2209 1041 2103 1158 
Q 1997 1275 1550 1428 
L 1159 1569 
Q 759 1706 629 1882 
Q 500 2059 500 2263 
Q 500 2344 516 2438 
Q 606 2894 990 3153 
Q 1375 3413 1931 3413 
Q 2484 3413 3066 3144 
L 2925 2419 
L 2594 2419 
Q 2606 2491 2606 2553 
Q 2606 2781 2448 2942 
Q 2291 3103 1925 3103 
Q 1191 3103 1091 2591 
Q 1078 2538 1078 2444 
Q 1078 2347 1179 2237 
Q 1281 2128 1678 1997 
L 2106 1856 
Q 2550 1709 2716 1488 
Q 2831 1331 2831 1178 
Q 2831 522 2306 181 
Q 1894 -91 1262 -91 
Q 631 -91 72 184 
L 222 959 
z
" transform="scale(0.015625)"/>
      <path id="DejaVuSerif-Italic-65" d="M 938 1275 
Q 925 1156 925 1050 
Q 925 756 1031 563 
Q 1216 219 1709 219 
Q 2072 219 2250 328 
Q 2569 525 2644 778 
L 3066 778 
Q 2941 381 2475 103 
Q 2150 -91 1506 -91 
Q 863 -91 516 388 
Q 272 722 272 1206 
Q 272 1419 319 1659 
Q 472 2450 1000 2931 
Q 1528 3413 2278 3413 
Q 3500 3413 3500 2547 
Q 3500 1913 2859 1603 
Q 2206 1288 938 1275 
z
M 2541 1975 
Q 2891 2181 2891 2569 
Q 2891 3103 2181 3103 
Q 1763 3103 1472 2784 
Q 1181 2466 1003 1606 
Q 2006 1653 2541 1975 
z
" transform="scale(0.015625)"/>
      <path id="DejaVuSerif-Italic-71" d="M 2684 519 
Q 2469 206 2206 56 
Q 1944 -91 1597 -91 
Q 1047 -91 769 281 
Q 594 516 575 841 
Q 563 1031 606 1256 
Q 822 2359 1588 2928 
Q 2241 3409 3006 3413 
Q 3613 3416 3803 3322 
L 2963 -1000 
L 3516 -1000 
L 3450 -1331 
L 2322 -1331 
L 2684 519 
z
M 2916 3094 
Q 2316 3094 1850 2625 
Q 1388 2153 1219 1297 
Q 1172 1044 1184 853 
Q 1197 659 1275 528 
Q 1428 269 1828 269 
Q 2222 269 2489 583 
Q 2756 897 2872 1497 
L 3166 3003 
Q 3169 3094 2916 3094 
z
" transform="scale(0.015625)"/>
      <path id="DejaVuSerif-Italic-34" d="M 2084 1581 
L 2566 4063 
L 491 1581 
L 2084 1581 
z
M 3150 0 
L 1025 0 
L 1091 331 
L 1841 331 
L 2019 1247 
L -19 1247 
L 47 1588 
L 2706 4750 
L 3325 4750 
L 2709 1581 
L 3600 1581 
L 3534 1247 
L 2644 1247 
L 2466 331 
L 3216 331 
L 3150 0 
z
" transform="scale(0.015625)"/>
      <path id="DejaVuSerif-Italic-64" d="M 3841 4863 
L 2897 0 
L 2322 0 
L 2422 519 
Q 2191 206 1902 57 
Q 1613 -91 1228 -91 
Q 616 -91 322 394 
Q 125 716 125 1166 
Q 125 1397 178 1663 
Q 331 2444 812 2928 
Q 1294 3413 1909 3413 
Q 2294 3413 2525 3264 
Q 2756 3116 2866 2803 
L 3200 4531 
L 2656 4531 
L 2722 4863 
L 3841 4863 
z
M 2613 1497 
L 2675 1825 
Q 2722 2069 2722 2266 
Q 2722 2550 2622 2738 
Q 2456 3053 2019 3053 
Q 1575 3053 1279 2703 
Q 984 2353 850 1663 
Q 788 1347 788 1103 
Q 788 813 875 622 
Q 1031 269 1475 269 
Q 1913 269 2203 583 
Q 2494 897 2613 1497 
z
" transform="scale(0.015625)"/>
      <path id="DejaVuSerif-Italic-69" d="M 1009 4353 
Q 1038 4497 1163 4603 
Q 1288 4709 1434 4709 
Q 1578 4709 1663 4603 
Q 1728 4522 1728 4422 
Q 1728 4388 1719 4353 
Q 1691 4206 1567 4103 
Q 1444 4000 1297 4000 
Q 1150 4000 1066 4103 
Q 1003 4181 1003 4281 
Q 1003 4316 1009 4353 
z
M 963 331 
L 1506 331 
L 1444 0 
L 325 0 
L 903 2988 
L 353 2988 
L 419 3322 
L 1544 3322 
L 963 331 
z
" transform="scale(0.015625)"/>
      <path id="DejaVuSerif-Italic-6d" d="M 3503 2675 
Q 3741 3041 4034 3227 
Q 4328 3413 4672 3413 
Q 5194 3413 5388 3088 
Q 5503 2894 5503 2578 
Q 5503 2372 5453 2113 
L 5106 331 
L 5625 331 
L 5563 0 
L 4469 0 
L 4866 2047 
Q 4913 2291 4913 2466 
Q 4913 2659 4856 2772 
Q 4750 2988 4403 2988 
Q 4019 2988 3761 2697 
Q 3503 2406 3394 1850 
L 3034 0 
L 2459 0 
L 2863 2069 
Q 2906 2303 2906 2472 
Q 2906 2666 2850 2775 
Q 2741 2988 2394 2988 
Q 2009 2988 1751 2697 
Q 1494 2406 1384 1850 
L 1025 0 
L 450 0 
L 1031 2994 
L 481 2994 
L 544 3322 
L 1669 3322 
L 1556 2731 
Q 1778 3063 2059 3238 
Q 2341 3413 2653 3413 
Q 3041 3413 3262 3220 
Q 3484 3028 3503 2675 
z
" transform="scale(0.015625)"/>
      <path id="DejaVuSerif-Italic-5d" d="M 2503 4863 
L 1397 -844 
L -56 -844 
L 6 -513 
L 863 -513 
L 1844 4531 
L 988 4531 
L 1050 4863 
L 2503 4863 
z
" transform="scale(0.015625)"/>
     </defs>
     <use xlink:href="#DejaVuSerif-Italic-5b"/>
     <use xlink:href="#DejaVuSerif-Italic-62" transform="translate(39.013672 0)"/>
     <use xlink:href="#DejaVuSerif-Italic-61" transform="translate(103.027344 0)"/>
     <use xlink:href="#DejaVuSerif-Italic-74" transform="translate(162.646484 0)"/>
     <use xlink:href="#DejaVuSerif-Italic-63" transform="translate(202.832031 0)"/>
     <use xlink:href="#DejaVuSerif-Italic-68" transform="translate(258.837891 0)"/>
     <use xlink:href="#DejaVuSerif-Italic-2c" transform="translate(323.242188 0)"/>
     <use xlink:href="#DejaVuSerif-Italic-20" transform="translate(355.029297 0)"/>
     <use xlink:href="#DejaVuSerif-Italic-73" transform="translate(386.816406 0)"/>
     <use xlink:href="#DejaVuSerif-Italic-65" transform="translate(438.134766 0)"/>
     <use xlink:href="#DejaVuSerif-Italic-71" transform="translate(497.314453 0)"/>
     <use xlink:href="#DejaVuSerif-Italic-2c" transform="translate(561.328125 0)"/>
     <use xlink:href="#DejaVuSerif-Italic-20" transform="translate(593.115234 0)"/>
     <use xlink:href="#DejaVuSerif-Italic-34" transform="translate(624.902344 0)"/>
     <use xlink:href="#DejaVuSerif-Italic-2c" transform="translate(688.525391 0)"/>
     <use xlink:href="#DejaVuSerif-Italic-20" transform="translate(720.3125 0)"/>
     <use xlink:href="#DejaVuSerif-Italic-64" transform="translate(752.099609 0)"/>
     <use xlink:href="#DejaVuSerif-Italic-69" transform="translate(816.113281 0)"/>
     <use xlink:href="#DejaVuSerif-Italic-6d" transform="translate(848.095703 0)"/>
     <use xlink:href="#DejaVuSerif-Italic-5d" transform="translate(942.919922 0)"/>
    </g>
   </g>
   <g id="text_4">
    <!-- Fused Dynamic -->
    <g style="fill: #263238" transform="translate(66.43875 231.910589) scale(0.1 -0.1)">
     <defs>
      <path id="DejaVuSerif-Bold-46" d="M 300 0 
L 300 378 
L 897 378 
L 897 4288 
L 300 4288 
L 300 4666 
L 4459 4666 
L 4459 3566 
L 4031 3566 
L 4031 4238 
L 2106 4238 
L 2106 2741 
L 3291 2741 
L 3291 3334 
L 3719 3334 
L 3719 1722 
L 3291 1722 
L 3291 2316 
L 2106 2316 
L 2106 378 
L 2841 378 
L 2841 0 
L 300 0 
z
" transform="scale(0.015625)"/>
      <path id="DejaVuSerif-Bold-73" d="M 300 97 
L 300 1025 
L 653 1025 
Q 697 653 931 458 
Q 1166 263 1569 263 
Q 1906 263 2086 380 
Q 2266 497 2266 716 
Q 2266 916 2152 1025 
Q 2038 1134 1709 1216 
L 1253 1331 
Q 738 1459 506 1698 
Q 275 1938 275 2344 
Q 275 2884 650 3148 
Q 1025 3413 1806 3413 
Q 2100 3413 2433 3364 
Q 2766 3316 3169 3213 
L 3169 2375 
L 2816 2375 
Q 2788 2716 2573 2887 
Q 2359 3059 1959 3059 
Q 1622 3059 1448 2951 
Q 1275 2844 1275 2638 
Q 1275 2469 1375 2372 
Q 1475 2275 1734 2209 
L 2188 2094 
Q 2841 1928 3091 1684 
Q 3341 1441 3341 1006 
Q 3341 444 2939 176 
Q 2538 -91 1691 -91 
Q 1381 -91 1034 -44 
Q 688 3 300 97 
z
" transform="scale(0.015625)"/>
      <path id="DejaVuSerif-Bold-64" d="M 2747 1497 
L 2747 1825 
Q 2747 2406 2597 2665 
Q 2447 2925 2119 2925 
Q 1775 2925 1636 2651 
Q 1497 2378 1497 1663 
Q 1497 947 1637 672 
Q 1778 397 2119 397 
Q 2447 397 2597 656 
Q 2747 916 2747 1497 
z
M 3853 378 
L 4325 378 
L 4325 0 
L 2747 0 
L 2747 422 
Q 2606 163 2367 36 
Q 2128 -91 1778 -91 
Q 1072 -91 667 378 
Q 263 847 263 1663 
Q 263 2481 667 2947 
Q 1072 3413 1778 3413 
Q 2128 3413 2367 3286 
Q 2606 3159 2747 2900 
L 2747 4488 
L 2272 4488 
L 2272 4863 
L 3853 4863 
L 3853 378 
z
" transform="scale(0.015625)"/>
      <path id="DejaVuSerif-Bold-79" d="M 1997 -750 
Q 1847 -1116 1634 -1269 
Q 1422 -1422 1063 -1422 
Q 909 -1422 721 -1387 
Q 534 -1353 313 -1288 
L 313 -594 
L 666 -597 
Q 675 -838 779 -953 
Q 884 -1069 1094 -1069 
Q 1297 -1069 1422 -958 
Q 1547 -847 1672 -538 
L 1722 -422 
L 275 2944 
L -84 2944 
L -84 3322 
L 1831 3322 
L 1831 2944 
L 1434 2944 
L 2278 978 
L 3066 2944 
L 2625 2944 
L 2625 3322 
L 3872 3322 
L 3872 2944 
L 3469 2944 
L 1997 -750 
z
" transform="scale(0.015625)"/>
      <path id="DejaVuSerif-Bold-6e" d="M 219 0 
L 219 378 
L 691 378 
L 691 2944 
L 219 2944 
L 219 3322 
L 1797 3322 
L 1797 2853 
Q 1997 3150 2253 3281 
Q 2509 3413 2900 3413 
Q 3459 3413 3745 3083 
Q 4031 2753 4031 2113 
L 4031 378 
L 4506 378 
L 4506 0 
L 2522 0 
L 2522 378 
L 2925 378 
L 2925 2144 
Q 2925 2566 2817 2730 
Q 2709 2894 2444 2894 
Q 2109 2894 1953 2648 
Q 1797 2403 1797 1869 
L 1797 378 
L 2203 378 
L 2203 0 
L 219 0 
z
" transform="scale(0.015625)"/>
     </defs>
     <use xlink:href="#DejaVuSerif-Bold-46"/>
     <use xlink:href="#DejaVuSerif-Bold-75" transform="translate(69.246094 0)"/>
     <use xlink:href="#DejaVuSerif-Bold-73" transform="translate(141.951172 0)"/>
     <use xlink:href="#DejaVuSerif-Bold-65" transform="translate(198.25 0)"/>
     <use xlink:href="#DejaVuSerif-Bold-64" transform="translate(261.873047 0)"/>
     <use xlink:href="#DejaVuSerif-Bold-20" transform="translate(331.794922 0)"/>
     <use xlink:href="#DejaVuSerif-Bold-44" transform="translate(366.609375 0)"/>
     <use xlink:href="#DejaVuSerif-Bold-79" transform="translate(453.328125 0)"/>
     <use xlink:href="#DejaVuSerif-Bold-6e" transform="translate(511.433594 0)"/>
     <use xlink:href="#DejaVuSerif-Bold-61" transform="translate(584.138672 0)"/>
     <use xlink:href="#DejaVuSerif-Bold-6d" transform="translate(648.933594 0)"/>
     <use xlink:href="#DejaVuSerif-Bold-69" transform="translate(754.744141 0)"/>
     <use xlink:href="#DejaVuSerif-Bold-63" transform="translate(792.732422 0)"/>
    </g>
    <!-- Weights Kernel -->
    <g style="fill: #263238" transform="translate(66.069219 243.250589) scale(0.1 -0.1)">
     <defs>
      <path id="DejaVuSerif-Bold-57" d="M 5453 0 
L 4647 0 
L 3591 3397 
L 2534 0 
L 1728 0 
L 397 4288 
L -56 4288 
L -56 4666 
L 2156 4666 
L 2156 4288 
L 1656 4288 
L 2547 1422 
L 3553 4666 
L 4441 4666 
L 5466 1369 
L 6375 4288 
L 5819 4288 
L 5819 4666 
L 7263 4666 
L 7263 4288 
L 6784 4288 
L 5453 0 
z
" transform="scale(0.015625)"/>
      <path id="DejaVuSerif-Bold-4b" d="M 300 0 
L 300 378 
L 897 378 
L 897 4288 
L 300 4288 
L 300 4666 
L 2700 4666 
L 2700 4288 
L 2100 4288 
L 2100 2584 
L 4078 4288 
L 3578 4288 
L 3578 4666 
L 5319 4666 
L 5319 4288 
L 4697 4288 
L 3022 2847 
L 5300 378 
L 5759 378 
L 5759 0 
L 4178 0 
L 2100 2266 
L 2100 378 
L 2700 378 
L 2700 0 
L 300 0 
z
" transform="scale(0.015625)"/>
      <path id="DejaVuSerif-Bold-6c" d="M 1797 378 
L 2272 378 
L 2272 0 
L 219 0 
L 219 378 
L 691 378 
L 691 4488 
L 219 4488 
L 219 4863 
L 1797 4863 
L 1797 378 
z
" transform="scale(0.015625)"/>
     </defs>
     <use xlink:href="#DejaVuSerif-Bold-57"/>
     <use xlink:href="#DejaVuSerif-Bold-65" transform="translate(104.179688 0)"/>
     <use xlink:href="#DejaVuSerif-Bold-69" transform="translate(167.802734 0)"/>
     <use xlink:href="#DejaVuSerif-Bold-67" transform="translate(205.791016 0)"/>
     <use xlink:href="#DejaVuSerif-Bold-68" transform="translate(275.712891 0)"/>
     <use xlink:href="#DejaVuSerif-Bold-74" transform="translate(348.417969 0)"/>
     <use xlink:href="#DejaVuSerif-Bold-73" transform="translate(394.609375 0)"/>
     <use xlink:href="#DejaVuSerif-Bold-20" transform="translate(450.908203 0)"/>
     <use xlink:href="#DejaVuSerif-Bold-4b" transform="translate(485.722656 0)"/>
     <use xlink:href="#DejaVuSerif-Bold-65" transform="translate(570.386719 0)"/>
     <use xlink:href="#DejaVuSerif-Bold-72" transform="translate(634.009766 0)"/>
     <use xlink:href="#DejaVuSerif-Bold-6e" transform="translate(686.695312 0)"/>
     <use xlink:href="#DejaVuSerif-Bold-65" transform="translate(759.400391 0)"/>
     <use xlink:href="#DejaVuSerif-Bold-6c" transform="translate(823.023438 0)"/>
    </g>
   </g>
   <g id="text_5">
    <!-- H_pre -->
    <g style="fill: #263238" transform="translate(35.254063 367.585096) scale(0.1 -0.1)">
     <defs>
      <path id="DejaVuSerif-Bold-5f" d="M 3200 -916 
L 3200 -1509 
L 0 -1509 
L 0 -916 
L 3200 -916 
z
" transform="scale(0.015625)"/>
      <path id="DejaVuSerif-Bold-70" d="M 1728 1825 
L 1728 1497 
Q 1728 916 1876 656 
Q 2025 397 2356 397 
Q 2697 397 2836 672 
Q 2975 947 2975 1663 
Q 2975 2378 2836 2651 
Q 2697 2925 2356 2925 
Q 2025 2925 1876 2665 
Q 1728 2406 1728 1825 
z
M 622 2944 
L 147 2944 
L 147 3322 
L 1728 3322 
L 1728 2900 
Q 1869 3159 2106 3286 
Q 2344 3413 2694 3413 
Q 3403 3413 3811 2945 
Q 4219 2478 4219 1663 
Q 4219 847 3811 378 
Q 3403 -91 2694 -91 
Q 2344 -91 2106 36 
Q 1869 163 1728 422 
L 1728 -953 
L 2241 -953 
L 2241 -1331 
L 147 -1331 
L 147 -953 
L 622 -953 
L 622 2944 
z
" transform="scale(0.015625)"/>
     </defs>
     <use xlink:href="#DejaVuSerif-Bold-48"/>
     <use xlink:href="#DejaVuSerif-Bold-5f" transform="translate(94.482422 0)"/>
     <use xlink:href="#DejaVuSerif-Bold-70" transform="translate(144.482422 0)"/>
     <use xlink:href="#DejaVuSerif-Bold-72" transform="translate(214.404297 0)"/>
     <use xlink:href="#DejaVuSerif-Bold-65" transform="translate(267.089844 0)"/>
    </g>
   </g>
   <g id="text_6">
    <!-- [B,4] -->
    <g style="fill: #546e7a" transform="translate(41.913125 388.6575) scale(0.08 -0.08)">
     <defs>
      <path id="DejaVuSerif-Italic-42" d="M 1194 331 
L 2128 331 
Q 2691 331 2998 575 
Q 3306 819 3409 1350 
Q 3513 1878 3302 2120 
Q 3091 2363 2525 2363 
L 1591 2363 
L 1194 331 
z
M 1653 2694 
L 2447 2694 
Q 2959 2694 3234 2891 
Q 3509 3088 3591 3513 
Q 3675 3941 3476 4136 
Q 3278 4331 2766 4331 
L 1972 4331 
L 1653 2694 
z
M -97 0 
L -34 331 
L 559 331 
L 1338 4331 
L 744 4331 
L 809 4666 
L 3113 4666 
Q 3819 4666 4120 4377 
Q 4422 4088 4309 3513 
Q 4231 3097 3934 2850 
Q 3638 2603 3147 2547 
Q 3728 2472 3976 2167 
Q 4225 1863 4125 1350 
Q 3991 656 3489 328 
Q 2988 0 2059 0 
L -97 0 
z
" transform="scale(0.015625)"/>
     </defs>
     <use xlink:href="#DejaVuSerif-Italic-5b"/>
     <use xlink:href="#DejaVuSerif-Italic-42" transform="translate(39.013672 0)"/>
     <use xlink:href="#DejaVuSerif-Italic-2c" transform="translate(112.5 0)"/>
     <use xlink:href="#DejaVuSerif-Italic-34" transform="translate(144.287109 0)"/>
     <use xlink:href="#DejaVuSerif-Italic-5d" transform="translate(207.910156 0)"/>
    </g>
   </g>
   <g id="text_7">
    <!-- H_res -->
    <g style="fill: #263238" transform="translate(93.265313 367.585096) scale(0.1 -0.1)">
     <use xlink:href="#DejaVuSerif-Bold-48"/>
     <use xlink:href="#DejaVuSerif-Bold-5f" transform="translate(94.482422 0)"/>
     <use xlink:href="#DejaVuSerif-Bold-72" transform="translate(144.482422 0)"/>
     <use xlink:href="#DejaVuSerif-Bold-65" transform="translate(197.167969 0)"/>
     <use xlink:href="#DejaVuSerif-Bold-73" transform="translate(260.791016 0)"/>
    </g>
   </g>
   <g id="text_8">
    <!-- [B,4,4] -->
    <g style="fill: #546e7a" transform="translate(95.426875 388.6575) scale(0.08 -0.08)">
     <use xlink:href="#DejaVuSerif-Italic-5b"/>
     <use xlink:href="#DejaVuSerif-Italic-42" transform="translate(39.013672 0)"/>
     <use xlink:href="#DejaVuSerif-Italic-2c" transform="translate(112.5 0)"/>
     <use xlink:href="#DejaVuSerif-Italic-34" transform="translate(144.287109 0)"/>
     <use xlink:href="#DejaVuSerif-Italic-2c" transform="translate(207.910156 0)"/>
     <use xlink:href="#DejaVuSerif-Italic-34" transform="translate(239.697266 0)"/>
     <use xlink:href="#DejaVuSerif-Italic-5d" transform="translate(303.320312 0)"/>
    </g>
   </g>
   <g id="text_9">
    <!-- H_post -->
    <g style="fill: #263238" transform="translate(147.270312 367.585096) scale(0.1 -0.1)">
     <defs>
      <path id="DejaVuSerif-Bold-6f" d="M 2138 263 
Q 2488 263 2630 563 
Q 2772 863 2772 1663 
Q 2772 2463 2631 2761 
Q 2491 3059 2138 3059 
Q 1784 3059 1640 2757 
Q 1497 2456 1497 1663 
Q 1497 869 1640 566 
Q 1784 263 2138 263 
z
M 2138 -91 
Q 1259 -91 761 376 
Q 263 844 263 1663 
Q 263 2484 761 2948 
Q 1259 3413 2138 3413 
Q 3019 3413 3516 2948 
Q 4013 2484 4013 1663 
Q 4013 844 3514 376 
Q 3016 -91 2138 -91 
z
" transform="scale(0.015625)"/>
     </defs>
     <use xlink:href="#DejaVuSerif-Bold-48"/>
     <use xlink:href="#DejaVuSerif-Bold-5f" transform="translate(94.482422 0)"/>
     <use xlink:href="#DejaVuSerif-Bold-70" transform="translate(144.482422 0)"/>
     <use xlink:href="#DejaVuSerif-Bold-6f" transform="translate(214.404297 0)"/>
     <use xlink:href="#DejaVuSerif-Bold-73" transform="translate(281.103516 0)"/>
     <use xlink:href="#DejaVuSerif-Bold-74" transform="translate(337.402344 0)"/>
    </g>
   </g>
   <g id="text_10">
    <!-- [B,4] -->
    <g style="fill: #546e7a" transform="translate(156.573125 388.6575) scale(0.08 -0.08)">
     <use xlink:href="#DejaVuSerif-Italic-5b"/>
     <use xlink:href="#DejaVuSerif-Italic-42" transform="translate(39.013672 0)"/>
     <use xlink:href="#DejaVuSerif-Italic-2c" transform="translate(112.5 0)"/>
     <use xlink:href="#DejaVuSerif-Italic-34" transform="translate(144.287109 0)"/>
     <use xlink:href="#DejaVuSerif-Italic-5d" transform="translate(207.910156 0)"/>
    </g>
   </g>
   <g id="text_11">
    <!-- Stream Mix -->
    <g style="fill: #263238" transform="translate(293.278125 434.841238) scale(0.1 -0.1)">
     <defs>
      <path id="DejaVuSerif-Bold-53" d="M 494 225 
L 494 1331 
L 891 1331 
Q 981 806 1318 547 
Q 1656 288 2253 288 
Q 2738 288 2991 472 
Q 3244 656 3244 1013 
Q 3244 1294 3072 1450 
Q 2900 1606 2363 1741 
L 1663 1913 
Q 978 2088 700 2398 
Q 422 2709 422 3284 
Q 422 3978 883 4364 
Q 1344 4750 2175 4750 
Q 2584 4750 3026 4681 
Q 3469 4613 3944 4475 
L 3944 3444 
L 3547 3444 
Q 3456 3925 3150 4148 
Q 2844 4372 2278 4372 
Q 1816 4372 1580 4211 
Q 1344 4050 1344 3731 
Q 1344 3441 1506 3289 
Q 1669 3138 2303 2975 
L 3003 2803 
Q 3653 2641 3945 2297 
Q 4238 1953 4238 1350 
Q 4238 644 3750 276 
Q 3263 -91 2316 -91 
Q 1859 -91 1409 -12 
Q 959 66 494 225 
z
" transform="scale(0.015625)"/>
      <path id="DejaVuSerif-Bold-4d" d="M 269 0 
L 269 378 
L 863 378 
L 863 4288 
L 269 4288 
L 269 4666 
L 2194 4666 
L 3525 1672 
L 4863 4666 
L 6784 4666 
L 6784 4288 
L 6188 4288 
L 6188 378 
L 6784 378 
L 6784 0 
L 4384 0 
L 4384 378 
L 4978 378 
L 4978 3938 
L 3531 684 
L 2741 684 
L 1300 3938 
L 1300 378 
L 1894 378 
L 1894 0 
L 269 0 
z
" transform="scale(0.015625)"/>
      <path id="DejaVuSerif-Bold-78" d="M 2247 2119 
L 2834 2944 
L 2425 2944 
L 2425 3322 
L 3719 3322 
L 3719 2944 
L 3278 2944 
L 2431 1759 
L 3419 378 
L 3859 378 
L 3859 0 
L 1747 0 
L 1747 378 
L 2175 378 
L 1550 1253 
L 922 378 
L 1369 378 
L 1369 0 
L 0 0 
L 0 378 
L 475 378 
L 1356 1619 
L 403 2944 
L 31 2944 
L 31 3322 
L 2059 3322 
L 2059 2944 
L 1656 2944 
L 2247 2119 
z
" transform="scale(0.015625)"/>
     </defs>
     <use xlink:href="#DejaVuSerif-Bold-53"/>
     <use xlink:href="#DejaVuSerif-Bold-74" transform="translate(72.216797 0)"/>
     <use xlink:href="#DejaVuSerif-Bold-72" transform="translate(118.408203 0)"/>
     <use xlink:href="#DejaVuSerif-Bold-65" transform="translate(171.09375 0)"/>
     <use xlink:href="#DejaVuSerif-Bold-61" transform="translate(234.716797 0)"/>
     <use xlink:href="#DejaVuSerif-Bold-6d" transform="translate(299.511719 0)"/>
     <use xlink:href="#DejaVuSerif-Bold-20" transform="translate(405.322266 0)"/>
     <use xlink:href="#DejaVuSerif-Bold-4d" transform="translate(440.136719 0)"/>
     <use xlink:href="#DejaVuSerif-Bold-69" transform="translate(550.830078 0)"/>
     <use xlink:href="#DejaVuSerif-Bold-78" transform="translate(588.818359 0)"/>
    </g>
    <!-- Kernel -->
    <g style="fill: #263238" transform="translate(306.935156 446.03905) scale(0.1 -0.1)">
     <use xlink:href="#DejaVuSerif-Bold-4b"/>
     <use xlink:href="#DejaVuSerif-Bold-65" transform="translate(84.664062 0)"/>
     <use xlink:href="#DejaVuSerif-Bold-72" transform="translate(148.287109 0)"/>
     <use xlink:href="#DejaVuSerif-Bold-6e" transform="translate(200.972656 0)"/>
     <use xlink:href="#DejaVuSerif-Bold-65" transform="translate(273.677734 0)"/>
     <use xlink:href="#DejaVuSerif-Bold-6c" transform="translate(337.300781 0)"/>
    </g>
   </g>
   <g id="text_12">
    <!-- branch_input -->
    <g style="fill: #263238" transform="translate(288.539844 556.281851) scale(0.1 -0.1)">
     <defs>
      <path id="DejaVuSerif-Bold-62" d="M 622 378 
L 622 4488 
L 147 4488 
L 147 4863 
L 1728 4863 
L 1728 2900 
Q 1869 3159 2106 3286 
Q 2344 3413 2694 3413 
Q 3403 3413 3811 2945 
Q 4219 2478 4219 1663 
Q 4219 847 3811 378 
Q 3403 -91 2694 -91 
Q 2344 -91 2106 36 
Q 1869 163 1728 422 
L 1728 0 
L 147 0 
L 147 378 
L 622 378 
z
M 1728 1497 
Q 1728 916 1876 656 
Q 2025 397 2356 397 
Q 2697 397 2836 672 
Q 2975 947 2975 1663 
Q 2975 2378 2836 2651 
Q 2697 2925 2356 2925 
Q 2025 2925 1876 2665 
Q 1728 2406 1728 1825 
L 1728 1497 
z
" transform="scale(0.015625)"/>
     </defs>
     <use xlink:href="#DejaVuSerif-Bold-62"/>
     <use xlink:href="#DejaVuSerif-Bold-72" transform="translate(69.921875 0)"/>
     <use xlink:href="#DejaVuSerif-Bold-61" transform="translate(122.607422 0)"/>
     <use xlink:href="#DejaVuSerif-Bold-6e" transform="translate(187.402344 0)"/>
     <use xlink:href="#DejaVuSerif-Bold-63" transform="translate(260.107422 0)"/>
     <use xlink:href="#DejaVuSerif-Bold-68" transform="translate(320.996094 0)"/>
     <use xlink:href="#DejaVuSerif-Bold-5f" transform="translate(393.701172 0)"/>
     <use xlink:href="#DejaVuSerif-Bold-69" transform="translate(443.701172 0)"/>
     <use xlink:href="#DejaVuSerif-Bold-6e" transform="translate(481.689453 0)"/>
     <use xlink:href="#DejaVuSerif-Bold-70" transform="translate(554.394531 0)"/>
     <use xlink:href="#DejaVuSerif-Bold-75" transform="translate(624.316406 0)"/>
     <use xlink:href="#DejaVuSerif-Bold-74" transform="translate(697.021484 0)"/>
    </g>
   </g>
   <g id="text_13">
    <!-- [B, S, dim] -->
    <g style="fill: #546e7a" transform="translate(304.32625 577.215192) scale(0.08 -0.08)">
     <defs>
      <path id="DejaVuSerif-Italic-53" d="M 184 225 
L 391 1288 
L 750 1284 
Q 663 753 905 498 
Q 1147 244 1744 244 
Q 2300 244 2636 464 
Q 2972 684 3053 1106 
Q 3119 1444 2976 1625 
Q 2834 1806 2300 1978 
L 1722 2163 
Q 1091 2366 877 2669 
Q 663 2972 766 3500 
Q 881 4094 1367 4422 
Q 1853 4750 2616 4750 
Q 2941 4750 3314 4679 
Q 3688 4609 4097 4475 
L 3906 3481 
L 3553 3481 
Q 3594 3975 3361 4195 
Q 3128 4416 2563 4416 
Q 2069 4416 1772 4214 
Q 1475 4013 1400 3628 
Q 1334 3294 1490 3103 
Q 1647 2913 2241 2725 
L 2784 2553 
Q 3381 2363 3593 2067 
Q 3806 1772 3709 1275 
Q 3578 597 3076 253 
Q 2575 -91 1716 -91 
Q 1331 -91 948 -12 
Q 566 66 184 225 
z
" transform="scale(0.015625)"/>
     </defs>
     <use xlink:href="#DejaVuSerif-Italic-5b"/>
     <use xlink:href="#DejaVuSerif-Italic-42" transform="translate(39.013672 0)"/>
     <use xlink:href="#DejaVuSerif-Italic-2c" transform="translate(112.5 0)"/>
     <use xlink:href="#DejaVuSerif-Italic-20" transform="translate(144.287109 0)"/>
     <use xlink:href="#DejaVuSerif-Italic-53" transform="translate(176.074219 0)"/>
     <use xlink:href="#DejaVuSerif-Italic-2c" transform="translate(240.955078 0)"/>
     <use xlink:href="#DejaVuSerif-Italic-20" transform="translate(272.742188 0)"/>
     <use xlink:href="#DejaVuSerif-Italic-64" transform="translate(304.529297 0)"/>
     <use xlink:href="#DejaVuSerif-Italic-69" transform="translate(368.542969 0)"/>
     <use xlink:href="#DejaVuSerif-Italic-6d" transform="translate(400.525391 0)"/>
     <use xlink:href="#DejaVuSerif-Italic-5d" transform="translate(495.349609 0)"/>
    </g>
   </g>
   <g id="text_14">
    <!-- H_residual -->
    <g style="fill: #263238" transform="translate(509.070781 556.281851) scale(0.1 -0.1)">
     <use xlink:href="#DejaVuSerif-Bold-48"/>
     <use xlink:href="#DejaVuSerif-Bold-5f" transform="translate(94.482422 0)"/>
     <use xlink:href="#DejaVuSerif-Bold-72" transform="translate(144.482422 0)"/>
     <use xlink:href="#DejaVuSerif-Bold-65" transform="translate(197.167969 0)"/>
     <use xlink:href="#DejaVuSerif-Bold-73" transform="translate(260.791016 0)"/>
     <use xlink:href="#DejaVuSerif-Bold-69" transform="translate(317.089844 0)"/>
     <use xlink:href="#DejaVuSerif-Bold-64" transform="translate(355.078125 0)"/>
     <use xlink:href="#DejaVuSerif-Bold-75" transform="translate(425 0)"/>
     <use xlink:href="#DejaVuSerif-Bold-61" transform="translate(497.705078 0)"/>
     <use xlink:href="#DejaVuSerif-Bold-6c" transform="translate(562.5 0)"/>
    </g>
   </g>
   <g id="text_15">
    <!-- [B,S,4,dim] -->
    <g style="fill: #546e7a" transform="translate(516.4475 577.215192) scale(0.08 -0.08)">
     <use xlink:href="#DejaVuSerif-Italic-5b"/>
     <use xlink:href="#DejaVuSerif-Italic-42" transform="translate(39.013672 0)"/>
     <use xlink:href="#DejaVuSerif-Italic-2c" transform="translate(112.5 0)"/>
     <use xlink:href="#DejaVuSerif-Italic-53" transform="translate(144.287109 0)"/>
     <use xlink:href="#DejaVuSerif-Italic-2c" transform="translate(209.167969 0)"/>
     <use xlink:href="#DejaVuSerif-Italic-34" transform="translate(240.955078 0)"/>
     <use xlink:href="#DejaVuSerif-Italic-2c" transform="translate(304.578125 0)"/>
     <use xlink:href="#DejaVuSerif-Italic-64" transform="translate(336.365234 0)"/>
     <use xlink:href="#DejaVuSerif-Italic-69" transform="translate(400.378906 0)"/>
     <use xlink:href="#DejaVuSerif-Italic-6d" transform="translate(432.361328 0)"/>
     <use xlink:href="#DejaVuSerif-Italic-5d" transform="translate(527.185547 0)"/>
    </g>
   </g>
   <g id="text_16">
    <!-- Your Layer -->
    <g style="fill: #263238" transform="translate(295.746094 666.567187) scale(0.1 -0.1)">
     <defs>
      <path id="DejaVuSerif-Bold-59" d="M 1100 0 
L 1100 378 
L 1728 378 
L 1728 1931 
L 341 4288 
L -56 4288 
L -56 4666 
L 2181 4666 
L 2181 4288 
L 1663 4288 
L 2713 2509 
L 3756 4288 
L 3291 4288 
L 3291 4666 
L 4628 4666 
L 4628 4288 
L 4231 4288 
L 2938 2094 
L 2938 378 
L 3566 378 
L 3566 0 
L 1100 0 
z
" transform="scale(0.015625)"/>
      <path id="DejaVuSerif-Bold-4c" d="M 300 0 
L 300 378 
L 897 378 
L 897 4288 
L 300 4288 
L 300 4666 
L 2700 4666 
L 2700 4288 
L 2100 4288 
L 2100 428 
L 3938 428 
L 3938 1166 
L 4359 1166 
L 4359 0 
L 300 0 
z
" transform="scale(0.015625)"/>
     </defs>
     <use xlink:href="#DejaVuSerif-Bold-59"/>
     <use xlink:href="#DejaVuSerif-Bold-6f" transform="translate(62.636719 0)"/>
     <use xlink:href="#DejaVuSerif-Bold-75" transform="translate(129.335938 0)"/>
     <use xlink:href="#DejaVuSerif-Bold-72" transform="translate(202.041016 0)"/>
     <use xlink:href="#DejaVuSerif-Bold-20" transform="translate(254.726562 0)"/>
     <use xlink:href="#DejaVuSerif-Bold-4c" transform="translate(289.541016 0)"/>
     <use xlink:href="#DejaVuSerif-Bold-61" transform="translate(359.853516 0)"/>
     <use xlink:href="#DejaVuSerif-Bold-79" transform="translate(424.648438 0)"/>
     <use xlink:href="#DejaVuSerif-Bold-65" transform="translate(482.753906 0)"/>
     <use xlink:href="#DejaVuSerif-Bold-72" transform="translate(546.376953 0)"/>
    </g>
   </g>
   <g id="text_17">
    <!-- Attention / MLP -->
    <g style="fill: #546e7a" transform="translate(293.518125 687.503654) scale(0.08 -0.08)">
     <defs>
      <path id="DejaVuSerif-Italic-41" d="M 1159 1691 
L 2872 1691 
L 2447 3909 
L 1159 1691 
z
M -488 0 
L -425 331 
L -16 331 
L 2491 4666 
L 3016 4666 
L 3841 331 
L 4297 331 
L 4234 0 
L 2538 0 
L 2600 331 
L 3119 331 
L 2928 1356 
L 966 1356 
L 375 331 
L 888 331 
L 825 0 
L -488 0 
z
" transform="scale(0.015625)"/>
      <path id="DejaVuSerif-Italic-6e" d="M 450 0 
L 1031 2988 
L 481 2988 
L 544 3322 
L 1669 3322 
L 1556 2731 
Q 1781 3069 2068 3241 
Q 2356 3413 2694 3413 
Q 3244 3413 3444 3097 
Q 3563 2906 3563 2588 
Q 3563 2378 3509 2113 
L 3163 331 
L 3675 331 
L 3613 0 
L 2522 0 
L 2897 1931 
Q 2959 2253 2959 2469 
Q 2959 2659 2909 2769 
Q 2803 2994 2425 2994 
Q 2025 2994 1759 2701 
Q 1494 2409 1384 1850 
L 1025 0 
L 450 0 
z
" transform="scale(0.015625)"/>
      <path id="DejaVuSerif-Italic-6f" d="M 1644 219 
Q 2106 219 2414 584 
Q 2722 950 2859 1663 
Q 2922 1988 2922 2241 
Q 2922 2541 2834 2738 
Q 2669 3103 2206 3103 
Q 1744 3103 1436 2739 
Q 1128 2375 991 1663 
Q 928 1338 928 1088 
Q 928 784 1019 584 
Q 1184 219 1644 219 
z
M 1584 -91 
Q 859 -91 513 388 
Q 272 722 272 1203 
Q 272 1419 319 1663 
Q 472 2456 1005 2934 
Q 1538 3413 2266 3413 
Q 2994 3413 3341 2934 
Q 3578 2603 3578 2122 
Q 3578 1906 3531 1663 
Q 3378 869 2845 389 
Q 2313 -91 1584 -91 
z
" transform="scale(0.015625)"/>
      <path id="DejaVuSerif-Italic-2f" d="M 2172 4666 
L 2672 4666 
L -9 -594 
L -509 -594 
L 2172 4666 
z
" transform="scale(0.015625)"/>
      <path id="DejaVuSerif-Italic-4d" d="M -97 0 
L -34 331 
L 559 331 
L 1338 4331 
L 709 4331 
L 775 4666 
L 2134 4666 
L 3125 1344 
L 5409 4666 
L 6684 4666 
L 6619 4331 
L 5997 4331 
L 5222 331 
L 5816 331 
L 5753 0 
L 3928 0 
L 3991 331 
L 4584 331 
L 5288 3938 
L 3053 684 
L 2613 684 
L 1647 3938 
L 944 331 
L 1538 331 
L 1475 0 
L -97 0 
z
" transform="scale(0.015625)"/>
      <path id="DejaVuSerif-Italic-4c" d="M -97 0 
L -34 331 
L 559 331 
L 1338 4331 
L 744 4331 
L 809 4666 
L 2631 4666 
L 2566 4331 
L 1972 4331 
L 1206 384 
L 3338 384 
L 3488 1166 
L 3872 1166 
L 3647 0 
L -97 0 
z
" transform="scale(0.015625)"/>
      <path id="DejaVuSerif-Italic-50" d="M 1594 2375 
L 2419 2375 
Q 2884 2375 3176 2626 
Q 3469 2878 3559 3353 
Q 3653 3831 3458 4081 
Q 3263 4331 2797 4331 
L 1972 4331 
L 1594 2375 
z
M -97 0 
L -34 331 
L 559 331 
L 1338 4331 
L 744 4331 
L 809 4666 
L 3016 4666 
Q 3716 4666 4056 4311 
Q 4397 3956 4278 3353 
Q 4163 2753 3684 2397 
Q 3206 2041 2506 2041 
L 1528 2041 
L 1194 331 
L 1916 331 
L 1853 0 
L -97 0 
z
" transform="scale(0.015625)"/>
     </defs>
     <use xlink:href="#DejaVuSerif-Italic-41"/>
     <use xlink:href="#DejaVuSerif-Italic-74" transform="translate(70.466797 0)"/>
     <use xlink:href="#DejaVuSerif-Italic-74" transform="translate(110.652344 0)"/>
     <use xlink:href="#DejaVuSerif-Italic-65" transform="translate(150.837891 0)"/>
     <use xlink:href="#DejaVuSerif-Italic-6e" transform="translate(210.017578 0)"/>
     <use xlink:href="#DejaVuSerif-Italic-74" transform="translate(274.421875 0)"/>
     <use xlink:href="#DejaVuSerif-Italic-69" transform="translate(314.607422 0)"/>
     <use xlink:href="#DejaVuSerif-Italic-6f" transform="translate(346.589844 0)"/>
     <use xlink:href="#DejaVuSerif-Italic-6e" transform="translate(406.794922 0)"/>
     <use xlink:href="#DejaVuSerif-Italic-20" transform="translate(471.199219 0)"/>
     <use xlink:href="#DejaVuSerif-Italic-2f" transform="translate(502.986328 0)"/>
     <use xlink:href="#DejaVuSerif-Italic-20" transform="translate(536.677734 0)"/>
     <use xlink:href="#DejaVuSerif-Italic-4d" transform="translate(568.464844 0)"/>
     <use xlink:href="#DejaVuSerif-Italic-4c" transform="translate(670.857422 0)"/>
     <use xlink:href="#DejaVuSerif-Italic-50" transform="translate(737.263672 0)"/>
    </g>
   </g>
   <g id="text_18">
    <!-- Add Residual -->
    <g style="fill: #263238" transform="translate(288.766406 783.495084) scale(0.1 -0.1)">
     <defs>
      <path id="DejaVuSerif-Bold-52" d="M 3397 2278 
Q 3675 2238 3865 2094 
Q 4056 1950 4197 1678 
L 4878 378 
L 5356 378 
L 5356 0 
L 3822 0 
L 3078 1409 
Q 2863 1847 2711 1967 
Q 2559 2088 2291 2088 
L 2100 2088 
L 2100 378 
L 2700 378 
L 2700 0 
L 300 0 
L 300 378 
L 897 378 
L 897 4288 
L 300 4288 
L 300 4666 
L 2963 4666 
Q 3775 4666 4217 4339 
Q 4659 4013 4659 3413 
Q 4659 2925 4345 2642 
Q 4031 2359 3397 2278 
z
M 2100 2463 
L 2509 2463 
Q 2947 2463 3183 2700 
Q 3419 2938 3419 3378 
Q 3419 3819 3183 4053 
Q 2947 4288 2509 4288 
L 2100 4288 
L 2100 2463 
z
" transform="scale(0.015625)"/>
     </defs>
     <use xlink:href="#DejaVuSerif-Bold-41"/>
     <use xlink:href="#DejaVuSerif-Bold-64" transform="translate(77.587891 0)"/>
     <use xlink:href="#DejaVuSerif-Bold-64" transform="translate(147.509766 0)"/>
     <use xlink:href="#DejaVuSerif-Bold-20" transform="translate(217.431641 0)"/>
     <use xlink:href="#DejaVuSerif-Bold-52" transform="translate(252.246094 0)"/>
     <use xlink:href="#DejaVuSerif-Bold-65" transform="translate(335.351562 0)"/>
     <use xlink:href="#DejaVuSerif-Bold-73" transform="translate(398.974609 0)"/>
     <use xlink:href="#DejaVuSerif-Bold-69" transform="translate(455.273438 0)"/>
     <use xlink:href="#DejaVuSerif-Bold-64" transform="translate(493.261719 0)"/>
     <use xlink:href="#DejaVuSerif-Bold-75" transform="translate(563.183594 0)"/>
     <use xlink:href="#DejaVuSerif-Bold-61" transform="translate(635.888672 0)"/>
     <use xlink:href="#DejaVuSerif-Bold-6c" transform="translate(700.683594 0)"/>
    </g>
    <!-- Kernel -->
    <g style="fill: #263238" transform="translate(306.935156 794.692897) scale(0.1 -0.1)">
     <use xlink:href="#DejaVuSerif-Bold-4b"/>
     <use xlink:href="#DejaVuSerif-Bold-65" transform="translate(84.664062 0)"/>
     <use xlink:href="#DejaVuSerif-Bold-72" transform="translate(148.287109 0)"/>
     <use xlink:href="#DejaVuSerif-Bold-6e" transform="translate(200.972656 0)"/>
     <use xlink:href="#DejaVuSerif-Bold-65" transform="translate(273.677734 0)"/>
     <use xlink:href="#DejaVuSerif-Bold-6c" transform="translate(337.300781 0)"/>
    </g>
   </g>
   <g id="text_19">
    <!-- H_new -->
    <g style="fill: #263238" transform="translate(307.355469 887.008173) scale(0.1 -0.1)">
     <defs>
      <path id="DejaVuSerif-Bold-77" d="M 3450 3322 
L 4206 1106 
L 4831 2944 
L 4397 2944 
L 4397 3322 
L 5638 3322 
L 5638 2944 
L 5247 2944 
L 4244 0 
L 3481 0 
L 2778 2081 
L 2069 0 
L 1313 0 
L 306 2944 
L -56 2944 
L -56 3322 
L 1825 3322 
L 1825 2944 
L 1434 2944 
L 2047 1147 
L 2791 3322 
L 3450 3322 
z
" transform="scale(0.015625)"/>
     </defs>
     <use xlink:href="#DejaVuSerif-Bold-48"/>
     <use xlink:href="#DejaVuSerif-Bold-5f" transform="translate(94.482422 0)"/>
     <use xlink:href="#DejaVuSerif-Bold-6e" transform="translate(144.482422 0)"/>
     <use xlink:href="#DejaVuSerif-Bold-65" transform="translate(217.1875 0)"/>
     <use xlink:href="#DejaVuSerif-Bold-77" transform="translate(280.810547 0)"/>
    </g>
   </g>
   <g id="text_20">
    <!-- [batch, seq, 4, dim] -->
    <g style="fill: #546e7a" transform="translate(286.423125 908.080577) scale(0.08 -0.08)">
     <use xlink:href="#DejaVuSerif-Italic-5b"/>
     <use xlink:href="#DejaVuSerif-Italic-62" transform="translate(39.013672 0)"/>
     <use xlink:href="#DejaVuSerif-Italic-61" transform="translate(103.027344 0)"/>
     <use xlink:href="#DejaVuSerif-Italic-74" transform="translate(162.646484 0)"/>
     <use xlink:href="#DejaVuSerif-Italic-63" transform="translate(202.832031 0)"/>
     <use xlink:href="#DejaVuSerif-Italic-68" transform="translate(258.837891 0)"/>
     <use xlink:href="#DejaVuSerif-Italic-2c" transform="translate(323.242188 0)"/>
     <use xlink:href="#DejaVuSerif-Italic-20" transform="translate(355.029297 0)"/>
     <use xlink:href="#DejaVuSerif-Italic-73" transform="translate(386.816406 0)"/>
     <use xlink:href="#DejaVuSerif-Italic-65" transform="translate(438.134766 0)"/>
     <use xlink:href="#DejaVuSerif-Italic-71" transform="translate(497.314453 0)"/>
     <use xlink:href="#DejaVuSerif-Italic-2c" transform="translate(561.328125 0)"/>
     <use xlink:href="#DejaVuSerif-Italic-20" transform="translate(593.115234 0)"/>
     <use xlink:href="#DejaVuSerif-Italic-34" transform="translate(624.902344 0)"/>
     <use xlink:href="#DejaVuSerif-Italic-2c" transform="translate(688.525391 0)"/>
     <use xlink:href="#DejaVuSerif-Italic-20" transform="translate(720.3125 0)"/>
     <use xlink:href="#DejaVuSerif-Italic-64" transform="translate(752.099609 0)"/>
     <use xlink:href="#DejaVuSerif-Italic-69" transform="translate(816.113281 0)"/>
     <use xlink:href="#DejaVuSerif-Italic-6d" transform="translate(848.095703 0)"/>
     <use xlink:href="#DejaVuSerif-Italic-5d" transform="translate(942.919922 0)"/>
    </g>
   </g>
   <g id="patch_16">
    <path d="M 109.12 165.736189 
Q 109.12 177.968272 109.12 188.523303 
" style="fill: none; stroke: #37474f; stroke-width: 1.5; stroke-linecap: round"/>
    <path d="M 111.52 183.723303 
L 109.12 188.523303 
L 106.72 183.723303 
" style="fill: none; stroke: #37474f; stroke-width: 1.5; stroke-linecap: round"/>
   </g>
   <g id="patch_17">
    <path d="M 325.7 137.273456 
Q 325.7 266.911136 325.7 394.871764 
" style="fill: none; stroke: #37474f; stroke-width: 1.5; stroke-linecap: round"/>
    <path d="M 328.1 390.071764 
L 325.7 394.871764 
L 323.3 390.071764 
" style="fill: none; stroke: #37474f; stroke-width: 1.5; stroke-linecap: round"/>
   </g>
   <g id="patch_18">
    <path d="M 51.79 322.274651 
Q 51.79 334.506733 51.79 345.061765 
" style="fill: none; stroke: #37474f; stroke-width: 1.5; stroke-linecap: round"/>
    <path d="M 54.19 340.261765 
L 51.79 345.061765 
L 49.39 340.261765 
" style="fill: none; stroke: #37474f; stroke-width: 1.5; stroke-linecap: round"/>
   </g>
   <g id="patch_19">
    <path d="M 109.12 279.586686 
Q 109.12 313.164381 109.12 345.065024 
" style="fill: none; stroke: #37474f; stroke-width: 1.5; stroke-linecap: round"/>
    <path d="M 111.52 340.265024 
L 109.12 345.065024 
L 106.72 340.265024 
" style="fill: none; stroke: #37474f; stroke-width: 1.5; stroke-linecap: round"/>
   </g>
   <g id="patch_20">
    <path d="M 166.45 322.274651 
Q 166.45 334.506733 166.45 345.061765 
" style="fill: none; stroke: #37474f; stroke-width: 1.5; stroke-linecap: round"/>
    <path d="M 168.85 340.261765 
L 166.45 345.061765 
L 164.05 340.261765 
" style="fill: none; stroke: #37474f; stroke-width: 1.5; stroke-linecap: round"/>
   </g>
   <g id="patch_21">
    <path d="M 53.790345 437.680769 
Q 140.970453 437.680769 226.47351 437.680769 
" style="fill: none; stroke: #37474f; stroke-width: 1.5; stroke-linecap: round"/>
    <path d="M 221.67351 435.280769 
L 226.47351 437.680769 
L 221.67351 440.080769 
" style="fill: none; stroke: #37474f; stroke-width: 1.5; stroke-linecap: round"/>
   </g>
   <g id="patch_22">
    <path d="M 111.118206 455.469231 
Q 169.633332 455.469231 226.471407 455.469231 
" style="fill: none; stroke: #37474f; stroke-width: 1.5; stroke-linecap: round"/>
    <path d="M 221.671407 453.069231 
L 226.471407 455.469231 
L 221.671407 457.869231 
" style="fill: none; stroke: #37474f; stroke-width: 1.5; stroke-linecap: round"/>
   </g>
   <g id="patch_23">
    <path d="M 168.452289 786.334615 
Q 198.301343 786.334615 226.473347 786.334615 
" style="fill: none; stroke: #37474f; stroke-width: 1.5; stroke-linecap: round"/>
    <path d="M 221.673347 783.934615 
L 226.473347 786.334615 
L 221.673347 788.734615 
" style="fill: none; stroke: #37474f; stroke-width: 1.5; stroke-linecap: round"/>
   </g>
   <g id="patch_24">
    <path d="M 325.7 478.813112 
Q 325.7 505.275102 325.7 530.060041 
" style="fill: none; stroke: #37474f; stroke-width: 1.5; stroke-linecap: round"/>
    <path d="M 328.1 525.260041 
L 325.7 530.060041 
L 323.3 525.260041 
" style="fill: none; stroke: #37474f; stroke-width: 1.5; stroke-linecap: round"/>
   </g>
   <g id="patch_25">
    <path d="M 539.095 439.682948 
Q 539.095 485.710389 539.095 530.060779 
" style="fill: none; stroke: #37474f; stroke-width: 1.5; stroke-linecap: round"/>
    <path d="M 541.495 525.260779 
L 539.095 530.060779 
L 536.695 525.260779 
" style="fill: none; stroke: #37474f; stroke-width: 1.5; stroke-linecap: round"/>
   </g>
   <g id="patch_26">
    <path d="M 325.7 592.658832 
Q 325.7 615.564577 325.7 636.793271 
" style="fill: none; stroke: #37474f; stroke-width: 1.5; stroke-linecap: round"/>
    <path d="M 328.1 631.993271 
L 325.7 636.793271 
L 323.3 631.993271 
" style="fill: none; stroke: #37474f; stroke-width: 1.5; stroke-linecap: round"/>
   </g>
   <g id="patch_27">
    <path d="M 325.7 706.504986 
Q 325.7 729.410731 325.7 750.639425 
" style="fill: none; stroke: #37474f; stroke-width: 1.5; stroke-linecap: round"/>
    <path d="M 328.1 745.839425 
L 325.7 750.639425 
L 323.3 745.839425 
" style="fill: none; stroke: #37474f; stroke-width: 1.5; stroke-linecap: round"/>
   </g>
   <g id="patch_28">
    <path d="M 537.091836 786.334615 
Q 480.169616 786.334615 424.924446 786.334615 
" style="fill: none; stroke: #37474f; stroke-width: 1.5; stroke-linecap: round"/>
    <path d="M 429.724446 788.734615 
L 424.924446 786.334615 
L 429.724446 783.934615 
" style="fill: none; stroke: #37474f; stroke-width: 1.5; stroke-linecap: round"/>
   </g>
   <g id="patch_29">
    <path d="M 325.7 820.352442 
Q 325.7 839.698348 325.7 857.367203 
" style="fill: none; stroke: #37474f; stroke-width: 1.5; stroke-linecap: round"/>
    <path d="M 328.1 852.567203 
L 325.7 857.367203 
L 323.3 852.567203 
" style="fill: none; stroke: #37474f; stroke-width: 1.5; stroke-linecap: round"/>
   </g>
   <g id="text_21">
    <!-- Kernel -->
    <g style="fill: #424242" transform="translate(484.95 153.849808) scale(0.08 -0.08)">
     <defs>
      <path id="DejaVuSerif-4b" d="M 353 0 
L 353 331 
L 947 331 
L 947 4331 
L 353 4331 
L 353 4666 
L 2175 4666 
L 2175 4331 
L 1581 4331 
L 1581 2566 
L 3591 4331 
L 3084 4331 
L 3084 4666 
L 4634 4666 
L 4634 4331 
L 4109 4331 
L 2106 2572 
L 4347 331 
L 4878 331 
L 4878 0 
L 3794 0 
L 1581 2216 
L 1581 331 
L 2175 331 
L 2175 0 
L 353 0 
z
" transform="scale(0.015625)"/>
      <path id="DejaVuSerif-65" d="M 3469 1600 
L 991 1600 
L 991 1575 
Q 991 903 1244 561 
Q 1497 219 1991 219 
Q 2369 219 2611 417 
Q 2853 616 2950 1006 
L 3413 1006 
Q 3275 459 2904 184 
Q 2534 -91 1931 -91 
Q 1203 -91 761 389 
Q 319 869 319 1663 
Q 319 2450 753 2931 
Q 1188 3413 1894 3413 
Q 2647 3413 3050 2948 
Q 3453 2484 3469 1600 
z
M 2791 1931 
Q 2772 2513 2545 2808 
Q 2319 3103 1894 3103 
Q 1497 3103 1269 2806 
Q 1041 2509 991 1931 
L 2791 1931 
z
" transform="scale(0.015625)"/>
      <path id="DejaVuSerif-72" d="M 3059 3328 
L 3059 2497 
L 2728 2497 
Q 2713 2744 2591 2866 
Q 2469 2988 2234 2988 
Q 1809 2988 1582 2694 
Q 1356 2400 1356 1850 
L 1356 331 
L 2022 331 
L 2022 0 
L 263 0 
L 263 331 
L 781 331 
L 781 2994 
L 231 2994 
L 231 3322 
L 1356 3322 
L 1356 2731 
Q 1525 3078 1790 3245 
Q 2056 3413 2438 3413 
Q 2578 3413 2733 3391 
Q 2888 3369 3059 3328 
z
" transform="scale(0.015625)"/>
      <path id="DejaVuSerif-6e" d="M 263 0 
L 263 331 
L 781 331 
L 781 2988 
L 231 2988 
L 231 3322 
L 1356 3322 
L 1356 2731 
Q 1516 3069 1770 3241 
Q 2025 3413 2363 3413 
Q 2913 3413 3172 3097 
Q 3431 2781 3431 2113 
L 3431 331 
L 3944 331 
L 3944 0 
L 2356 0 
L 2356 331 
L 2853 331 
L 2853 1931 
Q 2853 2541 2703 2767 
Q 2553 2994 2175 2994 
Q 1775 2994 1565 2701 
Q 1356 2409 1356 1850 
L 1356 331 
L 1856 331 
L 1856 0 
L 263 0 
z
" transform="scale(0.015625)"/>
      <path id="DejaVuSerif-6c" d="M 1313 331 
L 1856 331 
L 1856 0 
L 184 0 
L 184 331 
L 738 331 
L 738 4531 
L 184 4531 
L 184 4863 
L 1313 4863 
L 1313 331 
z
" transform="scale(0.015625)"/>
     </defs>
     <use xlink:href="#DejaVuSerif-4b"/>
     <use xlink:href="#DejaVuSerif-65" transform="translate(72.082031 0)"/>
     <use xlink:href="#DejaVuSerif-72" transform="translate(131.261719 0)"/>
     <use xlink:href="#DejaVuSerif-6e" transform="translate(179.064453 0)"/>
     <use xlink:href="#DejaVuSerif-65" transform="translate(243.46875 0)"/>
     <use xlink:href="#DejaVuSerif-6c" transform="translate(302.648438 0)"/>
    </g>
   </g>
   <g id="text_22">
    <!-- Tensor -->
    <g style="fill: #424242" transform="translate(484.95 192.984423) scale(0.08 -0.08)">
     <defs>
      <path id="DejaVuSerif-54" d="M 1222 0 
L 1222 331 
L 1819 331 
L 1819 4294 
L 447 4294 
L 447 3566 
L 63 3566 
L 63 4666 
L 4206 4666 
L 4206 3566 
L 3822 3566 
L 3822 4294 
L 2450 4294 
L 2450 331 
L 3047 331 
L 3047 0 
L 1222 0 
z
" transform="scale(0.015625)"/>
      <path id="DejaVuSerif-73" d="M 359 184 
L 359 959 
L 691 959 
Q 703 588 923 403 
Q 1144 219 1575 219 
Q 1963 219 2166 364 
Q 2369 509 2369 788 
Q 2369 1006 2220 1140 
Q 2072 1275 1594 1428 
L 1178 1569 
Q 750 1706 558 1912 
Q 366 2119 366 2438 
Q 366 2894 700 3153 
Q 1034 3413 1625 3413 
Q 1888 3413 2178 3344 
Q 2469 3275 2778 3144 
L 2778 2419 
L 2447 2419 
Q 2434 2741 2221 2922 
Q 2009 3103 1644 3103 
Q 1281 3103 1095 2975 
Q 909 2847 909 2591 
Q 909 2381 1050 2254 
Q 1191 2128 1613 1997 
L 2069 1856 
Q 2541 1709 2748 1489 
Q 2956 1269 2956 922 
Q 2956 450 2595 179 
Q 2234 -91 1600 -91 
Q 1278 -91 972 -22 
Q 666 47 359 184 
z
" transform="scale(0.015625)"/>
      <path id="DejaVuSerif-6f" d="M 1925 219 
Q 2388 219 2623 584 
Q 2859 950 2859 1663 
Q 2859 2375 2623 2739 
Q 2388 3103 1925 3103 
Q 1463 3103 1227 2739 
Q 991 2375 991 1663 
Q 991 950 1228 584 
Q 1466 219 1925 219 
z
M 1925 -91 
Q 1200 -91 759 389 
Q 319 869 319 1663 
Q 319 2456 758 2934 
Q 1197 3413 1925 3413 
Q 2653 3413 3092 2934 
Q 3531 2456 3531 1663 
Q 3531 869 3092 389 
Q 2653 -91 1925 -91 
z
" transform="scale(0.015625)"/>
     </defs>
     <use xlink:href="#DejaVuSerif-54"/>
     <use xlink:href="#DejaVuSerif-65" transform="translate(58.949219 0)"/>
     <use xlink:href="#DejaVuSerif-6e" transform="translate(118.128906 0)"/>
     <use xlink:href="#DejaVuSerif-73" transform="translate(182.533203 0)"/>
     <use xlink:href="#DejaVuSerif-6f" transform="translate(233.851562 0)"/>
     <use xlink:href="#DejaVuSerif-72" transform="translate(294.056641 0)"/>
    </g>
   </g>
   <g id="text_23">
    <!-- Layer -->
    <g style="fill: #424242" transform="translate(484.95 232.005288) scale(0.08 -0.08)">
     <defs>
      <path id="DejaVuSerif-4c" d="M 353 0 
L 353 331 
L 947 331 
L 947 4331 
L 353 4331 
L 353 4666 
L 2175 4666 
L 2175 4331 
L 1581 4331 
L 1581 384 
L 3713 384 
L 3713 1166 
L 4097 1166 
L 4097 0 
L 353 0 
z
" transform="scale(0.015625)"/>
      <path id="DejaVuSerif-61" d="M 2547 1044 
L 2547 1747 
L 1806 1747 
Q 1378 1747 1168 1562 
Q 959 1378 959 997 
Q 959 650 1171 447 
Q 1384 244 1747 244 
Q 2106 244 2326 466 
Q 2547 688 2547 1044 
z
M 3122 2075 
L 3122 331 
L 3634 331 
L 3634 0 
L 2547 0 
L 2547 359 
Q 2356 128 2106 18 
Q 1856 -91 1522 -91 
Q 969 -91 644 203 
Q 319 497 319 997 
Q 319 1513 691 1797 
Q 1063 2081 1741 2081 
L 2547 2081 
L 2547 2309 
Q 2547 2688 2317 2895 
Q 2088 3103 1672 3103 
Q 1328 3103 1125 2947 
Q 922 2791 872 2484 
L 575 2484 
L 575 3156 
Q 875 3284 1158 3348 
Q 1441 3413 1709 3413 
Q 2400 3413 2761 3070 
Q 3122 2728 3122 2075 
z
" transform="scale(0.015625)"/>
      <path id="DejaVuSerif-79" d="M 1381 -609 
L 1600 -56 
L 359 2988 
L -19 2988 
L -19 3322 
L 1509 3322 
L 1509 2988 
L 978 2988 
L 1913 703 
L 2847 2988 
L 2350 2988 
L 2350 3322 
L 3597 3322 
L 3597 2988 
L 3225 2988 
L 1703 -750 
Q 1547 -1138 1356 -1280 
Q 1166 -1422 819 -1422 
Q 672 -1422 517 -1397 
Q 363 -1372 206 -1325 
L 206 -691 
L 500 -691 
Q 519 -903 608 -995 
Q 697 -1088 884 -1088 
Q 1056 -1088 1161 -992 
Q 1266 -897 1381 -609 
z
" transform="scale(0.015625)"/>
     </defs>
     <use xlink:href="#DejaVuSerif-4c"/>
     <use xlink:href="#DejaVuSerif-61" transform="translate(66.40625 0)"/>
     <use xlink:href="#DejaVuSerif-79" transform="translate(126.025391 0)"/>
     <use xlink:href="#DejaVuSerif-65" transform="translate(182.519531 0)"/>
     <use xlink:href="#DejaVuSerif-72" transform="translate(241.699219 0)"/>
    </g>
   </g>
  </g>
 </g>
 <defs>
  <clipPath id="p67079c3c24">
   <rect x="7.2" y="7.2" width="637" height="925"/>
  </clipPath>
 </defs>
</svg>
