<?xml version="1.0" encoding="utf-8" standalone="no"?>
<!DOCTYPE svg PUBLIC "-//W3C//DTD SVG 1.1//EN"
  "http://www.w3.org/Graphics/SVG/1.1/DTD/svg11.dtd">
<svg xmlns:xlink="http://www.w3.org/1999/xlink" width="998.64pt" height="566.64pt" viewBox="0 0 998.64 566.64" xmlns="http://www.w3.org/2000/svg" version="1.1">
 <metadata>
  <rdf:RDF xmlns:dc="http://purl.org/dc/elements/1.1/" xmlns:cc="http://creativecommons.org/ns#" xmlns:rdf="http://www.w3.org/1999/02/22-rdf-syntax-ns#">
   <cc:Work>
    <dc:type rdf:resource="http://purl.org/dc/dcmitype/StillImage"/>
    <dc:date>2026-01-20T17:49:50.847099</dc:date>
    <dc:format>image/svg+xml</dc:format>
    <dc:creator>
     <cc:Agent>
      <dc:title>Matplotlib v3.10.8, https://matplotlib.org/</dc:title>
     </cc:Agent>
    </dc:creator>
   </cc:Work>
  </rdf:RDF>
 </metadata>
 <defs>
  <style type="text/css">*{stroke-linejoin: round; stroke-linecap: butt}</style>
 </defs>
 <g id="figure_1">
  <g id="patch_1">
   <path d="M 0 566.64 
L 998.64 566.64 
L 998.64 0 
L 0 0 
z
" style="fill: #ffffff"/>
  </g>
  <g id="axes_1">
   <g id="patch_2">
    <path d="M 52.896857 286.7715 
L 207.563143 286.7715 
Q 221.623714 286.7715 221.623714 272.9655 
L 221.623714 190.1295 
Q 221.623714 176.3235 207.563143 176.3235 
L 52.896857 176.3235 
Q 38.836286 176.3235 38.836286 190.1295 
L 38.836286 272.9655 
Q 38.836286 286.7715 52.896857 286.7715 
z
" clip-path="url(#p462d773467)" style="fill: #e3f2fd; stroke: #424242; stroke-width: 2; stroke-linejoin: miter"/>
   </g>
   <g id="patch_3">
    <path d="M 298.956857 183.2265 
L 488.774571 183.2265 
Q 502.835143 183.2265 502.835143 169.4205 
L 502.835143 107.2935 
Q 502.835143 93.4875 488.774571 93.4875 
L 298.956857 93.4875 
Q 284.896286 93.4875 284.896286 107.2935 
L 284.896286 169.4205 
Q 284.896286 183.2265 298.956857 183.2265 
z
" clip-path="url(#p462d773467)" style="fill: #fce4ec; stroke: #424242; stroke-width: 2; stroke-linejoin: miter"/>
   </g>
   <g id="patch_4">
    <path d="M 298.956857 369.6075 
L 362.229429 369.6075 
Q 376.29 369.6075 376.29 355.8015 
L 376.29 328.1895 
Q 376.29 314.3835 362.229429 314.3835 
L 298.956857 314.3835 
Q 284.896286 314.3835 284.896286 328.1895 
L 284.896286 355.8015 
Q 284.896286 369.6075 298.956857 369.6075 
z
" clip-path="url(#p462d773467)" style="fill: #bbdefb; stroke: #424242; stroke-width: 2; stroke-linejoin: miter"/>
   </g>
   <g id="patch_5">
    <path d="M 397.380857 369.6075 
L 460.653429 369.6075 
Q 474.714 369.6075 474.714 355.8015 
L 474.714 328.1895 
Q 474.714 314.3835 460.653429 314.3835 
L 397.380857 314.3835 
Q 383.320286 314.3835 383.320286 328.1895 
L 383.320286 355.8015 
Q 383.320286 369.6075 397.380857 369.6075 
z
" clip-path="url(#p462d773467)" style="fill: #c8e6c9; stroke: #424242; stroke-width: 2; stroke-linejoin: miter"/>
   </g>
   <g id="patch_6">
    <path d="M 495.804857 369.6075 
L 559.077429 369.6075 
Q 573.138 369.6075 573.138 355.8015 
L 573.138 328.1895 
Q 573.138 314.3835 559.077429 314.3835 
L 495.804857 314.3835 
Q 481.744286 314.3835 481.744286 328.1895 
L 481.744286 355.8015 
Q 481.744286 369.6075 495.804857 369.6075 
z
" clip-path="url(#p462d773467)" style="fill: #ffccbc; stroke: #424242; stroke-width: 2; stroke-linejoin: miter"/>
   </g>
   <g id="patch_7">
    <path d="M 615.319714 252.2565 
L 769.986 252.2565 
Q 784.046571 252.2565 784.046571 238.4505 
L 784.046571 155.6145 
Q 784.046571 141.8085 769.986 141.8085 
L 615.319714 141.8085 
Q 601.259143 141.8085 601.259143 155.6145 
L 601.259143 238.4505 
Q 601.259143 252.2565 615.319714 252.2565 
z
" clip-path="url(#p462d773467)" style="fill: #fce4ec; stroke: #424242; stroke-width: 2; stroke-linejoin: miter"/>
   </g>
   <g id="patch_8">
    <path d="M 615.319714 390.3165 
L 769.986 390.3165 
Q 784.046571 390.3165 784.046571 376.5105 
L 784.046571 328.1895 
Q 784.046571 314.3835 769.986 314.3835 
L 615.319714 314.3835 
Q 601.259143 314.3835 601.259143 328.1895 
L 601.259143 376.5105 
Q 601.259143 390.3165 615.319714 390.3165 
z
" clip-path="url(#p462d773467)" style="fill: #fff3e0; stroke: #424242; stroke-width: 2; stroke-linejoin: miter"/>
   </g>
   <g id="patch_9">
    <path d="M 615.319714 507.6675 
L 769.986 507.6675 
Q 784.046571 507.6675 784.046571 493.8615 
L 784.046571 445.5405 
Q 784.046571 431.7345 769.986 431.7345 
L 615.319714 431.7345 
Q 601.259143 431.7345 601.259143 445.5405 
L 601.259143 493.8615 
Q 601.259143 507.6675 615.319714 507.6675 
z
" clip-path="url(#p462d773467)" style="fill: #e1bee7; stroke: #424242; stroke-width: 2; stroke-linejoin: miter"/>
   </g>
   <g id="patch_10">
    <path d="M 826.228286 252.2565 
L 945.743143 252.2565 
Q 959.803714 252.2565 959.803714 238.4505 
L 959.803714 190.1295 
Q 959.803714 176.3235 945.743143 176.3235 
L 826.228286 176.3235 
Q 812.167714 176.3235 812.167714 190.1295 
L 812.167714 238.4505 
Q 812.167714 252.2565 826.228286 252.2565 
z
" clip-path="url(#p462d773467)" style="fill: #fff3e0; stroke: #424242; stroke-width: 2; stroke-linejoin: miter"/>
   </g>
   <g id="patch_11">
    <path d="M 826.228286 390.3165 
L 945.743143 390.3165 
Q 959.803714 390.3165 959.803714 376.5105 
L 959.803714 314.3835 
Q 959.803714 300.5775 945.743143 300.5775 
L 826.228286 300.5775 
Q 812.167714 300.5775 812.167714 314.3835 
L 812.167714 376.5105 
Q 812.167714 390.3165 826.228286 390.3165 
z
" clip-path="url(#p462d773467)" style="fill: #fce4ec; stroke: #424242; stroke-width: 2; stroke-linejoin: miter"/>
   </g>
   <g id="patch_12">
    <path d="M 826.228286 528.3765 
L 945.743143 528.3765 
Q 959.803714 528.3765 959.803714 514.5705 
L 959.803714 452.4435 
Q 959.803714 438.6375 945.743143 438.6375 
L 826.228286 438.6375 
Q 812.167714 438.6375 812.167714 452.4435 
L 812.167714 514.5705 
Q 812.167714 528.3765 826.228286 528.3765 
z
" clip-path="url(#p462d773467)" style="fill: #e8f5e9; stroke: #424242; stroke-width: 2; stroke-linejoin: miter"/>
   </g>
   <g id="text_1">
    <!-- Manifold-Constrained Hyper-Connection Forward Pass -->
    <g style="fill: #262626" transform="translate(254.4075 46.01625) scale(0.16 -0.16)">
     <defs>
      <path id="DejaVuSerif-Bold-4d" d="M 269 0 
L 269 378 
L 863 378 
L 863 4288 
L 269 4288 
L 269 4666 
L 2194 4666 
L 3525 1672 
L 4863 4666 
L 6784 4666 
L 6784 4288 
L 6188 4288 
L 6188 378 
L 6784 378 
L 6784 0 
L 4384 0 
L 4384 378 
L 4978 378 
L 4978 3938 
L 3531 684 
L 2741 684 
L 1300 3938 
L 1300 378 
L 1894 378 
L 1894 0 
L 269 0 
z
" transform="scale(0.015625)"/>
      <path id="DejaVuSerif-Bold-61" d="M 3525 2041 
L 3525 378 
L 4000 378 
L 4000 0 
L 2419 0 
L 2419 422 
Q 2200 159 1931 34 
Q 1663 -91 1319 -91 
Q 809 -91 536 182 
Q 263 456 263 966 
Q 263 1525 655 1803 
Q 1047 2081 1838 2081 
L 2419 2081 
L 2419 2278 
Q 2419 2681 2228 2873 
Q 2038 3066 1638 3066 
Q 1306 3066 1126 2930 
Q 947 2794 872 2484 
L 519 2484 
L 519 3200 
Q 816 3306 1134 3359 
Q 1453 3413 1806 3413 
Q 2697 3413 3111 3081 
Q 3525 2750 3525 2041 
z
M 2419 1044 
L 2419 1709 
L 2003 1709 
Q 1694 1709 1528 1540 
Q 1363 1372 1363 1056 
Q 1363 741 1483 584 
Q 1603 428 1850 428 
Q 2106 428 2262 597 
Q 2419 766 2419 1044 
z
" transform="scale(0.015625)"/>
      <path id="DejaVuSerif-Bold-6e" d="M 219 0 
L 219 378 
L 691 378 
L 691 2944 
L 219 2944 
L 219 3322 
L 1797 3322 
L 1797 2853 
Q 1997 3150 2253 3281 
Q 2509 3413 2900 3413 
Q 3459 3413 3745 3083 
Q 4031 2753 4031 2113 
L 4031 378 
L 4506 378 
L 4506 0 
L 2522 0 
L 2522 378 
L 2925 378 
L 2925 2144 
Q 2925 2566 2817 2730 
Q 2709 2894 2444 2894 
Q 2109 2894 1953 2648 
Q 1797 2403 1797 1869 
L 1797 378 
L 2203 378 
L 2203 0 
L 219 0 
z
" transform="scale(0.015625)"/>
      <path id="DejaVuSerif-Bold-69" d="M 588 4263 
Q 588 4516 763 4689 
Q 938 4863 1191 4863 
Q 1438 4863 1611 4689 
Q 1784 4516 1784 4263 
Q 1784 4016 1611 3842 
Q 1438 3669 1191 3669 
Q 938 3669 763 3841 
Q 588 4013 588 4263 
z
M 1797 378 
L 2272 378 
L 2272 0 
L 219 0 
L 219 378 
L 691 378 
L 691 2944 
L 219 2944 
L 219 3322 
L 1797 3322 
L 1797 378 
z
" transform="scale(0.015625)"/>
      <path id="DejaVuSerif-Bold-66" d="M 3097 4031 
L 2747 4031 
Q 2722 4275 2605 4394 
Q 2488 4513 2272 4513 
Q 2022 4513 1909 4333 
Q 1797 4153 1797 3750 
L 1797 3322 
L 2631 3322 
L 2631 2944 
L 1797 2944 
L 1797 378 
L 2438 378 
L 2438 0 
L 219 0 
L 219 378 
L 691 378 
L 691 2944 
L 197 2944 
L 197 3322 
L 691 3322 
L 691 3738 
Q 691 4291 1044 4577 
Q 1397 4863 2081 4863 
Q 2347 4863 2600 4833 
Q 2853 4803 3097 4744 
L 3097 4031 
z
" transform="scale(0.015625)"/>
      <path id="DejaVuSerif-Bold-6f" d="M 2138 263 
Q 2488 263 2630 563 
Q 2772 863 2772 1663 
Q 2772 2463 2631 2761 
Q 2491 3059 2138 3059 
Q 1784 3059 1640 2757 
Q 1497 2456 1497 1663 
Q 1497 869 1640 566 
Q 1784 263 2138 263 
z
M 2138 -91 
Q 1259 -91 761 376 
Q 263 844 263 1663 
Q 263 2484 761 2948 
Q 1259 3413 2138 3413 
Q 3019 3413 3516 2948 
Q 4013 2484 4013 1663 
Q 4013 844 3514 376 
Q 3016 -91 2138 -91 
z
" transform="scale(0.015625)"/>
      <path id="DejaVuSerif-Bold-6c" d="M 1797 378 
L 2272 378 
L 2272 0 
L 219 0 
L 219 378 
L 691 378 
L 691 4488 
L 219 4488 
L 219 4863 
L 1797 4863 
L 1797 378 
z
" transform="scale(0.015625)"/>
      <path id="DejaVuSerif-Bold-64" d="M 2747 1497 
L 2747 1825 
Q 2747 2406 2597 2665 
Q 2447 2925 2119 2925 
Q 1775 2925 1636 2651 
Q 1497 2378 1497 1663 
Q 1497 947 1637 672 
Q 1778 397 2119 397 
Q 2447 397 2597 656 
Q 2747 916 2747 1497 
z
M 3853 378 
L 4325 378 
L 4325 0 
L 2747 0 
L 2747 422 
Q 2606 163 2367 36 
Q 2128 -91 1778 -91 
Q 1072 -91 667 378 
Q 263 847 263 1663 
Q 263 2481 667 2947 
Q 1072 3413 1778 3413 
Q 2128 3413 2367 3286 
Q 2606 3159 2747 2900 
L 2747 4488 
L 2272 4488 
L 2272 4863 
L 3853 4863 
L 3853 378 
z
" transform="scale(0.015625)"/>
      <path id="DejaVuSerif-Bold-2d" d="M 347 2138 
L 2309 2138 
L 2309 1294 
L 347 1294 
L 347 2138 
z
" transform="scale(0.015625)"/>
      <path id="DejaVuSerif-Bold-43" d="M 4769 1331 
Q 4584 609 4106 259 
Q 3628 -91 2822 -91 
Q 1641 -91 955 561 
Q 269 1213 269 2328 
Q 269 3447 955 4098 
Q 1641 4750 2822 4750 
Q 3238 4750 3688 4650 
Q 4138 4550 4641 4347 
L 4641 3200 
L 4244 3200 
Q 4122 3788 3800 4080 
Q 3478 4372 2950 4372 
Q 2269 4372 1937 3870 
Q 1606 3369 1606 2328 
Q 1606 1288 1937 788 
Q 2269 288 2956 288 
Q 3422 288 3717 547 
Q 4013 806 4147 1331 
L 4769 1331 
z
" transform="scale(0.015625)"/>
      <path id="DejaVuSerif-Bold-73" d="M 300 97 
L 300 1025 
L 653 1025 
Q 697 653 931 458 
Q 1166 263 1569 263 
Q 1906 263 2086 380 
Q 2266 497 2266 716 
Q 2266 916 2152 1025 
Q 2038 1134 1709 1216 
L 1253 1331 
Q 738 1459 506 1698 
Q 275 1938 275 2344 
Q 275 2884 650 3148 
Q 1025 3413 1806 3413 
Q 2100 3413 2433 3364 
Q 2766 3316 3169 3213 
L 3169 2375 
L 2816 2375 
Q 2788 2716 2573 2887 
Q 2359 3059 1959 3059 
Q 1622 3059 1448 2951 
Q 1275 2844 1275 2638 
Q 1275 2469 1375 2372 
Q 1475 2275 1734 2209 
L 2188 2094 
Q 2841 1928 3091 1684 
Q 3341 1441 3341 1006 
Q 3341 444 2939 176 
Q 2538 -91 1691 -91 
Q 1381 -91 1034 -44 
Q 688 3 300 97 
z
" transform="scale(0.015625)"/>
      <path id="DejaVuSerif-Bold-74" d="M 634 2944 
L 153 2944 
L 153 3322 
L 634 3322 
L 634 4353 
L 1741 4353 
L 1741 3322 
L 2663 3322 
L 2663 2944 
L 1741 2944 
L 1741 909 
Q 1741 475 1809 369 
Q 1878 263 2059 263 
Q 2259 263 2356 397 
Q 2453 531 2459 813 
L 2925 813 
Q 2897 313 2651 111 
Q 2406 -91 1806 -91 
Q 1122 -91 878 123 
Q 634 338 634 909 
L 634 2944 
z
" transform="scale(0.015625)"/>
      <path id="DejaVuSerif-Bold-72" d="M 3438 3359 
L 3438 2369 
L 3084 2369 
Q 3066 2634 2941 2764 
Q 2816 2894 2578 2894 
Q 2216 2894 2006 2575 
Q 1797 2256 1797 1691 
L 1797 378 
L 2400 378 
L 2400 0 
L 219 0 
L 219 378 
L 691 378 
L 691 2944 
L 184 2944 
L 184 3322 
L 1797 3322 
L 1797 2731 
Q 1959 3078 2226 3245 
Q 2494 3413 2881 3413 
Q 2978 3413 3117 3398 
Q 3256 3384 3438 3359 
z
" transform="scale(0.015625)"/>
      <path id="DejaVuSerif-Bold-65" d="M 2566 1875 
Q 2566 2531 2444 2795 
Q 2322 3059 2028 3059 
Q 1744 3059 1620 2800 
Q 1497 2541 1497 1931 
L 1497 1875 
L 2566 1875 
z
M 3781 1503 
L 1497 1503 
L 1497 1478 
Q 1497 834 1690 548 
Q 1884 263 2316 263 
Q 2675 263 2897 453 
Q 3119 644 3181 1006 
L 3700 1006 
Q 3566 441 3166 175 
Q 2766 -91 2047 -91 
Q 1184 -91 723 364 
Q 263 819 263 1663 
Q 263 2488 734 2950 
Q 1206 3413 2047 3413 
Q 2872 3413 3312 2927 
Q 3753 2441 3781 1503 
z
" transform="scale(0.015625)"/>
      <path id="DejaVuSerif-Bold-20" transform="scale(0.015625)"/>
      <path id="DejaVuSerif-Bold-48" d="M 300 0 
L 300 378 
L 897 378 
L 897 4288 
L 300 4288 
L 300 4666 
L 2700 4666 
L 2700 4288 
L 2100 4288 
L 2100 2719 
L 3956 2719 
L 3956 4288 
L 3359 4288 
L 3359 4666 
L 5759 4666 
L 5759 4288 
L 5159 4288 
L 5159 378 
L 5759 378 
L 5759 0 
L 3359 0 
L 3359 378 
L 3956 378 
L 3956 2291 
L 2100 2291 
L 2100 378 
L 2700 378 
L 2700 0 
L 300 0 
z
" transform="scale(0.015625)"/>
      <path id="DejaVuSerif-Bold-79" d="M 1997 -750 
Q 1847 -1116 1634 -1269 
Q 1422 -1422 1063 -1422 
Q 909 -1422 721 -1387 
Q 534 -1353 313 -1288 
L 313 -594 
L 666 -597 
Q 675 -838 779 -953 
Q 884 -1069 1094 -1069 
Q 1297 -1069 1422 -958 
Q 1547 -847 1672 -538 
L 1722 -422 
L 275 2944 
L -84 2944 
L -84 3322 
L 1831 3322 
L 1831 2944 
L 1434 2944 
L 2278 978 
L 3066 2944 
L 2625 2944 
L 2625 3322 
L 3872 3322 
L 3872 2944 
L 3469 2944 
L 1997 -750 
z
" transform="scale(0.015625)"/>
      <path id="DejaVuSerif-Bold-70" d="M 1728 1825 
L 1728 1497 
Q 1728 916 1876 656 
Q 2025 397 2356 397 
Q 2697 397 2836 672 
Q 2975 947 2975 1663 
Q 2975 2378 2836 2651 
Q 2697 2925 2356 2925 
Q 2025 2925 1876 2665 
Q 1728 2406 1728 1825 
z
M 622 2944 
L 147 2944 
L 147 3322 
L 1728 3322 
L 1728 2900 
Q 1869 3159 2106 3286 
Q 2344 3413 2694 3413 
Q 3403 3413 3811 2945 
Q 4219 2478 4219 1663 
Q 4219 847 3811 378 
Q 3403 -91 2694 -91 
Q 2344 -91 2106 36 
Q 1869 163 1728 422 
L 1728 -953 
L 2241 -953 
L 2241 -1331 
L 147 -1331 
L 147 -953 
L 622 -953 
L 622 2944 
z
" transform="scale(0.015625)"/>
      <path id="DejaVuSerif-Bold-63" d="M 3609 1038 
Q 3491 469 3123 189 
Q 2756 -91 2125 -91 
Q 1238 -91 750 368 
Q 263 828 263 1663 
Q 263 2488 744 2950 
Q 1225 3413 2081 3413 
Q 2428 3413 2781 3347 
Q 3134 3281 3500 3150 
L 3500 2228 
L 3150 2228 
Q 3100 2650 2903 2854 
Q 2706 3059 2350 3059 
Q 1888 3059 1692 2746 
Q 1497 2434 1497 1663 
Q 1497 909 1687 586 
Q 1878 263 2309 263 
Q 2644 263 2845 463 
Q 3047 663 3091 1038 
L 3609 1038 
z
" transform="scale(0.015625)"/>
      <path id="DejaVuSerif-Bold-46" d="M 300 0 
L 300 378 
L 897 378 
L 897 4288 
L 300 4288 
L 300 4666 
L 4459 4666 
L 4459 3566 
L 4031 3566 
L 4031 4238 
L 2106 4238 
L 2106 2741 
L 3291 2741 
L 3291 3334 
L 3719 3334 
L 3719 1722 
L 3291 1722 
L 3291 2316 
L 2106 2316 
L 2106 378 
L 2841 378 
L 2841 0 
L 300 0 
z
" transform="scale(0.015625)"/>
      <path id="DejaVuSerif-Bold-77" d="M 3450 3322 
L 4206 1106 
L 4831 2944 
L 4397 2944 
L 4397 3322 
L 5638 3322 
L 5638 2944 
L 5247 2944 
L 4244 0 
L 3481 0 
L 2778 2081 
L 2069 0 
L 1313 0 
L 306 2944 
L -56 2944 
L -56 3322 
L 1825 3322 
L 1825 2944 
L 1434 2944 
L 2047 1147 
L 2791 3322 
L 3450 3322 
z
" transform="scale(0.015625)"/>
      <path id="DejaVuSerif-Bold-50" d="M 300 0 
L 300 378 
L 897 378 
L 897 4288 
L 300 4288 
L 300 4666 
L 2956 4666 
Q 3734 4666 4193 4295 
Q 4653 3925 4653 3303 
Q 4653 2678 4192 2304 
Q 3731 1931 2956 1931 
L 2100 1931 
L 2100 378 
L 2853 378 
L 2853 0 
L 300 0 
z
M 2100 2309 
L 2450 2309 
Q 2856 2309 3098 2579 
Q 3341 2850 3341 3303 
Q 3341 3753 3100 4020 
Q 2859 4288 2450 4288 
L 2100 4288 
L 2100 2309 
z
" transform="scale(0.015625)"/>
     </defs>
     <use xlink:href="#DejaVuSerif-Bold-4d"/>
     <use xlink:href="#DejaVuSerif-Bold-61" transform="translate(110.693359 0)"/>
     <use xlink:href="#DejaVuSerif-Bold-6e" transform="translate(175.488281 0)"/>
     <use xlink:href="#DejaVuSerif-Bold-69" transform="translate(248.193359 0)"/>
     <use xlink:href="#DejaVuSerif-Bold-66" transform="translate(286.181641 0)"/>
     <use xlink:href="#DejaVuSerif-Bold-6f" transform="translate(329.199219 0)"/>
     <use xlink:href="#DejaVuSerif-Bold-6c" transform="translate(395.898438 0)"/>
     <use xlink:href="#DejaVuSerif-Bold-64" transform="translate(433.886719 0)"/>
     <use xlink:href="#DejaVuSerif-Bold-2d" transform="translate(503.808594 0)"/>
     <use xlink:href="#DejaVuSerif-Bold-43" transform="translate(545.3125 0)"/>
     <use xlink:href="#DejaVuSerif-Bold-6f" transform="translate(624.902344 0)"/>
     <use xlink:href="#DejaVuSerif-Bold-6e" transform="translate(691.601562 0)"/>
     <use xlink:href="#DejaVuSerif-Bold-73" transform="translate(764.306641 0)"/>
     <use xlink:href="#DejaVuSerif-Bold-74" transform="translate(820.605469 0)"/>
     <use xlink:href="#DejaVuSerif-Bold-72" transform="translate(866.796875 0)"/>
     <use xlink:href="#DejaVuSerif-Bold-61" transform="translate(919.482422 0)"/>
     <use xlink:href="#DejaVuSerif-Bold-69" transform="translate(984.277344 0)"/>
     <use xlink:href="#DejaVuSerif-Bold-6e" transform="translate(1022.265625 0)"/>
     <use xlink:href="#DejaVuSerif-Bold-65" transform="translate(1094.970703 0)"/>
     <use xlink:href="#DejaVuSerif-Bold-64" transform="translate(1158.59375 0)"/>
     <use xlink:href="#DejaVuSerif-Bold-20" transform="translate(1228.515625 0)"/>
     <use xlink:href="#DejaVuSerif-Bold-48" transform="translate(1263.330078 0)"/>
     <use xlink:href="#DejaVuSerif-Bold-79" transform="translate(1357.8125 0)"/>
     <use xlink:href="#DejaVuSerif-Bold-70" transform="translate(1415.917969 0)"/>
     <use xlink:href="#DejaVuSerif-Bold-65" transform="translate(1485.839844 0)"/>
     <use xlink:href="#DejaVuSerif-Bold-72" transform="translate(1549.462891 0)"/>
     <use xlink:href="#DejaVuSerif-Bold-2d" transform="translate(1602.148438 0)"/>
     <use xlink:href="#DejaVuSerif-Bold-43" transform="translate(1643.652344 0)"/>
     <use xlink:href="#DejaVuSerif-Bold-6f" transform="translate(1723.242188 0)"/>
     <use xlink:href="#DejaVuSerif-Bold-6e" transform="translate(1789.941406 0)"/>
     <use xlink:href="#DejaVuSerif-Bold-6e" transform="translate(1862.646484 0)"/>
     <use xlink:href="#DejaVuSerif-Bold-65" transform="translate(1935.351562 0)"/>
     <use xlink:href="#DejaVuSerif-Bold-63" transform="translate(1998.974609 0)"/>
     <use xlink:href="#DejaVuSerif-Bold-74" transform="translate(2059.863281 0)"/>
     <use xlink:href="#DejaVuSerif-Bold-69" transform="translate(2106.054688 0)"/>
     <use xlink:href="#DejaVuSerif-Bold-6f" transform="translate(2144.042969 0)"/>
     <use xlink:href="#DejaVuSerif-Bold-6e" transform="translate(2210.742188 0)"/>
     <use xlink:href="#DejaVuSerif-Bold-20" transform="translate(2283.447266 0)"/>
     <use xlink:href="#DejaVuSerif-Bold-46" transform="translate(2318.261719 0)"/>
     <use xlink:href="#DejaVuSerif-Bold-6f" transform="translate(2383.757812 0)"/>
     <use xlink:href="#DejaVuSerif-Bold-72" transform="translate(2450.457031 0)"/>
     <use xlink:href="#DejaVuSerif-Bold-77" transform="translate(2503.142578 0)"/>
     <use xlink:href="#DejaVuSerif-Bold-61" transform="translate(2589.226562 0)"/>
     <use xlink:href="#DejaVuSerif-Bold-72" transform="translate(2654.021484 0)"/>
     <use xlink:href="#DejaVuSerif-Bold-64" transform="translate(2706.707031 0)"/>
     <use xlink:href="#DejaVuSerif-Bold-20" transform="translate(2776.628906 0)"/>
     <use xlink:href="#DejaVuSerif-Bold-50" transform="translate(2811.443359 0)"/>
     <use xlink:href="#DejaVuSerif-Bold-61" transform="translate(2884.013672 0)"/>
     <use xlink:href="#DejaVuSerif-Bold-73" transform="translate(2948.808594 0)"/>
     <use xlink:href="#DejaVuSerif-Bold-73" transform="translate(3005.107422 0)"/>
    </g>
   </g>
   <g id="text_2">
    <!-- H -->
    <g style="fill: #262626" transform="translate(125.505781 223.037969) scale(0.1 -0.1)">
     <use xlink:href="#DejaVuSerif-Bold-48"/>
    </g>
    <!-- [batch, seq, 4, dim] -->
    <g style="fill: #262626" transform="translate(75.672969 234.235781) scale(0.1 -0.1)">
     <defs>
      <path id="DejaVuSerif-Bold-5b" d="M 800 4863 
L 2572 4863 
L 2572 4488 
L 1906 4488 
L 1906 -469 
L 2572 -469 
L 2572 -844 
L 800 -844 
L 800 4863 
z
" transform="scale(0.015625)"/>
      <path id="DejaVuSerif-Bold-62" d="M 622 378 
L 622 4488 
L 147 4488 
L 147 4863 
L 1728 4863 
L 1728 2900 
Q 1869 3159 2106 3286 
Q 2344 3413 2694 3413 
Q 3403 3413 3811 2945 
Q 4219 2478 4219 1663 
Q 4219 847 3811 378 
Q 3403 -91 2694 -91 
Q 2344 -91 2106 36 
Q 1869 163 1728 422 
L 1728 0 
L 147 0 
L 147 378 
L 622 378 
z
M 1728 1497 
Q 1728 916 1876 656 
Q 2025 397 2356 397 
Q 2697 397 2836 672 
Q 2975 947 2975 1663 
Q 2975 2378 2836 2651 
Q 2697 2925 2356 2925 
Q 2025 2925 1876 2665 
Q 1728 2406 1728 1825 
L 1728 1497 
z
" transform="scale(0.015625)"/>
      <path id="DejaVuSerif-Bold-68" d="M 219 0 
L 219 378 
L 691 378 
L 691 4488 
L 197 4488 
L 197 4863 
L 1797 4863 
L 1797 2853 
Q 1997 3150 2253 3281 
Q 2509 3413 2900 3413 
Q 3459 3413 3745 3083 
Q 4031 2753 4031 2113 
L 4031 378 
L 4506 378 
L 4506 0 
L 2522 0 
L 2522 378 
L 2925 378 
L 2925 2144 
Q 2925 2566 2817 2730 
Q 2709 2894 2444 2894 
Q 2109 2894 1953 2648 
Q 1797 2403 1797 1869 
L 1797 378 
L 2203 378 
L 2203 0 
L 219 0 
z
" transform="scale(0.015625)"/>
      <path id="DejaVuSerif-Bold-2c" d="M 84 -616 
Q 409 -353 562 -28 
Q 716 297 716 728 
L 716 997 
L 1606 997 
L 1606 972 
Q 1606 281 1317 -217 
Q 1028 -716 428 -1056 
L 84 -616 
z
" transform="scale(0.015625)"/>
      <path id="DejaVuSerif-Bold-71" d="M 3853 2944 
L 3853 -953 
L 4325 -953 
L 4325 -1331 
L 2234 -1331 
L 2234 -953 
L 2747 -953 
L 2747 422 
Q 2606 163 2367 36 
Q 2128 -91 1778 -91 
Q 1072 -91 667 378 
Q 263 847 263 1663 
Q 263 2481 667 2947 
Q 1072 3413 1778 3413 
Q 2128 3413 2367 3286 
Q 2606 3159 2747 2900 
L 2747 3322 
L 4325 3322 
L 4325 2944 
L 3853 2944 
z
M 2747 1825 
Q 2747 2406 2597 2665 
Q 2447 2925 2119 2925 
Q 1775 2925 1636 2651 
Q 1497 2378 1497 1663 
Q 1497 947 1637 672 
Q 1778 397 2119 397 
Q 2447 397 2597 656 
Q 2747 916 2747 1497 
L 2747 1825 
z
" transform="scale(0.015625)"/>
      <path id="DejaVuSerif-Bold-34" d="M 4084 0 
L 1516 0 
L 1516 378 
L 2209 378 
L 2209 1228 
L 263 1228 
L 263 1588 
L 2216 4750 
L 3391 4750 
L 3391 1631 
L 4191 1631 
L 4191 1228 
L 3391 1228 
L 3391 378 
L 4084 378 
L 4084 0 
z
M 2209 1631 
L 2209 3897 
L 819 1631 
L 2209 1631 
z
" transform="scale(0.015625)"/>
      <path id="DejaVuSerif-Bold-6d" d="M 3884 2778 
Q 4116 3109 4384 3261 
Q 4653 3413 5013 3413 
Q 5584 3413 5867 3089 
Q 6150 2766 6150 2113 
L 6150 378 
L 6625 378 
L 6625 0 
L 4647 0 
L 4647 378 
L 5044 378 
L 5044 1947 
Q 5044 2569 4948 2731 
Q 4853 2894 4594 2894 
Q 4300 2894 4137 2667 
Q 3975 2441 3975 2022 
L 3975 378 
L 4372 378 
L 4372 0 
L 2472 0 
L 2472 378 
L 2869 378 
L 2869 1947 
Q 2869 2569 2772 2731 
Q 2675 2894 2419 2894 
Q 2122 2894 1959 2667 
Q 1797 2441 1797 2022 
L 1797 378 
L 2194 378 
L 2194 0 
L 219 0 
L 219 378 
L 691 378 
L 691 2944 
L 219 2944 
L 219 3322 
L 1797 3322 
L 1797 2853 
Q 1991 3144 2241 3278 
Q 2491 3413 2834 3413 
Q 3241 3413 3494 3258 
Q 3747 3103 3884 2778 
z
" transform="scale(0.015625)"/>
      <path id="DejaVuSerif-Bold-5d" d="M 2228 4863 
L 2228 -844 
L 453 -844 
L 453 -469 
L 1119 -469 
L 1119 4488 
L 453 4488 
L 453 4863 
L 2228 4863 
z
" transform="scale(0.015625)"/>
     </defs>
     <use xlink:href="#DejaVuSerif-Bold-5b"/>
     <use xlink:href="#DejaVuSerif-Bold-62" transform="translate(47.314453 0)"/>
     <use xlink:href="#DejaVuSerif-Bold-61" transform="translate(117.236328 0)"/>
     <use xlink:href="#DejaVuSerif-Bold-74" transform="translate(182.03125 0)"/>
     <use xlink:href="#DejaVuSerif-Bold-63" transform="translate(228.222656 0)"/>
     <use xlink:href="#DejaVuSerif-Bold-68" transform="translate(289.111328 0)"/>
     <use xlink:href="#DejaVuSerif-Bold-2c" transform="translate(361.816406 0)"/>
     <use xlink:href="#DejaVuSerif-Bold-20" transform="translate(396.630859 0)"/>
     <use xlink:href="#DejaVuSerif-Bold-73" transform="translate(431.445312 0)"/>
     <use xlink:href="#DejaVuSerif-Bold-65" transform="translate(487.744141 0)"/>
     <use xlink:href="#DejaVuSerif-Bold-71" transform="translate(551.367188 0)"/>
     <use xlink:href="#DejaVuSerif-Bold-2c" transform="translate(621.289062 0)"/>
     <use xlink:href="#DejaVuSerif-Bold-20" transform="translate(656.103516 0)"/>
     <use xlink:href="#DejaVuSerif-Bold-34" transform="translate(690.917969 0)"/>
     <use xlink:href="#DejaVuSerif-Bold-2c" transform="translate(760.498047 0)"/>
     <use xlink:href="#DejaVuSerif-Bold-20" transform="translate(795.3125 0)"/>
     <use xlink:href="#DejaVuSerif-Bold-64" transform="translate(830.126953 0)"/>
     <use xlink:href="#DejaVuSerif-Bold-69" transform="translate(900.048828 0)"/>
     <use xlink:href="#DejaVuSerif-Bold-6d" transform="translate(938.037109 0)"/>
     <use xlink:href="#DejaVuSerif-Bold-5d" transform="translate(1043.847656 0)"/>
    </g>
    <!-- Hyper-hidden state -->
    <g style="fill: #262626" transform="translate(76.275312 245.433594) scale(0.1 -0.1)">
     <use xlink:href="#DejaVuSerif-Bold-48"/>
     <use xlink:href="#DejaVuSerif-Bold-79" transform="translate(94.482422 0)"/>
     <use xlink:href="#DejaVuSerif-Bold-70" transform="translate(152.587891 0)"/>
     <use xlink:href="#DejaVuSerif-Bold-65" transform="translate(222.509766 0)"/>
     <use xlink:href="#DejaVuSerif-Bold-72" transform="translate(286.132812 0)"/>
     <use xlink:href="#DejaVuSerif-Bold-2d" transform="translate(338.818359 0)"/>
     <use xlink:href="#DejaVuSerif-Bold-68" transform="translate(380.322266 0)"/>
     <use xlink:href="#DejaVuSerif-Bold-69" transform="translate(453.027344 0)"/>
     <use xlink:href="#DejaVuSerif-Bold-64" transform="translate(491.015625 0)"/>
     <use xlink:href="#DejaVuSerif-Bold-64" transform="translate(560.9375 0)"/>
     <use xlink:href="#DejaVuSerif-Bold-65" transform="translate(630.859375 0)"/>
     <use xlink:href="#DejaVuSerif-Bold-6e" transform="translate(694.482422 0)"/>
     <use xlink:href="#DejaVuSerif-Bold-20" transform="translate(767.1875 0)"/>
     <use xlink:href="#DejaVuSerif-Bold-73" transform="translate(802.001953 0)"/>
     <use xlink:href="#DejaVuSerif-Bold-74" transform="translate(858.300781 0)"/>
     <use xlink:href="#DejaVuSerif-Bold-61" transform="translate(904.492188 0)"/>
     <use xlink:href="#DejaVuSerif-Bold-74" transform="translate(969.287109 0)"/>
     <use xlink:href="#DejaVuSerif-Bold-65" transform="translate(1015.478516 0)"/>
    </g>
   </g>
   <g id="text_3">
    <!-- Fused Dynamic Weights -->
    <g style="fill: #262626" transform="translate(333.595246 135.737438) scale(0.09 -0.09)">
     <defs>
      <path id="DejaVuSerif-Bold-75" d="M 3963 3322 
L 3963 378 
L 4434 378 
L 4434 0 
L 2853 0 
L 2853 469 
Q 2656 172 2400 40 
Q 2144 -91 1753 -91 
Q 1194 -91 908 239 
Q 622 569 622 1209 
L 622 2944 
L 147 2944 
L 147 3322 
L 1728 3322 
L 1728 1381 
Q 1728 763 1831 595 
Q 1934 428 2209 428 
Q 2544 428 2698 675 
Q 2853 922 2853 1459 
L 2853 2944 
L 2450 2944 
L 2450 3322 
L 3963 3322 
z
" transform="scale(0.015625)"/>
      <path id="DejaVuSerif-Bold-44" d="M 2100 378 
L 2534 378 
Q 3266 378 3605 847 
Q 3944 1316 3944 2338 
Q 3944 3353 3606 3820 
Q 3269 4288 2534 4288 
L 2100 4288 
L 2100 378 
z
M 300 0 
L 300 378 
L 897 378 
L 897 4288 
L 300 4288 
L 300 4666 
L 2694 4666 
Q 3950 4666 4615 4066 
Q 5281 3466 5281 2338 
Q 5281 1203 4614 601 
Q 3947 0 2694 0 
L 300 0 
z
" transform="scale(0.015625)"/>
      <path id="DejaVuSerif-Bold-57" d="M 5453 0 
L 4647 0 
L 3591 3397 
L 2534 0 
L 1728 0 
L 397 4288 
L -56 4288 
L -56 4666 
L 2156 4666 
L 2156 4288 
L 1656 4288 
L 2547 1422 
L 3553 4666 
L 4441 4666 
L 5466 1369 
L 6375 4288 
L 5819 4288 
L 5819 4666 
L 7263 4666 
L 7263 4288 
L 6784 4288 
L 5453 0 
z
" transform="scale(0.015625)"/>
      <path id="DejaVuSerif-Bold-67" d="M 3853 2944 
L 3853 44 
Q 3853 -656 3354 -1039 
Q 2856 -1422 1947 -1422 
Q 1616 -1422 1275 -1370 
Q 934 -1319 575 -1216 
L 575 -422 
L 928 -422 
Q 975 -750 1192 -909 
Q 1409 -1069 1813 -1069 
Q 2325 -1069 2536 -823 
Q 2747 -578 2747 44 
L 2747 422 
Q 2606 163 2367 36 
Q 2128 -91 1778 -91 
Q 1072 -91 667 378 
Q 263 847 263 1663 
Q 263 2481 667 2947 
Q 1072 3413 1778 3413 
Q 2128 3413 2367 3286 
Q 2606 3159 2747 2900 
L 2747 3322 
L 4325 3322 
L 4325 2944 
L 3853 2944 
z
M 2747 1825 
Q 2747 2406 2597 2665 
Q 2447 2925 2119 2925 
Q 1775 2925 1636 2651 
Q 1497 2378 1497 1663 
Q 1497 947 1637 672 
Q 1778 397 2119 397 
Q 2447 397 2597 656 
Q 2747 916 2747 1497 
L 2747 1825 
z
" transform="scale(0.015625)"/>
     </defs>
     <use xlink:href="#DejaVuSerif-Bold-46"/>
     <use xlink:href="#DejaVuSerif-Bold-75" transform="translate(69.246094 0)"/>
     <use xlink:href="#DejaVuSerif-Bold-73" transform="translate(141.951172 0)"/>
     <use xlink:href="#DejaVuSerif-Bold-65" transform="translate(198.25 0)"/>
     <use xlink:href="#DejaVuSerif-Bold-64" transform="translate(261.873047 0)"/>
     <use xlink:href="#DejaVuSerif-Bold-20" transform="translate(331.794922 0)"/>
     <use xlink:href="#DejaVuSerif-Bold-44" transform="translate(366.609375 0)"/>
     <use xlink:href="#DejaVuSerif-Bold-79" transform="translate(453.328125 0)"/>
     <use xlink:href="#DejaVuSerif-Bold-6e" transform="translate(511.433594 0)"/>
     <use xlink:href="#DejaVuSerif-Bold-61" transform="translate(584.138672 0)"/>
     <use xlink:href="#DejaVuSerif-Bold-6d" transform="translate(648.933594 0)"/>
     <use xlink:href="#DejaVuSerif-Bold-69" transform="translate(754.744141 0)"/>
     <use xlink:href="#DejaVuSerif-Bold-63" transform="translate(792.732422 0)"/>
     <use xlink:href="#DejaVuSerif-Bold-20" transform="translate(853.621094 0)"/>
     <use xlink:href="#DejaVuSerif-Bold-57" transform="translate(888.435547 0)"/>
     <use xlink:href="#DejaVuSerif-Bold-65" transform="translate(992.615234 0)"/>
     <use xlink:href="#DejaVuSerif-Bold-69" transform="translate(1056.238281 0)"/>
     <use xlink:href="#DejaVuSerif-Bold-67" transform="translate(1094.226562 0)"/>
     <use xlink:href="#DejaVuSerif-Bold-68" transform="translate(1164.148438 0)"/>
     <use xlink:href="#DejaVuSerif-Bold-74" transform="translate(1236.853516 0)"/>
     <use xlink:href="#DejaVuSerif-Bold-73" transform="translate(1283.044922 0)"/>
    </g>
    <!-- Kernel (Eq. 14-19) -->
    <g style="fill: #262626" transform="translate(347.051652 145.943438) scale(0.09 -0.09)">
     <defs>
      <path id="DejaVuSerif-Bold-4b" d="M 300 0 
L 300 378 
L 897 378 
L 897 4288 
L 300 4288 
L 300 4666 
L 2700 4666 
L 2700 4288 
L 2100 4288 
L 2100 2584 
L 4078 4288 
L 3578 4288 
L 3578 4666 
L 5319 4666 
L 5319 4288 
L 4697 4288 
L 3022 2847 
L 5300 378 
L 5759 378 
L 5759 0 
L 4178 0 
L 2100 2266 
L 2100 378 
L 2700 378 
L 2700 0 
L 300 0 
z
" transform="scale(0.015625)"/>
      <path id="DejaVuSerif-Bold-28" d="M 2694 -997 
Q 1641 -606 1122 122 
Q 603 850 603 1931 
Q 603 3013 1115 3731 
Q 1628 4450 2694 4863 
L 2694 4488 
Q 2200 4188 1983 3598 
Q 1766 3009 1766 1931 
Q 1766 856 1983 267 
Q 2200 -322 2694 -622 
L 2694 -997 
z
" transform="scale(0.015625)"/>
      <path id="DejaVuSerif-Bold-45" d="M 300 0 
L 300 378 
L 897 378 
L 897 4288 
L 300 4288 
L 300 4666 
L 4494 4666 
L 4494 3566 
L 4063 3566 
L 4063 4238 
L 2100 4238 
L 2100 2741 
L 3322 2741 
L 3322 3334 
L 3750 3334 
L 3750 1722 
L 3322 1722 
L 3322 2316 
L 2100 2316 
L 2100 428 
L 4122 428 
L 4122 1100 
L 4550 1100 
L 4550 0 
L 300 0 
z
" transform="scale(0.015625)"/>
      <path id="DejaVuSerif-Bold-2e" d="M 519 506 
Q 519 750 694 925 
Q 869 1100 1113 1100 
Q 1359 1100 1534 925 
Q 1709 750 1709 506 
Q 1709 259 1534 84 
Q 1359 -91 1113 -91 
Q 869 -91 694 84 
Q 519 259 519 506 
z
" transform="scale(0.015625)"/>
      <path id="DejaVuSerif-Bold-31" d="M 878 0 
L 878 378 
L 1753 378 
L 1753 4153 
L 781 3578 
L 781 4044 
L 1953 4750 
L 2938 4750 
L 2938 378 
L 3816 378 
L 3816 0 
L 878 0 
z
" transform="scale(0.015625)"/>
      <path id="DejaVuSerif-Bold-39" d="M 2181 4384 
Q 1859 4384 1723 4111 
Q 1588 3838 1588 3163 
Q 1588 2488 1723 2214 
Q 1859 1941 2181 1941 
Q 2503 1941 2640 2214 
Q 2778 2488 2778 3163 
Q 2778 3838 2640 4111 
Q 2503 4384 2181 4384 
z
M 2878 1900 
Q 2672 1734 2420 1651 
Q 2169 1569 1875 1569 
Q 1163 1569 755 1986 
Q 347 2403 347 3138 
Q 347 3913 803 4331 
Q 1259 4750 2106 4750 
Q 3063 4750 3556 4172 
Q 4050 3594 4050 2478 
Q 4050 1206 3503 557 
Q 2956 -91 1881 -91 
Q 1600 -91 1278 -44 
Q 956 3 588 97 
L 588 922 
L 966 922 
Q 1044 603 1261 439 
Q 1478 275 1825 275 
Q 2375 275 2625 658 
Q 2875 1041 2878 1900 
z
" transform="scale(0.015625)"/>
      <path id="DejaVuSerif-Bold-29" d="M 325 -997 
L 325 -622 
Q 819 -322 1036 267 
Q 1253 856 1253 1931 
Q 1253 3009 1036 3598 
Q 819 4188 325 4488 
L 325 4863 
Q 1391 4450 1905 3731 
Q 2419 3013 2419 1931 
Q 2419 850 1898 122 
Q 1378 -606 325 -997 
z
" transform="scale(0.015625)"/>
     </defs>
     <use xlink:href="#DejaVuSerif-Bold-4b"/>
     <use xlink:href="#DejaVuSerif-Bold-65" transform="translate(84.664062 0)"/>
     <use xlink:href="#DejaVuSerif-Bold-72" transform="translate(148.287109 0)"/>
     <use xlink:href="#DejaVuSerif-Bold-6e" transform="translate(200.972656 0)"/>
     <use xlink:href="#DejaVuSerif-Bold-65" transform="translate(273.677734 0)"/>
     <use xlink:href="#DejaVuSerif-Bold-6c" transform="translate(337.300781 0)"/>
     <use xlink:href="#DejaVuSerif-Bold-20" transform="translate(375.289062 0)"/>
     <use xlink:href="#DejaVuSerif-Bold-28" transform="translate(410.103516 0)"/>
     <use xlink:href="#DejaVuSerif-Bold-45" transform="translate(457.417969 0)"/>
     <use xlink:href="#DejaVuSerif-Bold-71" transform="translate(533.638672 0)"/>
     <use xlink:href="#DejaVuSerif-Bold-2e" transform="translate(603.560547 0)"/>
     <use xlink:href="#DejaVuSerif-Bold-20" transform="translate(638.375 0)"/>
     <use xlink:href="#DejaVuSerif-Bold-31" transform="translate(673.189453 0)"/>
     <use xlink:href="#DejaVuSerif-Bold-34" transform="translate(742.769531 0)"/>
     <use xlink:href="#DejaVuSerif-Bold-2d" transform="translate(812.349609 0)"/>
     <use xlink:href="#DejaVuSerif-Bold-31" transform="translate(853.853516 0)"/>
     <use xlink:href="#DejaVuSerif-Bold-39" transform="translate(923.433594 0)"/>
     <use xlink:href="#DejaVuSerif-Bold-29" transform="translate(993.013672 0)"/>
    </g>
   </g>
   <g id="text_4">
    <!-- • Mean pool -->
    <g style="fill: #262626" transform="translate(368.883214 220.36875) scale(0.08 -0.08)">
     <defs>
      <path id="DejaVuSerif-Italic-2022" d="M 959 2381 
Q 959 2769 1229 3036 
Q 1500 3303 1894 3303 
Q 2281 3303 2548 3036 
Q 2816 2769 2816 2381 
Q 2816 1991 2547 1722 
Q 2278 1453 1888 1453 
Q 1497 1453 1228 1722 
Q 959 1991 959 2381 
z
" transform="scale(0.015625)"/>
      <path id="DejaVuSerif-Italic-20" transform="scale(0.015625)"/>
      <path id="DejaVuSerif-Italic-4d" d="M -97 0 
L -34 331 
L 559 331 
L 1338 4331 
L 709 4331 
L 775 4666 
L 2134 4666 
L 3125 1344 
L 5409 4666 
L 6684 4666 
L 6619 4331 
L 5997 4331 
L 5222 331 
L 5816 331 
L 5753 0 
L 3928 0 
L 3991 331 
L 4584 331 
L 5288 3938 
L 3053 684 
L 2613 684 
L 1647 3938 
L 944 331 
L 1538 331 
L 1475 0 
L -97 0 
z
" transform="scale(0.015625)"/>
      <path id="DejaVuSerif-Italic-65" d="M 938 1275 
Q 925 1156 925 1050 
Q 925 756 1031 563 
Q 1216 219 1709 219 
Q 2072 219 2250 328 
Q 2569 525 2644 778 
L 3066 778 
Q 2941 381 2475 103 
Q 2150 -91 1506 -91 
Q 863 -91 516 388 
Q 272 722 272 1206 
Q 272 1419 319 1659 
Q 472 2450 1000 2931 
Q 1528 3413 2278 3413 
Q 3500 3413 3500 2547 
Q 3500 1913 2859 1603 
Q 2206 1288 938 1275 
z
M 2541 1975 
Q 2891 2181 2891 2569 
Q 2891 3103 2181 3103 
Q 1763 3103 1472 2784 
Q 1181 2466 1003 1606 
Q 2006 1653 2541 1975 
z
" transform="scale(0.015625)"/>
      <path id="DejaVuSerif-Italic-61" d="M 2325 519 
Q 1909 -91 1238 -91 
Q 688 -91 409 281 
Q 216 544 216 919 
Q 216 1078 250 1256 
Q 463 2359 1231 2928 
Q 1884 3413 2675 3413 
Q 3206 3413 3388 3322 
L 2806 331 
L 3300 331 
L 3238 0 
L 2225 0 
L 2325 519 
z
M 822 938 
Q 822 269 1469 269 
Q 1863 269 2130 583 
Q 2397 897 2516 1497 
L 2806 3003 
L 2806 3003 
Q 2806 3094 2556 3094 
Q 1956 3094 1491 2625 
Q 1028 2153 863 1297 
Q 822 1097 822 938 
z
" transform="scale(0.015625)"/>
      <path id="DejaVuSerif-Italic-6e" d="M 450 0 
L 1031 2988 
L 481 2988 
L 544 3322 
L 1669 3322 
L 1556 2731 
Q 1781 3069 2068 3241 
Q 2356 3413 2694 3413 
Q 3244 3413 3444 3097 
Q 3563 2906 3563 2588 
Q 3563 2378 3509 2113 
L 3163 331 
L 3675 331 
L 3613 0 
L 2522 0 
L 2897 1931 
Q 2959 2253 2959 2469 
Q 2959 2659 2909 2769 
Q 2803 2994 2425 2994 
Q 2025 2994 1759 2701 
Q 1494 2409 1384 1850 
L 1025 0 
L 450 0 
z
" transform="scale(0.015625)"/>
      <path id="DejaVuSerif-Italic-70" d="M 1466 1825 
L 1400 1497 
Q 1353 1250 1353 1053 
Q 1353 769 1453 581 
Q 1622 269 2059 269 
Q 2500 269 2795 622 
Q 3091 975 3225 1663 
Q 3284 1978 3284 2225 
Q 3284 2513 3200 2703 
Q 3041 3053 2600 3053 
Q 2163 3053 1872 2737 
Q 1581 2422 1466 1825 
z
M 1116 2988 
L 563 2988 
L 628 3322 
L 1756 3322 
L 1656 2803 
Q 1884 3116 2175 3264 
Q 2466 3413 2850 3413 
Q 3463 3413 3753 2928 
Q 3947 2609 3947 2163 
Q 3947 1928 3897 1663 
Q 3744 881 3262 395 
Q 2781 -91 2169 -91 
Q 1784 -91 1551 57 
Q 1319 206 1213 519 
L 850 -1331 
L 275 -1331 
L 1116 2988 
z
" transform="scale(0.015625)"/>
      <path id="DejaVuSerif-Italic-6f" d="M 1644 219 
Q 2106 219 2414 584 
Q 2722 950 2859 1663 
Q 2922 1988 2922 2241 
Q 2922 2541 2834 2738 
Q 2669 3103 2206 3103 
Q 1744 3103 1436 2739 
Q 1128 2375 991 1663 
Q 928 1338 928 1088 
Q 928 784 1019 584 
Q 1184 219 1644 219 
z
M 1584 -91 
Q 859 -91 513 388 
Q 272 722 272 1203 
Q 272 1419 319 1663 
Q 472 2456 1005 2934 
Q 1538 3413 2266 3413 
Q 2994 3413 3341 2934 
Q 3578 2603 3578 2122 
Q 3578 1906 3531 1663 
Q 3378 869 2845 389 
Q 2313 -91 1584 -91 
z
" transform="scale(0.015625)"/>
      <path id="DejaVuSerif-Italic-6c" d="M 903 331 
L 1447 331 
L 1384 0 
L 266 0 
L 1147 4531 
L 594 4531 
L 656 4863 
L 1784 4863 
L 903 331 
z
" transform="scale(0.015625)"/>
     </defs>
     <use xlink:href="#DejaVuSerif-Italic-2022"/>
     <use xlink:href="#DejaVuSerif-Italic-20" transform="translate(58.984375 0)"/>
     <use xlink:href="#DejaVuSerif-Italic-4d" transform="translate(90.771484 0)"/>
     <use xlink:href="#DejaVuSerif-Italic-65" transform="translate(193.164062 0)"/>
     <use xlink:href="#DejaVuSerif-Italic-61" transform="translate(252.34375 0)"/>
     <use xlink:href="#DejaVuSerif-Italic-6e" transform="translate(311.962891 0)"/>
     <use xlink:href="#DejaVuSerif-Italic-20" transform="translate(376.367188 0)"/>
     <use xlink:href="#DejaVuSerif-Italic-70" transform="translate(408.154297 0)"/>
     <use xlink:href="#DejaVuSerif-Italic-6f" transform="translate(472.167969 0)"/>
     <use xlink:href="#DejaVuSerif-Italic-6f" transform="translate(532.373047 0)"/>
     <use xlink:href="#DejaVuSerif-Italic-6c" transform="translate(592.578125 0)"/>
    </g>
    <!-- • MatMul + RMSNorm -->
    <g style="fill: #262626" transform="translate(346.840714 229.327) scale(0.08 -0.08)">
     <defs>
      <path id="DejaVuSerif-Italic-74" d="M 856 2988 
L 350 2988 
L 416 3322 
L 922 3322 
L 1122 4353 
L 1700 4353 
L 1500 3322 
L 2581 3322 
L 2516 2988 
L 1434 2988 
L 1025 878 
Q 978 631 978 488 
Q 978 388 1000 338 
Q 1059 219 1278 219 
Q 1503 219 1633 351 
Q 1763 484 1825 781 
L 2259 781 
Q 2147 328 1884 118 
Q 1622 -91 1169 -91 
Q 672 -91 506 131 
Q 406 266 406 516 
Q 406 675 447 878 
L 856 2988 
z
" transform="scale(0.015625)"/>
      <path id="DejaVuSerif-Italic-75" d="M 3097 3322 
L 3672 3322 
L 3091 331 
L 3634 331 
L 3572 0 
L 2453 0 
L 2566 588 
Q 2341 256 2055 82 
Q 1769 -91 1434 -91 
Q 881 -91 681 225 
Q 559 413 559 734 
Q 559 944 613 1209 
L 956 2988 
L 438 2988 
L 503 3322 
L 1600 3322 
L 1225 1388 
Q 1163 1066 1163 853 
Q 1163 663 1213 556 
Q 1316 331 1697 331 
Q 2097 331 2364 625 
Q 2631 919 2738 1478 
L 3097 3322 
z
" transform="scale(0.015625)"/>
      <path id="DejaVuSerif-Italic-2b" d="M 2931 4013 
L 2931 2259 
L 4684 2259 
L 4684 1753 
L 2931 1753 
L 2931 0 
L 2431 0 
L 2431 1753 
L 678 1753 
L 678 2259 
L 2431 2259 
L 2431 4013 
L 2931 4013 
z
" transform="scale(0.015625)"/>
      <path id="DejaVuSerif-Italic-52" d="M 3066 2316 
Q 3272 2256 3403 2114 
Q 3534 1972 3609 1716 
L 4016 331 
L 4584 331 
L 4522 0 
L 3422 0 
L 2981 1484 
Q 2856 1916 2706 2042 
Q 2556 2169 2250 2169 
L 1553 2169 
L 1194 331 
L 1853 331 
L 1791 0 
L -97 0 
L -34 331 
L 559 331 
L 1338 4331 
L 744 4331 
L 809 4666 
L 3175 4666 
Q 3856 4666 4164 4341 
Q 4472 4016 4356 3419 
Q 4263 2938 3938 2661 
Q 3613 2384 3066 2316 
z
M 1619 2503 
L 2541 2503 
Q 3013 2503 3280 2726 
Q 3547 2950 3639 3419 
Q 3731 3888 3548 4109 
Q 3366 4331 2894 4331 
L 1972 4331 
L 1619 2503 
z
" transform="scale(0.015625)"/>
      <path id="DejaVuSerif-Italic-53" d="M 184 225 
L 391 1288 
L 750 1284 
Q 663 753 905 498 
Q 1147 244 1744 244 
Q 2300 244 2636 464 
Q 2972 684 3053 1106 
Q 3119 1444 2976 1625 
Q 2834 1806 2300 1978 
L 1722 2163 
Q 1091 2366 877 2669 
Q 663 2972 766 3500 
Q 881 4094 1367 4422 
Q 1853 4750 2616 4750 
Q 2941 4750 3314 4679 
Q 3688 4609 4097 4475 
L 3906 3481 
L 3553 3481 
Q 3594 3975 3361 4195 
Q 3128 4416 2563 4416 
Q 2069 4416 1772 4214 
Q 1475 4013 1400 3628 
Q 1334 3294 1490 3103 
Q 1647 2913 2241 2725 
L 2784 2553 
Q 3381 2363 3593 2067 
Q 3806 1772 3709 1275 
Q 3578 597 3076 253 
Q 2575 -91 1716 -91 
Q 1331 -91 948 -12 
Q 566 66 184 225 
z
" transform="scale(0.015625)"/>
      <path id="DejaVuSerif-Italic-4e" d="M -128 0 
L -66 331 
L 563 331 
L 1341 4331 
L 713 4331 
L 778 4666 
L 1975 4666 
L 4056 984 
L 4706 4331 
L 4081 4331 
L 4147 4666 
L 5784 4666 
L 5719 4331 
L 5091 4331 
L 4231 -91 
L 3853 -91 
L 1631 3841 
L 947 331 
L 1575 331 
L 1513 0 
L -128 0 
z
" transform="scale(0.015625)"/>
      <path id="DejaVuSerif-Italic-72" d="M 3375 3328 
L 3213 2497 
L 2881 2497 
Q 2891 2559 2891 2613 
Q 2891 2775 2816 2866 
Q 2719 2988 2484 2988 
Q 2059 2988 1775 2694 
Q 1491 2400 1384 1850 
L 1025 0 
L 450 0 
L 1031 2994 
L 481 2994 
L 544 3322 
L 1669 3322 
L 1556 2731 
Q 1791 3078 2089 3245 
Q 2388 3413 2769 3413 
Q 2909 3413 3059 3391 
Q 3209 3369 3375 3328 
z
" transform="scale(0.015625)"/>
      <path id="DejaVuSerif-Italic-6d" d="M 3503 2675 
Q 3741 3041 4034 3227 
Q 4328 3413 4672 3413 
Q 5194 3413 5388 3088 
Q 5503 2894 5503 2578 
Q 5503 2372 5453 2113 
L 5106 331 
L 5625 331 
L 5563 0 
L 4469 0 
L 4866 2047 
Q 4913 2291 4913 2466 
Q 4913 2659 4856 2772 
Q 4750 2988 4403 2988 
Q 4019 2988 3761 2697 
Q 3503 2406 3394 1850 
L 3034 0 
L 2459 0 
L 2863 2069 
Q 2906 2303 2906 2472 
Q 2906 2666 2850 2775 
Q 2741 2988 2394 2988 
Q 2009 2988 1751 2697 
Q 1494 2406 1384 1850 
L 1025 0 
L 450 0 
L 1031 2994 
L 481 2994 
L 544 3322 
L 1669 3322 
L 1556 2731 
Q 1778 3063 2059 3238 
Q 2341 3413 2653 3413 
Q 3041 3413 3262 3220 
Q 3484 3028 3503 2675 
z
" transform="scale(0.015625)"/>
     </defs>
     <use xlink:href="#DejaVuSerif-Italic-2022"/>
     <use xlink:href="#DejaVuSerif-Italic-20" transform="translate(58.984375 0)"/>
     <use xlink:href="#DejaVuSerif-Italic-4d" transform="translate(90.771484 0)"/>
     <use xlink:href="#DejaVuSerif-Italic-61" transform="translate(193.164062 0)"/>
     <use xlink:href="#DejaVuSerif-Italic-74" transform="translate(252.783203 0)"/>
     <use xlink:href="#DejaVuSerif-Italic-4d" transform="translate(292.96875 0)"/>
     <use xlink:href="#DejaVuSerif-Italic-75" transform="translate(395.361328 0)"/>
     <use xlink:href="#DejaVuSerif-Italic-6c" transform="translate(459.765625 0)"/>
     <use xlink:href="#DejaVuSerif-Italic-20" transform="translate(491.748047 0)"/>
     <use xlink:href="#DejaVuSerif-Italic-2b" transform="translate(523.535156 0)"/>
     <use xlink:href="#DejaVuSerif-Italic-20" transform="translate(607.324219 0)"/>
     <use xlink:href="#DejaVuSerif-Italic-52" transform="translate(639.111328 0)"/>
     <use xlink:href="#DejaVuSerif-Italic-4d" transform="translate(714.404297 0)"/>
     <use xlink:href="#DejaVuSerif-Italic-53" transform="translate(816.796875 0)"/>
     <use xlink:href="#DejaVuSerif-Italic-4e" transform="translate(885.302734 0)"/>
     <use xlink:href="#DejaVuSerif-Italic-6f" transform="translate(972.802734 0)"/>
     <use xlink:href="#DejaVuSerif-Italic-72" transform="translate(1033.007812 0)"/>
     <use xlink:href="#DejaVuSerif-Italic-6d" transform="translate(1080.810547 0)"/>
    </g>
    <!-- • Activations -->
    <g style="fill: #262626" transform="translate(367.650714 238.28525) scale(0.08 -0.08)">
     <defs>
      <path id="DejaVuSerif-Italic-41" d="M 1159 1691 
L 2872 1691 
L 2447 3909 
L 1159 1691 
z
M -488 0 
L -425 331 
L -16 331 
L 2491 4666 
L 3016 4666 
L 3841 331 
L 4297 331 
L 4234 0 
L 2538 0 
L 2600 331 
L 3119 331 
L 2928 1356 
L 966 1356 
L 375 331 
L 888 331 
L 825 0 
L -488 0 
z
" transform="scale(0.015625)"/>
      <path id="DejaVuSerif-Italic-63" d="M 3163 997 
Q 2938 466 2536 187 
Q 2134 -91 1584 -91 
Q 859 -91 513 388 
Q 272 722 272 1203 
Q 272 1419 319 1663 
Q 475 2459 1008 2936 
Q 1541 3413 2266 3413 
Q 2581 3413 2879 3339 
Q 3178 3266 3463 3116 
L 3300 2266 
L 2966 2266 
Q 2966 2309 2966 2347 
Q 2966 2722 2803 2903 
Q 2622 3103 2213 3103 
Q 1747 3103 1439 2742 
Q 1131 2381 991 1663 
Q 928 1334 928 1078 
Q 928 778 1016 581 
Q 1181 219 1650 219 
Q 2022 219 2281 412 
Q 2541 606 2700 997 
L 3163 997 
z
" transform="scale(0.015625)"/>
      <path id="DejaVuSerif-Italic-69" d="M 1009 4353 
Q 1038 4497 1163 4603 
Q 1288 4709 1434 4709 
Q 1578 4709 1663 4603 
Q 1728 4522 1728 4422 
Q 1728 4388 1719 4353 
Q 1691 4206 1567 4103 
Q 1444 4000 1297 4000 
Q 1150 4000 1066 4103 
Q 1003 4181 1003 4281 
Q 1003 4316 1009 4353 
z
M 963 331 
L 1506 331 
L 1444 0 
L 325 0 
L 903 2988 
L 353 2988 
L 419 3322 
L 1544 3322 
L 963 331 
z
" transform="scale(0.015625)"/>
      <path id="DejaVuSerif-Italic-76" d="M 1681 0 
L 1259 0 
L 619 2988 
L 241 2988 
L 303 3322 
L 1163 3322 
L 1725 703 
Q 2084 1016 2325 1413 
Q 2825 2238 3003 2988 
L 2622 2988 
L 2688 3322 
L 3547 3322 
Q 3206 2034 2775 1313 
Q 2400 688 1681 0 
z
" transform="scale(0.015625)"/>
      <path id="DejaVuSerif-Italic-73" d="M 222 959 
L 553 959 
Q 541 869 541 788 
Q 541 219 1313 219 
Q 2088 219 2200 788 
Q 2209 844 2209 944 
Q 2209 1041 2103 1158 
Q 1997 1275 1550 1428 
L 1159 1569 
Q 759 1706 629 1882 
Q 500 2059 500 2263 
Q 500 2344 516 2438 
Q 606 2894 990 3153 
Q 1375 3413 1931 3413 
Q 2484 3413 3066 3144 
L 2925 2419 
L 2594 2419 
Q 2606 2491 2606 2553 
Q 2606 2781 2448 2942 
Q 2291 3103 1925 3103 
Q 1191 3103 1091 2591 
Q 1078 2538 1078 2444 
Q 1078 2347 1179 2237 
Q 1281 2128 1678 1997 
L 2106 1856 
Q 2550 1709 2716 1488 
Q 2831 1331 2831 1178 
Q 2831 522 2306 181 
Q 1894 -91 1262 -91 
Q 631 -91 72 184 
L 222 959 
z
" transform="scale(0.015625)"/>
     </defs>
     <use xlink:href="#DejaVuSerif-Italic-2022"/>
     <use xlink:href="#DejaVuSerif-Italic-20" transform="translate(58.984375 0)"/>
     <use xlink:href="#DejaVuSerif-Italic-41" transform="translate(90.771484 0)"/>
     <use xlink:href="#DejaVuSerif-Italic-63" transform="translate(162.988281 0)"/>
     <use xlink:href="#DejaVuSerif-Italic-74" transform="translate(218.994141 0)"/>
     <use xlink:href="#DejaVuSerif-Italic-69" transform="translate(259.179688 0)"/>
     <use xlink:href="#DejaVuSerif-Italic-76" transform="translate(291.162109 0)"/>
     <use xlink:href="#DejaVuSerif-Italic-61" transform="translate(347.65625 0)"/>
     <use xlink:href="#DejaVuSerif-Italic-74" transform="translate(407.275391 0)"/>
     <use xlink:href="#DejaVuSerif-Italic-69" transform="translate(447.460938 0)"/>
     <use xlink:href="#DejaVuSerif-Italic-6f" transform="translate(479.443359 0)"/>
     <use xlink:href="#DejaVuSerif-Italic-6e" transform="translate(539.648438 0)"/>
     <use xlink:href="#DejaVuSerif-Italic-73" transform="translate(604.052734 0)"/>
    </g>
    <!-- • Inline Sinkhorn -->
    <g style="fill: #262626" transform="translate(358.813214 247.2435) scale(0.08 -0.08)">
     <defs>
      <path id="DejaVuSerif-Italic-49" d="M 1194 331 
L 1788 331 
L 1725 0 
L -97 0 
L -34 331 
L 559 331 
L 1338 4331 
L 744 4331 
L 809 4666 
L 2631 4666 
L 2566 4331 
L 1972 4331 
L 1194 331 
z
" transform="scale(0.015625)"/>
      <path id="DejaVuSerif-Italic-6b" d="M 2113 2075 
L 3034 331 
L 3513 331 
L 3450 0 
L 2528 0 
L 1622 1697 
L 1088 1275 
L 841 0 
L 266 0 
L 1147 4531 
L 594 4531 
L 656 4863 
L 1784 4863 
L 1169 1697 
L 2822 2988 
L 2344 2988 
L 2406 3322 
L 3341 3322 
L 3278 2988 
L 2113 2075 
z
" transform="scale(0.015625)"/>
      <path id="DejaVuSerif-Italic-68" d="M 309 0 
L 1191 4531 
L 641 4531 
L 703 4863 
L 1828 4863 
L 1416 2731 
Q 1641 3069 1928 3241 
Q 2216 3413 2553 3413 
Q 3103 3413 3300 3097 
Q 3422 2906 3422 2588 
Q 3422 2378 3369 2113 
L 3022 331 
L 3534 331 
L 3472 0 
L 2381 0 
L 2756 1931 
Q 2819 2253 2819 2469 
Q 2819 2659 2769 2763 
Q 2666 2988 2284 2988 
Q 1884 2988 1617 2697 
Q 1350 2406 1244 1850 
L 884 0 
L 309 0 
z
" transform="scale(0.015625)"/>
     </defs>
     <use xlink:href="#DejaVuSerif-Italic-2022"/>
     <use xlink:href="#DejaVuSerif-Italic-20" transform="translate(58.984375 0)"/>
     <use xlink:href="#DejaVuSerif-Italic-49" transform="translate(90.771484 0)"/>
     <use xlink:href="#DejaVuSerif-Italic-6e" transform="translate(130.273438 0)"/>
     <use xlink:href="#DejaVuSerif-Italic-6c" transform="translate(194.677734 0)"/>
     <use xlink:href="#DejaVuSerif-Italic-69" transform="translate(226.660156 0)"/>
     <use xlink:href="#DejaVuSerif-Italic-6e" transform="translate(258.642578 0)"/>
     <use xlink:href="#DejaVuSerif-Italic-65" transform="translate(323.046875 0)"/>
     <use xlink:href="#DejaVuSerif-Italic-20" transform="translate(382.226562 0)"/>
     <use xlink:href="#DejaVuSerif-Italic-53" transform="translate(414.013672 0)"/>
     <use xlink:href="#DejaVuSerif-Italic-69" transform="translate(482.519531 0)"/>
     <use xlink:href="#DejaVuSerif-Italic-6e" transform="translate(514.501953 0)"/>
     <use xlink:href="#DejaVuSerif-Italic-6b" transform="translate(578.90625 0)"/>
     <use xlink:href="#DejaVuSerif-Italic-68" transform="translate(639.501953 0)"/>
     <use xlink:href="#DejaVuSerif-Italic-6f" transform="translate(703.90625 0)"/>
     <use xlink:href="#DejaVuSerif-Italic-72" transform="translate(764.111328 0)"/>
     <use xlink:href="#DejaVuSerif-Italic-6e" transform="translate(811.914062 0)"/>
    </g>
   </g>
   <g id="text_5">
    <!-- H_pre -->
    <g style="fill: #262626" transform="translate(318.265018 339.501375) scale(0.08 -0.08)">
     <defs>
      <path id="DejaVuSerif-48" d="M 353 0 
L 353 331 
L 947 331 
L 947 4331 
L 353 4331 
L 353 4666 
L 2175 4666 
L 2175 4331 
L 1581 4331 
L 1581 2719 
L 4000 2719 
L 4000 4331 
L 3406 4331 
L 3406 4666 
L 5228 4666 
L 5228 4331 
L 4634 4331 
L 4634 331 
L 5228 331 
L 5228 0 
L 3406 0 
L 3406 331 
L 4000 331 
L 4000 2338 
L 1581 2338 
L 1581 331 
L 2175 331 
L 2175 0 
L 353 0 
z
" transform="scale(0.015625)"/>
      <path id="DejaVuSerif-5f" d="M 3200 -1259 
L 3200 -1509 
L 0 -1509 
L 0 -1259 
L 3200 -1259 
z
" transform="scale(0.015625)"/>
      <path id="DejaVuSerif-70" d="M 1313 1825 
L 1313 1497 
Q 1313 897 1542 583 
Q 1772 269 2209 269 
Q 2650 269 2876 622 
Q 3103 975 3103 1663 
Q 3103 2353 2876 2703 
Q 2650 3053 2209 3053 
Q 1772 3053 1542 2737 
Q 1313 2422 1313 1825 
z
M 738 2988 
L 184 2988 
L 184 3322 
L 1313 3322 
L 1313 2803 
Q 1481 3116 1742 3264 
Q 2003 3413 2388 3413 
Q 3000 3413 3387 2928 
Q 3775 2444 3775 1663 
Q 3775 881 3387 395 
Q 3000 -91 2388 -91 
Q 2003 -91 1742 57 
Q 1481 206 1313 519 
L 1313 -997 
L 1856 -997 
L 1856 -1331 
L 184 -1331 
L 184 -997 
L 738 -997 
L 738 2988 
z
" transform="scale(0.015625)"/>
      <path id="DejaVuSerif-72" d="M 3059 3328 
L 3059 2497 
L 2728 2497 
Q 2713 2744 2591 2866 
Q 2469 2988 2234 2988 
Q 1809 2988 1582 2694 
Q 1356 2400 1356 1850 
L 1356 331 
L 2022 331 
L 2022 0 
L 263 0 
L 263 331 
L 781 331 
L 781 2994 
L 231 2994 
L 231 3322 
L 1356 3322 
L 1356 2731 
Q 1525 3078 1790 3245 
Q 2056 3413 2438 3413 
Q 2578 3413 2733 3391 
Q 2888 3369 3059 3328 
z
" transform="scale(0.015625)"/>
      <path id="DejaVuSerif-65" d="M 3469 1600 
L 991 1600 
L 991 1575 
Q 991 903 1244 561 
Q 1497 219 1991 219 
Q 2369 219 2611 417 
Q 2853 616 2950 1006 
L 3413 1006 
Q 3275 459 2904 184 
Q 2534 -91 1931 -91 
Q 1203 -91 761 389 
Q 319 869 319 1663 
Q 319 2450 753 2931 
Q 1188 3413 1894 3413 
Q 2647 3413 3050 2948 
Q 3453 2484 3469 1600 
z
M 2791 1931 
Q 2772 2513 2545 2808 
Q 2319 3103 1894 3103 
Q 1497 3103 1269 2806 
Q 1041 2509 991 1931 
L 2791 1931 
z
" transform="scale(0.015625)"/>
     </defs>
     <use xlink:href="#DejaVuSerif-48"/>
     <use xlink:href="#DejaVuSerif-5f" transform="translate(87.207031 0)"/>
     <use xlink:href="#DejaVuSerif-70" transform="translate(137.207031 0)"/>
     <use xlink:href="#DejaVuSerif-72" transform="translate(201.220703 0)"/>
     <use xlink:href="#DejaVuSerif-65" transform="translate(249.023438 0)"/>
    </g>
    <!-- [B, 4] -->
    <g style="fill: #262626" transform="translate(319.445018 348.682125) scale(0.08 -0.08)">
     <defs>
      <path id="DejaVuSerif-5b" d="M 550 4863 
L 2003 4863 
L 2003 4531 
L 1147 4531 
L 1147 -513 
L 2003 -513 
L 2003 -844 
L 550 -844 
L 550 4863 
z
" transform="scale(0.015625)"/>
      <path id="DejaVuSerif-42" d="M 1581 331 
L 2516 331 
Q 3078 331 3337 575 
Q 3597 819 3597 1350 
Q 3597 1878 3339 2120 
Q 3081 2363 2516 2363 
L 1581 2363 
L 1581 331 
z
M 1581 2694 
L 2375 2694 
Q 2888 2694 3123 2891 
Q 3359 3088 3359 3513 
Q 3359 3941 3123 4136 
Q 2888 4331 2375 4331 
L 1581 4331 
L 1581 2694 
z
M 353 0 
L 353 331 
L 947 331 
L 947 4331 
L 353 4331 
L 353 4666 
L 2656 4666 
Q 3363 4666 3720 4377 
Q 4078 4088 4078 3513 
Q 4078 3097 3829 2850 
Q 3581 2603 3103 2547 
Q 3697 2472 4005 2167 
Q 4313 1863 4313 1350 
Q 4313 656 3875 328 
Q 3438 0 2509 0 
L 353 0 
z
" transform="scale(0.015625)"/>
      <path id="DejaVuSerif-2c" d="M 231 -622 
Q 525 -406 662 -114 
Q 800 178 800 594 
L 800 709 
L 1416 709 
Q 1391 175 1164 -208 
Q 938 -591 481 -872 
L 231 -622 
z
" transform="scale(0.015625)"/>
      <path id="DejaVuSerif-20" transform="scale(0.015625)"/>
      <path id="DejaVuSerif-34" d="M 2234 1581 
L 2234 4063 
L 641 1581 
L 2234 1581 
z
M 3609 0 
L 1484 0 
L 1484 331 
L 2234 331 
L 2234 1247 
L 197 1247 
L 197 1588 
L 2241 4750 
L 2859 4750 
L 2859 1581 
L 3750 1581 
L 3750 1247 
L 2859 1247 
L 2859 331 
L 3609 331 
L 3609 0 
z
" transform="scale(0.015625)"/>
      <path id="DejaVuSerif-5d" d="M 1947 4863 
L 1947 -844 
L 494 -844 
L 494 -513 
L 1350 -513 
L 1350 4531 
L 494 4531 
L 494 4863 
L 1947 4863 
z
" transform="scale(0.015625)"/>
     </defs>
     <use xlink:href="#DejaVuSerif-5b"/>
     <use xlink:href="#DejaVuSerif-42" transform="translate(39.013672 0)"/>
     <use xlink:href="#DejaVuSerif-2c" transform="translate(112.5 0)"/>
     <use xlink:href="#DejaVuSerif-20" transform="translate(144.287109 0)"/>
     <use xlink:href="#DejaVuSerif-34" transform="translate(176.074219 0)"/>
     <use xlink:href="#DejaVuSerif-5d" transform="translate(239.697266 0)"/>
    </g>
   </g>
   <g id="text_6">
    <!-- H_res -->
    <g style="fill: #262626" transform="translate(417.197143 339.501375) scale(0.08 -0.08)">
     <defs>
      <path id="DejaVuSerif-73" d="M 359 184 
L 359 959 
L 691 959 
Q 703 588 923 403 
Q 1144 219 1575 219 
Q 1963 219 2166 364 
Q 2369 509 2369 788 
Q 2369 1006 2220 1140 
Q 2072 1275 1594 1428 
L 1178 1569 
Q 750 1706 558 1912 
Q 366 2119 366 2438 
Q 366 2894 700 3153 
Q 1034 3413 1625 3413 
Q 1888 3413 2178 3344 
Q 2469 3275 2778 3144 
L 2778 2419 
L 2447 2419 
Q 2434 2741 2221 2922 
Q 2009 3103 1644 3103 
Q 1281 3103 1095 2975 
Q 909 2847 909 2591 
Q 909 2381 1050 2254 
Q 1191 2128 1613 1997 
L 2069 1856 
Q 2541 1709 2748 1489 
Q 2956 1269 2956 922 
Q 2956 450 2595 179 
Q 2234 -91 1600 -91 
Q 1278 -91 972 -22 
Q 666 47 359 184 
z
" transform="scale(0.015625)"/>
     </defs>
     <use xlink:href="#DejaVuSerif-48"/>
     <use xlink:href="#DejaVuSerif-5f" transform="translate(87.207031 0)"/>
     <use xlink:href="#DejaVuSerif-72" transform="translate(137.207031 0)"/>
     <use xlink:href="#DejaVuSerif-65" transform="translate(185.009766 0)"/>
     <use xlink:href="#DejaVuSerif-73" transform="translate(244.189453 0)"/>
    </g>
    <!-- [B, 4, 4] -->
    <g style="fill: #262626" transform="translate(412.781518 348.682125) scale(0.08 -0.08)">
     <use xlink:href="#DejaVuSerif-5b"/>
     <use xlink:href="#DejaVuSerif-42" transform="translate(39.013672 0)"/>
     <use xlink:href="#DejaVuSerif-2c" transform="translate(112.5 0)"/>
     <use xlink:href="#DejaVuSerif-20" transform="translate(144.287109 0)"/>
     <use xlink:href="#DejaVuSerif-34" transform="translate(176.074219 0)"/>
     <use xlink:href="#DejaVuSerif-2c" transform="translate(239.697266 0)"/>
     <use xlink:href="#DejaVuSerif-20" transform="translate(271.484375 0)"/>
     <use xlink:href="#DejaVuSerif-34" transform="translate(303.271484 0)"/>
     <use xlink:href="#DejaVuSerif-5d" transform="translate(366.894531 0)"/>
    </g>
   </g>
   <g id="text_7">
    <!-- H_post -->
    <g style="fill: #262626" transform="translate(513.324268 339.501375) scale(0.08 -0.08)">
     <defs>
      <path id="DejaVuSerif-6f" d="M 1925 219 
Q 2388 219 2623 584 
Q 2859 950 2859 1663 
Q 2859 2375 2623 2739 
Q 2388 3103 1925 3103 
Q 1463 3103 1227 2739 
Q 991 2375 991 1663 
Q 991 950 1228 584 
Q 1466 219 1925 219 
z
M 1925 -91 
Q 1200 -91 759 389 
Q 319 869 319 1663 
Q 319 2456 758 2934 
Q 1197 3413 1925 3413 
Q 2653 3413 3092 2934 
Q 3531 2456 3531 1663 
Q 3531 869 3092 389 
Q 2653 -91 1925 -91 
z
" transform="scale(0.015625)"/>
      <path id="DejaVuSerif-74" d="M 691 2988 
L 184 2988 
L 184 3322 
L 691 3322 
L 691 4353 
L 1269 4353 
L 1269 3322 
L 2350 3322 
L 2350 2988 
L 1269 2988 
L 1269 878 
Q 1269 456 1350 337 
Q 1431 219 1650 219 
Q 1875 219 1978 351 
Q 2081 484 2088 781 
L 2522 781 
Q 2497 328 2275 118 
Q 2053 -91 1600 -91 
Q 1103 -91 897 129 
Q 691 350 691 878 
L 691 2988 
z
" transform="scale(0.015625)"/>
     </defs>
     <use xlink:href="#DejaVuSerif-48"/>
     <use xlink:href="#DejaVuSerif-5f" transform="translate(87.207031 0)"/>
     <use xlink:href="#DejaVuSerif-70" transform="translate(137.207031 0)"/>
     <use xlink:href="#DejaVuSerif-6f" transform="translate(201.220703 0)"/>
     <use xlink:href="#DejaVuSerif-73" transform="translate(261.425781 0)"/>
     <use xlink:href="#DejaVuSerif-74" transform="translate(312.744141 0)"/>
    </g>
    <!-- [B, 4] -->
    <g style="fill: #262626" transform="translate(516.293018 348.682125) scale(0.08 -0.08)">
     <use xlink:href="#DejaVuSerif-5b"/>
     <use xlink:href="#DejaVuSerif-42" transform="translate(39.013672 0)"/>
     <use xlink:href="#DejaVuSerif-2c" transform="translate(112.5 0)"/>
     <use xlink:href="#DejaVuSerif-20" transform="translate(144.287109 0)"/>
     <use xlink:href="#DejaVuSerif-34" transform="translate(176.074219 0)"/>
     <use xlink:href="#DejaVuSerif-5d" transform="translate(239.697266 0)"/>
    </g>
   </g>
   <g id="text_8">
    <!-- Stream Mix -->
    <g style="fill: #262626" transform="translate(660.230982 194.192969) scale(0.1 -0.1)">
     <defs>
      <path id="DejaVuSerif-Bold-53" d="M 494 225 
L 494 1331 
L 891 1331 
Q 981 806 1318 547 
Q 1656 288 2253 288 
Q 2738 288 2991 472 
Q 3244 656 3244 1013 
Q 3244 1294 3072 1450 
Q 2900 1606 2363 1741 
L 1663 1913 
Q 978 2088 700 2398 
Q 422 2709 422 3284 
Q 422 3978 883 4364 
Q 1344 4750 2175 4750 
Q 2584 4750 3026 4681 
Q 3469 4613 3944 4475 
L 3944 3444 
L 3547 3444 
Q 3456 3925 3150 4148 
Q 2844 4372 2278 4372 
Q 1816 4372 1580 4211 
Q 1344 4050 1344 3731 
Q 1344 3441 1506 3289 
Q 1669 3138 2303 2975 
L 3003 2803 
Q 3653 2641 3945 2297 
Q 4238 1953 4238 1350 
Q 4238 644 3750 276 
Q 3263 -91 2316 -91 
Q 1859 -91 1409 -12 
Q 959 66 494 225 
z
" transform="scale(0.015625)"/>
      <path id="DejaVuSerif-Bold-78" d="M 2247 2119 
L 2834 2944 
L 2425 2944 
L 2425 3322 
L 3719 3322 
L 3719 2944 
L 3278 2944 
L 2431 1759 
L 3419 378 
L 3859 378 
L 3859 0 
L 1747 0 
L 1747 378 
L 2175 378 
L 1550 1253 
L 922 378 
L 1369 378 
L 1369 0 
L 0 0 
L 0 378 
L 475 378 
L 1356 1619 
L 403 2944 
L 31 2944 
L 31 3322 
L 2059 3322 
L 2059 2944 
L 1656 2944 
L 2247 2119 
z
" transform="scale(0.015625)"/>
     </defs>
     <use xlink:href="#DejaVuSerif-Bold-53"/>
     <use xlink:href="#DejaVuSerif-Bold-74" transform="translate(72.216797 0)"/>
     <use xlink:href="#DejaVuSerif-Bold-72" transform="translate(118.408203 0)"/>
     <use xlink:href="#DejaVuSerif-Bold-65" transform="translate(171.09375 0)"/>
     <use xlink:href="#DejaVuSerif-Bold-61" transform="translate(234.716797 0)"/>
     <use xlink:href="#DejaVuSerif-Bold-6d" transform="translate(299.511719 0)"/>
     <use xlink:href="#DejaVuSerif-Bold-20" transform="translate(405.322266 0)"/>
     <use xlink:href="#DejaVuSerif-Bold-4d" transform="translate(440.136719 0)"/>
     <use xlink:href="#DejaVuSerif-Bold-69" transform="translate(550.830078 0)"/>
     <use xlink:href="#DejaVuSerif-Bold-78" transform="translate(588.818359 0)"/>
    </g>
    <!-- Kernel (Eq. 10-11) -->
    <g style="fill: #262626" transform="translate(640.637232 205.390781) scale(0.1 -0.1)">
     <defs>
      <path id="DejaVuSerif-Bold-30" d="M 2228 275 
Q 2603 275 2742 615 
Q 2881 956 2881 2328 
Q 2881 3691 2742 4037 
Q 2603 4384 2228 4384 
Q 1853 4384 1714 4043 
Q 1575 3703 1575 2328 
Q 1575 956 1714 615 
Q 1853 275 2228 275 
z
M 2228 -91 
Q 1294 -91 797 532 
Q 300 1156 300 2328 
Q 300 3500 797 4125 
Q 1294 4750 2228 4750 
Q 3159 4750 3656 4125 
Q 4153 3500 4153 2328 
Q 4153 1156 3656 532 
Q 3159 -91 2228 -91 
z
" transform="scale(0.015625)"/>
     </defs>
     <use xlink:href="#DejaVuSerif-Bold-4b"/>
     <use xlink:href="#DejaVuSerif-Bold-65" transform="translate(84.664062 0)"/>
     <use xlink:href="#DejaVuSerif-Bold-72" transform="translate(148.287109 0)"/>
     <use xlink:href="#DejaVuSerif-Bold-6e" transform="translate(200.972656 0)"/>
     <use xlink:href="#DejaVuSerif-Bold-65" transform="translate(273.677734 0)"/>
     <use xlink:href="#DejaVuSerif-Bold-6c" transform="translate(337.300781 0)"/>
     <use xlink:href="#DejaVuSerif-Bold-20" transform="translate(375.289062 0)"/>
     <use xlink:href="#DejaVuSerif-Bold-28" transform="translate(410.103516 0)"/>
     <use xlink:href="#DejaVuSerif-Bold-45" transform="translate(457.417969 0)"/>
     <use xlink:href="#DejaVuSerif-Bold-71" transform="translate(533.638672 0)"/>
     <use xlink:href="#DejaVuSerif-Bold-2e" transform="translate(603.560547 0)"/>
     <use xlink:href="#DejaVuSerif-Bold-20" transform="translate(638.375 0)"/>
     <use xlink:href="#DejaVuSerif-Bold-31" transform="translate(673.189453 0)"/>
     <use xlink:href="#DejaVuSerif-Bold-30" transform="translate(742.769531 0)"/>
     <use xlink:href="#DejaVuSerif-Bold-2d" transform="translate(812.349609 0)"/>
     <use xlink:href="#DejaVuSerif-Bold-31" transform="translate(853.853516 0)"/>
     <use xlink:href="#DejaVuSerif-Bold-31" transform="translate(923.433594 0)"/>
     <use xlink:href="#DejaVuSerif-Bold-29" transform="translate(993.013672 0)"/>
    </g>
   </g>
   <g id="text_9">
    <!-- branch_input -->
    <g style="fill: #262626" transform="translate(662.446607 349.669266) scale(0.09 -0.09)">
     <defs>
      <path id="DejaVuSerif-62" d="M 738 331 
L 738 4531 
L 184 4531 
L 184 4863 
L 1313 4863 
L 1313 2803 
Q 1481 3116 1742 3264 
Q 2003 3413 2388 3413 
Q 3000 3413 3387 2928 
Q 3775 2444 3775 1663 
Q 3775 881 3387 395 
Q 3000 -91 2388 -91 
Q 2003 -91 1742 57 
Q 1481 206 1313 519 
L 1313 0 
L 184 0 
L 184 331 
L 738 331 
z
M 1313 1497 
Q 1313 897 1542 583 
Q 1772 269 2209 269 
Q 2650 269 2876 622 
Q 3103 975 3103 1663 
Q 3103 2353 2876 2703 
Q 2650 3053 2209 3053 
Q 1772 3053 1542 2737 
Q 1313 2422 1313 1825 
L 1313 1497 
z
" transform="scale(0.015625)"/>
      <path id="DejaVuSerif-61" d="M 2547 1044 
L 2547 1747 
L 1806 1747 
Q 1378 1747 1168 1562 
Q 959 1378 959 997 
Q 959 650 1171 447 
Q 1384 244 1747 244 
Q 2106 244 2326 466 
Q 2547 688 2547 1044 
z
M 3122 2075 
L 3122 331 
L 3634 331 
L 3634 0 
L 2547 0 
L 2547 359 
Q 2356 128 2106 18 
Q 1856 -91 1522 -91 
Q 969 -91 644 203 
Q 319 497 319 997 
Q 319 1513 691 1797 
Q 1063 2081 1741 2081 
L 2547 2081 
L 2547 2309 
Q 2547 2688 2317 2895 
Q 2088 3103 1672 3103 
Q 1328 3103 1125 2947 
Q 922 2791 872 2484 
L 575 2484 
L 575 3156 
Q 875 3284 1158 3348 
Q 1441 3413 1709 3413 
Q 2400 3413 2761 3070 
Q 3122 2728 3122 2075 
z
" transform="scale(0.015625)"/>
      <path id="DejaVuSerif-6e" d="M 263 0 
L 263 331 
L 781 331 
L 781 2988 
L 231 2988 
L 231 3322 
L 1356 3322 
L 1356 2731 
Q 1516 3069 1770 3241 
Q 2025 3413 2363 3413 
Q 2913 3413 3172 3097 
Q 3431 2781 3431 2113 
L 3431 331 
L 3944 331 
L 3944 0 
L 2356 0 
L 2356 331 
L 2853 331 
L 2853 1931 
Q 2853 2541 2703 2767 
Q 2553 2994 2175 2994 
Q 1775 2994 1565 2701 
Q 1356 2409 1356 1850 
L 1356 331 
L 1856 331 
L 1856 0 
L 263 0 
z
" transform="scale(0.015625)"/>
      <path id="DejaVuSerif-63" d="M 3291 997 
Q 3169 466 2822 187 
Q 2475 -91 1925 -91 
Q 1200 -91 759 389 
Q 319 869 319 1663 
Q 319 2459 759 2936 
Q 1200 3413 1925 3413 
Q 2241 3413 2553 3339 
Q 2866 3266 3181 3116 
L 3181 2266 
L 2847 2266 
Q 2781 2703 2561 2903 
Q 2341 3103 1931 3103 
Q 1466 3103 1228 2742 
Q 991 2381 991 1663 
Q 991 944 1227 581 
Q 1463 219 1931 219 
Q 2303 219 2525 412 
Q 2747 606 2828 997 
L 3291 997 
z
" transform="scale(0.015625)"/>
      <path id="DejaVuSerif-68" d="M 263 0 
L 263 331 
L 781 331 
L 781 4531 
L 231 4531 
L 231 4863 
L 1356 4863 
L 1356 2731 
Q 1516 3069 1770 3241 
Q 2025 3413 2363 3413 
Q 2913 3413 3172 3097 
Q 3431 2781 3431 2113 
L 3431 331 
L 3944 331 
L 3944 0 
L 2356 0 
L 2356 331 
L 2853 331 
L 2853 1931 
Q 2853 2541 2704 2764 
Q 2556 2988 2175 2988 
Q 1775 2988 1565 2697 
Q 1356 2406 1356 1850 
L 1356 331 
L 1856 331 
L 1856 0 
L 263 0 
z
" transform="scale(0.015625)"/>
      <path id="DejaVuSerif-69" d="M 622 4353 
Q 622 4497 726 4603 
Q 831 4709 978 4709 
Q 1122 4709 1226 4603 
Q 1331 4497 1331 4353 
Q 1331 4206 1228 4103 
Q 1125 4000 978 4000 
Q 831 4000 726 4103 
Q 622 4206 622 4353 
z
M 1356 331 
L 1900 331 
L 1900 0 
L 231 0 
L 231 331 
L 781 331 
L 781 2988 
L 231 2988 
L 231 3322 
L 1356 3322 
L 1356 331 
z
" transform="scale(0.015625)"/>
      <path id="DejaVuSerif-75" d="M 2266 3322 
L 3341 3322 
L 3341 331 
L 3884 331 
L 3884 0 
L 2766 0 
L 2766 588 
Q 2606 256 2353 82 
Q 2100 -91 1766 -91 
Q 1213 -91 952 223 
Q 691 538 691 1209 
L 691 2988 
L 172 2988 
L 172 3322 
L 1269 3322 
L 1269 1388 
Q 1269 781 1417 556 
Q 1566 331 1947 331 
Q 2347 331 2556 625 
Q 2766 919 2766 1478 
L 2766 2988 
L 2266 2988 
L 2266 3322 
z
" transform="scale(0.015625)"/>
     </defs>
     <use xlink:href="#DejaVuSerif-62"/>
     <use xlink:href="#DejaVuSerif-72" transform="translate(64.013672 0)"/>
     <use xlink:href="#DejaVuSerif-61" transform="translate(111.816406 0)"/>
     <use xlink:href="#DejaVuSerif-6e" transform="translate(171.435547 0)"/>
     <use xlink:href="#DejaVuSerif-63" transform="translate(235.839844 0)"/>
     <use xlink:href="#DejaVuSerif-68" transform="translate(291.845703 0)"/>
     <use xlink:href="#DejaVuSerif-5f" transform="translate(356.25 0)"/>
     <use xlink:href="#DejaVuSerif-69" transform="translate(406.25 0)"/>
     <use xlink:href="#DejaVuSerif-6e" transform="translate(438.232422 0)"/>
     <use xlink:href="#DejaVuSerif-70" transform="translate(502.636719 0)"/>
     <use xlink:href="#DejaVuSerif-75" transform="translate(566.650391 0)"/>
     <use xlink:href="#DejaVuSerif-74" transform="translate(631.054688 0)"/>
    </g>
    <!-- [B, S, dim] -->
    <g style="fill: #262626" transform="translate(668.607388 359.997609) scale(0.09 -0.09)">
     <defs>
      <path id="DejaVuSerif-53" d="M 594 225 
L 594 1288 
L 953 1284 
Q 969 753 1261 498 
Q 1553 244 2150 244 
Q 2706 244 2998 464 
Q 3291 684 3291 1106 
Q 3291 1444 3114 1625 
Q 2938 1806 2369 1978 
L 1753 2163 
Q 1084 2366 811 2669 
Q 538 2972 538 3500 
Q 538 4094 959 4422 
Q 1381 4750 2144 4750 
Q 2469 4750 2856 4679 
Q 3244 4609 3681 4475 
L 3681 3481 
L 3328 3481 
Q 3275 3975 2998 4195 
Q 2722 4416 2156 4416 
Q 1663 4416 1405 4214 
Q 1147 4013 1147 3628 
Q 1147 3294 1340 3103 
Q 1534 2913 2163 2725 
L 2741 2553 
Q 3375 2363 3645 2067 
Q 3916 1772 3916 1275 
Q 3916 597 3481 253 
Q 3047 -91 2188 -91 
Q 1803 -91 1404 -12 
Q 1006 66 594 225 
z
" transform="scale(0.015625)"/>
      <path id="DejaVuSerif-64" d="M 3359 331 
L 3909 331 
L 3909 0 
L 2784 0 
L 2784 519 
Q 2616 206 2355 57 
Q 2094 -91 1709 -91 
Q 1097 -91 708 395 
Q 319 881 319 1663 
Q 319 2444 706 2928 
Q 1094 3413 1709 3413 
Q 2094 3413 2355 3264 
Q 2616 3116 2784 2803 
L 2784 4531 
L 2241 4531 
L 2241 4863 
L 3359 4863 
L 3359 331 
z
M 2784 1497 
L 2784 1825 
Q 2784 2422 2554 2737 
Q 2325 3053 1888 3053 
Q 1444 3053 1217 2703 
Q 991 2353 991 1663 
Q 991 975 1217 622 
Q 1444 269 1888 269 
Q 2325 269 2554 583 
Q 2784 897 2784 1497 
z
" transform="scale(0.015625)"/>
      <path id="DejaVuSerif-6d" d="M 3316 2675 
Q 3481 3041 3739 3227 
Q 3997 3413 4341 3413 
Q 4863 3413 5119 3089 
Q 5375 2766 5375 2113 
L 5375 331 
L 5894 331 
L 5894 0 
L 4300 0 
L 4300 331 
L 4800 331 
L 4800 2047 
Q 4800 2556 4650 2772 
Q 4500 2988 4153 2988 
Q 3769 2988 3567 2697 
Q 3366 2406 3366 1850 
L 3366 331 
L 3866 331 
L 3866 0 
L 2291 0 
L 2291 331 
L 2791 331 
L 2791 2069 
Q 2791 2566 2641 2777 
Q 2491 2988 2144 2988 
Q 1759 2988 1557 2697 
Q 1356 2406 1356 1850 
L 1356 331 
L 1856 331 
L 1856 0 
L 263 0 
L 263 331 
L 781 331 
L 781 2994 
L 231 2994 
L 231 3322 
L 1356 3322 
L 1356 2731 
Q 1516 3063 1762 3238 
Q 2009 3413 2322 3413 
Q 2709 3413 2968 3220 
Q 3228 3028 3316 2675 
z
" transform="scale(0.015625)"/>
     </defs>
     <use xlink:href="#DejaVuSerif-5b"/>
     <use xlink:href="#DejaVuSerif-42" transform="translate(39.013672 0)"/>
     <use xlink:href="#DejaVuSerif-2c" transform="translate(112.5 0)"/>
     <use xlink:href="#DejaVuSerif-20" transform="translate(144.287109 0)"/>
     <use xlink:href="#DejaVuSerif-53" transform="translate(176.074219 0)"/>
     <use xlink:href="#DejaVuSerif-2c" transform="translate(240.955078 0)"/>
     <use xlink:href="#DejaVuSerif-20" transform="translate(272.742188 0)"/>
     <use xlink:href="#DejaVuSerif-64" transform="translate(304.529297 0)"/>
     <use xlink:href="#DejaVuSerif-69" transform="translate(368.542969 0)"/>
     <use xlink:href="#DejaVuSerif-6d" transform="translate(400.525391 0)"/>
     <use xlink:href="#DejaVuSerif-5d" transform="translate(495.349609 0)"/>
    </g>
   </g>
   <g id="text_10">
    <!-- Your Layer -->
    <g style="fill: #262626" transform="translate(665.694342 467.017453) scale(0.09 -0.09)">
     <defs>
      <path id="DejaVuSerif-Bold-59" d="M 1100 0 
L 1100 378 
L 1728 378 
L 1728 1931 
L 341 4288 
L -56 4288 
L -56 4666 
L 2181 4666 
L 2181 4288 
L 1663 4288 
L 2713 2509 
L 3756 4288 
L 3291 4288 
L 3291 4666 
L 4628 4666 
L 4628 4288 
L 4231 4288 
L 2938 2094 
L 2938 378 
L 3566 378 
L 3566 0 
L 1100 0 
z
" transform="scale(0.015625)"/>
      <path id="DejaVuSerif-Bold-4c" d="M 300 0 
L 300 378 
L 897 378 
L 897 4288 
L 300 4288 
L 300 4666 
L 2700 4666 
L 2700 4288 
L 2100 4288 
L 2100 428 
L 3938 428 
L 3938 1166 
L 4359 1166 
L 4359 0 
L 300 0 
z
" transform="scale(0.015625)"/>
     </defs>
     <use xlink:href="#DejaVuSerif-Bold-59"/>
     <use xlink:href="#DejaVuSerif-Bold-6f" transform="translate(62.636719 0)"/>
     <use xlink:href="#DejaVuSerif-Bold-75" transform="translate(129.335938 0)"/>
     <use xlink:href="#DejaVuSerif-Bold-72" transform="translate(202.041016 0)"/>
     <use xlink:href="#DejaVuSerif-Bold-20" transform="translate(254.726562 0)"/>
     <use xlink:href="#DejaVuSerif-Bold-4c" transform="translate(289.541016 0)"/>
     <use xlink:href="#DejaVuSerif-Bold-61" transform="translate(359.853516 0)"/>
     <use xlink:href="#DejaVuSerif-Bold-79" transform="translate(424.648438 0)"/>
     <use xlink:href="#DejaVuSerif-Bold-65" transform="translate(482.753906 0)"/>
     <use xlink:href="#DejaVuSerif-Bold-72" transform="translate(546.376953 0)"/>
    </g>
    <!-- (Attention/MLP) -->
    <g style="fill: #262626" transform="translate(651.45606 477.223453) scale(0.09 -0.09)">
     <defs>
      <path id="DejaVuSerif-Bold-41" d="M -50 0 
L -50 378 
L 331 378 
L 2088 4666 
L 2834 4666 
L 4594 378 
L 5038 378 
L 5038 0 
L 2853 0 
L 2853 378 
L 3309 378 
L 2925 1331 
L 1172 1331 
L 781 378 
L 1338 378 
L 1338 0 
L -50 0 
z
M 1325 1709 
L 2772 1709 
L 2053 3494 
L 1325 1709 
z
" transform="scale(0.015625)"/>
      <path id="DejaVuSerif-Bold-2f" d="M 1644 4666 
L 2338 4666 
L 691 -594 
L 0 -594 
L 1644 4666 
z
" transform="scale(0.015625)"/>
     </defs>
     <use xlink:href="#DejaVuSerif-Bold-28"/>
     <use xlink:href="#DejaVuSerif-Bold-41" transform="translate(47.314453 0)"/>
     <use xlink:href="#DejaVuSerif-Bold-74" transform="translate(123.152344 0)"/>
     <use xlink:href="#DejaVuSerif-Bold-74" transform="translate(169.34375 0)"/>
     <use xlink:href="#DejaVuSerif-Bold-65" transform="translate(215.535156 0)"/>
     <use xlink:href="#DejaVuSerif-Bold-6e" transform="translate(279.158203 0)"/>
     <use xlink:href="#DejaVuSerif-Bold-74" transform="translate(351.863281 0)"/>
     <use xlink:href="#DejaVuSerif-Bold-69" transform="translate(398.054688 0)"/>
     <use xlink:href="#DejaVuSerif-Bold-6f" transform="translate(436.042969 0)"/>
     <use xlink:href="#DejaVuSerif-Bold-6e" transform="translate(502.742188 0)"/>
     <use xlink:href="#DejaVuSerif-Bold-2f" transform="translate(575.447266 0)"/>
     <use xlink:href="#DejaVuSerif-Bold-4d" transform="translate(611.970703 0)"/>
     <use xlink:href="#DejaVuSerif-Bold-4c" transform="translate(722.664062 0)"/>
     <use xlink:href="#DejaVuSerif-Bold-50" transform="translate(792.976562 0)"/>
     <use xlink:href="#DejaVuSerif-Bold-29" transform="translate(868.171875 0)"/>
    </g>
   </g>
   <g id="text_11">
    <!-- H_residual -->
    <g style="fill: #262626" transform="translate(861.347511 211.609266) scale(0.09 -0.09)">
     <defs>
      <path id="DejaVuSerif-6c" d="M 1313 331 
L 1856 331 
L 1856 0 
L 184 0 
L 184 331 
L 738 331 
L 738 4531 
L 184 4531 
L 184 4863 
L 1313 4863 
L 1313 331 
z
" transform="scale(0.015625)"/>
     </defs>
     <use xlink:href="#DejaVuSerif-48"/>
     <use xlink:href="#DejaVuSerif-5f" transform="translate(87.207031 0)"/>
     <use xlink:href="#DejaVuSerif-72" transform="translate(137.207031 0)"/>
     <use xlink:href="#DejaVuSerif-65" transform="translate(185.009766 0)"/>
     <use xlink:href="#DejaVuSerif-73" transform="translate(244.189453 0)"/>
     <use xlink:href="#DejaVuSerif-69" transform="translate(295.507812 0)"/>
     <use xlink:href="#DejaVuSerif-64" transform="translate(327.490234 0)"/>
     <use xlink:href="#DejaVuSerif-75" transform="translate(391.503906 0)"/>
     <use xlink:href="#DejaVuSerif-61" transform="translate(455.908203 0)"/>
     <use xlink:href="#DejaVuSerif-6c" transform="translate(515.527344 0)"/>
    </g>
    <!-- [B, S, 4, dim] -->
    <g style="fill: #262626" transform="translate(856.216808 221.937609) scale(0.09 -0.09)">
     <use xlink:href="#DejaVuSerif-5b"/>
     <use xlink:href="#DejaVuSerif-42" transform="translate(39.013672 0)"/>
     <use xlink:href="#DejaVuSerif-2c" transform="translate(112.5 0)"/>
     <use xlink:href="#DejaVuSerif-20" transform="translate(144.287109 0)"/>
     <use xlink:href="#DejaVuSerif-53" transform="translate(176.074219 0)"/>
     <use xlink:href="#DejaVuSerif-2c" transform="translate(240.955078 0)"/>
     <use xlink:href="#DejaVuSerif-20" transform="translate(272.742188 0)"/>
     <use xlink:href="#DejaVuSerif-34" transform="translate(304.529297 0)"/>
     <use xlink:href="#DejaVuSerif-2c" transform="translate(368.152344 0)"/>
     <use xlink:href="#DejaVuSerif-20" transform="translate(399.939453 0)"/>
     <use xlink:href="#DejaVuSerif-64" transform="translate(431.726562 0)"/>
     <use xlink:href="#DejaVuSerif-69" transform="translate(495.740234 0)"/>
     <use xlink:href="#DejaVuSerif-6d" transform="translate(527.722656 0)"/>
     <use xlink:href="#DejaVuSerif-5d" transform="translate(622.546875 0)"/>
    </g>
   </g>
   <g id="text_12">
    <!-- Add Residual -->
    <g style="fill: #262626" transform="translate(852.74548 342.891422) scale(0.09 -0.09)">
     <defs>
      <path id="DejaVuSerif-Bold-52" d="M 3397 2278 
Q 3675 2238 3865 2094 
Q 4056 1950 4197 1678 
L 4878 378 
L 5356 378 
L 5356 0 
L 3822 0 
L 3078 1409 
Q 2863 1847 2711 1967 
Q 2559 2088 2291 2088 
L 2100 2088 
L 2100 378 
L 2700 378 
L 2700 0 
L 300 0 
L 300 378 
L 897 378 
L 897 4288 
L 300 4288 
L 300 4666 
L 2963 4666 
Q 3775 4666 4217 4339 
Q 4659 4013 4659 3413 
Q 4659 2925 4345 2642 
Q 4031 2359 3397 2278 
z
M 2100 2463 
L 2509 2463 
Q 2947 2463 3183 2700 
Q 3419 2938 3419 3378 
Q 3419 3819 3183 4053 
Q 2947 4288 2509 4288 
L 2100 4288 
L 2100 2463 
z
" transform="scale(0.015625)"/>
     </defs>
     <use xlink:href="#DejaVuSerif-Bold-41"/>
     <use xlink:href="#DejaVuSerif-Bold-64" transform="translate(77.587891 0)"/>
     <use xlink:href="#DejaVuSerif-Bold-64" transform="translate(147.509766 0)"/>
     <use xlink:href="#DejaVuSerif-Bold-20" transform="translate(217.431641 0)"/>
     <use xlink:href="#DejaVuSerif-Bold-52" transform="translate(252.246094 0)"/>
     <use xlink:href="#DejaVuSerif-Bold-65" transform="translate(335.351562 0)"/>
     <use xlink:href="#DejaVuSerif-Bold-73" transform="translate(398.974609 0)"/>
     <use xlink:href="#DejaVuSerif-Bold-69" transform="translate(455.273438 0)"/>
     <use xlink:href="#DejaVuSerif-Bold-64" transform="translate(493.261719 0)"/>
     <use xlink:href="#DejaVuSerif-Bold-75" transform="translate(563.183594 0)"/>
     <use xlink:href="#DejaVuSerif-Bold-61" transform="translate(635.888672 0)"/>
     <use xlink:href="#DejaVuSerif-Bold-6c" transform="translate(700.683594 0)"/>
    </g>
    <!-- Kernel (Eq. 12) -->
    <g style="fill: #262626" transform="translate(847.301183 352.969453) scale(0.09 -0.09)">
     <defs>
      <path id="DejaVuSerif-Bold-32" d="M 844 3513 
L 469 3513 
L 469 4519 
Q 850 4634 1223 4692 
Q 1597 4750 1978 4750 
Q 2869 4750 3367 4386 
Q 3866 4022 3866 3372 
Q 3866 2909 3591 2542 
Q 3316 2175 2541 1672 
L 1241 819 
L 3450 819 
L 3450 1369 
L 3878 1369 
L 3878 0 
L 428 0 
L 428 763 
L 1119 1241 
Q 2003 1850 2297 2278 
Q 2591 2706 2591 3278 
Q 2591 3819 2367 4101 
Q 2144 4384 1716 4384 
Q 1347 4384 1125 4161 
Q 903 3938 844 3513 
z
" transform="scale(0.015625)"/>
     </defs>
     <use xlink:href="#DejaVuSerif-Bold-4b"/>
     <use xlink:href="#DejaVuSerif-Bold-65" transform="translate(84.664062 0)"/>
     <use xlink:href="#DejaVuSerif-Bold-72" transform="translate(148.287109 0)"/>
     <use xlink:href="#DejaVuSerif-Bold-6e" transform="translate(200.972656 0)"/>
     <use xlink:href="#DejaVuSerif-Bold-65" transform="translate(273.677734 0)"/>
     <use xlink:href="#DejaVuSerif-Bold-6c" transform="translate(337.300781 0)"/>
     <use xlink:href="#DejaVuSerif-Bold-20" transform="translate(375.289062 0)"/>
     <use xlink:href="#DejaVuSerif-Bold-28" transform="translate(410.103516 0)"/>
     <use xlink:href="#DejaVuSerif-Bold-45" transform="translate(457.417969 0)"/>
     <use xlink:href="#DejaVuSerif-Bold-71" transform="translate(533.638672 0)"/>
     <use xlink:href="#DejaVuSerif-Bold-2e" transform="translate(603.560547 0)"/>
     <use xlink:href="#DejaVuSerif-Bold-20" transform="translate(638.375 0)"/>
     <use xlink:href="#DejaVuSerif-Bold-31" transform="translate(673.189453 0)"/>
     <use xlink:href="#DejaVuSerif-Bold-32" transform="translate(742.769531 0)"/>
     <use xlink:href="#DejaVuSerif-Bold-29" transform="translate(812.349609 0)"/>
    </g>
   </g>
   <g id="text_13">
    <!-- H_new -->
    <g style="fill: #262626" transform="translate(869.475636 480.701109) scale(0.09 -0.09)">
     <defs>
      <path id="DejaVuSerif-Bold-5f" d="M 3200 -916 
L 3200 -1509 
L 0 -1509 
L 0 -916 
L 3200 -916 
z
" transform="scale(0.015625)"/>
     </defs>
     <use xlink:href="#DejaVuSerif-Bold-48"/>
     <use xlink:href="#DejaVuSerif-Bold-5f" transform="translate(94.482422 0)"/>
     <use xlink:href="#DejaVuSerif-Bold-6e" transform="translate(144.482422 0)"/>
     <use xlink:href="#DejaVuSerif-Bold-65" transform="translate(217.1875 0)"/>
     <use xlink:href="#DejaVuSerif-Bold-77" transform="translate(280.810547 0)"/>
    </g>
    <!-- [batch, seq, 4, dim] -->
    <g style="fill: #262626" transform="translate(836.884386 491.029453) scale(0.09 -0.09)">
     <use xlink:href="#DejaVuSerif-Bold-5b"/>
     <use xlink:href="#DejaVuSerif-Bold-62" transform="translate(47.314453 0)"/>
     <use xlink:href="#DejaVuSerif-Bold-61" transform="translate(117.236328 0)"/>
     <use xlink:href="#DejaVuSerif-Bold-74" transform="translate(182.03125 0)"/>
     <use xlink:href="#DejaVuSerif-Bold-63" transform="translate(228.222656 0)"/>
     <use xlink:href="#DejaVuSerif-Bold-68" transform="translate(289.111328 0)"/>
     <use xlink:href="#DejaVuSerif-Bold-2c" transform="translate(361.816406 0)"/>
     <use xlink:href="#DejaVuSerif-Bold-20" transform="translate(396.630859 0)"/>
     <use xlink:href="#DejaVuSerif-Bold-73" transform="translate(431.445312 0)"/>
     <use xlink:href="#DejaVuSerif-Bold-65" transform="translate(487.744141 0)"/>
     <use xlink:href="#DejaVuSerif-Bold-71" transform="translate(551.367188 0)"/>
     <use xlink:href="#DejaVuSerif-Bold-2c" transform="translate(621.289062 0)"/>
     <use xlink:href="#DejaVuSerif-Bold-20" transform="translate(656.103516 0)"/>
     <use xlink:href="#DejaVuSerif-Bold-34" transform="translate(690.917969 0)"/>
     <use xlink:href="#DejaVuSerif-Bold-2c" transform="translate(760.498047 0)"/>
     <use xlink:href="#DejaVuSerif-Bold-20" transform="translate(795.3125 0)"/>
     <use xlink:href="#DejaVuSerif-Bold-64" transform="translate(830.126953 0)"/>
     <use xlink:href="#DejaVuSerif-Bold-69" transform="translate(900.048828 0)"/>
     <use xlink:href="#DejaVuSerif-Bold-6d" transform="translate(938.037109 0)"/>
     <use xlink:href="#DejaVuSerif-Bold-5d" transform="translate(1043.847656 0)"/>
    </g>
   </g>
   <g id="patch_13">
    <path d="M 219.500983 230.111938 
Q 253.259068 195.307711 285.460321 162.108561 
" style="fill: none; stroke: #424242; stroke-width: 2; stroke-linecap: round"/>
    <path d="M 280.817693 163.735215 
L 285.460321 162.108561 
L 283.976067 166.798656 
" style="fill: none; stroke: #424242; stroke-width: 2; stroke-linecap: round"/>
   </g>
   <g id="patch_14">
    <path d="M 393.865714 181.776297 
Q 393.865714 248.807049 393.865714 313.601732 
" style="fill: none; stroke: #424242; stroke-width: 2; stroke-linecap: round"/>
    <path d="M 396.065714 309.201732 
L 393.865714 313.601732 
L 391.665714 309.201732 
" style="fill: none; stroke: #424242; stroke-width: 2; stroke-linecap: round"/>
   </g>
   <g id="patch_15">
    <path d="M 220.105739 231.458363 
Q 411.440717 222.918782 600.541851 214.4789 
" style="fill: none; stroke: #424242; stroke-width: 2; stroke-linecap: round"/>
    <path d="M 596.048135 212.477272 
L 600.541851 214.4789 
L 596.244318 216.872896 
" style="fill: none; stroke: #424242; stroke-width: 2; stroke-linecap: round"/>
   </g>
   <g id="patch_16">
    <path d="M 332.379571 365.25647 
Q 467.685378 297.125162 600.994017 229.9995 
" style="fill: none; stroke: #424242; stroke-width: 2; stroke-linecap: round"/>
    <path d="M 596.074687 230.013395 
L 600.994017 229.9995 
L 598.053535 233.943301 
" style="fill: none; stroke: #424242; stroke-width: 2; stroke-linecap: round"/>
   </g>
   <g id="patch_17">
    <path d="M 430.650384 365.001357 
Q 516.895332 304.02927 601.314415 244.348004 
" style="fill: none; stroke: #424242; stroke-width: 2; stroke-linecap: round"/>
    <path d="M 596.451589 245.091591 
L 601.314415 244.348004 
L 598.991589 248.684417 
" style="fill: none; stroke: #424242; stroke-width: 2; stroke-linecap: round"/>
   </g>
   <g id="patch_18">
    <path d="M 692.652857 250.806297 
Q 692.652857 283.320373 692.652857 313.598381 
" style="fill: none; stroke: #424242; stroke-width: 2; stroke-linecap: round"/>
    <path d="M 694.852857 309.198381 
L 692.652857 313.598381 
L 690.452857 309.198381 
" style="fill: none; stroke: #424242; stroke-width: 2; stroke-linecap: round"/>
   </g>
   <g id="patch_19">
    <path d="M 782.5353 214.29 
Q 798.107611 214.29 811.443855 214.29 
" style="fill: none; stroke: #424242; stroke-width: 2; stroke-linecap: round"/>
    <path d="M 807.043855 212.09 
L 811.443855 214.29 
L 807.043855 216.49 
" style="fill: none; stroke: #424242; stroke-width: 2; stroke-linecap: round"/>
   </g>
   <g id="patch_20">
    <path d="M 692.652857 388.867561 
Q 692.652857 411.027417 692.652857 430.951205 
" style="fill: none; stroke: #424242; stroke-width: 2; stroke-linecap: round"/>
    <path d="M 694.852857 426.551205 
L 692.652857 430.951205 
L 690.452857 426.551205 
" style="fill: none; stroke: #424242; stroke-width: 2; stroke-linecap: round"/>
   </g>
   <g id="patch_21">
    <path d="M 781.259817 467.841479 
Q 798.106285 424.833689 814.137205 383.907936 
" style="fill: none; stroke: #424242; stroke-width: 2; stroke-linecap: round"/>
    <path d="M 810.483962 387.202449 
L 814.137205 383.907936 
L 814.58087 388.807238 
" style="fill: none; stroke: #424242; stroke-width: 2; stroke-linecap: round"/>
   </g>
   <g id="patch_22">
    <path d="M 885.985714 250.803769 
Q 885.985714 276.417437 885.985714 299.795037 
" style="fill: none; stroke: #424242; stroke-width: 2; stroke-linecap: round"/>
    <path d="M 888.185714 295.395037 
L 885.985714 299.795037 
L 883.785714 295.395037 
" style="fill: none; stroke: #424242; stroke-width: 2; stroke-linecap: round"/>
   </g>
   <g id="patch_23">
    <path d="M 529.442333 366.060148 
Q 671.564579 359.252876 811.453318 352.552583 
" style="fill: none; stroke: #424242; stroke-width: 2; stroke-linecap: round"/>
    <path d="M 806.953103 350.56561 
L 811.453318 352.552583 
L 807.16361 354.960571 
" style="fill: none; stroke: #424242; stroke-width: 2; stroke-linecap: round"/>
   </g>
   <g id="patch_24">
    <path d="M 885.985714 388.863769 
Q 885.985714 414.477437 885.985714 437.855037 
" style="fill: none; stroke: #424242; stroke-width: 2; stroke-linecap: round"/>
    <path d="M 888.185714 433.455037 
L 885.985714 437.855037 
L 883.785714 433.455037 
" style="fill: none; stroke: #424242; stroke-width: 2; stroke-linecap: round"/>
   </g>
  </g>
 </g>
 <defs>
  <clipPath id="p462d773467">
   <rect x="7.2" y="7.2" width="984.24" height="552.24"/>
  </clipPath>
 </defs>
</svg>
