<?xml version="1.0" encoding="utf-8" standalone="no"?>
<!DOCTYPE svg PUBLIC "-//W3C//DTD SVG 1.1//EN"
  "http://www.w3.org/Graphics/SVG/1.1/DTD/svg11.dtd">
<svg xmlns:xlink="http://www.w3.org/1999/xlink" width="998.64pt" height="349.7235pt" viewBox="0 0 998.64 349.7235" xmlns="http://www.w3.org/2000/svg" version="1.1">
 <metadata>
  <rdf:RDF xmlns:dc="http://purl.org/dc/elements/1.1/" xmlns:cc="http://creativecommons.org/ns#" xmlns:rdf="http://www.w3.org/1999/02/22-rdf-syntax-ns#">
   <cc:Work>
    <dc:type rdf:resource="http://purl.org/dc/dcmitype/StillImage"/>
    <dc:date>2026-01-20T17:49:53.699506</dc:date>
    <dc:format>image/svg+xml</dc:format>
    <dc:creator>
     <cc:Agent>
      <dc:title>Matplotlib v3.10.8, https://matplotlib.org/</dc:title>
     </cc:Agent>
    </dc:creator>
   </cc:Work>
  </rdf:RDF>
 </metadata>
 <defs>
  <style type="text/css">*{stroke-linejoin: round; stroke-linecap: butt}</style>
 </defs>
 <g id="figure_1">
  <g id="patch_1">
   <path d="M 0 349.7235 
L 998.64 349.7235 
L 998.64 0 
L 0 0 
z
" style="fill: #ffffff"/>
  </g>
  <g id="axes_1">
   <g id="patch_2">
    <path d="M 55.818 189.90642 
L 114.1596 189.90642 
Q 115.13196 189.90642 115.13196 189.1395 
L 115.13196 112.4475 
Q 115.13196 111.68058 114.1596 111.68058 
L 55.818 111.68058 
Q 54.84564 111.68058 54.84564 112.4475 
L 54.84564 189.1395 
Q 54.84564 189.90642 55.818 189.90642 
z
" clip-path="url(#pe118ea2ae3)" style="fill: #ffcdd2; stroke: #c62828; stroke-width: 2; stroke-linejoin: miter"/>
   </g>
   <g id="patch_3">
    <path d="M 133.6068 189.90642 
L 191.9484 189.90642 
Q 192.92076 189.90642 192.92076 189.1395 
L 192.92076 112.4475 
Q 192.92076 111.68058 191.9484 111.68058 
L 133.6068 111.68058 
Q 132.63444 111.68058 132.63444 112.4475 
L 132.63444 189.1395 
Q 132.63444 189.90642 133.6068 189.90642 
z
" clip-path="url(#pe118ea2ae3)" style="fill: #ffcdd2; stroke: #c62828; stroke-width: 2; stroke-linejoin: miter"/>
   </g>
   <g id="patch_4">
    <path d="M 211.3956 189.90642 
L 269.7372 189.90642 
Q 270.70956 189.90642 270.70956 189.1395 
L 270.70956 112.4475 
Q 270.70956 111.68058 269.7372 111.68058 
L 211.3956 111.68058 
Q 210.42324 111.68058 210.42324 112.4475 
L 210.42324 189.1395 
Q 210.42324 189.90642 211.3956 189.90642 
z
" clip-path="url(#pe118ea2ae3)" style="fill: #ffcdd2; stroke: #c62828; stroke-width: 2; stroke-linejoin: miter"/>
   </g>
   <g id="patch_5">
    <path d="M 289.1844 189.90642 
L 347.526 189.90642 
Q 348.49836 189.90642 348.49836 189.1395 
L 348.49836 112.4475 
Q 348.49836 111.68058 347.526 111.68058 
L 289.1844 111.68058 
Q 288.21204 111.68058 288.21204 112.4475 
L 288.21204 189.1395 
Q 288.21204 189.90642 289.1844 189.90642 
z
" clip-path="url(#pe118ea2ae3)" style="fill: #ffcdd2; stroke: #c62828; stroke-width: 2; stroke-linejoin: miter"/>
   </g>
   <g id="patch_6">
    <path d="M 366.9732 189.90642 
L 425.3148 189.90642 
Q 426.28716 189.90642 426.28716 189.1395 
L 426.28716 112.4475 
Q 426.28716 111.68058 425.3148 111.68058 
L 366.9732 111.68058 
Q 366.00084 111.68058 366.00084 112.4475 
L 366.00084 189.1395 
Q 366.00084 189.90642 366.9732 189.90642 
z
" clip-path="url(#pe118ea2ae3)" style="fill: #ffcdd2; stroke: #c62828; stroke-width: 2; stroke-linejoin: miter"/>
   </g>
   <g id="text_1">
    <!-- M_0 -->
    <g style="fill: #262626" transform="translate(73.475519 153.325531) scale(0.1 -0.1)">
     <defs>
      <path id="DejaVuSerif-Bold-4d" d="M 269 0 
L 269 378 
L 863 378 
L 863 4288 
L 269 4288 
L 269 4666 
L 2194 4666 
L 3525 1672 
L 4863 4666 
L 6784 4666 
L 6784 4288 
L 6188 4288 
L 6188 378 
L 6784 378 
L 6784 0 
L 4384 0 
L 4384 378 
L 4978 378 
L 4978 3938 
L 3531 684 
L 2741 684 
L 1300 3938 
L 1300 378 
L 1894 378 
L 1894 0 
L 269 0 
z
" transform="scale(0.015625)"/>
      <path id="DejaVuSerif-Bold-5f" d="M 3200 -916 
L 3200 -1509 
L 0 -1509 
L 0 -916 
L 3200 -916 
z
" transform="scale(0.015625)"/>
      <path id="DejaVuSerif-Bold-30" d="M 2228 275 
Q 2603 275 2742 615 
Q 2881 956 2881 2328 
Q 2881 3691 2742 4037 
Q 2603 4384 2228 4384 
Q 1853 4384 1714 4043 
Q 1575 3703 1575 2328 
Q 1575 956 1714 615 
Q 1853 275 2228 275 
z
M 2228 -91 
Q 1294 -91 797 532 
Q 300 1156 300 2328 
Q 300 3500 797 4125 
Q 1294 4750 2228 4750 
Q 3159 4750 3656 4125 
Q 4153 3500 4153 2328 
Q 4153 1156 3656 532 
Q 3159 -91 2228 -91 
z
" transform="scale(0.015625)"/>
     </defs>
     <use xlink:href="#DejaVuSerif-Bold-4d"/>
     <use xlink:href="#DejaVuSerif-Bold-5f" transform="translate(110.693359 0)"/>
     <use xlink:href="#DejaVuSerif-Bold-30" transform="translate(160.693359 0)"/>
    </g>
   </g>
   <g id="text_2">
    <!-- M_1 -->
    <g style="fill: #262626" transform="translate(151.264319 153.325531) scale(0.1 -0.1)">
     <defs>
      <path id="DejaVuSerif-Bold-31" d="M 878 0 
L 878 378 
L 1753 378 
L 1753 4153 
L 781 3578 
L 781 4044 
L 1953 4750 
L 2938 4750 
L 2938 378 
L 3816 378 
L 3816 0 
L 878 0 
z
" transform="scale(0.015625)"/>
     </defs>
     <use xlink:href="#DejaVuSerif-Bold-4d"/>
     <use xlink:href="#DejaVuSerif-Bold-5f" transform="translate(110.693359 0)"/>
     <use xlink:href="#DejaVuSerif-Bold-31" transform="translate(160.693359 0)"/>
    </g>
   </g>
   <g id="text_3">
    <!-- M_2 -->
    <g style="fill: #262626" transform="translate(229.053119 153.325531) scale(0.1 -0.1)">
     <defs>
      <path id="DejaVuSerif-Bold-32" d="M 844 3513 
L 469 3513 
L 469 4519 
Q 850 4634 1223 4692 
Q 1597 4750 1978 4750 
Q 2869 4750 3367 4386 
Q 3866 4022 3866 3372 
Q 3866 2909 3591 2542 
Q 3316 2175 2541 1672 
L 1241 819 
L 3450 819 
L 3450 1369 
L 3878 1369 
L 3878 0 
L 428 0 
L 428 763 
L 1119 1241 
Q 2003 1850 2297 2278 
Q 2591 2706 2591 3278 
Q 2591 3819 2367 4101 
Q 2144 4384 1716 4384 
Q 1347 4384 1125 4161 
Q 903 3938 844 3513 
z
" transform="scale(0.015625)"/>
     </defs>
     <use xlink:href="#DejaVuSerif-Bold-4d"/>
     <use xlink:href="#DejaVuSerif-Bold-5f" transform="translate(110.693359 0)"/>
     <use xlink:href="#DejaVuSerif-Bold-32" transform="translate(160.693359 0)"/>
    </g>
   </g>
   <g id="text_4">
    <!-- M_3 -->
    <g style="fill: #262626" transform="translate(306.841919 153.325531) scale(0.1 -0.1)">
     <defs>
      <path id="DejaVuSerif-Bold-33" d="M 550 4531 
Q 963 4641 1350 4695 
Q 1738 4750 2106 4750 
Q 2950 4750 3401 4448 
Q 3853 4147 3853 3584 
Q 3853 3163 3593 2900 
Q 3334 2638 2834 2547 
Q 3444 2450 3744 2131 
Q 4044 1813 4044 1259 
Q 4044 606 3526 257 
Q 3009 -91 2028 -91 
Q 1659 -91 1267 -28 
Q 875 34 447 159 
L 447 1184 
L 825 1184 
Q 859 741 1103 508 
Q 1347 275 1778 275 
Q 2253 275 2512 539 
Q 2772 803 2772 1288 
Q 2772 1794 2501 2069 
Q 2231 2344 1734 2344 
L 1528 2344 
L 1528 2719 
L 1691 2719 
Q 2150 2719 2381 2931 
Q 2613 3144 2613 3566 
Q 2613 3963 2395 4173 
Q 2178 4384 1772 4384 
Q 1403 4384 1187 4182 
Q 972 3981 928 3597 
L 550 3597 
L 550 4531 
z
" transform="scale(0.015625)"/>
     </defs>
     <use xlink:href="#DejaVuSerif-Bold-4d"/>
     <use xlink:href="#DejaVuSerif-Bold-5f" transform="translate(110.693359 0)"/>
     <use xlink:href="#DejaVuSerif-Bold-33" transform="translate(160.693359 0)"/>
    </g>
   </g>
   <g id="text_5">
    <!-- M_4 -->
    <g style="fill: #262626" transform="translate(384.630719 153.325531) scale(0.1 -0.1)">
     <defs>
      <path id="DejaVuSerif-Bold-34" d="M 4084 0 
L 1516 0 
L 1516 378 
L 2209 378 
L 2209 1228 
L 263 1228 
L 263 1588 
L 2216 4750 
L 3391 4750 
L 3391 1631 
L 4191 1631 
L 4191 1228 
L 3391 1228 
L 3391 378 
L 4084 378 
L 4084 0 
z
M 2209 1631 
L 2209 3897 
L 819 1631 
L 2209 1631 
z
" transform="scale(0.015625)"/>
     </defs>
     <use xlink:href="#DejaVuSerif-Bold-4d"/>
     <use xlink:href="#DejaVuSerif-Bold-5f" transform="translate(110.693359 0)"/>
     <use xlink:href="#DejaVuSerif-Bold-34" transform="translate(160.693359 0)"/>
    </g>
   </g>
   <g id="text_6">
    <!-- Forward: Store M₀, M₁, M₂, M₃, M₄ -->
    <g style="fill: #262626" transform="translate(161.854062 246.6585) scale(0.1 -0.1)">
     <defs>
      <path id="DejaVuSerif-46" d="M 353 0 
L 353 331 
L 947 331 
L 947 4331 
L 353 4331 
L 353 4666 
L 4172 4666 
L 4172 3628 
L 3788 3628 
L 3788 4281 
L 1581 4281 
L 1581 2719 
L 3175 2719 
L 3175 3303 
L 3559 3303 
L 3559 1753 
L 3175 1753 
L 3175 2338 
L 1581 2338 
L 1581 331 
L 2328 331 
L 2328 0 
L 353 0 
z
" transform="scale(0.015625)"/>
      <path id="DejaVuSerif-6f" d="M 1925 219 
Q 2388 219 2623 584 
Q 2859 950 2859 1663 
Q 2859 2375 2623 2739 
Q 2388 3103 1925 3103 
Q 1463 3103 1227 2739 
Q 991 2375 991 1663 
Q 991 950 1228 584 
Q 1466 219 1925 219 
z
M 1925 -91 
Q 1200 -91 759 389 
Q 319 869 319 1663 
Q 319 2456 758 2934 
Q 1197 3413 1925 3413 
Q 2653 3413 3092 2934 
Q 3531 2456 3531 1663 
Q 3531 869 3092 389 
Q 2653 -91 1925 -91 
z
" transform="scale(0.015625)"/>
      <path id="DejaVuSerif-72" d="M 3059 3328 
L 3059 2497 
L 2728 2497 
Q 2713 2744 2591 2866 
Q 2469 2988 2234 2988 
Q 1809 2988 1582 2694 
Q 1356 2400 1356 1850 
L 1356 331 
L 2022 331 
L 2022 0 
L 263 0 
L 263 331 
L 781 331 
L 781 2994 
L 231 2994 
L 231 3322 
L 1356 3322 
L 1356 2731 
Q 1525 3078 1790 3245 
Q 2056 3413 2438 3413 
Q 2578 3413 2733 3391 
Q 2888 3369 3059 3328 
z
" transform="scale(0.015625)"/>
      <path id="DejaVuSerif-77" d="M 3072 3322 
L 3922 728 
L 4672 2988 
L 4191 2988 
L 4191 3322 
L 5394 3322 
L 5394 2988 
L 5025 2988 
L 4038 0 
L 3559 0 
L 2741 2484 
L 1919 0 
L 1459 0 
L 475 2988 
L 103 2988 
L 103 3322 
L 1606 3322 
L 1606 2988 
L 1069 2988 
L 1813 728 
L 2669 3322 
L 3072 3322 
z
" transform="scale(0.015625)"/>
      <path id="DejaVuSerif-61" d="M 2547 1044 
L 2547 1747 
L 1806 1747 
Q 1378 1747 1168 1562 
Q 959 1378 959 997 
Q 959 650 1171 447 
Q 1384 244 1747 244 
Q 2106 244 2326 466 
Q 2547 688 2547 1044 
z
M 3122 2075 
L 3122 331 
L 3634 331 
L 3634 0 
L 2547 0 
L 2547 359 
Q 2356 128 2106 18 
Q 1856 -91 1522 -91 
Q 969 -91 644 203 
Q 319 497 319 997 
Q 319 1513 691 1797 
Q 1063 2081 1741 2081 
L 2547 2081 
L 2547 2309 
Q 2547 2688 2317 2895 
Q 2088 3103 1672 3103 
Q 1328 3103 1125 2947 
Q 922 2791 872 2484 
L 575 2484 
L 575 3156 
Q 875 3284 1158 3348 
Q 1441 3413 1709 3413 
Q 2400 3413 2761 3070 
Q 3122 2728 3122 2075 
z
" transform="scale(0.015625)"/>
      <path id="DejaVuSerif-64" d="M 3359 331 
L 3909 331 
L 3909 0 
L 2784 0 
L 2784 519 
Q 2616 206 2355 57 
Q 2094 -91 1709 -91 
Q 1097 -91 708 395 
Q 319 881 319 1663 
Q 319 2444 706 2928 
Q 1094 3413 1709 3413 
Q 2094 3413 2355 3264 
Q 2616 3116 2784 2803 
L 2784 4531 
L 2241 4531 
L 2241 4863 
L 3359 4863 
L 3359 331 
z
M 2784 1497 
L 2784 1825 
Q 2784 2422 2554 2737 
Q 2325 3053 1888 3053 
Q 1444 3053 1217 2703 
Q 991 2353 991 1663 
Q 991 975 1217 622 
Q 1444 269 1888 269 
Q 2325 269 2554 583 
Q 2784 897 2784 1497 
z
" transform="scale(0.015625)"/>
      <path id="DejaVuSerif-3a" d="M 666 325 
Q 666 500 786 622 
Q 906 744 1081 744 
Q 1256 744 1376 622 
Q 1497 500 1497 325 
Q 1497 150 1378 29 
Q 1259 -91 1081 -91 
Q 903 -91 784 29 
Q 666 150 666 325 
z
M 666 2363 
Q 666 2538 786 2658 
Q 906 2778 1081 2778 
Q 1259 2778 1378 2659 
Q 1497 2541 1497 2363 
Q 1497 2184 1378 2065 
Q 1259 1947 1081 1947 
Q 906 1947 786 2067 
Q 666 2188 666 2363 
z
" transform="scale(0.015625)"/>
      <path id="DejaVuSerif-20" transform="scale(0.015625)"/>
      <path id="DejaVuSerif-53" d="M 594 225 
L 594 1288 
L 953 1284 
Q 969 753 1261 498 
Q 1553 244 2150 244 
Q 2706 244 2998 464 
Q 3291 684 3291 1106 
Q 3291 1444 3114 1625 
Q 2938 1806 2369 1978 
L 1753 2163 
Q 1084 2366 811 2669 
Q 538 2972 538 3500 
Q 538 4094 959 4422 
Q 1381 4750 2144 4750 
Q 2469 4750 2856 4679 
Q 3244 4609 3681 4475 
L 3681 3481 
L 3328 3481 
Q 3275 3975 2998 4195 
Q 2722 4416 2156 4416 
Q 1663 4416 1405 4214 
Q 1147 4013 1147 3628 
Q 1147 3294 1340 3103 
Q 1534 2913 2163 2725 
L 2741 2553 
Q 3375 2363 3645 2067 
Q 3916 1772 3916 1275 
Q 3916 597 3481 253 
Q 3047 -91 2188 -91 
Q 1803 -91 1404 -12 
Q 1006 66 594 225 
z
" transform="scale(0.015625)"/>
      <path id="DejaVuSerif-74" d="M 691 2988 
L 184 2988 
L 184 3322 
L 691 3322 
L 691 4353 
L 1269 4353 
L 1269 3322 
L 2350 3322 
L 2350 2988 
L 1269 2988 
L 1269 878 
Q 1269 456 1350 337 
Q 1431 219 1650 219 
Q 1875 219 1978 351 
Q 2081 484 2088 781 
L 2522 781 
Q 2497 328 2275 118 
Q 2053 -91 1600 -91 
Q 1103 -91 897 129 
Q 691 350 691 878 
L 691 2988 
z
" transform="scale(0.015625)"/>
      <path id="DejaVuSerif-65" d="M 3469 1600 
L 991 1600 
L 991 1575 
Q 991 903 1244 561 
Q 1497 219 1991 219 
Q 2369 219 2611 417 
Q 2853 616 2950 1006 
L 3413 1006 
Q 3275 459 2904 184 
Q 2534 -91 1931 -91 
Q 1203 -91 761 389 
Q 319 869 319 1663 
Q 319 2450 753 2931 
Q 1188 3413 1894 3413 
Q 2647 3413 3050 2948 
Q 3453 2484 3469 1600 
z
M 2791 1931 
Q 2772 2513 2545 2808 
Q 2319 3103 1894 3103 
Q 1497 3103 1269 2806 
Q 1041 2509 991 1931 
L 2791 1931 
z
" transform="scale(0.015625)"/>
      <path id="DejaVuSerif-4d" d="M 353 0 
L 353 331 
L 947 331 
L 947 4331 
L 319 4331 
L 319 4666 
L 1678 4666 
L 3316 1344 
L 4953 4666 
L 6228 4666 
L 6228 4331 
L 5606 4331 
L 5606 331 
L 6203 331 
L 6203 0 
L 4378 0 
L 4378 331 
L 4972 331 
L 4972 3938 
L 3372 684 
L 2931 684 
L 1331 3938 
L 1331 331 
L 1925 331 
L 1925 0 
L 353 0 
z
" transform="scale(0.015625)"/>
      <path id="DejaVuSerif-2080" d="M 784 394 
Q 950 101 1281 101 
Q 1613 101 1778 394 
Q 1944 688 1944 1285 
Q 1944 1879 1778 2172 
Q 1613 2466 1281 2466 
Q 950 2466 784 2172 
Q 619 1879 619 1285 
Q 619 688 784 394 
z
M 2106 285 
Q 1809 -71 1281 -71 
Q 753 -71 456 285 
Q 163 641 163 1285 
Q 163 1926 456 2282 
Q 753 2638 1281 2638 
Q 1809 2638 2106 2282 
Q 2400 1926 2400 1285 
Q 2400 641 2106 285 
z
" transform="scale(0.015625)"/>
      <path id="DejaVuSerif-2c" d="M 231 -622 
Q 525 -406 662 -114 
Q 800 178 800 594 
L 800 709 
L 1416 709 
Q 1391 175 1164 -208 
Q 938 -591 481 -872 
L 231 -622 
z
" transform="scale(0.015625)"/>
      <path id="DejaVuSerif-2081" d="M 550 -24 
L 550 238 
L 1088 238 
L 1088 2219 
L 459 1888 
L 459 2182 
L 1209 2585 
L 1528 2585 
L 1528 238 
L 2069 238 
L 2069 -24 
L 550 -24 
z
" transform="scale(0.015625)"/>
      <path id="DejaVuSerif-2082" d="M 531 1938 
L 313 1938 
L 313 2432 
Q 519 2532 737 2585 
Q 956 2638 1172 2638 
Q 1603 2638 1870 2432 
Q 2138 2226 2138 1901 
Q 2138 1519 1531 976 
L 1472 922 
L 728 251 
L 1931 251 
L 1931 588 
L 2163 588 
L 2163 -24 
L 281 -24 
L 281 210 
L 1172 1004 
Q 1441 1244 1556 1435 
Q 1672 1626 1672 1832 
Q 1672 2097 1520 2252 
Q 1369 2407 1106 2407 
Q 863 2407 716 2288 
Q 569 2169 531 1938 
z
" transform="scale(0.015625)"/>
      <path id="DejaVuSerif-2083" d="M 391 2476 
Q 619 2557 828 2597 
Q 1038 2638 1222 2638 
Q 1653 2638 1886 2469 
Q 2119 2301 2119 1991 
Q 2119 1766 1953 1610 
Q 1788 1454 1491 1401 
Q 1863 1351 2052 1165 
Q 2241 979 2241 666 
Q 2241 310 1967 119 
Q 1694 -71 1184 -71 
Q 959 -71 742 -27 
Q 525 16 313 104 
L 313 635 
L 531 632 
Q 547 401 700 280 
Q 853 160 1141 160 
Q 1434 160 1593 297 
Q 1753 435 1753 691 
Q 1753 982 1593 1130 
Q 1434 1279 1119 1279 
L 953 1279 
L 953 1510 
L 1038 1510 
Q 1341 1510 1495 1625 
Q 1650 1741 1650 1972 
Q 1650 2182 1523 2294 
Q 1397 2407 1159 2407 
Q 903 2407 767 2307 
Q 631 2207 609 2004 
L 391 2004 
L 391 2476 
z
" transform="scale(0.015625)"/>
      <path id="DejaVuSerif-2084" d="M 1409 922 
L 1409 2194 
L 447 922 
L 1409 922 
z
M 2309 -24 
L 953 -24 
L 953 238 
L 1409 238 
L 1409 666 
L 166 666 
L 166 929 
L 1416 2585 
L 1856 2585 
L 1856 922 
L 2369 922 
L 2369 666 
L 1856 666 
L 1856 238 
L 2309 238 
L 2309 -24 
z
" transform="scale(0.015625)"/>
     </defs>
     <use xlink:href="#DejaVuSerif-46"/>
     <use xlink:href="#DejaVuSerif-6f" transform="translate(63.884766 0)"/>
     <use xlink:href="#DejaVuSerif-72" transform="translate(124.089844 0)"/>
     <use xlink:href="#DejaVuSerif-77" transform="translate(171.892578 0)"/>
     <use xlink:href="#DejaVuSerif-61" transform="translate(257.488281 0)"/>
     <use xlink:href="#DejaVuSerif-72" transform="translate(317.107422 0)"/>
     <use xlink:href="#DejaVuSerif-64" transform="translate(364.910156 0)"/>
     <use xlink:href="#DejaVuSerif-3a" transform="translate(428.923828 0)"/>
     <use xlink:href="#DejaVuSerif-20" transform="translate(462.615234 0)"/>
     <use xlink:href="#DejaVuSerif-53" transform="translate(494.402344 0)"/>
     <use xlink:href="#DejaVuSerif-74" transform="translate(562.908203 0)"/>
     <use xlink:href="#DejaVuSerif-6f" transform="translate(603.09375 0)"/>
     <use xlink:href="#DejaVuSerif-72" transform="translate(663.298828 0)"/>
     <use xlink:href="#DejaVuSerif-65" transform="translate(711.101562 0)"/>
     <use xlink:href="#DejaVuSerif-20" transform="translate(770.28125 0)"/>
     <use xlink:href="#DejaVuSerif-4d" transform="translate(802.068359 0)"/>
     <use xlink:href="#DejaVuSerif-2080" transform="translate(904.460938 0)"/>
     <use xlink:href="#DejaVuSerif-2c" transform="translate(944.548828 0)"/>
     <use xlink:href="#DejaVuSerif-20" transform="translate(976.335938 0)"/>
     <use xlink:href="#DejaVuSerif-4d" transform="translate(1008.123047 0)"/>
     <use xlink:href="#DejaVuSerif-2081" transform="translate(1110.515625 0)"/>
     <use xlink:href="#DejaVuSerif-2c" transform="translate(1150.603516 0)"/>
     <use xlink:href="#DejaVuSerif-20" transform="translate(1182.390625 0)"/>
     <use xlink:href="#DejaVuSerif-4d" transform="translate(1214.177734 0)"/>
     <use xlink:href="#DejaVuSerif-2082" transform="translate(1316.570312 0)"/>
     <use xlink:href="#DejaVuSerif-2c" transform="translate(1356.658203 0)"/>
     <use xlink:href="#DejaVuSerif-20" transform="translate(1388.445312 0)"/>
     <use xlink:href="#DejaVuSerif-4d" transform="translate(1420.232422 0)"/>
     <use xlink:href="#DejaVuSerif-2083" transform="translate(1522.625 0)"/>
     <use xlink:href="#DejaVuSerif-2c" transform="translate(1562.712891 0)"/>
     <use xlink:href="#DejaVuSerif-20" transform="translate(1594.5 0)"/>
     <use xlink:href="#DejaVuSerif-4d" transform="translate(1626.287109 0)"/>
     <use xlink:href="#DejaVuSerif-2084" transform="translate(1728.679688 0)"/>
    </g>
   </g>
   <g id="text_7">
    <!-- Memory: 5 × 4×4 matrices = 80 floats -->
    <g style="fill: #c62828" transform="translate(143.250937 273.5007) scale(0.1 -0.1)">
     <defs>
      <path id="DejaVuSerif-Bold-65" d="M 2566 1875 
Q 2566 2531 2444 2795 
Q 2322 3059 2028 3059 
Q 1744 3059 1620 2800 
Q 1497 2541 1497 1931 
L 1497 1875 
L 2566 1875 
z
M 3781 1503 
L 1497 1503 
L 1497 1478 
Q 1497 834 1690 548 
Q 1884 263 2316 263 
Q 2675 263 2897 453 
Q 3119 644 3181 1006 
L 3700 1006 
Q 3566 441 3166 175 
Q 2766 -91 2047 -91 
Q 1184 -91 723 364 
Q 263 819 263 1663 
Q 263 2488 734 2950 
Q 1206 3413 2047 3413 
Q 2872 3413 3312 2927 
Q 3753 2441 3781 1503 
z
" transform="scale(0.015625)"/>
      <path id="DejaVuSerif-Bold-6d" d="M 3884 2778 
Q 4116 3109 4384 3261 
Q 4653 3413 5013 3413 
Q 5584 3413 5867 3089 
Q 6150 2766 6150 2113 
L 6150 378 
L 6625 378 
L 6625 0 
L 4647 0 
L 4647 378 
L 5044 378 
L 5044 1947 
Q 5044 2569 4948 2731 
Q 4853 2894 4594 2894 
Q 4300 2894 4137 2667 
Q 3975 2441 3975 2022 
L 3975 378 
L 4372 378 
L 4372 0 
L 2472 0 
L 2472 378 
L 2869 378 
L 2869 1947 
Q 2869 2569 2772 2731 
Q 2675 2894 2419 2894 
Q 2122 2894 1959 2667 
Q 1797 2441 1797 2022 
L 1797 378 
L 2194 378 
L 2194 0 
L 219 0 
L 219 378 
L 691 378 
L 691 2944 
L 219 2944 
L 219 3322 
L 1797 3322 
L 1797 2853 
Q 1991 3144 2241 3278 
Q 2491 3413 2834 3413 
Q 3241 3413 3494 3258 
Q 3747 3103 3884 2778 
z
" transform="scale(0.015625)"/>
      <path id="DejaVuSerif-Bold-6f" d="M 2138 263 
Q 2488 263 2630 563 
Q 2772 863 2772 1663 
Q 2772 2463 2631 2761 
Q 2491 3059 2138 3059 
Q 1784 3059 1640 2757 
Q 1497 2456 1497 1663 
Q 1497 869 1640 566 
Q 1784 263 2138 263 
z
M 2138 -91 
Q 1259 -91 761 376 
Q 263 844 263 1663 
Q 263 2484 761 2948 
Q 1259 3413 2138 3413 
Q 3019 3413 3516 2948 
Q 4013 2484 4013 1663 
Q 4013 844 3514 376 
Q 3016 -91 2138 -91 
z
" transform="scale(0.015625)"/>
      <path id="DejaVuSerif-Bold-72" d="M 3438 3359 
L 3438 2369 
L 3084 2369 
Q 3066 2634 2941 2764 
Q 2816 2894 2578 2894 
Q 2216 2894 2006 2575 
Q 1797 2256 1797 1691 
L 1797 378 
L 2400 378 
L 2400 0 
L 219 0 
L 219 378 
L 691 378 
L 691 2944 
L 184 2944 
L 184 3322 
L 1797 3322 
L 1797 2731 
Q 1959 3078 2226 3245 
Q 2494 3413 2881 3413 
Q 2978 3413 3117 3398 
Q 3256 3384 3438 3359 
z
" transform="scale(0.015625)"/>
      <path id="DejaVuSerif-Bold-79" d="M 1997 -750 
Q 1847 -1116 1634 -1269 
Q 1422 -1422 1063 -1422 
Q 909 -1422 721 -1387 
Q 534 -1353 313 -1288 
L 313 -594 
L 666 -597 
Q 675 -838 779 -953 
Q 884 -1069 1094 -1069 
Q 1297 -1069 1422 -958 
Q 1547 -847 1672 -538 
L 1722 -422 
L 275 2944 
L -84 2944 
L -84 3322 
L 1831 3322 
L 1831 2944 
L 1434 2944 
L 2278 978 
L 3066 2944 
L 2625 2944 
L 2625 3322 
L 3872 3322 
L 3872 2944 
L 3469 2944 
L 1997 -750 
z
" transform="scale(0.015625)"/>
      <path id="DejaVuSerif-Bold-3a" d="M 588 2541 
Q 588 2788 761 2963 
Q 934 3138 1178 3138 
Q 1422 3138 1597 2961 
Q 1772 2784 1772 2541 
Q 1772 2297 1598 2125 
Q 1425 1953 1178 1953 
Q 931 1953 759 2125 
Q 588 2297 588 2541 
z
M 588 506 
Q 588 750 761 925 
Q 934 1100 1178 1100 
Q 1422 1100 1597 925 
Q 1772 750 1772 506 
Q 1772 259 1597 84 
Q 1422 -91 1178 -91 
Q 934 -91 761 84 
Q 588 259 588 506 
z
" transform="scale(0.015625)"/>
      <path id="DejaVuSerif-Bold-20" transform="scale(0.015625)"/>
      <path id="DejaVuSerif-Bold-35" d="M 3609 4666 
L 3609 3847 
L 1113 3847 
L 1113 2822 
Q 1319 2981 1572 3062 
Q 1825 3144 2106 3144 
Q 2969 3144 3469 2708 
Q 3969 2272 3969 1522 
Q 3969 759 3469 334 
Q 2969 -91 2069 -91 
Q 1688 -91 1311 -28 
Q 934 34 525 166 
L 525 1184 
L 900 1184 
Q 919 725 1139 500 
Q 1359 275 1791 275 
Q 2250 275 2472 583 
Q 2694 891 2694 1522 
Q 2694 2144 2476 2451 
Q 2259 2759 1819 2759 
Q 1581 2759 1395 2661 
Q 1209 2563 1050 2356 
L 738 2356 
L 738 4666 
L 3609 4666 
z
" transform="scale(0.015625)"/>
      <path id="DejaVuSerif-Bold-d7" d="M 4538 3378 
L 3163 2003 
L 4538 628 
L 4056 147 
L 2681 1522 
L 1306 147 
L 825 628 
L 2203 2003 
L 825 3378 
L 1306 3866 
L 2681 2491 
L 4056 3866 
L 4538 3378 
z
" transform="scale(0.015625)"/>
      <path id="DejaVuSerif-Bold-61" d="M 3525 2041 
L 3525 378 
L 4000 378 
L 4000 0 
L 2419 0 
L 2419 422 
Q 2200 159 1931 34 
Q 1663 -91 1319 -91 
Q 809 -91 536 182 
Q 263 456 263 966 
Q 263 1525 655 1803 
Q 1047 2081 1838 2081 
L 2419 2081 
L 2419 2278 
Q 2419 2681 2228 2873 
Q 2038 3066 1638 3066 
Q 1306 3066 1126 2930 
Q 947 2794 872 2484 
L 519 2484 
L 519 3200 
Q 816 3306 1134 3359 
Q 1453 3413 1806 3413 
Q 2697 3413 3111 3081 
Q 3525 2750 3525 2041 
z
M 2419 1044 
L 2419 1709 
L 2003 1709 
Q 1694 1709 1528 1540 
Q 1363 1372 1363 1056 
Q 1363 741 1483 584 
Q 1603 428 1850 428 
Q 2106 428 2262 597 
Q 2419 766 2419 1044 
z
" transform="scale(0.015625)"/>
      <path id="DejaVuSerif-Bold-74" d="M 634 2944 
L 153 2944 
L 153 3322 
L 634 3322 
L 634 4353 
L 1741 4353 
L 1741 3322 
L 2663 3322 
L 2663 2944 
L 1741 2944 
L 1741 909 
Q 1741 475 1809 369 
Q 1878 263 2059 263 
Q 2259 263 2356 397 
Q 2453 531 2459 813 
L 2925 813 
Q 2897 313 2651 111 
Q 2406 -91 1806 -91 
Q 1122 -91 878 123 
Q 634 338 634 909 
L 634 2944 
z
" transform="scale(0.015625)"/>
      <path id="DejaVuSerif-Bold-69" d="M 588 4263 
Q 588 4516 763 4689 
Q 938 4863 1191 4863 
Q 1438 4863 1611 4689 
Q 1784 4516 1784 4263 
Q 1784 4016 1611 3842 
Q 1438 3669 1191 3669 
Q 938 3669 763 3841 
Q 588 4013 588 4263 
z
M 1797 378 
L 2272 378 
L 2272 0 
L 219 0 
L 219 378 
L 691 378 
L 691 2944 
L 219 2944 
L 219 3322 
L 1797 3322 
L 1797 378 
z
" transform="scale(0.015625)"/>
      <path id="DejaVuSerif-Bold-63" d="M 3609 1038 
Q 3491 469 3123 189 
Q 2756 -91 2125 -91 
Q 1238 -91 750 368 
Q 263 828 263 1663 
Q 263 2488 744 2950 
Q 1225 3413 2081 3413 
Q 2428 3413 2781 3347 
Q 3134 3281 3500 3150 
L 3500 2228 
L 3150 2228 
Q 3100 2650 2903 2854 
Q 2706 3059 2350 3059 
Q 1888 3059 1692 2746 
Q 1497 2434 1497 1663 
Q 1497 909 1687 586 
Q 1878 263 2309 263 
Q 2644 263 2845 463 
Q 3047 663 3091 1038 
L 3609 1038 
z
" transform="scale(0.015625)"/>
      <path id="DejaVuSerif-Bold-73" d="M 300 97 
L 300 1025 
L 653 1025 
Q 697 653 931 458 
Q 1166 263 1569 263 
Q 1906 263 2086 380 
Q 2266 497 2266 716 
Q 2266 916 2152 1025 
Q 2038 1134 1709 1216 
L 1253 1331 
Q 738 1459 506 1698 
Q 275 1938 275 2344 
Q 275 2884 650 3148 
Q 1025 3413 1806 3413 
Q 2100 3413 2433 3364 
Q 2766 3316 3169 3213 
L 3169 2375 
L 2816 2375 
Q 2788 2716 2573 2887 
Q 2359 3059 1959 3059 
Q 1622 3059 1448 2951 
Q 1275 2844 1275 2638 
Q 1275 2469 1375 2372 
Q 1475 2275 1734 2209 
L 2188 2094 
Q 2841 1928 3091 1684 
Q 3341 1441 3341 1006 
Q 3341 444 2939 176 
Q 2538 -91 1691 -91 
Q 1381 -91 1034 -44 
Q 688 3 300 97 
z
" transform="scale(0.015625)"/>
      <path id="DejaVuSerif-Bold-3d" d="M 678 1650 
L 4684 1650 
L 4684 941 
L 678 941 
L 678 1650 
z
M 678 3072 
L 4684 3072 
L 4684 2363 
L 678 2363 
L 678 3072 
z
" transform="scale(0.015625)"/>
      <path id="DejaVuSerif-Bold-38" d="M 2975 2484 
Q 3531 2394 3820 2075 
Q 4109 1756 4109 1241 
Q 4109 597 3623 253 
Q 3138 -91 2222 -91 
Q 1306 -91 818 253 
Q 331 597 331 1241 
Q 331 1756 622 2075 
Q 913 2394 1466 2484 
Q 975 2597 731 2861 
Q 488 3125 488 3531 
Q 488 4125 931 4437 
Q 1375 4750 2222 4750 
Q 3066 4750 3511 4437 
Q 3956 4125 3956 3531 
Q 3956 3125 3711 2861 
Q 3466 2597 2975 2484 
z
M 2747 3519 
Q 2747 4013 2628 4198 
Q 2509 4384 2222 4384 
Q 1931 4384 1814 4198 
Q 1697 4013 1697 3519 
Q 1697 3028 1814 2845 
Q 1931 2663 2222 2663 
Q 2513 2663 2630 2845 
Q 2747 3028 2747 3519 
z
M 2869 1294 
Q 2869 1866 2723 2081 
Q 2578 2297 2222 2297 
Q 1863 2297 1719 2081 
Q 1575 1866 1575 1294 
Q 1575 716 1720 495 
Q 1866 275 2222 275 
Q 2575 275 2722 495 
Q 2869 716 2869 1294 
z
" transform="scale(0.015625)"/>
      <path id="DejaVuSerif-Bold-66" d="M 3097 4031 
L 2747 4031 
Q 2722 4275 2605 4394 
Q 2488 4513 2272 4513 
Q 2022 4513 1909 4333 
Q 1797 4153 1797 3750 
L 1797 3322 
L 2631 3322 
L 2631 2944 
L 1797 2944 
L 1797 378 
L 2438 378 
L 2438 0 
L 219 0 
L 219 378 
L 691 378 
L 691 2944 
L 197 2944 
L 197 3322 
L 691 3322 
L 691 3738 
Q 691 4291 1044 4577 
Q 1397 4863 2081 4863 
Q 2347 4863 2600 4833 
Q 2853 4803 3097 4744 
L 3097 4031 
z
" transform="scale(0.015625)"/>
      <path id="DejaVuSerif-Bold-6c" d="M 1797 378 
L 2272 378 
L 2272 0 
L 219 0 
L 219 378 
L 691 378 
L 691 4488 
L 219 4488 
L 219 4863 
L 1797 4863 
L 1797 378 
z
" transform="scale(0.015625)"/>
     </defs>
     <use xlink:href="#DejaVuSerif-Bold-4d"/>
     <use xlink:href="#DejaVuSerif-Bold-65" transform="translate(110.693359 0)"/>
     <use xlink:href="#DejaVuSerif-Bold-6d" transform="translate(174.316406 0)"/>
     <use xlink:href="#DejaVuSerif-Bold-6f" transform="translate(280.126953 0)"/>
     <use xlink:href="#DejaVuSerif-Bold-72" transform="translate(346.826172 0)"/>
     <use xlink:href="#DejaVuSerif-Bold-79" transform="translate(399.511719 0)"/>
     <use xlink:href="#DejaVuSerif-Bold-3a" transform="translate(457.617188 0)"/>
     <use xlink:href="#DejaVuSerif-Bold-20" transform="translate(494.53125 0)"/>
     <use xlink:href="#DejaVuSerif-Bold-35" transform="translate(529.345703 0)"/>
     <use xlink:href="#DejaVuSerif-Bold-20" transform="translate(598.925781 0)"/>
     <use xlink:href="#DejaVuSerif-Bold-d7" transform="translate(633.740234 0)"/>
     <use xlink:href="#DejaVuSerif-Bold-20" transform="translate(717.529297 0)"/>
     <use xlink:href="#DejaVuSerif-Bold-34" transform="translate(752.34375 0)"/>
     <use xlink:href="#DejaVuSerif-Bold-d7" transform="translate(821.923828 0)"/>
     <use xlink:href="#DejaVuSerif-Bold-34" transform="translate(905.712891 0)"/>
     <use xlink:href="#DejaVuSerif-Bold-20" transform="translate(975.292969 0)"/>
     <use xlink:href="#DejaVuSerif-Bold-6d" transform="translate(1010.107422 0)"/>
     <use xlink:href="#DejaVuSerif-Bold-61" transform="translate(1115.917969 0)"/>
     <use xlink:href="#DejaVuSerif-Bold-74" transform="translate(1180.712891 0)"/>
     <use xlink:href="#DejaVuSerif-Bold-72" transform="translate(1226.904297 0)"/>
     <use xlink:href="#DejaVuSerif-Bold-69" transform="translate(1279.589844 0)"/>
     <use xlink:href="#DejaVuSerif-Bold-63" transform="translate(1317.578125 0)"/>
     <use xlink:href="#DejaVuSerif-Bold-65" transform="translate(1378.466797 0)"/>
     <use xlink:href="#DejaVuSerif-Bold-73" transform="translate(1442.089844 0)"/>
     <use xlink:href="#DejaVuSerif-Bold-20" transform="translate(1498.388672 0)"/>
     <use xlink:href="#DejaVuSerif-Bold-3d" transform="translate(1533.203125 0)"/>
     <use xlink:href="#DejaVuSerif-Bold-20" transform="translate(1616.992188 0)"/>
     <use xlink:href="#DejaVuSerif-Bold-38" transform="translate(1651.806641 0)"/>
     <use xlink:href="#DejaVuSerif-Bold-30" transform="translate(1721.386719 0)"/>
     <use xlink:href="#DejaVuSerif-Bold-20" transform="translate(1790.966797 0)"/>
     <use xlink:href="#DejaVuSerif-Bold-66" transform="translate(1825.78125 0)"/>
     <use xlink:href="#DejaVuSerif-Bold-6c" transform="translate(1868.798828 0)"/>
     <use xlink:href="#DejaVuSerif-Bold-6f" transform="translate(1906.787109 0)"/>
     <use xlink:href="#DejaVuSerif-Bold-61" transform="translate(1973.486328 0)"/>
     <use xlink:href="#DejaVuSerif-Bold-74" transform="translate(2038.28125 0)"/>
     <use xlink:href="#DejaVuSerif-Bold-73" transform="translate(2084.472656 0)"/>
    </g>
   </g>
   <g id="text_8">
    <!-- ↓ Forward Pass ↓ -->
    <g style="fill: #666666" transform="translate(204.445469 74.1015) scale(0.1 -0.1)">
     <defs>
      <path id="DejaVuSerif-2193" d="M 2934 4631 
L 2934 606 
L 3988 1209 
L 3988 1175 
L 2697 -128 
L 2666 -128 
L 1375 1175 
L 1375 1209 
L 2428 606 
L 2428 4631 
L 2934 4631 
z
" transform="scale(0.015625)"/>
      <path id="DejaVuSerif-50" d="M 1581 2375 
L 2406 2375 
Q 2872 2375 3115 2626 
Q 3359 2878 3359 3353 
Q 3359 3831 3115 4081 
Q 2872 4331 2406 4331 
L 1581 4331 
L 1581 2375 
z
M 353 0 
L 353 331 
L 947 331 
L 947 4331 
L 353 4331 
L 353 4666 
L 2559 4666 
Q 3259 4666 3668 4311 
Q 4078 3956 4078 3353 
Q 4078 2753 3668 2397 
Q 3259 2041 2559 2041 
L 1581 2041 
L 1581 331 
L 2303 331 
L 2303 0 
L 353 0 
z
" transform="scale(0.015625)"/>
      <path id="DejaVuSerif-73" d="M 359 184 
L 359 959 
L 691 959 
Q 703 588 923 403 
Q 1144 219 1575 219 
Q 1963 219 2166 364 
Q 2369 509 2369 788 
Q 2369 1006 2220 1140 
Q 2072 1275 1594 1428 
L 1178 1569 
Q 750 1706 558 1912 
Q 366 2119 366 2438 
Q 366 2894 700 3153 
Q 1034 3413 1625 3413 
Q 1888 3413 2178 3344 
Q 2469 3275 2778 3144 
L 2778 2419 
L 2447 2419 
Q 2434 2741 2221 2922 
Q 2009 3103 1644 3103 
Q 1281 3103 1095 2975 
Q 909 2847 909 2591 
Q 909 2381 1050 2254 
Q 1191 2128 1613 1997 
L 2069 1856 
Q 2541 1709 2748 1489 
Q 2956 1269 2956 922 
Q 2956 450 2595 179 
Q 2234 -91 1600 -91 
Q 1278 -91 972 -22 
Q 666 47 359 184 
z
" transform="scale(0.015625)"/>
     </defs>
     <use xlink:href="#DejaVuSerif-2193"/>
     <use xlink:href="#DejaVuSerif-20" transform="translate(83.789062 0)"/>
     <use xlink:href="#DejaVuSerif-46" transform="translate(115.576172 0)"/>
     <use xlink:href="#DejaVuSerif-6f" transform="translate(179.460938 0)"/>
     <use xlink:href="#DejaVuSerif-72" transform="translate(239.666016 0)"/>
     <use xlink:href="#DejaVuSerif-77" transform="translate(287.46875 0)"/>
     <use xlink:href="#DejaVuSerif-61" transform="translate(373.064453 0)"/>
     <use xlink:href="#DejaVuSerif-72" transform="translate(432.683594 0)"/>
     <use xlink:href="#DejaVuSerif-64" transform="translate(480.486328 0)"/>
     <use xlink:href="#DejaVuSerif-20" transform="translate(544.5 0)"/>
     <use xlink:href="#DejaVuSerif-50" transform="translate(576.287109 0)"/>
     <use xlink:href="#DejaVuSerif-61" transform="translate(639.072266 0)"/>
     <use xlink:href="#DejaVuSerif-73" transform="translate(698.691406 0)"/>
     <use xlink:href="#DejaVuSerif-73" transform="translate(750.009766 0)"/>
     <use xlink:href="#DejaVuSerif-20" transform="translate(801.328125 0)"/>
     <use xlink:href="#DejaVuSerif-2193" transform="translate(833.115234 0)"/>
    </g>
   </g>
   <g id="text_9">
    <!-- Standard Approach: Store All Intermediates -->
    <g style="fill: #262626" transform="translate(102.099375 16.318125) scale(0.12 -0.12)">
     <defs>
      <path id="DejaVuSerif-Bold-53" d="M 494 225 
L 494 1331 
L 891 1331 
Q 981 806 1318 547 
Q 1656 288 2253 288 
Q 2738 288 2991 472 
Q 3244 656 3244 1013 
Q 3244 1294 3072 1450 
Q 2900 1606 2363 1741 
L 1663 1913 
Q 978 2088 700 2398 
Q 422 2709 422 3284 
Q 422 3978 883 4364 
Q 1344 4750 2175 4750 
Q 2584 4750 3026 4681 
Q 3469 4613 3944 4475 
L 3944 3444 
L 3547 3444 
Q 3456 3925 3150 4148 
Q 2844 4372 2278 4372 
Q 1816 4372 1580 4211 
Q 1344 4050 1344 3731 
Q 1344 3441 1506 3289 
Q 1669 3138 2303 2975 
L 3003 2803 
Q 3653 2641 3945 2297 
Q 4238 1953 4238 1350 
Q 4238 644 3750 276 
Q 3263 -91 2316 -91 
Q 1859 -91 1409 -12 
Q 959 66 494 225 
z
" transform="scale(0.015625)"/>
      <path id="DejaVuSerif-Bold-6e" d="M 219 0 
L 219 378 
L 691 378 
L 691 2944 
L 219 2944 
L 219 3322 
L 1797 3322 
L 1797 2853 
Q 1997 3150 2253 3281 
Q 2509 3413 2900 3413 
Q 3459 3413 3745 3083 
Q 4031 2753 4031 2113 
L 4031 378 
L 4506 378 
L 4506 0 
L 2522 0 
L 2522 378 
L 2925 378 
L 2925 2144 
Q 2925 2566 2817 2730 
Q 2709 2894 2444 2894 
Q 2109 2894 1953 2648 
Q 1797 2403 1797 1869 
L 1797 378 
L 2203 378 
L 2203 0 
L 219 0 
z
" transform="scale(0.015625)"/>
      <path id="DejaVuSerif-Bold-64" d="M 2747 1497 
L 2747 1825 
Q 2747 2406 2597 2665 
Q 2447 2925 2119 2925 
Q 1775 2925 1636 2651 
Q 1497 2378 1497 1663 
Q 1497 947 1637 672 
Q 1778 397 2119 397 
Q 2447 397 2597 656 
Q 2747 916 2747 1497 
z
M 3853 378 
L 4325 378 
L 4325 0 
L 2747 0 
L 2747 422 
Q 2606 163 2367 36 
Q 2128 -91 1778 -91 
Q 1072 -91 667 378 
Q 263 847 263 1663 
Q 263 2481 667 2947 
Q 1072 3413 1778 3413 
Q 2128 3413 2367 3286 
Q 2606 3159 2747 2900 
L 2747 4488 
L 2272 4488 
L 2272 4863 
L 3853 4863 
L 3853 378 
z
" transform="scale(0.015625)"/>
      <path id="DejaVuSerif-Bold-41" d="M -50 0 
L -50 378 
L 331 378 
L 2088 4666 
L 2834 4666 
L 4594 378 
L 5038 378 
L 5038 0 
L 2853 0 
L 2853 378 
L 3309 378 
L 2925 1331 
L 1172 1331 
L 781 378 
L 1338 378 
L 1338 0 
L -50 0 
z
M 1325 1709 
L 2772 1709 
L 2053 3494 
L 1325 1709 
z
" transform="scale(0.015625)"/>
      <path id="DejaVuSerif-Bold-70" d="M 1728 1825 
L 1728 1497 
Q 1728 916 1876 656 
Q 2025 397 2356 397 
Q 2697 397 2836 672 
Q 2975 947 2975 1663 
Q 2975 2378 2836 2651 
Q 2697 2925 2356 2925 
Q 2025 2925 1876 2665 
Q 1728 2406 1728 1825 
z
M 622 2944 
L 147 2944 
L 147 3322 
L 1728 3322 
L 1728 2900 
Q 1869 3159 2106 3286 
Q 2344 3413 2694 3413 
Q 3403 3413 3811 2945 
Q 4219 2478 4219 1663 
Q 4219 847 3811 378 
Q 3403 -91 2694 -91 
Q 2344 -91 2106 36 
Q 1869 163 1728 422 
L 1728 -953 
L 2241 -953 
L 2241 -1331 
L 147 -1331 
L 147 -953 
L 622 -953 
L 622 2944 
z
" transform="scale(0.015625)"/>
      <path id="DejaVuSerif-Bold-68" d="M 219 0 
L 219 378 
L 691 378 
L 691 4488 
L 197 4488 
L 197 4863 
L 1797 4863 
L 1797 2853 
Q 1997 3150 2253 3281 
Q 2509 3413 2900 3413 
Q 3459 3413 3745 3083 
Q 4031 2753 4031 2113 
L 4031 378 
L 4506 378 
L 4506 0 
L 2522 0 
L 2522 378 
L 2925 378 
L 2925 2144 
Q 2925 2566 2817 2730 
Q 2709 2894 2444 2894 
Q 2109 2894 1953 2648 
Q 1797 2403 1797 1869 
L 1797 378 
L 2203 378 
L 2203 0 
L 219 0 
z
" transform="scale(0.015625)"/>
      <path id="DejaVuSerif-Bold-49" d="M 300 0 
L 300 378 
L 897 378 
L 897 4288 
L 300 4288 
L 300 4666 
L 2700 4666 
L 2700 4288 
L 2100 4288 
L 2100 378 
L 2700 378 
L 2700 0 
L 300 0 
z
" transform="scale(0.015625)"/>
     </defs>
     <use xlink:href="#DejaVuSerif-Bold-53"/>
     <use xlink:href="#DejaVuSerif-Bold-74" transform="translate(72.216797 0)"/>
     <use xlink:href="#DejaVuSerif-Bold-61" transform="translate(118.408203 0)"/>
     <use xlink:href="#DejaVuSerif-Bold-6e" transform="translate(183.203125 0)"/>
     <use xlink:href="#DejaVuSerif-Bold-64" transform="translate(255.908203 0)"/>
     <use xlink:href="#DejaVuSerif-Bold-61" transform="translate(325.830078 0)"/>
     <use xlink:href="#DejaVuSerif-Bold-72" transform="translate(390.625 0)"/>
     <use xlink:href="#DejaVuSerif-Bold-64" transform="translate(443.310547 0)"/>
     <use xlink:href="#DejaVuSerif-Bold-20" transform="translate(513.232422 0)"/>
     <use xlink:href="#DejaVuSerif-Bold-41" transform="translate(548.046875 0)"/>
     <use xlink:href="#DejaVuSerif-Bold-70" transform="translate(625.634766 0)"/>
     <use xlink:href="#DejaVuSerif-Bold-70" transform="translate(695.556641 0)"/>
     <use xlink:href="#DejaVuSerif-Bold-72" transform="translate(765.478516 0)"/>
     <use xlink:href="#DejaVuSerif-Bold-6f" transform="translate(818.164062 0)"/>
     <use xlink:href="#DejaVuSerif-Bold-61" transform="translate(884.863281 0)"/>
     <use xlink:href="#DejaVuSerif-Bold-63" transform="translate(949.658203 0)"/>
     <use xlink:href="#DejaVuSerif-Bold-68" transform="translate(1010.546875 0)"/>
     <use xlink:href="#DejaVuSerif-Bold-3a" transform="translate(1083.251953 0)"/>
     <use xlink:href="#DejaVuSerif-Bold-20" transform="translate(1120.166016 0)"/>
     <use xlink:href="#DejaVuSerif-Bold-53" transform="translate(1154.980469 0)"/>
     <use xlink:href="#DejaVuSerif-Bold-74" transform="translate(1227.197266 0)"/>
     <use xlink:href="#DejaVuSerif-Bold-6f" transform="translate(1273.388672 0)"/>
     <use xlink:href="#DejaVuSerif-Bold-72" transform="translate(1340.087891 0)"/>
     <use xlink:href="#DejaVuSerif-Bold-65" transform="translate(1392.773438 0)"/>
     <use xlink:href="#DejaVuSerif-Bold-20" transform="translate(1456.396484 0)"/>
     <use xlink:href="#DejaVuSerif-Bold-41" transform="translate(1491.210938 0)"/>
     <use xlink:href="#DejaVuSerif-Bold-6c" transform="translate(1568.798828 0)"/>
     <use xlink:href="#DejaVuSerif-Bold-6c" transform="translate(1606.787109 0)"/>
     <use xlink:href="#DejaVuSerif-Bold-20" transform="translate(1644.775391 0)"/>
     <use xlink:href="#DejaVuSerif-Bold-49" transform="translate(1679.589844 0)"/>
     <use xlink:href="#DejaVuSerif-Bold-6e" transform="translate(1726.367188 0)"/>
     <use xlink:href="#DejaVuSerif-Bold-74" transform="translate(1799.072266 0)"/>
     <use xlink:href="#DejaVuSerif-Bold-65" transform="translate(1845.263672 0)"/>
     <use xlink:href="#DejaVuSerif-Bold-72" transform="translate(1908.886719 0)"/>
     <use xlink:href="#DejaVuSerif-Bold-6d" transform="translate(1961.572266 0)"/>
     <use xlink:href="#DejaVuSerif-Bold-65" transform="translate(2067.382812 0)"/>
     <use xlink:href="#DejaVuSerif-Bold-64" transform="translate(2131.005859 0)"/>
     <use xlink:href="#DejaVuSerif-Bold-69" transform="translate(2200.927734 0)"/>
     <use xlink:href="#DejaVuSerif-Bold-61" transform="translate(2238.916016 0)"/>
     <use xlink:href="#DejaVuSerif-Bold-74" transform="translate(2303.710938 0)"/>
     <use xlink:href="#DejaVuSerif-Bold-65" transform="translate(2349.902344 0)"/>
     <use xlink:href="#DejaVuSerif-Bold-73" transform="translate(2413.525391 0)"/>
    </g>
    <!-- O(T) Memory -->
    <g style="fill: #262626" transform="translate(205.374375 29.7555) scale(0.12 -0.12)">
     <defs>
      <path id="DejaVuSerif-Bold-4f" d="M 2784 288 
Q 3381 288 3672 791 
Q 3963 1294 3963 2328 
Q 3963 3366 3672 3869 
Q 3381 4372 2784 4372 
Q 2191 4372 1898 3864 
Q 1606 3356 1606 2328 
Q 1606 1303 1898 795 
Q 2191 288 2784 288 
z
M 2784 -91 
Q 1606 -91 937 553 
Q 269 1197 269 2328 
Q 269 3459 939 4104 
Q 1609 4750 2784 4750 
Q 3963 4750 4631 4106 
Q 5300 3463 5300 2328 
Q 5300 1197 4629 553 
Q 3959 -91 2784 -91 
z
" transform="scale(0.015625)"/>
      <path id="DejaVuSerif-Bold-28" d="M 2694 -997 
Q 1641 -606 1122 122 
Q 603 850 603 1931 
Q 603 3013 1115 3731 
Q 1628 4450 2694 4863 
L 2694 4488 
Q 2200 4188 1983 3598 
Q 1766 3009 1766 1931 
Q 1766 856 1983 267 
Q 2200 -322 2694 -622 
L 2694 -997 
z
" transform="scale(0.015625)"/>
      <path id="DejaVuSerif-Bold-54" d="M 1159 0 
L 1159 378 
L 1778 378 
L 1778 4238 
L 500 4238 
L 500 3500 
L 72 3500 
L 72 4666 
L 4697 4666 
L 4697 3500 
L 4275 3500 
L 4275 4238 
L 2988 4238 
L 2988 378 
L 3609 378 
L 3609 0 
L 1159 0 
z
" transform="scale(0.015625)"/>
      <path id="DejaVuSerif-Bold-29" d="M 325 -997 
L 325 -622 
Q 819 -322 1036 267 
Q 1253 856 1253 1931 
Q 1253 3009 1036 3598 
Q 819 4188 325 4488 
L 325 4863 
Q 1391 4450 1905 3731 
Q 2419 3013 2419 1931 
Q 2419 850 1898 122 
Q 1378 -606 325 -997 
z
" transform="scale(0.015625)"/>
     </defs>
     <use xlink:href="#DejaVuSerif-Bold-4f"/>
     <use xlink:href="#DejaVuSerif-Bold-28" transform="translate(87.109375 0)"/>
     <use xlink:href="#DejaVuSerif-Bold-54" transform="translate(134.423828 0)"/>
     <use xlink:href="#DejaVuSerif-Bold-29" transform="translate(208.837891 0)"/>
     <use xlink:href="#DejaVuSerif-Bold-20" transform="translate(256.152344 0)"/>
     <use xlink:href="#DejaVuSerif-Bold-4d" transform="translate(290.966797 0)"/>
     <use xlink:href="#DejaVuSerif-Bold-65" transform="translate(401.660156 0)"/>
     <use xlink:href="#DejaVuSerif-Bold-6d" transform="translate(465.283203 0)"/>
     <use xlink:href="#DejaVuSerif-Bold-6f" transform="translate(571.09375 0)"/>
     <use xlink:href="#DejaVuSerif-Bold-72" transform="translate(637.792969 0)"/>
     <use xlink:href="#DejaVuSerif-Bold-79" transform="translate(690.478516 0)"/>
    </g>
   </g>
  </g>
  <g id="axes_2">
   <g id="patch_7">
    <path d="M 699.732 189.90642 
L 796.968 189.90642 
Q 797.94036 189.90642 797.94036 189.1395 
L 797.94036 112.4475 
Q 797.94036 111.68058 796.968 111.68058 
L 699.732 111.68058 
Q 698.75964 111.68058 698.75964 112.4475 
L 698.75964 189.1395 
Q 698.75964 189.90642 699.732 189.90642 
z
" clip-path="url(#p2630f56ac8)" style="fill: #c8e6c9; stroke: #388e3c; stroke-width: 2; stroke-linejoin: miter"/>
   </g>
   <g id="text_10">
    <!-- M_orig -->
    <g style="fill: #262626" transform="translate(728.950781 147.743812) scale(0.1 -0.1)">
     <defs>
      <path id="DejaVuSerif-Bold-67" d="M 3853 2944 
L 3853 44 
Q 3853 -656 3354 -1039 
Q 2856 -1422 1947 -1422 
Q 1616 -1422 1275 -1370 
Q 934 -1319 575 -1216 
L 575 -422 
L 928 -422 
Q 975 -750 1192 -909 
Q 1409 -1069 1813 -1069 
Q 2325 -1069 2536 -823 
Q 2747 -578 2747 44 
L 2747 422 
Q 2606 163 2367 36 
Q 2128 -91 1778 -91 
Q 1072 -91 667 378 
Q 263 847 263 1663 
Q 263 2481 667 2947 
Q 1072 3413 1778 3413 
Q 2128 3413 2367 3286 
Q 2606 3159 2747 2900 
L 2747 3322 
L 4325 3322 
L 4325 2944 
L 3853 2944 
z
M 2747 1825 
Q 2747 2406 2597 2665 
Q 2447 2925 2119 2925 
Q 1775 2925 1636 2651 
Q 1497 2378 1497 1663 
Q 1497 947 1637 672 
Q 1778 397 2119 397 
Q 2447 397 2597 656 
Q 2747 916 2747 1497 
L 2747 1825 
z
" transform="scale(0.015625)"/>
     </defs>
     <use xlink:href="#DejaVuSerif-Bold-4d"/>
     <use xlink:href="#DejaVuSerif-Bold-5f" transform="translate(110.693359 0)"/>
     <use xlink:href="#DejaVuSerif-Bold-6f" transform="translate(160.693359 0)"/>
     <use xlink:href="#DejaVuSerif-Bold-72" transform="translate(227.392578 0)"/>
     <use xlink:href="#DejaVuSerif-Bold-69" transform="translate(280.078125 0)"/>
     <use xlink:href="#DejaVuSerif-Bold-67" transform="translate(318.066406 0)"/>
    </g>
    <!-- only -->
    <g style="fill: #262626" transform="translate(736.575 159.21975) scale(0.1 -0.1)">
     <use xlink:href="#DejaVuSerif-Bold-6f"/>
     <use xlink:href="#DejaVuSerif-Bold-6e" transform="translate(66.699219 0)"/>
     <use xlink:href="#DejaVuSerif-Bold-6c" transform="translate(139.404297 0)"/>
     <use xlink:href="#DejaVuSerif-Bold-79" transform="translate(177.392578 0)"/>
    </g>
   </g>
   <g id="text_11">
    <!-- Backward iter i: Recompute M₀→M₁→...→Mᵢ -->
    <g style="fill: #262626" transform="translate(638.039062 246.6585) scale(0.1 -0.1)">
     <defs>
      <path id="DejaVuSerif-42" d="M 1581 331 
L 2516 331 
Q 3078 331 3337 575 
Q 3597 819 3597 1350 
Q 3597 1878 3339 2120 
Q 3081 2363 2516 2363 
L 1581 2363 
L 1581 331 
z
M 1581 2694 
L 2375 2694 
Q 2888 2694 3123 2891 
Q 3359 3088 3359 3513 
Q 3359 3941 3123 4136 
Q 2888 4331 2375 4331 
L 1581 4331 
L 1581 2694 
z
M 353 0 
L 353 331 
L 947 331 
L 947 4331 
L 353 4331 
L 353 4666 
L 2656 4666 
Q 3363 4666 3720 4377 
Q 4078 4088 4078 3513 
Q 4078 3097 3829 2850 
Q 3581 2603 3103 2547 
Q 3697 2472 4005 2167 
Q 4313 1863 4313 1350 
Q 4313 656 3875 328 
Q 3438 0 2509 0 
L 353 0 
z
" transform="scale(0.015625)"/>
      <path id="DejaVuSerif-63" d="M 3291 997 
Q 3169 466 2822 187 
Q 2475 -91 1925 -91 
Q 1200 -91 759 389 
Q 319 869 319 1663 
Q 319 2459 759 2936 
Q 1200 3413 1925 3413 
Q 2241 3413 2553 3339 
Q 2866 3266 3181 3116 
L 3181 2266 
L 2847 2266 
Q 2781 2703 2561 2903 
Q 2341 3103 1931 3103 
Q 1466 3103 1228 2742 
Q 991 2381 991 1663 
Q 991 944 1227 581 
Q 1463 219 1931 219 
Q 2303 219 2525 412 
Q 2747 606 2828 997 
L 3291 997 
z
" transform="scale(0.015625)"/>
      <path id="DejaVuSerif-6b" d="M 1831 0 
L 219 0 
L 219 331 
L 738 331 
L 738 4531 
L 184 4531 
L 184 4863 
L 1313 4863 
L 1313 1697 
L 2713 2988 
L 2234 2988 
L 2234 3322 
L 3738 3322 
L 3738 2988 
L 3169 2988 
L 2181 2075 
L 3444 331 
L 3922 331 
L 3922 0 
L 2284 0 
L 2284 331 
L 2759 331 
L 1766 1697 
L 1313 1275 
L 1313 331 
L 1831 331 
L 1831 0 
z
" transform="scale(0.015625)"/>
      <path id="DejaVuSerif-69" d="M 622 4353 
Q 622 4497 726 4603 
Q 831 4709 978 4709 
Q 1122 4709 1226 4603 
Q 1331 4497 1331 4353 
Q 1331 4206 1228 4103 
Q 1125 4000 978 4000 
Q 831 4000 726 4103 
Q 622 4206 622 4353 
z
M 1356 331 
L 1900 331 
L 1900 0 
L 231 0 
L 231 331 
L 781 331 
L 781 2988 
L 231 2988 
L 231 3322 
L 1356 3322 
L 1356 331 
z
" transform="scale(0.015625)"/>
      <path id="DejaVuSerif-52" d="M 3066 2316 
Q 3284 2256 3442 2114 
Q 3600 1972 3725 1716 
L 4403 331 
L 4972 331 
L 4972 0 
L 3872 0 
L 3144 1484 
Q 2934 1916 2759 2042 
Q 2584 2169 2278 2169 
L 1581 2169 
L 1581 331 
L 2241 331 
L 2241 0 
L 353 0 
L 353 331 
L 947 331 
L 947 4331 
L 353 4331 
L 353 4666 
L 2719 4666 
Q 3400 4666 3770 4341 
Q 4141 4016 4141 3419 
Q 4141 2938 3870 2661 
Q 3600 2384 3066 2316 
z
M 1581 2503 
L 2503 2503 
Q 2975 2503 3200 2726 
Q 3425 2950 3425 3419 
Q 3425 3888 3200 4109 
Q 2975 4331 2503 4331 
L 1581 4331 
L 1581 2503 
z
" transform="scale(0.015625)"/>
      <path id="DejaVuSerif-6d" d="M 3316 2675 
Q 3481 3041 3739 3227 
Q 3997 3413 4341 3413 
Q 4863 3413 5119 3089 
Q 5375 2766 5375 2113 
L 5375 331 
L 5894 331 
L 5894 0 
L 4300 0 
L 4300 331 
L 4800 331 
L 4800 2047 
Q 4800 2556 4650 2772 
Q 4500 2988 4153 2988 
Q 3769 2988 3567 2697 
Q 3366 2406 3366 1850 
L 3366 331 
L 3866 331 
L 3866 0 
L 2291 0 
L 2291 331 
L 2791 331 
L 2791 2069 
Q 2791 2566 2641 2777 
Q 2491 2988 2144 2988 
Q 1759 2988 1557 2697 
Q 1356 2406 1356 1850 
L 1356 331 
L 1856 331 
L 1856 0 
L 263 0 
L 263 331 
L 781 331 
L 781 2994 
L 231 2994 
L 231 3322 
L 1356 3322 
L 1356 2731 
Q 1516 3063 1762 3238 
Q 2009 3413 2322 3413 
Q 2709 3413 2968 3220 
Q 3228 3028 3316 2675 
z
" transform="scale(0.015625)"/>
      <path id="DejaVuSerif-70" d="M 1313 1825 
L 1313 1497 
Q 1313 897 1542 583 
Q 1772 269 2209 269 
Q 2650 269 2876 622 
Q 3103 975 3103 1663 
Q 3103 2353 2876 2703 
Q 2650 3053 2209 3053 
Q 1772 3053 1542 2737 
Q 1313 2422 1313 1825 
z
M 738 2988 
L 184 2988 
L 184 3322 
L 1313 3322 
L 1313 2803 
Q 1481 3116 1742 3264 
Q 2003 3413 2388 3413 
Q 3000 3413 3387 2928 
Q 3775 2444 3775 1663 
Q 3775 881 3387 395 
Q 3000 -91 2388 -91 
Q 2003 -91 1742 57 
Q 1481 206 1313 519 
L 1313 -997 
L 1856 -997 
L 1856 -1331 
L 184 -1331 
L 184 -997 
L 738 -997 
L 738 2988 
z
" transform="scale(0.015625)"/>
      <path id="DejaVuSerif-75" d="M 2266 3322 
L 3341 3322 
L 3341 331 
L 3884 331 
L 3884 0 
L 2766 0 
L 2766 588 
Q 2606 256 2353 82 
Q 2100 -91 1766 -91 
Q 1213 -91 952 223 
Q 691 538 691 1209 
L 691 2988 
L 172 2988 
L 172 3322 
L 1269 3322 
L 1269 1388 
Q 1269 781 1417 556 
Q 1566 331 1947 331 
Q 2347 331 2556 625 
Q 2766 919 2766 1478 
L 2766 2988 
L 2266 2988 
L 2266 3322 
z
" transform="scale(0.015625)"/>
      <path id="DejaVuSerif-2192" d="M 366 2322 
L 4391 2322 
L 3788 3375 
L 3822 3375 
L 5125 2084 
L 5125 2053 
L 3822 763 
L 3788 763 
L 4391 1816 
L 366 1816 
L 366 2322 
z
" transform="scale(0.015625)"/>
      <path id="DejaVuSerif-2e" d="M 603 325 
Q 603 500 722 622 
Q 841 744 1019 744 
Q 1191 744 1312 622 
Q 1434 500 1434 325 
Q 1434 153 1312 31 
Q 1191 -91 1019 -91 
Q 841 -91 722 29 
Q 603 150 603 325 
z
" transform="scale(0.015625)"/>
      <path id="DejaVuSerif-1d62" d="M 458 2274 
Q 391 2332 391 2413 
Q 391 2494 458 2553 
Q 525 2613 615 2613 
Q 706 2613 772 2553 
Q 838 2494 838 2413 
Q 838 2332 773 2274 
Q 709 2216 616 2216 
Q 525 2216 458 2274 
z
M 853 160 
L 1197 160 
L 1197 -24 
L 147 -24 
L 147 160 
L 494 160 
L 494 1647 
L 147 1647 
L 147 1835 
L 853 1835 
L 853 160 
z
" transform="scale(0.015625)"/>
     </defs>
     <use xlink:href="#DejaVuSerif-42"/>
     <use xlink:href="#DejaVuSerif-61" transform="translate(73.486328 0)"/>
     <use xlink:href="#DejaVuSerif-63" transform="translate(133.105469 0)"/>
     <use xlink:href="#DejaVuSerif-6b" transform="translate(189.111328 0)"/>
     <use xlink:href="#DejaVuSerif-77" transform="translate(249.707031 0)"/>
     <use xlink:href="#DejaVuSerif-61" transform="translate(335.302734 0)"/>
     <use xlink:href="#DejaVuSerif-72" transform="translate(394.921875 0)"/>
     <use xlink:href="#DejaVuSerif-64" transform="translate(442.724609 0)"/>
     <use xlink:href="#DejaVuSerif-20" transform="translate(506.738281 0)"/>
     <use xlink:href="#DejaVuSerif-69" transform="translate(538.525391 0)"/>
     <use xlink:href="#DejaVuSerif-74" transform="translate(570.507812 0)"/>
     <use xlink:href="#DejaVuSerif-65" transform="translate(610.693359 0)"/>
     <use xlink:href="#DejaVuSerif-72" transform="translate(669.873047 0)"/>
     <use xlink:href="#DejaVuSerif-20" transform="translate(717.675781 0)"/>
     <use xlink:href="#DejaVuSerif-69" transform="translate(749.462891 0)"/>
     <use xlink:href="#DejaVuSerif-3a" transform="translate(781.445312 0)"/>
     <use xlink:href="#DejaVuSerif-20" transform="translate(815.136719 0)"/>
     <use xlink:href="#DejaVuSerif-52" transform="translate(846.923828 0)"/>
     <use xlink:href="#DejaVuSerif-65" transform="translate(922.216797 0)"/>
     <use xlink:href="#DejaVuSerif-63" transform="translate(981.396484 0)"/>
     <use xlink:href="#DejaVuSerif-6f" transform="translate(1037.402344 0)"/>
     <use xlink:href="#DejaVuSerif-6d" transform="translate(1097.607422 0)"/>
     <use xlink:href="#DejaVuSerif-70" transform="translate(1192.431641 0)"/>
     <use xlink:href="#DejaVuSerif-75" transform="translate(1256.445312 0)"/>
     <use xlink:href="#DejaVuSerif-74" transform="translate(1320.849609 0)"/>
     <use xlink:href="#DejaVuSerif-65" transform="translate(1361.035156 0)"/>
     <use xlink:href="#DejaVuSerif-20" transform="translate(1420.214844 0)"/>
     <use xlink:href="#DejaVuSerif-4d" transform="translate(1452.001953 0)"/>
     <use xlink:href="#DejaVuSerif-2080" transform="translate(1554.394531 0)"/>
     <use xlink:href="#DejaVuSerif-2192" transform="translate(1594.482422 0)"/>
     <use xlink:href="#DejaVuSerif-4d" transform="translate(1678.271484 0)"/>
     <use xlink:href="#DejaVuSerif-2081" transform="translate(1780.664062 0)"/>
     <use xlink:href="#DejaVuSerif-2192" transform="translate(1820.751953 0)"/>
     <use xlink:href="#DejaVuSerif-2e" transform="translate(1904.541016 0)"/>
     <use xlink:href="#DejaVuSerif-2e" transform="translate(1936.328125 0)"/>
     <use xlink:href="#DejaVuSerif-2e" transform="translate(1968.115234 0)"/>
     <use xlink:href="#DejaVuSerif-2192" transform="translate(1999.902344 0)"/>
     <use xlink:href="#DejaVuSerif-4d" transform="translate(2083.691406 0)"/>
     <use xlink:href="#DejaVuSerif-1d62" transform="translate(2186.083984 0)"/>
    </g>
   </g>
   <g id="text_12">
    <!-- Memory: 1 × 4×4 matrix = 16 floats -->
    <g style="fill: #2e7d32" transform="translate(647.370312 273.5007) scale(0.1 -0.1)">
     <defs>
      <path id="DejaVuSerif-Bold-78" d="M 2247 2119 
L 2834 2944 
L 2425 2944 
L 2425 3322 
L 3719 3322 
L 3719 2944 
L 3278 2944 
L 2431 1759 
L 3419 378 
L 3859 378 
L 3859 0 
L 1747 0 
L 1747 378 
L 2175 378 
L 1550 1253 
L 922 378 
L 1369 378 
L 1369 0 
L 0 0 
L 0 378 
L 475 378 
L 1356 1619 
L 403 2944 
L 31 2944 
L 31 3322 
L 2059 3322 
L 2059 2944 
L 1656 2944 
L 2247 2119 
z
" transform="scale(0.015625)"/>
      <path id="DejaVuSerif-Bold-36" d="M 1575 2766 
Q 1778 2928 2029 3009 
Q 2281 3091 2578 3091 
Q 3294 3091 3701 2672 
Q 4109 2253 4109 1522 
Q 4109 750 3650 329 
Q 3191 -91 2344 -91 
Q 1388 -91 895 486 
Q 403 1063 403 2181 
Q 403 3453 950 4101 
Q 1497 4750 2572 4750 
Q 2853 4750 3175 4703 
Q 3497 4656 3866 4563 
L 3866 3738 
L 3488 3738 
Q 3409 4056 3192 4220 
Q 2975 4384 2631 4384 
Q 2075 4384 1826 4003 
Q 1578 3622 1575 2766 
z
M 2272 275 
Q 2594 275 2731 548 
Q 2869 822 2869 1497 
Q 2869 2172 2731 2445 
Q 2594 2719 2272 2719 
Q 1950 2719 1814 2445 
Q 1678 2172 1678 1497 
Q 1678 822 1814 548 
Q 1950 275 2272 275 
z
" transform="scale(0.015625)"/>
     </defs>
     <use xlink:href="#DejaVuSerif-Bold-4d"/>
     <use xlink:href="#DejaVuSerif-Bold-65" transform="translate(110.693359 0)"/>
     <use xlink:href="#DejaVuSerif-Bold-6d" transform="translate(174.316406 0)"/>
     <use xlink:href="#DejaVuSerif-Bold-6f" transform="translate(280.126953 0)"/>
     <use xlink:href="#DejaVuSerif-Bold-72" transform="translate(346.826172 0)"/>
     <use xlink:href="#DejaVuSerif-Bold-79" transform="translate(399.511719 0)"/>
     <use xlink:href="#DejaVuSerif-Bold-3a" transform="translate(457.617188 0)"/>
     <use xlink:href="#DejaVuSerif-Bold-20" transform="translate(494.53125 0)"/>
     <use xlink:href="#DejaVuSerif-Bold-31" transform="translate(529.345703 0)"/>
     <use xlink:href="#DejaVuSerif-Bold-20" transform="translate(598.925781 0)"/>
     <use xlink:href="#DejaVuSerif-Bold-d7" transform="translate(633.740234 0)"/>
     <use xlink:href="#DejaVuSerif-Bold-20" transform="translate(717.529297 0)"/>
     <use xlink:href="#DejaVuSerif-Bold-34" transform="translate(752.34375 0)"/>
     <use xlink:href="#DejaVuSerif-Bold-d7" transform="translate(821.923828 0)"/>
     <use xlink:href="#DejaVuSerif-Bold-34" transform="translate(905.712891 0)"/>
     <use xlink:href="#DejaVuSerif-Bold-20" transform="translate(975.292969 0)"/>
     <use xlink:href="#DejaVuSerif-Bold-6d" transform="translate(1010.107422 0)"/>
     <use xlink:href="#DejaVuSerif-Bold-61" transform="translate(1115.917969 0)"/>
     <use xlink:href="#DejaVuSerif-Bold-74" transform="translate(1180.712891 0)"/>
     <use xlink:href="#DejaVuSerif-Bold-72" transform="translate(1226.904297 0)"/>
     <use xlink:href="#DejaVuSerif-Bold-69" transform="translate(1279.589844 0)"/>
     <use xlink:href="#DejaVuSerif-Bold-78" transform="translate(1317.578125 0)"/>
     <use xlink:href="#DejaVuSerif-Bold-20" transform="translate(1377.197266 0)"/>
     <use xlink:href="#DejaVuSerif-Bold-3d" transform="translate(1412.011719 0)"/>
     <use xlink:href="#DejaVuSerif-Bold-20" transform="translate(1495.800781 0)"/>
     <use xlink:href="#DejaVuSerif-Bold-31" transform="translate(1530.615234 0)"/>
     <use xlink:href="#DejaVuSerif-Bold-36" transform="translate(1600.195312 0)"/>
     <use xlink:href="#DejaVuSerif-Bold-20" transform="translate(1669.775391 0)"/>
     <use xlink:href="#DejaVuSerif-Bold-66" transform="translate(1704.589844 0)"/>
     <use xlink:href="#DejaVuSerif-Bold-6c" transform="translate(1747.607422 0)"/>
     <use xlink:href="#DejaVuSerif-Bold-6f" transform="translate(1785.595703 0)"/>
     <use xlink:href="#DejaVuSerif-Bold-61" transform="translate(1852.294922 0)"/>
     <use xlink:href="#DejaVuSerif-Bold-74" transform="translate(1917.089844 0)"/>
     <use xlink:href="#DejaVuSerif-Bold-73" transform="translate(1963.28125 0)"/>
    </g>
   </g>
   <g id="text_13">
    <!-- (20× memory savings for T=20) -->
    <g style="fill: #1565c0" transform="translate(666.776562 300.3429) scale(0.1 -0.1)">
     <defs>
      <path id="DejaVuSerif-Italic-28" d="M 1472 -997 
Q 778 -656 534 83 
Q 291 822 506 1931 
Q 722 3044 1253 3783 
Q 1784 4522 2609 4863 
L 2550 4556 
Q 2006 4225 1679 3623 
Q 1353 3022 1141 1931 
Q 928 844 1020 242 
Q 1113 -359 1531 -691 
L 1472 -997 
z
" transform="scale(0.015625)"/>
      <path id="DejaVuSerif-Italic-32" d="M 1050 3553 
L 700 3553 
L 863 4384 
Q 1231 4563 1589 4656 
Q 1947 4750 2272 4750 
Q 3000 4750 3353 4397 
Q 3706 4044 3588 3438 
Q 3456 2753 2313 1800 
Q 2225 1728 2178 1691 
L 772 513 
L 2719 513 
L 2831 1088 
L 3197 1088 
L 2984 0 
L -25 0 
L 41 341 
L 1731 1753 
Q 2291 2222 2567 2614 
Q 2844 3006 2928 3438 
Q 3019 3909 2825 4175 
Q 2631 4441 2200 4441 
Q 1753 4441 1467 4219 
Q 1181 3997 1050 3553 
z
" transform="scale(0.015625)"/>
      <path id="DejaVuSerif-Italic-30" d="M 1011 744 
Q 1147 219 1625 219 
Q 2103 219 2442 744 
Q 2781 1269 2988 2328 
Q 3194 3391 3058 3916 
Q 2922 4441 2444 4441 
Q 1966 4441 1627 3916 
Q 1288 3391 1081 2328 
Q 875 1269 1011 744 
z
M 1563 -91 
Q 803 -91 501 546 
Q 200 1184 422 2328 
Q 644 3475 1195 4112 
Q 1747 4750 2506 4750 
Q 3269 4750 3569 4112 
Q 3869 3475 3647 2328 
Q 3425 1184 2875 546 
Q 2325 -91 1563 -91 
z
" transform="scale(0.015625)"/>
      <path id="DejaVuSerif-Italic-d7" d="M 4481 3450 
L 3034 2003 
L 4481 563 
L 4122 213 
L 2681 1650 
L 1241 213 
L 884 563 
L 2322 2003 
L 884 3450 
L 1241 3803 
L 2681 2363 
L 4122 3803 
L 4481 3450 
z
" transform="scale(0.015625)"/>
      <path id="DejaVuSerif-Italic-20" transform="scale(0.015625)"/>
      <path id="DejaVuSerif-Italic-6d" d="M 3503 2675 
Q 3741 3041 4034 3227 
Q 4328 3413 4672 3413 
Q 5194 3413 5388 3088 
Q 5503 2894 5503 2578 
Q 5503 2372 5453 2113 
L 5106 331 
L 5625 331 
L 5563 0 
L 4469 0 
L 4866 2047 
Q 4913 2291 4913 2466 
Q 4913 2659 4856 2772 
Q 4750 2988 4403 2988 
Q 4019 2988 3761 2697 
Q 3503 2406 3394 1850 
L 3034 0 
L 2459 0 
L 2863 2069 
Q 2906 2303 2906 2472 
Q 2906 2666 2850 2775 
Q 2741 2988 2394 2988 
Q 2009 2988 1751 2697 
Q 1494 2406 1384 1850 
L 1025 0 
L 450 0 
L 1031 2994 
L 481 2994 
L 544 3322 
L 1669 3322 
L 1556 2731 
Q 1778 3063 2059 3238 
Q 2341 3413 2653 3413 
Q 3041 3413 3262 3220 
Q 3484 3028 3503 2675 
z
" transform="scale(0.015625)"/>
      <path id="DejaVuSerif-Italic-65" d="M 938 1275 
Q 925 1156 925 1050 
Q 925 756 1031 563 
Q 1216 219 1709 219 
Q 2072 219 2250 328 
Q 2569 525 2644 778 
L 3066 778 
Q 2941 381 2475 103 
Q 2150 -91 1506 -91 
Q 863 -91 516 388 
Q 272 722 272 1206 
Q 272 1419 319 1659 
Q 472 2450 1000 2931 
Q 1528 3413 2278 3413 
Q 3500 3413 3500 2547 
Q 3500 1913 2859 1603 
Q 2206 1288 938 1275 
z
M 2541 1975 
Q 2891 2181 2891 2569 
Q 2891 3103 2181 3103 
Q 1763 3103 1472 2784 
Q 1181 2466 1003 1606 
Q 2006 1653 2541 1975 
z
" transform="scale(0.015625)"/>
      <path id="DejaVuSerif-Italic-6f" d="M 1644 219 
Q 2106 219 2414 584 
Q 2722 950 2859 1663 
Q 2922 1988 2922 2241 
Q 2922 2541 2834 2738 
Q 2669 3103 2206 3103 
Q 1744 3103 1436 2739 
Q 1128 2375 991 1663 
Q 928 1338 928 1088 
Q 928 784 1019 584 
Q 1184 219 1644 219 
z
M 1584 -91 
Q 859 -91 513 388 
Q 272 722 272 1203 
Q 272 1419 319 1663 
Q 472 2456 1005 2934 
Q 1538 3413 2266 3413 
Q 2994 3413 3341 2934 
Q 3578 2603 3578 2122 
Q 3578 1906 3531 1663 
Q 3378 869 2845 389 
Q 2313 -91 1584 -91 
z
" transform="scale(0.015625)"/>
      <path id="DejaVuSerif-Italic-72" d="M 3375 3328 
L 3213 2497 
L 2881 2497 
Q 2891 2559 2891 2613 
Q 2891 2775 2816 2866 
Q 2719 2988 2484 2988 
Q 2059 2988 1775 2694 
Q 1491 2400 1384 1850 
L 1025 0 
L 450 0 
L 1031 2994 
L 481 2994 
L 544 3322 
L 1669 3322 
L 1556 2731 
Q 1791 3078 2089 3245 
Q 2388 3413 2769 3413 
Q 2909 3413 3059 3391 
Q 3209 3369 3375 3328 
z
" transform="scale(0.015625)"/>
      <path id="DejaVuSerif-Italic-79" d="M 3681 3294 
Q 3372 1506 2828 563 
Q 2031 -822 1391 -1238 
Q 1106 -1422 356 -1422 
Q 209 -1422 60 -1397 
Q -88 -1372 -238 -1325 
L -113 -691 
L 181 -691 
Q 175 -741 175 -788 
Q 175 -919 231 -994 
Q 309 -1100 513 -1100 
Q 1063 -1100 1541 -622 
L 756 2988 
L 378 2988 
L 444 3322 
L 1303 3322 
L 2041 25 
Q 2544 778 2666 1088 
Q 3059 2059 3138 2959 
L 2759 2959 
L 2825 3294 
L 3681 3294 
z
" transform="scale(0.015625)"/>
      <path id="DejaVuSerif-Italic-73" d="M 222 959 
L 553 959 
Q 541 869 541 788 
Q 541 219 1313 219 
Q 2088 219 2200 788 
Q 2209 844 2209 944 
Q 2209 1041 2103 1158 
Q 1997 1275 1550 1428 
L 1159 1569 
Q 759 1706 629 1882 
Q 500 2059 500 2263 
Q 500 2344 516 2438 
Q 606 2894 990 3153 
Q 1375 3413 1931 3413 
Q 2484 3413 3066 3144 
L 2925 2419 
L 2594 2419 
Q 2606 2491 2606 2553 
Q 2606 2781 2448 2942 
Q 2291 3103 1925 3103 
Q 1191 3103 1091 2591 
Q 1078 2538 1078 2444 
Q 1078 2347 1179 2237 
Q 1281 2128 1678 1997 
L 2106 1856 
Q 2550 1709 2716 1488 
Q 2831 1331 2831 1178 
Q 2831 522 2306 181 
Q 1894 -91 1262 -91 
Q 631 -91 72 184 
L 222 959 
z
" transform="scale(0.015625)"/>
      <path id="DejaVuSerif-Italic-61" d="M 2325 519 
Q 1909 -91 1238 -91 
Q 688 -91 409 281 
Q 216 544 216 919 
Q 216 1078 250 1256 
Q 463 2359 1231 2928 
Q 1884 3413 2675 3413 
Q 3206 3413 3388 3322 
L 2806 331 
L 3300 331 
L 3238 0 
L 2225 0 
L 2325 519 
z
M 822 938 
Q 822 269 1469 269 
Q 1863 269 2130 583 
Q 2397 897 2516 1497 
L 2806 3003 
L 2806 3003 
Q 2806 3094 2556 3094 
Q 1956 3094 1491 2625 
Q 1028 2153 863 1297 
Q 822 1097 822 938 
z
" transform="scale(0.015625)"/>
      <path id="DejaVuSerif-Italic-76" d="M 1681 0 
L 1259 0 
L 619 2988 
L 241 2988 
L 303 3322 
L 1163 3322 
L 1725 703 
Q 2084 1016 2325 1413 
Q 2825 2238 3003 2988 
L 2622 2988 
L 2688 3322 
L 3547 3322 
Q 3206 2034 2775 1313 
Q 2400 688 1681 0 
z
" transform="scale(0.015625)"/>
      <path id="DejaVuSerif-Italic-69" d="M 1009 4353 
Q 1038 4497 1163 4603 
Q 1288 4709 1434 4709 
Q 1578 4709 1663 4603 
Q 1728 4522 1728 4422 
Q 1728 4388 1719 4353 
Q 1691 4206 1567 4103 
Q 1444 4000 1297 4000 
Q 1150 4000 1066 4103 
Q 1003 4181 1003 4281 
Q 1003 4316 1009 4353 
z
M 963 331 
L 1506 331 
L 1444 0 
L 325 0 
L 903 2988 
L 353 2988 
L 419 3322 
L 1544 3322 
L 963 331 
z
" transform="scale(0.015625)"/>
      <path id="DejaVuSerif-Italic-6e" d="M 450 0 
L 1031 2988 
L 481 2988 
L 544 3322 
L 1669 3322 
L 1556 2731 
Q 1781 3069 2068 3241 
Q 2356 3413 2694 3413 
Q 3244 3413 3444 3097 
Q 3563 2906 3563 2588 
Q 3563 2378 3509 2113 
L 3163 331 
L 3675 331 
L 3613 0 
L 2522 0 
L 2897 1931 
Q 2959 2253 2959 2469 
Q 2959 2659 2909 2769 
Q 2803 2994 2425 2994 
Q 2025 2994 1759 2701 
Q 1494 2409 1384 1850 
L 1025 0 
L 450 0 
z
" transform="scale(0.015625)"/>
      <path id="DejaVuSerif-Italic-67" d="M 3822 3322 
L 3188 72 
Q 3044 -672 2581 -1031 
Q 2078 -1422 1381 -1422 
Q 1053 -1422 765 -1362 
Q 478 -1303 225 -1184 
L 363 -488 
L 663 -488 
Q 653 -813 834 -963 
Q 1016 -1113 1406 -1113 
Q 1913 -1113 2203 -825 
Q 2494 -544 2613 72 
L 2700 519 
Q 2472 206 2181 57 
Q 1891 -91 1525 -91 
Q 975 -91 697 281 
Q 522 516 503 841 
Q 491 1031 534 1256 
Q 750 2359 1516 2928 
Q 2169 3409 2931 3413 
Q 3631 3416 3822 3322 
z
M 3184 2988 
Q 3181 3094 2844 3094 
Q 2234 3094 1775 2625 
Q 1316 2153 1147 1297 
Q 1100 1044 1113 853 
Q 1125 659 1203 528 
Q 1356 269 1756 269 
Q 2194 269 2484 583 
Q 2775 897 2891 1497 
L 2953 1825 
L 3184 2988 
z
" transform="scale(0.015625)"/>
      <path id="DejaVuSerif-Italic-66" d="M 3191 4078 
L 2888 4078 
Q 2900 4144 2900 4203 
Q 2900 4347 2825 4434 
Q 2719 4556 2472 4556 
Q 2150 4556 1984 4379 
Q 1819 4203 1731 3750 
L 1647 3322 
L 2575 3322 
L 2509 2988 
L 1581 2988 
L 963 -206 
Q 853 -763 509 -1047 
Q 166 -1331 -394 -1331 
L -356 -1025 
Q -28 -1025 131 -850 
Q 297 -663 388 -206 
L 1006 2988 
L 456 2988 
L 522 3322 
L 1072 3322 
L 1153 3738 
Q 1263 4297 1606 4578 
Q 1950 4863 2509 4863 
Q 2719 4863 2920 4825 
Q 3122 4788 3316 4709 
L 3191 4078 
z
" transform="scale(0.015625)"/>
      <path id="DejaVuSerif-Italic-54" d="M 769 0 
L 831 331 
L 1428 331 
L 2200 4294 
L 828 4294 
L 688 3566 
L 303 3566 
L 516 4666 
L 4659 4666 
L 4447 3566 
L 4063 3566 
L 4203 4294 
L 2831 4294 
L 2059 331 
L 2656 331 
L 2594 0 
L 769 0 
z
" transform="scale(0.015625)"/>
      <path id="DejaVuSerif-Italic-3d" d="M 678 2894 
L 4684 2894 
L 4684 2394 
L 678 2394 
L 678 2894 
z
M 678 1619 
L 4684 1619 
L 4684 1119 
L 678 1119 
L 678 1619 
z
" transform="scale(0.015625)"/>
      <path id="DejaVuSerif-Italic-29" d="M -113 -997 
L -53 -691 
Q 491 -359 819 242 
Q 1147 844 1359 1931 
Q 1572 3022 1478 3623 
Q 1384 4225 966 4556 
L 1025 4863 
Q 1722 4522 1965 3783 
Q 2209 3044 1994 1931 
Q 1778 822 1247 83 
Q 716 -656 -113 -997 
z
" transform="scale(0.015625)"/>
     </defs>
     <use xlink:href="#DejaVuSerif-Italic-28"/>
     <use xlink:href="#DejaVuSerif-Italic-32" transform="translate(39.013672 0)"/>
     <use xlink:href="#DejaVuSerif-Italic-30" transform="translate(102.636719 0)"/>
     <use xlink:href="#DejaVuSerif-Italic-d7" transform="translate(166.259766 0)"/>
     <use xlink:href="#DejaVuSerif-Italic-20" transform="translate(250.048828 0)"/>
     <use xlink:href="#DejaVuSerif-Italic-6d" transform="translate(281.835938 0)"/>
     <use xlink:href="#DejaVuSerif-Italic-65" transform="translate(376.660156 0)"/>
     <use xlink:href="#DejaVuSerif-Italic-6d" transform="translate(435.839844 0)"/>
     <use xlink:href="#DejaVuSerif-Italic-6f" transform="translate(530.664062 0)"/>
     <use xlink:href="#DejaVuSerif-Italic-72" transform="translate(590.869141 0)"/>
     <use xlink:href="#DejaVuSerif-Italic-79" transform="translate(638.671875 0)"/>
     <use xlink:href="#DejaVuSerif-Italic-20" transform="translate(695.166016 0)"/>
     <use xlink:href="#DejaVuSerif-Italic-73" transform="translate(726.953125 0)"/>
     <use xlink:href="#DejaVuSerif-Italic-61" transform="translate(778.271484 0)"/>
     <use xlink:href="#DejaVuSerif-Italic-76" transform="translate(837.890625 0)"/>
     <use xlink:href="#DejaVuSerif-Italic-69" transform="translate(894.384766 0)"/>
     <use xlink:href="#DejaVuSerif-Italic-6e" transform="translate(926.367188 0)"/>
     <use xlink:href="#DejaVuSerif-Italic-67" transform="translate(990.771484 0)"/>
     <use xlink:href="#DejaVuSerif-Italic-73" transform="translate(1054.785156 0)"/>
     <use xlink:href="#DejaVuSerif-Italic-20" transform="translate(1106.103516 0)"/>
     <use xlink:href="#DejaVuSerif-Italic-66" transform="translate(1137.890625 0)"/>
     <use xlink:href="#DejaVuSerif-Italic-6f" transform="translate(1174.902344 0)"/>
     <use xlink:href="#DejaVuSerif-Italic-72" transform="translate(1235.107422 0)"/>
     <use xlink:href="#DejaVuSerif-Italic-20" transform="translate(1282.910156 0)"/>
     <use xlink:href="#DejaVuSerif-Italic-54" transform="translate(1314.697266 0)"/>
     <use xlink:href="#DejaVuSerif-Italic-3d" transform="translate(1381.396484 0)"/>
     <use xlink:href="#DejaVuSerif-Italic-32" transform="translate(1465.185547 0)"/>
     <use xlink:href="#DejaVuSerif-Italic-30" transform="translate(1528.808594 0)"/>
     <use xlink:href="#DejaVuSerif-Italic-29" transform="translate(1592.431641 0)"/>
    </g>
   </g>
   <g id="text_14">
    <!-- ↺ Recompute on demand ↺ -->
    <g style="fill: #666666" transform="translate(678.414062 74.1015) scale(0.1 -0.1)">
     <defs>
      <path id="DejaVuSerif-21ba" d="M 1475 3159 
Q 1303 2988 1201 2748 
Q 1100 2509 1100 2246 
Q 1100 1984 1201 1745 
Q 1303 1506 1475 1334 
Q 1647 1163 1886 1061 
Q 2125 959 2387 959 
Q 2650 959 2889 1061 
Q 3128 1163 3300 1334 
Q 3472 1506 3573 1745 
Q 3675 1984 3675 2246 
Q 3675 2509 3573 2748 
Q 3472 2988 3300 3159 
L 2981 1988 
L 2956 2013 
L 2947 3847 
L 2969 3869 
L 4803 3859 
L 4828 3834 
L 3656 3516 
Q 3897 3275 4039 2944 
Q 4181 2613 4181 2247 
Q 4181 1881 4039 1550 
Q 3897 1219 3656 978 
Q 3416 738 3084 595 
Q 2753 453 2387 453 
Q 2022 453 1690 595 
Q 1359 738 1118 978 
Q 878 1219 736 1550 
Q 594 1881 594 2247 
Q 594 2613 736 2944 
Q 878 3275 1119 3516 
L 1475 3159 
z
" transform="scale(0.015625)"/>
      <path id="DejaVuSerif-6e" d="M 263 0 
L 263 331 
L 781 331 
L 781 2988 
L 231 2988 
L 231 3322 
L 1356 3322 
L 1356 2731 
Q 1516 3069 1770 3241 
Q 2025 3413 2363 3413 
Q 2913 3413 3172 3097 
Q 3431 2781 3431 2113 
L 3431 331 
L 3944 331 
L 3944 0 
L 2356 0 
L 2356 331 
L 2853 331 
L 2853 1931 
Q 2853 2541 2703 2767 
Q 2553 2994 2175 2994 
Q 1775 2994 1565 2701 
Q 1356 2409 1356 1850 
L 1356 331 
L 1856 331 
L 1856 0 
L 263 0 
z
" transform="scale(0.015625)"/>
     </defs>
     <use xlink:href="#DejaVuSerif-21ba"/>
     <use xlink:href="#DejaVuSerif-20" transform="translate(83.789062 0)"/>
     <use xlink:href="#DejaVuSerif-52" transform="translate(115.576172 0)"/>
     <use xlink:href="#DejaVuSerif-65" transform="translate(190.869141 0)"/>
     <use xlink:href="#DejaVuSerif-63" transform="translate(250.048828 0)"/>
     <use xlink:href="#DejaVuSerif-6f" transform="translate(306.054688 0)"/>
     <use xlink:href="#DejaVuSerif-6d" transform="translate(366.259766 0)"/>
     <use xlink:href="#DejaVuSerif-70" transform="translate(461.083984 0)"/>
     <use xlink:href="#DejaVuSerif-75" transform="translate(525.097656 0)"/>
     <use xlink:href="#DejaVuSerif-74" transform="translate(589.501953 0)"/>
     <use xlink:href="#DejaVuSerif-65" transform="translate(629.6875 0)"/>
     <use xlink:href="#DejaVuSerif-20" transform="translate(688.867188 0)"/>
     <use xlink:href="#DejaVuSerif-6f" transform="translate(720.654297 0)"/>
     <use xlink:href="#DejaVuSerif-6e" transform="translate(780.859375 0)"/>
     <use xlink:href="#DejaVuSerif-20" transform="translate(845.263672 0)"/>
     <use xlink:href="#DejaVuSerif-64" transform="translate(877.050781 0)"/>
     <use xlink:href="#DejaVuSerif-65" transform="translate(941.064453 0)"/>
     <use xlink:href="#DejaVuSerif-6d" transform="translate(1000.244141 0)"/>
     <use xlink:href="#DejaVuSerif-61" transform="translate(1095.068359 0)"/>
     <use xlink:href="#DejaVuSerif-6e" transform="translate(1154.6875 0)"/>
     <use xlink:href="#DejaVuSerif-64" transform="translate(1219.091797 0)"/>
     <use xlink:href="#DejaVuSerif-20" transform="translate(1283.105469 0)"/>
     <use xlink:href="#DejaVuSerif-21ba" transform="translate(1314.892578 0)"/>
    </g>
   </g>
   <g id="text_15">
    <!-- Triton Approach: Recomputation -->
    <g style="fill: #262626" transform="translate(637.798125 16.318125) scale(0.12 -0.12)">
     <defs>
      <path id="DejaVuSerif-Bold-52" d="M 3397 2278 
Q 3675 2238 3865 2094 
Q 4056 1950 4197 1678 
L 4878 378 
L 5356 378 
L 5356 0 
L 3822 0 
L 3078 1409 
Q 2863 1847 2711 1967 
Q 2559 2088 2291 2088 
L 2100 2088 
L 2100 378 
L 2700 378 
L 2700 0 
L 300 0 
L 300 378 
L 897 378 
L 897 4288 
L 300 4288 
L 300 4666 
L 2963 4666 
Q 3775 4666 4217 4339 
Q 4659 4013 4659 3413 
Q 4659 2925 4345 2642 
Q 4031 2359 3397 2278 
z
M 2100 2463 
L 2509 2463 
Q 2947 2463 3183 2700 
Q 3419 2938 3419 3378 
Q 3419 3819 3183 4053 
Q 2947 4288 2509 4288 
L 2100 4288 
L 2100 2463 
z
" transform="scale(0.015625)"/>
      <path id="DejaVuSerif-Bold-75" d="M 3963 3322 
L 3963 378 
L 4434 378 
L 4434 0 
L 2853 0 
L 2853 469 
Q 2656 172 2400 40 
Q 2144 -91 1753 -91 
Q 1194 -91 908 239 
Q 622 569 622 1209 
L 622 2944 
L 147 2944 
L 147 3322 
L 1728 3322 
L 1728 1381 
Q 1728 763 1831 595 
Q 1934 428 2209 428 
Q 2544 428 2698 675 
Q 2853 922 2853 1459 
L 2853 2944 
L 2450 2944 
L 2450 3322 
L 3963 3322 
z
" transform="scale(0.015625)"/>
     </defs>
     <use xlink:href="#DejaVuSerif-Bold-54"/>
     <use xlink:href="#DejaVuSerif-Bold-72" transform="translate(67.164062 0)"/>
     <use xlink:href="#DejaVuSerif-Bold-69" transform="translate(119.849609 0)"/>
     <use xlink:href="#DejaVuSerif-Bold-74" transform="translate(157.837891 0)"/>
     <use xlink:href="#DejaVuSerif-Bold-6f" transform="translate(204.029297 0)"/>
     <use xlink:href="#DejaVuSerif-Bold-6e" transform="translate(270.728516 0)"/>
     <use xlink:href="#DejaVuSerif-Bold-20" transform="translate(343.433594 0)"/>
     <use xlink:href="#DejaVuSerif-Bold-41" transform="translate(378.248047 0)"/>
     <use xlink:href="#DejaVuSerif-Bold-70" transform="translate(455.835938 0)"/>
     <use xlink:href="#DejaVuSerif-Bold-70" transform="translate(525.757812 0)"/>
     <use xlink:href="#DejaVuSerif-Bold-72" transform="translate(595.679688 0)"/>
     <use xlink:href="#DejaVuSerif-Bold-6f" transform="translate(648.365234 0)"/>
     <use xlink:href="#DejaVuSerif-Bold-61" transform="translate(715.064453 0)"/>
     <use xlink:href="#DejaVuSerif-Bold-63" transform="translate(779.859375 0)"/>
     <use xlink:href="#DejaVuSerif-Bold-68" transform="translate(840.748047 0)"/>
     <use xlink:href="#DejaVuSerif-Bold-3a" transform="translate(913.453125 0)"/>
     <use xlink:href="#DejaVuSerif-Bold-20" transform="translate(950.367188 0)"/>
     <use xlink:href="#DejaVuSerif-Bold-52" transform="translate(985.181641 0)"/>
     <use xlink:href="#DejaVuSerif-Bold-65" transform="translate(1068.287109 0)"/>
     <use xlink:href="#DejaVuSerif-Bold-63" transform="translate(1131.910156 0)"/>
     <use xlink:href="#DejaVuSerif-Bold-6f" transform="translate(1192.798828 0)"/>
     <use xlink:href="#DejaVuSerif-Bold-6d" transform="translate(1259.498047 0)"/>
     <use xlink:href="#DejaVuSerif-Bold-70" transform="translate(1365.308594 0)"/>
     <use xlink:href="#DejaVuSerif-Bold-75" transform="translate(1435.230469 0)"/>
     <use xlink:href="#DejaVuSerif-Bold-74" transform="translate(1507.935547 0)"/>
     <use xlink:href="#DejaVuSerif-Bold-61" transform="translate(1554.126953 0)"/>
     <use xlink:href="#DejaVuSerif-Bold-74" transform="translate(1618.921875 0)"/>
     <use xlink:href="#DejaVuSerif-Bold-69" transform="translate(1665.113281 0)"/>
     <use xlink:href="#DejaVuSerif-Bold-6f" transform="translate(1703.101562 0)"/>
     <use xlink:href="#DejaVuSerif-Bold-6e" transform="translate(1769.800781 0)"/>
    </g>
    <!-- O(1) Memory, O(T²) Compute -->
    <g style="fill: #262626" transform="translate(649.76625 29.7555) scale(0.12 -0.12)">
     <defs>
      <path id="DejaVuSerif-Bold-2c" d="M 84 -616 
Q 409 -353 562 -28 
Q 716 297 716 728 
L 716 997 
L 1606 997 
L 1606 972 
Q 1606 281 1317 -217 
Q 1028 -716 428 -1056 
L 84 -616 
z
" transform="scale(0.015625)"/>
      <path id="DejaVuSerif-Bold-b2" d="M 588 4013 
L 294 4013 
L 294 4622 
Q 519 4684 755 4717 
Q 991 4750 1241 4750 
Q 1806 4750 2118 4550 
Q 2431 4350 2431 3994 
Q 2431 3738 2261 3536 
Q 2091 3334 1600 3053 
L 838 2619 
L 2131 2619 
L 2131 2919 
L 2444 2919 
L 2444 2138 
L 269 2138 
L 269 2553 
L 672 2816 
Q 1256 3200 1412 3419 
Q 1569 3638 1569 3928 
Q 1569 4191 1439 4339 
Q 1309 4488 1081 4488 
Q 884 4488 748 4358 
Q 613 4228 588 4013 
z
" transform="scale(0.015625)"/>
      <path id="DejaVuSerif-Bold-43" d="M 4769 1331 
Q 4584 609 4106 259 
Q 3628 -91 2822 -91 
Q 1641 -91 955 561 
Q 269 1213 269 2328 
Q 269 3447 955 4098 
Q 1641 4750 2822 4750 
Q 3238 4750 3688 4650 
Q 4138 4550 4641 4347 
L 4641 3200 
L 4244 3200 
Q 4122 3788 3800 4080 
Q 3478 4372 2950 4372 
Q 2269 4372 1937 3870 
Q 1606 3369 1606 2328 
Q 1606 1288 1937 788 
Q 2269 288 2956 288 
Q 3422 288 3717 547 
Q 4013 806 4147 1331 
L 4769 1331 
z
" transform="scale(0.015625)"/>
     </defs>
     <use xlink:href="#DejaVuSerif-Bold-4f"/>
     <use xlink:href="#DejaVuSerif-Bold-28" transform="translate(87.109375 0)"/>
     <use xlink:href="#DejaVuSerif-Bold-31" transform="translate(134.423828 0)"/>
     <use xlink:href="#DejaVuSerif-Bold-29" transform="translate(204.003906 0)"/>
     <use xlink:href="#DejaVuSerif-Bold-20" transform="translate(251.318359 0)"/>
     <use xlink:href="#DejaVuSerif-Bold-4d" transform="translate(286.132812 0)"/>
     <use xlink:href="#DejaVuSerif-Bold-65" transform="translate(396.826172 0)"/>
     <use xlink:href="#DejaVuSerif-Bold-6d" transform="translate(460.449219 0)"/>
     <use xlink:href="#DejaVuSerif-Bold-6f" transform="translate(566.259766 0)"/>
     <use xlink:href="#DejaVuSerif-Bold-72" transform="translate(632.958984 0)"/>
     <use xlink:href="#DejaVuSerif-Bold-79" transform="translate(685.644531 0)"/>
     <use xlink:href="#DejaVuSerif-Bold-2c" transform="translate(734.125 0)"/>
     <use xlink:href="#DejaVuSerif-Bold-20" transform="translate(768.939453 0)"/>
     <use xlink:href="#DejaVuSerif-Bold-4f" transform="translate(803.753906 0)"/>
     <use xlink:href="#DejaVuSerif-Bold-28" transform="translate(890.863281 0)"/>
     <use xlink:href="#DejaVuSerif-Bold-54" transform="translate(938.177734 0)"/>
     <use xlink:href="#DejaVuSerif-Bold-b2" transform="translate(1012.591797 0)"/>
     <use xlink:href="#DejaVuSerif-Bold-29" transform="translate(1056.390625 0)"/>
     <use xlink:href="#DejaVuSerif-Bold-20" transform="translate(1103.705078 0)"/>
     <use xlink:href="#DejaVuSerif-Bold-43" transform="translate(1138.519531 0)"/>
     <use xlink:href="#DejaVuSerif-Bold-6f" transform="translate(1218.109375 0)"/>
     <use xlink:href="#DejaVuSerif-Bold-6d" transform="translate(1284.808594 0)"/>
     <use xlink:href="#DejaVuSerif-Bold-70" transform="translate(1390.619141 0)"/>
     <use xlink:href="#DejaVuSerif-Bold-75" transform="translate(1460.541016 0)"/>
     <use xlink:href="#DejaVuSerif-Bold-74" transform="translate(1533.246094 0)"/>
     <use xlink:href="#DejaVuSerif-Bold-65" transform="translate(1579.4375 0)"/>
    </g>
   </g>
  </g>
 </g>
 <defs>
  <clipPath id="pe118ea2ae3">
   <rect x="7.2" y="35.7555" width="486.18" height="306.768"/>
  </clipPath>
  <clipPath id="p2630f56ac8">
   <rect x="505.26" y="35.7555" width="486.18" height="306.768"/>
  </clipPath>
 </defs>
</svg>
