<?xml version="1.0" encoding="utf-8" standalone="no"?>
<!DOCTYPE svg PUBLIC "-//W3C//DTD SVG 1.1//EN"
  "http://www.w3.org/Graphics/SVG/1.1/DTD/svg11.dtd">
<svg xmlns:xlink="http://www.w3.org/1999/xlink" width="710.64pt" height="418.150744pt" viewBox="0 0 710.64 418.150744" xmlns="http://www.w3.org/2000/svg" version="1.1">
 <metadata>
  <rdf:RDF xmlns:dc="http://purl.org/dc/elements/1.1/" xmlns:cc="http://creativecommons.org/ns#" xmlns:rdf="http://www.w3.org/1999/02/22-rdf-syntax-ns#">
   <cc:Work>
    <dc:type rdf:resource="http://purl.org/dc/dcmitype/StillImage"/>
    <dc:date>2026-01-20T17:49:53.405656</dc:date>
    <dc:format>image/svg+xml</dc:format>
    <dc:creator>
     <cc:Agent>
      <dc:title>Matplotlib v3.10.8, https://matplotlib.org/</dc:title>
     </cc:Agent>
    </dc:creator>
   </cc:Work>
  </rdf:RDF>
 </metadata>
 <defs>
  <style type="text/css">*{stroke-linejoin: round; stroke-linecap: butt}</style>
 </defs>
 <g id="figure_1">
  <g id="patch_1">
   <path d="M 0 418.150744 
L 710.64 418.150744 
L 710.64 0 
L 0 0 
z
" style="fill: #ffffff"/>
  </g>
  <g id="axes_1">
   <g id="patch_2">
    <path d="M 146.448 134.12064 
L 236.9592 134.12064 
Q 238.35168 134.12064 238.35168 132.864 
L 238.35168 82.5984 
Q 238.35168 81.34176 236.9592 81.34176 
L 146.448 81.34176 
Q 145.05552 81.34176 145.05552 82.5984 
L 145.05552 132.864 
Q 145.05552 134.12064 146.448 134.12064 
z
" clip-path="url(#p4d35d3bd76)" style="fill: #ffcdd2; stroke: #424242; stroke-width: 1.5; stroke-linejoin: miter"/>
   </g>
   <g id="patch_3">
    <path d="M 250.884 134.12064 
L 341.3952 134.12064 
Q 342.78768 134.12064 342.78768 132.864 
L 342.78768 82.5984 
Q 342.78768 81.34176 341.3952 81.34176 
L 250.884 81.34176 
Q 249.49152 81.34176 249.49152 82.5984 
L 249.49152 132.864 
Q 249.49152 134.12064 250.884 134.12064 
z
" clip-path="url(#p4d35d3bd76)" style="fill: #f8bbd9; stroke: #424242; stroke-width: 1.5; stroke-linejoin: miter"/>
   </g>
   <g id="patch_4">
    <path d="M 355.32 134.12064 
L 445.8312 134.12064 
Q 447.22368 134.12064 447.22368 132.864 
L 447.22368 82.5984 
Q 447.22368 81.34176 445.8312 81.34176 
L 355.32 81.34176 
Q 353.92752 81.34176 353.92752 82.5984 
L 353.92752 132.864 
Q 353.92752 134.12064 355.32 134.12064 
z
" clip-path="url(#p4d35d3bd76)" style="fill: #e1bee7; stroke: #424242; stroke-width: 1.5; stroke-linejoin: miter"/>
   </g>
   <g id="patch_5">
    <path d="M 459.756 134.12064 
L 550.2672 134.12064 
Q 551.65968 134.12064 551.65968 132.864 
L 551.65968 82.5984 
Q 551.65968 81.34176 550.2672 81.34176 
L 459.756 81.34176 
Q 458.36352 81.34176 458.36352 82.5984 
L 458.36352 132.864 
Q 458.36352 134.12064 459.756 134.12064 
z
" clip-path="url(#p4d35d3bd76)" style="fill: #d1c4e9; stroke: #424242; stroke-width: 1.5; stroke-linejoin: miter"/>
   </g>
   <g id="patch_6">
    <path d="M 146.448 196.95264 
L 236.9592 196.95264 
Q 238.35168 196.95264 238.35168 195.696 
L 238.35168 145.4304 
Q 238.35168 144.17376 236.9592 144.17376 
L 146.448 144.17376 
Q 145.05552 144.17376 145.05552 145.4304 
L 145.05552 195.696 
Q 145.05552 196.95264 146.448 196.95264 
z
" clip-path="url(#p4d35d3bd76)" style="fill: #c5cae9; stroke: #424242; stroke-width: 1.5; stroke-linejoin: miter"/>
   </g>
   <g id="patch_7">
    <path d="M 250.884 196.95264 
L 341.3952 196.95264 
Q 342.78768 196.95264 342.78768 195.696 
L 342.78768 145.4304 
Q 342.78768 144.17376 341.3952 144.17376 
L 250.884 144.17376 
Q 249.49152 144.17376 249.49152 145.4304 
L 249.49152 195.696 
Q 249.49152 196.95264 250.884 196.95264 
z
" clip-path="url(#p4d35d3bd76)" style="fill: #bbdefb; stroke: #424242; stroke-width: 1.5; stroke-linejoin: miter"/>
   </g>
   <g id="patch_8">
    <path d="M 355.32 196.95264 
L 445.8312 196.95264 
Q 447.22368 196.95264 447.22368 195.696 
L 447.22368 145.4304 
Q 447.22368 144.17376 445.8312 144.17376 
L 355.32 144.17376 
Q 353.92752 144.17376 353.92752 145.4304 
L 353.92752 195.696 
Q 353.92752 196.95264 355.32 196.95264 
z
" clip-path="url(#p4d35d3bd76)" style="fill: #b3e5fc; stroke: #424242; stroke-width: 1.5; stroke-linejoin: miter"/>
   </g>
   <g id="patch_9">
    <path d="M 459.756 196.95264 
L 550.2672 196.95264 
Q 551.65968 196.95264 551.65968 195.696 
L 551.65968 145.4304 
Q 551.65968 144.17376 550.2672 144.17376 
L 459.756 144.17376 
Q 458.36352 144.17376 458.36352 145.4304 
L 458.36352 195.696 
Q 458.36352 196.95264 459.756 196.95264 
z
" clip-path="url(#p4d35d3bd76)" style="fill: #b2ebf2; stroke: #424242; stroke-width: 1.5; stroke-linejoin: miter"/>
   </g>
   <g id="patch_10">
    <path d="M 146.448 259.78464 
L 236.9592 259.78464 
Q 238.35168 259.78464 238.35168 258.528 
L 238.35168 208.2624 
Q 238.35168 207.00576 236.9592 207.00576 
L 146.448 207.00576 
Q 145.05552 207.00576 145.05552 208.2624 
L 145.05552 258.528 
Q 145.05552 259.78464 146.448 259.78464 
z
" clip-path="url(#p4d35d3bd76)" style="fill: #b2dfdb; stroke: #424242; stroke-width: 1.5; stroke-linejoin: miter"/>
   </g>
   <g id="patch_11">
    <path d="M 250.884 259.78464 
L 341.3952 259.78464 
Q 342.78768 259.78464 342.78768 258.528 
L 342.78768 208.2624 
Q 342.78768 207.00576 341.3952 207.00576 
L 250.884 207.00576 
Q 249.49152 207.00576 249.49152 208.2624 
L 249.49152 258.528 
Q 249.49152 259.78464 250.884 259.78464 
z
" clip-path="url(#p4d35d3bd76)" style="fill: #c8e6c9; stroke: #424242; stroke-width: 1.5; stroke-linejoin: miter"/>
   </g>
   <g id="patch_12">
    <path d="M 355.32 259.78464 
L 445.8312 259.78464 
Q 447.22368 259.78464 447.22368 258.528 
L 447.22368 208.2624 
Q 447.22368 207.00576 445.8312 207.00576 
L 355.32 207.00576 
Q 353.92752 207.00576 353.92752 208.2624 
L 353.92752 258.528 
Q 353.92752 259.78464 355.32 259.78464 
z
" clip-path="url(#p4d35d3bd76)" style="fill: #dcedc8; stroke: #424242; stroke-width: 1.5; stroke-linejoin: miter"/>
   </g>
   <g id="patch_13">
    <path d="M 459.756 259.78464 
L 550.2672 259.78464 
Q 551.65968 259.78464 551.65968 258.528 
L 551.65968 208.2624 
Q 551.65968 207.00576 550.2672 207.00576 
L 459.756 207.00576 
Q 458.36352 207.00576 458.36352 208.2624 
L 458.36352 258.528 
Q 458.36352 259.78464 459.756 259.78464 
z
" clip-path="url(#p4d35d3bd76)" style="fill: #f0f4c3; stroke: #424242; stroke-width: 1.5; stroke-linejoin: miter"/>
   </g>
   <g id="patch_14">
    <path d="M 146.448 322.61664 
L 236.9592 322.61664 
Q 238.35168 322.61664 238.35168 321.36 
L 238.35168 271.0944 
Q 238.35168 269.83776 236.9592 269.83776 
L 146.448 269.83776 
Q 145.05552 269.83776 145.05552 271.0944 
L 145.05552 321.36 
Q 145.05552 322.61664 146.448 322.61664 
z
" clip-path="url(#p4d35d3bd76)" style="fill: #fff9c4; stroke: #424242; stroke-width: 1.5; stroke-linejoin: miter"/>
   </g>
   <g id="patch_15">
    <path d="M 250.884 322.61664 
L 341.3952 322.61664 
Q 342.78768 322.61664 342.78768 321.36 
L 342.78768 271.0944 
Q 342.78768 269.83776 341.3952 269.83776 
L 250.884 269.83776 
Q 249.49152 269.83776 249.49152 271.0944 
L 249.49152 321.36 
Q 249.49152 322.61664 250.884 322.61664 
z
" clip-path="url(#p4d35d3bd76)" style="fill: #ffecb3; stroke: #424242; stroke-width: 1.5; stroke-linejoin: miter"/>
   </g>
   <g id="patch_16">
    <path d="M 355.32 322.61664 
L 445.8312 322.61664 
Q 447.22368 322.61664 447.22368 321.36 
L 447.22368 271.0944 
Q 447.22368 269.83776 445.8312 269.83776 
L 355.32 269.83776 
Q 353.92752 269.83776 353.92752 271.0944 
L 353.92752 321.36 
Q 353.92752 322.61664 355.32 322.61664 
z
" clip-path="url(#p4d35d3bd76)" style="fill: #ffe0b2; stroke: #424242; stroke-width: 1.5; stroke-linejoin: miter"/>
   </g>
   <g id="patch_17">
    <path d="M 459.756 322.61664 
L 550.2672 322.61664 
Q 551.65968 322.61664 551.65968 321.36 
L 551.65968 271.0944 
Q 551.65968 269.83776 550.2672 269.83776 
L 459.756 269.83776 
Q 458.36352 269.83776 458.36352 271.0944 
L 458.36352 321.36 
Q 458.36352 322.61664 459.756 322.61664 
z
" clip-path="url(#p4d35d3bd76)" style="fill: #ffccbc; stroke: #424242; stroke-width: 1.5; stroke-linejoin: miter"/>
   </g>
   <g id="text_1">
    <!-- 4×4 Matrix Stored in 16 Scalar Registers -->
    <g style="fill: #262626" transform="translate(193.753438 26.0496) scale(0.14 -0.14)">
     <defs>
      <path id="DejaVuSerif-Bold-34" d="M 4084 0 
L 1516 0 
L 1516 378 
L 2209 378 
L 2209 1228 
L 263 1228 
L 263 1588 
L 2216 4750 
L 3391 4750 
L 3391 1631 
L 4191 1631 
L 4191 1228 
L 3391 1228 
L 3391 378 
L 4084 378 
L 4084 0 
z
M 2209 1631 
L 2209 3897 
L 819 1631 
L 2209 1631 
z
" transform="scale(0.015625)"/>
      <path id="DejaVuSerif-Bold-d7" d="M 4538 3378 
L 3163 2003 
L 4538 628 
L 4056 147 
L 2681 1522 
L 1306 147 
L 825 628 
L 2203 2003 
L 825 3378 
L 1306 3866 
L 2681 2491 
L 4056 3866 
L 4538 3378 
z
" transform="scale(0.015625)"/>
      <path id="DejaVuSerif-Bold-20" transform="scale(0.015625)"/>
      <path id="DejaVuSerif-Bold-4d" d="M 269 0 
L 269 378 
L 863 378 
L 863 4288 
L 269 4288 
L 269 4666 
L 2194 4666 
L 3525 1672 
L 4863 4666 
L 6784 4666 
L 6784 4288 
L 6188 4288 
L 6188 378 
L 6784 378 
L 6784 0 
L 4384 0 
L 4384 378 
L 4978 378 
L 4978 3938 
L 3531 684 
L 2741 684 
L 1300 3938 
L 1300 378 
L 1894 378 
L 1894 0 
L 269 0 
z
" transform="scale(0.015625)"/>
      <path id="DejaVuSerif-Bold-61" d="M 3525 2041 
L 3525 378 
L 4000 378 
L 4000 0 
L 2419 0 
L 2419 422 
Q 2200 159 1931 34 
Q 1663 -91 1319 -91 
Q 809 -91 536 182 
Q 263 456 263 966 
Q 263 1525 655 1803 
Q 1047 2081 1838 2081 
L 2419 2081 
L 2419 2278 
Q 2419 2681 2228 2873 
Q 2038 3066 1638 3066 
Q 1306 3066 1126 2930 
Q 947 2794 872 2484 
L 519 2484 
L 519 3200 
Q 816 3306 1134 3359 
Q 1453 3413 1806 3413 
Q 2697 3413 3111 3081 
Q 3525 2750 3525 2041 
z
M 2419 1044 
L 2419 1709 
L 2003 1709 
Q 1694 1709 1528 1540 
Q 1363 1372 1363 1056 
Q 1363 741 1483 584 
Q 1603 428 1850 428 
Q 2106 428 2262 597 
Q 2419 766 2419 1044 
z
" transform="scale(0.015625)"/>
      <path id="DejaVuSerif-Bold-74" d="M 634 2944 
L 153 2944 
L 153 3322 
L 634 3322 
L 634 4353 
L 1741 4353 
L 1741 3322 
L 2663 3322 
L 2663 2944 
L 1741 2944 
L 1741 909 
Q 1741 475 1809 369 
Q 1878 263 2059 263 
Q 2259 263 2356 397 
Q 2453 531 2459 813 
L 2925 813 
Q 2897 313 2651 111 
Q 2406 -91 1806 -91 
Q 1122 -91 878 123 
Q 634 338 634 909 
L 634 2944 
z
" transform="scale(0.015625)"/>
      <path id="DejaVuSerif-Bold-72" d="M 3438 3359 
L 3438 2369 
L 3084 2369 
Q 3066 2634 2941 2764 
Q 2816 2894 2578 2894 
Q 2216 2894 2006 2575 
Q 1797 2256 1797 1691 
L 1797 378 
L 2400 378 
L 2400 0 
L 219 0 
L 219 378 
L 691 378 
L 691 2944 
L 184 2944 
L 184 3322 
L 1797 3322 
L 1797 2731 
Q 1959 3078 2226 3245 
Q 2494 3413 2881 3413 
Q 2978 3413 3117 3398 
Q 3256 3384 3438 3359 
z
" transform="scale(0.015625)"/>
      <path id="DejaVuSerif-Bold-69" d="M 588 4263 
Q 588 4516 763 4689 
Q 938 4863 1191 4863 
Q 1438 4863 1611 4689 
Q 1784 4516 1784 4263 
Q 1784 4016 1611 3842 
Q 1438 3669 1191 3669 
Q 938 3669 763 3841 
Q 588 4013 588 4263 
z
M 1797 378 
L 2272 378 
L 2272 0 
L 219 0 
L 219 378 
L 691 378 
L 691 2944 
L 219 2944 
L 219 3322 
L 1797 3322 
L 1797 378 
z
" transform="scale(0.015625)"/>
      <path id="DejaVuSerif-Bold-78" d="M 2247 2119 
L 2834 2944 
L 2425 2944 
L 2425 3322 
L 3719 3322 
L 3719 2944 
L 3278 2944 
L 2431 1759 
L 3419 378 
L 3859 378 
L 3859 0 
L 1747 0 
L 1747 378 
L 2175 378 
L 1550 1253 
L 922 378 
L 1369 378 
L 1369 0 
L 0 0 
L 0 378 
L 475 378 
L 1356 1619 
L 403 2944 
L 31 2944 
L 31 3322 
L 2059 3322 
L 2059 2944 
L 1656 2944 
L 2247 2119 
z
" transform="scale(0.015625)"/>
      <path id="DejaVuSerif-Bold-53" d="M 494 225 
L 494 1331 
L 891 1331 
Q 981 806 1318 547 
Q 1656 288 2253 288 
Q 2738 288 2991 472 
Q 3244 656 3244 1013 
Q 3244 1294 3072 1450 
Q 2900 1606 2363 1741 
L 1663 1913 
Q 978 2088 700 2398 
Q 422 2709 422 3284 
Q 422 3978 883 4364 
Q 1344 4750 2175 4750 
Q 2584 4750 3026 4681 
Q 3469 4613 3944 4475 
L 3944 3444 
L 3547 3444 
Q 3456 3925 3150 4148 
Q 2844 4372 2278 4372 
Q 1816 4372 1580 4211 
Q 1344 4050 1344 3731 
Q 1344 3441 1506 3289 
Q 1669 3138 2303 2975 
L 3003 2803 
Q 3653 2641 3945 2297 
Q 4238 1953 4238 1350 
Q 4238 644 3750 276 
Q 3263 -91 2316 -91 
Q 1859 -91 1409 -12 
Q 959 66 494 225 
z
" transform="scale(0.015625)"/>
      <path id="DejaVuSerif-Bold-6f" d="M 2138 263 
Q 2488 263 2630 563 
Q 2772 863 2772 1663 
Q 2772 2463 2631 2761 
Q 2491 3059 2138 3059 
Q 1784 3059 1640 2757 
Q 1497 2456 1497 1663 
Q 1497 869 1640 566 
Q 1784 263 2138 263 
z
M 2138 -91 
Q 1259 -91 761 376 
Q 263 844 263 1663 
Q 263 2484 761 2948 
Q 1259 3413 2138 3413 
Q 3019 3413 3516 2948 
Q 4013 2484 4013 1663 
Q 4013 844 3514 376 
Q 3016 -91 2138 -91 
z
" transform="scale(0.015625)"/>
      <path id="DejaVuSerif-Bold-65" d="M 2566 1875 
Q 2566 2531 2444 2795 
Q 2322 3059 2028 3059 
Q 1744 3059 1620 2800 
Q 1497 2541 1497 1931 
L 1497 1875 
L 2566 1875 
z
M 3781 1503 
L 1497 1503 
L 1497 1478 
Q 1497 834 1690 548 
Q 1884 263 2316 263 
Q 2675 263 2897 453 
Q 3119 644 3181 1006 
L 3700 1006 
Q 3566 441 3166 175 
Q 2766 -91 2047 -91 
Q 1184 -91 723 364 
Q 263 819 263 1663 
Q 263 2488 734 2950 
Q 1206 3413 2047 3413 
Q 2872 3413 3312 2927 
Q 3753 2441 3781 1503 
z
" transform="scale(0.015625)"/>
      <path id="DejaVuSerif-Bold-64" d="M 2747 1497 
L 2747 1825 
Q 2747 2406 2597 2665 
Q 2447 2925 2119 2925 
Q 1775 2925 1636 2651 
Q 1497 2378 1497 1663 
Q 1497 947 1637 672 
Q 1778 397 2119 397 
Q 2447 397 2597 656 
Q 2747 916 2747 1497 
z
M 3853 378 
L 4325 378 
L 4325 0 
L 2747 0 
L 2747 422 
Q 2606 163 2367 36 
Q 2128 -91 1778 -91 
Q 1072 -91 667 378 
Q 263 847 263 1663 
Q 263 2481 667 2947 
Q 1072 3413 1778 3413 
Q 2128 3413 2367 3286 
Q 2606 3159 2747 2900 
L 2747 4488 
L 2272 4488 
L 2272 4863 
L 3853 4863 
L 3853 378 
z
" transform="scale(0.015625)"/>
      <path id="DejaVuSerif-Bold-6e" d="M 219 0 
L 219 378 
L 691 378 
L 691 2944 
L 219 2944 
L 219 3322 
L 1797 3322 
L 1797 2853 
Q 1997 3150 2253 3281 
Q 2509 3413 2900 3413 
Q 3459 3413 3745 3083 
Q 4031 2753 4031 2113 
L 4031 378 
L 4506 378 
L 4506 0 
L 2522 0 
L 2522 378 
L 2925 378 
L 2925 2144 
Q 2925 2566 2817 2730 
Q 2709 2894 2444 2894 
Q 2109 2894 1953 2648 
Q 1797 2403 1797 1869 
L 1797 378 
L 2203 378 
L 2203 0 
L 219 0 
z
" transform="scale(0.015625)"/>
      <path id="DejaVuSerif-Bold-31" d="M 878 0 
L 878 378 
L 1753 378 
L 1753 4153 
L 781 3578 
L 781 4044 
L 1953 4750 
L 2938 4750 
L 2938 378 
L 3816 378 
L 3816 0 
L 878 0 
z
" transform="scale(0.015625)"/>
      <path id="DejaVuSerif-Bold-36" d="M 1575 2766 
Q 1778 2928 2029 3009 
Q 2281 3091 2578 3091 
Q 3294 3091 3701 2672 
Q 4109 2253 4109 1522 
Q 4109 750 3650 329 
Q 3191 -91 2344 -91 
Q 1388 -91 895 486 
Q 403 1063 403 2181 
Q 403 3453 950 4101 
Q 1497 4750 2572 4750 
Q 2853 4750 3175 4703 
Q 3497 4656 3866 4563 
L 3866 3738 
L 3488 3738 
Q 3409 4056 3192 4220 
Q 2975 4384 2631 4384 
Q 2075 4384 1826 4003 
Q 1578 3622 1575 2766 
z
M 2272 275 
Q 2594 275 2731 548 
Q 2869 822 2869 1497 
Q 2869 2172 2731 2445 
Q 2594 2719 2272 2719 
Q 1950 2719 1814 2445 
Q 1678 2172 1678 1497 
Q 1678 822 1814 548 
Q 1950 275 2272 275 
z
" transform="scale(0.015625)"/>
      <path id="DejaVuSerif-Bold-63" d="M 3609 1038 
Q 3491 469 3123 189 
Q 2756 -91 2125 -91 
Q 1238 -91 750 368 
Q 263 828 263 1663 
Q 263 2488 744 2950 
Q 1225 3413 2081 3413 
Q 2428 3413 2781 3347 
Q 3134 3281 3500 3150 
L 3500 2228 
L 3150 2228 
Q 3100 2650 2903 2854 
Q 2706 3059 2350 3059 
Q 1888 3059 1692 2746 
Q 1497 2434 1497 1663 
Q 1497 909 1687 586 
Q 1878 263 2309 263 
Q 2644 263 2845 463 
Q 3047 663 3091 1038 
L 3609 1038 
z
" transform="scale(0.015625)"/>
      <path id="DejaVuSerif-Bold-6c" d="M 1797 378 
L 2272 378 
L 2272 0 
L 219 0 
L 219 378 
L 691 378 
L 691 4488 
L 219 4488 
L 219 4863 
L 1797 4863 
L 1797 378 
z
" transform="scale(0.015625)"/>
      <path id="DejaVuSerif-Bold-52" d="M 3397 2278 
Q 3675 2238 3865 2094 
Q 4056 1950 4197 1678 
L 4878 378 
L 5356 378 
L 5356 0 
L 3822 0 
L 3078 1409 
Q 2863 1847 2711 1967 
Q 2559 2088 2291 2088 
L 2100 2088 
L 2100 378 
L 2700 378 
L 2700 0 
L 300 0 
L 300 378 
L 897 378 
L 897 4288 
L 300 4288 
L 300 4666 
L 2963 4666 
Q 3775 4666 4217 4339 
Q 4659 4013 4659 3413 
Q 4659 2925 4345 2642 
Q 4031 2359 3397 2278 
z
M 2100 2463 
L 2509 2463 
Q 2947 2463 3183 2700 
Q 3419 2938 3419 3378 
Q 3419 3819 3183 4053 
Q 2947 4288 2509 4288 
L 2100 4288 
L 2100 2463 
z
" transform="scale(0.015625)"/>
      <path id="DejaVuSerif-Bold-67" d="M 3853 2944 
L 3853 44 
Q 3853 -656 3354 -1039 
Q 2856 -1422 1947 -1422 
Q 1616 -1422 1275 -1370 
Q 934 -1319 575 -1216 
L 575 -422 
L 928 -422 
Q 975 -750 1192 -909 
Q 1409 -1069 1813 -1069 
Q 2325 -1069 2536 -823 
Q 2747 -578 2747 44 
L 2747 422 
Q 2606 163 2367 36 
Q 2128 -91 1778 -91 
Q 1072 -91 667 378 
Q 263 847 263 1663 
Q 263 2481 667 2947 
Q 1072 3413 1778 3413 
Q 2128 3413 2367 3286 
Q 2606 3159 2747 2900 
L 2747 3322 
L 4325 3322 
L 4325 2944 
L 3853 2944 
z
M 2747 1825 
Q 2747 2406 2597 2665 
Q 2447 2925 2119 2925 
Q 1775 2925 1636 2651 
Q 1497 2378 1497 1663 
Q 1497 947 1637 672 
Q 1778 397 2119 397 
Q 2447 397 2597 656 
Q 2747 916 2747 1497 
L 2747 1825 
z
" transform="scale(0.015625)"/>
      <path id="DejaVuSerif-Bold-73" d="M 300 97 
L 300 1025 
L 653 1025 
Q 697 653 931 458 
Q 1166 263 1569 263 
Q 1906 263 2086 380 
Q 2266 497 2266 716 
Q 2266 916 2152 1025 
Q 2038 1134 1709 1216 
L 1253 1331 
Q 738 1459 506 1698 
Q 275 1938 275 2344 
Q 275 2884 650 3148 
Q 1025 3413 1806 3413 
Q 2100 3413 2433 3364 
Q 2766 3316 3169 3213 
L 3169 2375 
L 2816 2375 
Q 2788 2716 2573 2887 
Q 2359 3059 1959 3059 
Q 1622 3059 1448 2951 
Q 1275 2844 1275 2638 
Q 1275 2469 1375 2372 
Q 1475 2275 1734 2209 
L 2188 2094 
Q 2841 1928 3091 1684 
Q 3341 1441 3341 1006 
Q 3341 444 2939 176 
Q 2538 -91 1691 -91 
Q 1381 -91 1034 -44 
Q 688 3 300 97 
z
" transform="scale(0.015625)"/>
     </defs>
     <use xlink:href="#DejaVuSerif-Bold-34"/>
     <use xlink:href="#DejaVuSerif-Bold-d7" transform="translate(69.580078 0)"/>
     <use xlink:href="#DejaVuSerif-Bold-34" transform="translate(153.369141 0)"/>
     <use xlink:href="#DejaVuSerif-Bold-20" transform="translate(222.949219 0)"/>
     <use xlink:href="#DejaVuSerif-Bold-4d" transform="translate(257.763672 0)"/>
     <use xlink:href="#DejaVuSerif-Bold-61" transform="translate(368.457031 0)"/>
     <use xlink:href="#DejaVuSerif-Bold-74" transform="translate(433.251953 0)"/>
     <use xlink:href="#DejaVuSerif-Bold-72" transform="translate(479.443359 0)"/>
     <use xlink:href="#DejaVuSerif-Bold-69" transform="translate(532.128906 0)"/>
     <use xlink:href="#DejaVuSerif-Bold-78" transform="translate(570.117188 0)"/>
     <use xlink:href="#DejaVuSerif-Bold-20" transform="translate(629.736328 0)"/>
     <use xlink:href="#DejaVuSerif-Bold-53" transform="translate(664.550781 0)"/>
     <use xlink:href="#DejaVuSerif-Bold-74" transform="translate(736.767578 0)"/>
     <use xlink:href="#DejaVuSerif-Bold-6f" transform="translate(782.958984 0)"/>
     <use xlink:href="#DejaVuSerif-Bold-72" transform="translate(849.658203 0)"/>
     <use xlink:href="#DejaVuSerif-Bold-65" transform="translate(902.34375 0)"/>
     <use xlink:href="#DejaVuSerif-Bold-64" transform="translate(965.966797 0)"/>
     <use xlink:href="#DejaVuSerif-Bold-20" transform="translate(1035.888672 0)"/>
     <use xlink:href="#DejaVuSerif-Bold-69" transform="translate(1070.703125 0)"/>
     <use xlink:href="#DejaVuSerif-Bold-6e" transform="translate(1108.691406 0)"/>
     <use xlink:href="#DejaVuSerif-Bold-20" transform="translate(1181.396484 0)"/>
     <use xlink:href="#DejaVuSerif-Bold-31" transform="translate(1216.210938 0)"/>
     <use xlink:href="#DejaVuSerif-Bold-36" transform="translate(1285.791016 0)"/>
     <use xlink:href="#DejaVuSerif-Bold-20" transform="translate(1355.371094 0)"/>
     <use xlink:href="#DejaVuSerif-Bold-53" transform="translate(1390.185547 0)"/>
     <use xlink:href="#DejaVuSerif-Bold-63" transform="translate(1462.402344 0)"/>
     <use xlink:href="#DejaVuSerif-Bold-61" transform="translate(1523.291016 0)"/>
     <use xlink:href="#DejaVuSerif-Bold-6c" transform="translate(1588.085938 0)"/>
     <use xlink:href="#DejaVuSerif-Bold-61" transform="translate(1626.074219 0)"/>
     <use xlink:href="#DejaVuSerif-Bold-72" transform="translate(1690.869141 0)"/>
     <use xlink:href="#DejaVuSerif-Bold-20" transform="translate(1743.554688 0)"/>
     <use xlink:href="#DejaVuSerif-Bold-52" transform="translate(1778.369141 0)"/>
     <use xlink:href="#DejaVuSerif-Bold-65" transform="translate(1861.474609 0)"/>
     <use xlink:href="#DejaVuSerif-Bold-67" transform="translate(1925.097656 0)"/>
     <use xlink:href="#DejaVuSerif-Bold-69" transform="translate(1995.019531 0)"/>
     <use xlink:href="#DejaVuSerif-Bold-73" transform="translate(2033.007812 0)"/>
     <use xlink:href="#DejaVuSerif-Bold-74" transform="translate(2089.306641 0)"/>
     <use xlink:href="#DejaVuSerif-Bold-65" transform="translate(2135.498047 0)"/>
     <use xlink:href="#DejaVuSerif-Bold-72" transform="translate(2199.121094 0)"/>
     <use xlink:href="#DejaVuSerif-Bold-73" transform="translate(2251.806641 0)"/>
    </g>
   </g>
   <g id="text_2">
    <!-- (No shared memory needed — maximum performance) -->
    <g style="fill: #666666" transform="translate(201.701563 57.4656) scale(0.11 -0.11)">
     <defs>
      <path id="DejaVuSerif-Italic-28" d="M 1472 -997 
Q 778 -656 534 83 
Q 291 822 506 1931 
Q 722 3044 1253 3783 
Q 1784 4522 2609 4863 
L 2550 4556 
Q 2006 4225 1679 3623 
Q 1353 3022 1141 1931 
Q 928 844 1020 242 
Q 1113 -359 1531 -691 
L 1472 -997 
z
" transform="scale(0.015625)"/>
      <path id="DejaVuSerif-Italic-4e" d="M -128 0 
L -66 331 
L 563 331 
L 1341 4331 
L 713 4331 
L 778 4666 
L 1975 4666 
L 4056 984 
L 4706 4331 
L 4081 4331 
L 4147 4666 
L 5784 4666 
L 5719 4331 
L 5091 4331 
L 4231 -91 
L 3853 -91 
L 1631 3841 
L 947 331 
L 1575 331 
L 1513 0 
L -128 0 
z
" transform="scale(0.015625)"/>
      <path id="DejaVuSerif-Italic-6f" d="M 1644 219 
Q 2106 219 2414 584 
Q 2722 950 2859 1663 
Q 2922 1988 2922 2241 
Q 2922 2541 2834 2738 
Q 2669 3103 2206 3103 
Q 1744 3103 1436 2739 
Q 1128 2375 991 1663 
Q 928 1338 928 1088 
Q 928 784 1019 584 
Q 1184 219 1644 219 
z
M 1584 -91 
Q 859 -91 513 388 
Q 272 722 272 1203 
Q 272 1419 319 1663 
Q 472 2456 1005 2934 
Q 1538 3413 2266 3413 
Q 2994 3413 3341 2934 
Q 3578 2603 3578 2122 
Q 3578 1906 3531 1663 
Q 3378 869 2845 389 
Q 2313 -91 1584 -91 
z
" transform="scale(0.015625)"/>
      <path id="DejaVuSerif-Italic-20" transform="scale(0.015625)"/>
      <path id="DejaVuSerif-Italic-73" d="M 222 959 
L 553 959 
Q 541 869 541 788 
Q 541 219 1313 219 
Q 2088 219 2200 788 
Q 2209 844 2209 944 
Q 2209 1041 2103 1158 
Q 1997 1275 1550 1428 
L 1159 1569 
Q 759 1706 629 1882 
Q 500 2059 500 2263 
Q 500 2344 516 2438 
Q 606 2894 990 3153 
Q 1375 3413 1931 3413 
Q 2484 3413 3066 3144 
L 2925 2419 
L 2594 2419 
Q 2606 2491 2606 2553 
Q 2606 2781 2448 2942 
Q 2291 3103 1925 3103 
Q 1191 3103 1091 2591 
Q 1078 2538 1078 2444 
Q 1078 2347 1179 2237 
Q 1281 2128 1678 1997 
L 2106 1856 
Q 2550 1709 2716 1488 
Q 2831 1331 2831 1178 
Q 2831 522 2306 181 
Q 1894 -91 1262 -91 
Q 631 -91 72 184 
L 222 959 
z
" transform="scale(0.015625)"/>
      <path id="DejaVuSerif-Italic-68" d="M 309 0 
L 1191 4531 
L 641 4531 
L 703 4863 
L 1828 4863 
L 1416 2731 
Q 1641 3069 1928 3241 
Q 2216 3413 2553 3413 
Q 3103 3413 3300 3097 
Q 3422 2906 3422 2588 
Q 3422 2378 3369 2113 
L 3022 331 
L 3534 331 
L 3472 0 
L 2381 0 
L 2756 1931 
Q 2819 2253 2819 2469 
Q 2819 2659 2769 2763 
Q 2666 2988 2284 2988 
Q 1884 2988 1617 2697 
Q 1350 2406 1244 1850 
L 884 0 
L 309 0 
z
" transform="scale(0.015625)"/>
      <path id="DejaVuSerif-Italic-61" d="M 2325 519 
Q 1909 -91 1238 -91 
Q 688 -91 409 281 
Q 216 544 216 919 
Q 216 1078 250 1256 
Q 463 2359 1231 2928 
Q 1884 3413 2675 3413 
Q 3206 3413 3388 3322 
L 2806 331 
L 3300 331 
L 3238 0 
L 2225 0 
L 2325 519 
z
M 822 938 
Q 822 269 1469 269 
Q 1863 269 2130 583 
Q 2397 897 2516 1497 
L 2806 3003 
L 2806 3003 
Q 2806 3094 2556 3094 
Q 1956 3094 1491 2625 
Q 1028 2153 863 1297 
Q 822 1097 822 938 
z
" transform="scale(0.015625)"/>
      <path id="DejaVuSerif-Italic-72" d="M 3375 3328 
L 3213 2497 
L 2881 2497 
Q 2891 2559 2891 2613 
Q 2891 2775 2816 2866 
Q 2719 2988 2484 2988 
Q 2059 2988 1775 2694 
Q 1491 2400 1384 1850 
L 1025 0 
L 450 0 
L 1031 2994 
L 481 2994 
L 544 3322 
L 1669 3322 
L 1556 2731 
Q 1791 3078 2089 3245 
Q 2388 3413 2769 3413 
Q 2909 3413 3059 3391 
Q 3209 3369 3375 3328 
z
" transform="scale(0.015625)"/>
      <path id="DejaVuSerif-Italic-65" d="M 938 1275 
Q 925 1156 925 1050 
Q 925 756 1031 563 
Q 1216 219 1709 219 
Q 2072 219 2250 328 
Q 2569 525 2644 778 
L 3066 778 
Q 2941 381 2475 103 
Q 2150 -91 1506 -91 
Q 863 -91 516 388 
Q 272 722 272 1206 
Q 272 1419 319 1659 
Q 472 2450 1000 2931 
Q 1528 3413 2278 3413 
Q 3500 3413 3500 2547 
Q 3500 1913 2859 1603 
Q 2206 1288 938 1275 
z
M 2541 1975 
Q 2891 2181 2891 2569 
Q 2891 3103 2181 3103 
Q 1763 3103 1472 2784 
Q 1181 2466 1003 1606 
Q 2006 1653 2541 1975 
z
" transform="scale(0.015625)"/>
      <path id="DejaVuSerif-Italic-64" d="M 3841 4863 
L 2897 0 
L 2322 0 
L 2422 519 
Q 2191 206 1902 57 
Q 1613 -91 1228 -91 
Q 616 -91 322 394 
Q 125 716 125 1166 
Q 125 1397 178 1663 
Q 331 2444 812 2928 
Q 1294 3413 1909 3413 
Q 2294 3413 2525 3264 
Q 2756 3116 2866 2803 
L 3200 4531 
L 2656 4531 
L 2722 4863 
L 3841 4863 
z
M 2613 1497 
L 2675 1825 
Q 2722 2069 2722 2266 
Q 2722 2550 2622 2738 
Q 2456 3053 2019 3053 
Q 1575 3053 1279 2703 
Q 984 2353 850 1663 
Q 788 1347 788 1103 
Q 788 813 875 622 
Q 1031 269 1475 269 
Q 1913 269 2203 583 
Q 2494 897 2613 1497 
z
" transform="scale(0.015625)"/>
      <path id="DejaVuSerif-Italic-6d" d="M 3503 2675 
Q 3741 3041 4034 3227 
Q 4328 3413 4672 3413 
Q 5194 3413 5388 3088 
Q 5503 2894 5503 2578 
Q 5503 2372 5453 2113 
L 5106 331 
L 5625 331 
L 5563 0 
L 4469 0 
L 4866 2047 
Q 4913 2291 4913 2466 
Q 4913 2659 4856 2772 
Q 4750 2988 4403 2988 
Q 4019 2988 3761 2697 
Q 3503 2406 3394 1850 
L 3034 0 
L 2459 0 
L 2863 2069 
Q 2906 2303 2906 2472 
Q 2906 2666 2850 2775 
Q 2741 2988 2394 2988 
Q 2009 2988 1751 2697 
Q 1494 2406 1384 1850 
L 1025 0 
L 450 0 
L 1031 2994 
L 481 2994 
L 544 3322 
L 1669 3322 
L 1556 2731 
Q 1778 3063 2059 3238 
Q 2341 3413 2653 3413 
Q 3041 3413 3262 3220 
Q 3484 3028 3503 2675 
z
" transform="scale(0.015625)"/>
      <path id="DejaVuSerif-Italic-79" d="M 3681 3294 
Q 3372 1506 2828 563 
Q 2031 -822 1391 -1238 
Q 1106 -1422 356 -1422 
Q 209 -1422 60 -1397 
Q -88 -1372 -238 -1325 
L -113 -691 
L 181 -691 
Q 175 -741 175 -788 
Q 175 -919 231 -994 
Q 309 -1100 513 -1100 
Q 1063 -1100 1541 -622 
L 756 2988 
L 378 2988 
L 444 3322 
L 1303 3322 
L 2041 25 
Q 2544 778 2666 1088 
Q 3059 2059 3138 2959 
L 2759 2959 
L 2825 3294 
L 3681 3294 
z
" transform="scale(0.015625)"/>
      <path id="DejaVuSerif-Italic-6e" d="M 450 0 
L 1031 2988 
L 481 2988 
L 544 3322 
L 1669 3322 
L 1556 2731 
Q 1781 3069 2068 3241 
Q 2356 3413 2694 3413 
Q 3244 3413 3444 3097 
Q 3563 2906 3563 2588 
Q 3563 2378 3509 2113 
L 3163 331 
L 3675 331 
L 3613 0 
L 2522 0 
L 2897 1931 
Q 2959 2253 2959 2469 
Q 2959 2659 2909 2769 
Q 2803 2994 2425 2994 
Q 2025 2994 1759 2701 
Q 1494 2409 1384 1850 
L 1025 0 
L 450 0 
z
" transform="scale(0.015625)"/>
      <path id="DejaVuSerif-Italic-2014" d="M 322 1906 
L 6159 1906 
L 6078 1491 
L 241 1491 
L 322 1906 
z
" transform="scale(0.015625)"/>
      <path id="DejaVuSerif-Italic-78" d="M 409 0 
L 19 0 
L 1484 1594 
L 747 2988 
L 338 2988 
L 400 3322 
L 1244 3322 
L 1934 2028 
L 3125 3322 
L 3516 3322 
L 2078 1759 
L 2838 331 
L 3272 331 
L 3209 0 
L 2338 0 
L 1631 1325 
L 409 0 
z
" transform="scale(0.015625)"/>
      <path id="DejaVuSerif-Italic-69" d="M 1009 4353 
Q 1038 4497 1163 4603 
Q 1288 4709 1434 4709 
Q 1578 4709 1663 4603 
Q 1728 4522 1728 4422 
Q 1728 4388 1719 4353 
Q 1691 4206 1567 4103 
Q 1444 4000 1297 4000 
Q 1150 4000 1066 4103 
Q 1003 4181 1003 4281 
Q 1003 4316 1009 4353 
z
M 963 331 
L 1506 331 
L 1444 0 
L 325 0 
L 903 2988 
L 353 2988 
L 419 3322 
L 1544 3322 
L 963 331 
z
" transform="scale(0.015625)"/>
      <path id="DejaVuSerif-Italic-75" d="M 3097 3322 
L 3672 3322 
L 3091 331 
L 3634 331 
L 3572 0 
L 2453 0 
L 2566 588 
Q 2341 256 2055 82 
Q 1769 -91 1434 -91 
Q 881 -91 681 225 
Q 559 413 559 734 
Q 559 944 613 1209 
L 956 2988 
L 438 2988 
L 503 3322 
L 1600 3322 
L 1225 1388 
Q 1163 1066 1163 853 
Q 1163 663 1213 556 
Q 1316 331 1697 331 
Q 2097 331 2364 625 
Q 2631 919 2738 1478 
L 3097 3322 
z
" transform="scale(0.015625)"/>
      <path id="DejaVuSerif-Italic-70" d="M 1466 1825 
L 1400 1497 
Q 1353 1250 1353 1053 
Q 1353 769 1453 581 
Q 1622 269 2059 269 
Q 2500 269 2795 622 
Q 3091 975 3225 1663 
Q 3284 1978 3284 2225 
Q 3284 2513 3200 2703 
Q 3041 3053 2600 3053 
Q 2163 3053 1872 2737 
Q 1581 2422 1466 1825 
z
M 1116 2988 
L 563 2988 
L 628 3322 
L 1756 3322 
L 1656 2803 
Q 1884 3116 2175 3264 
Q 2466 3413 2850 3413 
Q 3463 3413 3753 2928 
Q 3947 2609 3947 2163 
Q 3947 1928 3897 1663 
Q 3744 881 3262 395 
Q 2781 -91 2169 -91 
Q 1784 -91 1551 57 
Q 1319 206 1213 519 
L 850 -1331 
L 275 -1331 
L 1116 2988 
z
" transform="scale(0.015625)"/>
      <path id="DejaVuSerif-Italic-66" d="M 3191 4078 
L 2888 4078 
Q 2900 4144 2900 4203 
Q 2900 4347 2825 4434 
Q 2719 4556 2472 4556 
Q 2150 4556 1984 4379 
Q 1819 4203 1731 3750 
L 1647 3322 
L 2575 3322 
L 2509 2988 
L 1581 2988 
L 963 -206 
Q 853 -763 509 -1047 
Q 166 -1331 -394 -1331 
L -356 -1025 
Q -28 -1025 131 -850 
Q 297 -663 388 -206 
L 1006 2988 
L 456 2988 
L 522 3322 
L 1072 3322 
L 1153 3738 
Q 1263 4297 1606 4578 
Q 1950 4863 2509 4863 
Q 2719 4863 2920 4825 
Q 3122 4788 3316 4709 
L 3191 4078 
z
" transform="scale(0.015625)"/>
      <path id="DejaVuSerif-Italic-63" d="M 3163 997 
Q 2938 466 2536 187 
Q 2134 -91 1584 -91 
Q 859 -91 513 388 
Q 272 722 272 1203 
Q 272 1419 319 1663 
Q 475 2459 1008 2936 
Q 1541 3413 2266 3413 
Q 2581 3413 2879 3339 
Q 3178 3266 3463 3116 
L 3300 2266 
L 2966 2266 
Q 2966 2309 2966 2347 
Q 2966 2722 2803 2903 
Q 2622 3103 2213 3103 
Q 1747 3103 1439 2742 
Q 1131 2381 991 1663 
Q 928 1334 928 1078 
Q 928 778 1016 581 
Q 1181 219 1650 219 
Q 2022 219 2281 412 
Q 2541 606 2700 997 
L 3163 997 
z
" transform="scale(0.015625)"/>
      <path id="DejaVuSerif-Italic-29" d="M -113 -997 
L -53 -691 
Q 491 -359 819 242 
Q 1147 844 1359 1931 
Q 1572 3022 1478 3623 
Q 1384 4225 966 4556 
L 1025 4863 
Q 1722 4522 1965 3783 
Q 2209 3044 1994 1931 
Q 1778 822 1247 83 
Q 716 -656 -113 -997 
z
" transform="scale(0.015625)"/>
     </defs>
     <use xlink:href="#DejaVuSerif-Italic-28"/>
     <use xlink:href="#DejaVuSerif-Italic-4e" transform="translate(39.013672 0)"/>
     <use xlink:href="#DejaVuSerif-Italic-6f" transform="translate(126.513672 0)"/>
     <use xlink:href="#DejaVuSerif-Italic-20" transform="translate(186.71875 0)"/>
     <use xlink:href="#DejaVuSerif-Italic-73" transform="translate(218.505859 0)"/>
     <use xlink:href="#DejaVuSerif-Italic-68" transform="translate(269.824219 0)"/>
     <use xlink:href="#DejaVuSerif-Italic-61" transform="translate(334.228516 0)"/>
     <use xlink:href="#DejaVuSerif-Italic-72" transform="translate(393.847656 0)"/>
     <use xlink:href="#DejaVuSerif-Italic-65" transform="translate(441.650391 0)"/>
     <use xlink:href="#DejaVuSerif-Italic-64" transform="translate(500.830078 0)"/>
     <use xlink:href="#DejaVuSerif-Italic-20" transform="translate(564.84375 0)"/>
     <use xlink:href="#DejaVuSerif-Italic-6d" transform="translate(596.630859 0)"/>
     <use xlink:href="#DejaVuSerif-Italic-65" transform="translate(691.455078 0)"/>
     <use xlink:href="#DejaVuSerif-Italic-6d" transform="translate(750.634766 0)"/>
     <use xlink:href="#DejaVuSerif-Italic-6f" transform="translate(845.458984 0)"/>
     <use xlink:href="#DejaVuSerif-Italic-72" transform="translate(905.664062 0)"/>
     <use xlink:href="#DejaVuSerif-Italic-79" transform="translate(953.466797 0)"/>
     <use xlink:href="#DejaVuSerif-Italic-20" transform="translate(1009.960938 0)"/>
     <use xlink:href="#DejaVuSerif-Italic-6e" transform="translate(1041.748047 0)"/>
     <use xlink:href="#DejaVuSerif-Italic-65" transform="translate(1106.152344 0)"/>
     <use xlink:href="#DejaVuSerif-Italic-65" transform="translate(1165.332031 0)"/>
     <use xlink:href="#DejaVuSerif-Italic-64" transform="translate(1224.511719 0)"/>
     <use xlink:href="#DejaVuSerif-Italic-65" transform="translate(1288.525391 0)"/>
     <use xlink:href="#DejaVuSerif-Italic-64" transform="translate(1347.705078 0)"/>
     <use xlink:href="#DejaVuSerif-Italic-20" transform="translate(1411.71875 0)"/>
     <use xlink:href="#DejaVuSerif-Italic-2014" transform="translate(1443.505859 0)"/>
     <use xlink:href="#DejaVuSerif-Italic-20" transform="translate(1543.505859 0)"/>
     <use xlink:href="#DejaVuSerif-Italic-6d" transform="translate(1575.292969 0)"/>
     <use xlink:href="#DejaVuSerif-Italic-61" transform="translate(1670.117188 0)"/>
     <use xlink:href="#DejaVuSerif-Italic-78" transform="translate(1729.736328 0)"/>
     <use xlink:href="#DejaVuSerif-Italic-69" transform="translate(1786.132812 0)"/>
     <use xlink:href="#DejaVuSerif-Italic-6d" transform="translate(1818.115234 0)"/>
     <use xlink:href="#DejaVuSerif-Italic-75" transform="translate(1912.939453 0)"/>
     <use xlink:href="#DejaVuSerif-Italic-6d" transform="translate(1977.34375 0)"/>
     <use xlink:href="#DejaVuSerif-Italic-20" transform="translate(2072.167969 0)"/>
     <use xlink:href="#DejaVuSerif-Italic-70" transform="translate(2103.955078 0)"/>
     <use xlink:href="#DejaVuSerif-Italic-65" transform="translate(2167.96875 0)"/>
     <use xlink:href="#DejaVuSerif-Italic-72" transform="translate(2227.148438 0)"/>
     <use xlink:href="#DejaVuSerif-Italic-66" transform="translate(2274.951172 0)"/>
     <use xlink:href="#DejaVuSerif-Italic-6f" transform="translate(2311.962891 0)"/>
     <use xlink:href="#DejaVuSerif-Italic-72" transform="translate(2372.167969 0)"/>
     <use xlink:href="#DejaVuSerif-Italic-6d" transform="translate(2419.970703 0)"/>
     <use xlink:href="#DejaVuSerif-Italic-61" transform="translate(2514.794922 0)"/>
     <use xlink:href="#DejaVuSerif-Italic-6e" transform="translate(2574.414062 0)"/>
     <use xlink:href="#DejaVuSerif-Italic-63" transform="translate(2638.818359 0)"/>
     <use xlink:href="#DejaVuSerif-Italic-65" transform="translate(2694.824219 0)"/>
     <use xlink:href="#DejaVuSerif-Italic-29" transform="translate(2754.003906 0)"/>
    </g>
   </g>
   <g id="text_3">
    <!-- m00 -->
    <g style="fill: #262626" transform="translate(182.673131 110.490575) scale(0.1 -0.1)">
     <defs>
      <path id="DejaVuSansMono-Bold-6d" d="M 2156 3150 
Q 2259 3372 2418 3478 
Q 2578 3584 2809 3584 
Q 3263 3584 3436 3271 
Q 3609 2959 3609 1972 
L 3609 0 
L 2859 0 
L 2859 2247 
Q 2859 2638 2800 2769 
Q 2741 2900 2584 2900 
Q 2428 2900 2365 2765 
Q 2303 2631 2303 2247 
L 2303 0 
L 1563 0 
L 1563 2247 
Q 1563 2631 1500 2765 
Q 1438 2900 1281 2900 
Q 1125 2900 1065 2769 
Q 1006 2638 1006 2247 
L 1006 0 
L 256 0 
L 256 3500 
L 922 3500 
L 922 3138 
Q 1000 3344 1172 3464 
Q 1344 3584 1556 3584 
Q 1769 3584 1944 3457 
Q 2119 3331 2156 3150 
z
" transform="scale(0.015625)"/>
      <path id="DejaVuSansMono-Bold-30" d="M 1538 2328 
Q 1538 2494 1650 2606 
Q 1763 2719 1925 2719 
Q 2091 2719 2203 2606 
Q 2316 2494 2316 2328 
Q 2316 2166 2203 2053 
Q 2091 1941 1925 1941 
Q 1763 1941 1650 2052 
Q 1538 2163 1538 2328 
z
M 1925 3969 
Q 1606 3969 1459 3578 
Q 1313 3188 1313 2328 
Q 1313 1472 1459 1081 
Q 1606 691 1925 691 
Q 2247 691 2394 1081 
Q 2541 1472 2541 2328 
Q 2541 3188 2394 3578 
Q 2247 3969 1925 3969 
z
M 384 2328 
Q 384 3541 768 4145 
Q 1153 4750 1925 4750 
Q 2700 4750 3084 4147 
Q 3469 3544 3469 2328 
Q 3469 1116 3084 512 
Q 2700 -91 1925 -91 
Q 1153 -91 768 514 
Q 384 1119 384 2328 
z
" transform="scale(0.015625)"/>
     </defs>
     <use xlink:href="#DejaVuSansMono-Bold-6d"/>
     <use xlink:href="#DejaVuSansMono-Bold-30" transform="translate(60.205078 0)"/>
     <use xlink:href="#DejaVuSansMono-Bold-30" transform="translate(120.410156 0)"/>
    </g>
   </g>
   <g id="text_4">
    <!-- m01 -->
    <g style="fill: #262626" transform="translate(287.109131 110.490575) scale(0.1 -0.1)">
     <defs>
      <path id="DejaVuSansMono-Bold-31" d="M 588 813 
L 1619 813 
L 1619 3841 
L 659 3603 
L 659 4434 
L 1625 4666 
L 2516 4666 
L 2516 813 
L 3547 813 
L 3547 0 
L 588 0 
L 588 813 
z
" transform="scale(0.015625)"/>
     </defs>
     <use xlink:href="#DejaVuSansMono-Bold-6d"/>
     <use xlink:href="#DejaVuSansMono-Bold-30" transform="translate(60.205078 0)"/>
     <use xlink:href="#DejaVuSansMono-Bold-31" transform="translate(120.410156 0)"/>
    </g>
   </g>
   <g id="text_5">
    <!-- m02 -->
    <g style="fill: #262626" transform="translate(391.545131 110.490575) scale(0.1 -0.1)">
     <defs>
      <path id="DejaVuSansMono-Bold-32" d="M 1356 813 
L 3322 813 
L 3322 0 
L 359 0 
L 359 788 
L 859 1319 
Q 1750 2266 1941 2484 
Q 2175 2753 2278 2961 
Q 2381 3169 2381 3372 
Q 2381 3684 2192 3854 
Q 2003 4025 1656 4025 
Q 1409 4025 1101 3926 
Q 794 3828 459 3641 
L 459 4500 
Q 794 4622 1114 4686 
Q 1434 4750 1728 4750 
Q 2469 4750 2892 4404 
Q 3316 4059 3316 3463 
Q 3316 3188 3223 2947 
Q 3131 2706 2906 2413 
Q 2741 2200 1997 1456 
Q 1594 1053 1356 813 
z
" transform="scale(0.015625)"/>
     </defs>
     <use xlink:href="#DejaVuSansMono-Bold-6d"/>
     <use xlink:href="#DejaVuSansMono-Bold-30" transform="translate(60.205078 0)"/>
     <use xlink:href="#DejaVuSansMono-Bold-32" transform="translate(120.410156 0)"/>
    </g>
   </g>
   <g id="text_6">
    <!-- m03 -->
    <g style="fill: #262626" transform="translate(495.981131 110.490575) scale(0.1 -0.1)">
     <defs>
      <path id="DejaVuSansMono-Bold-33" d="M 1716 2088 
L 1222 2088 
L 1222 2900 
L 1716 2900 
Q 2059 2900 2248 3036 
Q 2438 3172 2438 3419 
Q 2438 3678 2248 3823 
Q 2059 3969 1716 3969 
Q 1453 3969 1153 3903 
Q 853 3838 531 3713 
L 531 4550 
Q 853 4647 1165 4698 
Q 1478 4750 1766 4750 
Q 2503 4750 2915 4428 
Q 3328 4106 3328 3541 
Q 3328 3125 3090 2861 
Q 2853 2597 2413 2516 
Q 2913 2428 3175 2117 
Q 3438 1806 3438 1300 
Q 3438 622 3003 265 
Q 2569 -91 1741 -91 
Q 1388 -91 1045 -31 
Q 703 28 391 141 
L 391 997 
Q 684 850 1025 773 
Q 1366 697 1741 697 
Q 2116 697 2334 870 
Q 2553 1044 2553 1338 
Q 2553 1697 2334 1892 
Q 2116 2088 1716 2088 
z
" transform="scale(0.015625)"/>
     </defs>
     <use xlink:href="#DejaVuSansMono-Bold-6d"/>
     <use xlink:href="#DejaVuSansMono-Bold-30" transform="translate(60.205078 0)"/>
     <use xlink:href="#DejaVuSansMono-Bold-33" transform="translate(120.410156 0)"/>
    </g>
   </g>
   <g id="text_7">
    <!-- m10 -->
    <g style="fill: #262626" transform="translate(182.673131 173.322575) scale(0.1 -0.1)">
     <use xlink:href="#DejaVuSansMono-Bold-6d"/>
     <use xlink:href="#DejaVuSansMono-Bold-31" transform="translate(60.205078 0)"/>
     <use xlink:href="#DejaVuSansMono-Bold-30" transform="translate(120.410156 0)"/>
    </g>
   </g>
   <g id="text_8">
    <!-- m11 -->
    <g style="fill: #262626" transform="translate(287.109131 173.322575) scale(0.1 -0.1)">
     <use xlink:href="#DejaVuSansMono-Bold-6d"/>
     <use xlink:href="#DejaVuSansMono-Bold-31" transform="translate(60.205078 0)"/>
     <use xlink:href="#DejaVuSansMono-Bold-31" transform="translate(120.410156 0)"/>
    </g>
   </g>
   <g id="text_9">
    <!-- m12 -->
    <g style="fill: #262626" transform="translate(391.545131 173.322575) scale(0.1 -0.1)">
     <use xlink:href="#DejaVuSansMono-Bold-6d"/>
     <use xlink:href="#DejaVuSansMono-Bold-31" transform="translate(60.205078 0)"/>
     <use xlink:href="#DejaVuSansMono-Bold-32" transform="translate(120.410156 0)"/>
    </g>
   </g>
   <g id="text_10">
    <!-- m13 -->
    <g style="fill: #262626" transform="translate(495.981131 173.322575) scale(0.1 -0.1)">
     <use xlink:href="#DejaVuSansMono-Bold-6d"/>
     <use xlink:href="#DejaVuSansMono-Bold-31" transform="translate(60.205078 0)"/>
     <use xlink:href="#DejaVuSansMono-Bold-33" transform="translate(120.410156 0)"/>
    </g>
   </g>
   <g id="text_11">
    <!-- m20 -->
    <g style="fill: #262626" transform="translate(182.673131 236.154575) scale(0.1 -0.1)">
     <use xlink:href="#DejaVuSansMono-Bold-6d"/>
     <use xlink:href="#DejaVuSansMono-Bold-32" transform="translate(60.205078 0)"/>
     <use xlink:href="#DejaVuSansMono-Bold-30" transform="translate(120.410156 0)"/>
    </g>
   </g>
   <g id="text_12">
    <!-- m21 -->
    <g style="fill: #262626" transform="translate(287.109131 236.154575) scale(0.1 -0.1)">
     <use xlink:href="#DejaVuSansMono-Bold-6d"/>
     <use xlink:href="#DejaVuSansMono-Bold-32" transform="translate(60.205078 0)"/>
     <use xlink:href="#DejaVuSansMono-Bold-31" transform="translate(120.410156 0)"/>
    </g>
   </g>
   <g id="text_13">
    <!-- m22 -->
    <g style="fill: #262626" transform="translate(391.545131 236.154575) scale(0.1 -0.1)">
     <use xlink:href="#DejaVuSansMono-Bold-6d"/>
     <use xlink:href="#DejaVuSansMono-Bold-32" transform="translate(60.205078 0)"/>
     <use xlink:href="#DejaVuSansMono-Bold-32" transform="translate(120.410156 0)"/>
    </g>
   </g>
   <g id="text_14">
    <!-- m23 -->
    <g style="fill: #262626" transform="translate(495.981131 236.154575) scale(0.1 -0.1)">
     <use xlink:href="#DejaVuSansMono-Bold-6d"/>
     <use xlink:href="#DejaVuSansMono-Bold-32" transform="translate(60.205078 0)"/>
     <use xlink:href="#DejaVuSansMono-Bold-33" transform="translate(120.410156 0)"/>
    </g>
   </g>
   <g id="text_15">
    <!-- m30 -->
    <g style="fill: #262626" transform="translate(182.673131 298.986575) scale(0.1 -0.1)">
     <use xlink:href="#DejaVuSansMono-Bold-6d"/>
     <use xlink:href="#DejaVuSansMono-Bold-33" transform="translate(60.205078 0)"/>
     <use xlink:href="#DejaVuSansMono-Bold-30" transform="translate(120.410156 0)"/>
    </g>
   </g>
   <g id="text_16">
    <!-- m31 -->
    <g style="fill: #262626" transform="translate(287.109131 298.986575) scale(0.1 -0.1)">
     <use xlink:href="#DejaVuSansMono-Bold-6d"/>
     <use xlink:href="#DejaVuSansMono-Bold-33" transform="translate(60.205078 0)"/>
     <use xlink:href="#DejaVuSansMono-Bold-31" transform="translate(120.410156 0)"/>
    </g>
   </g>
   <g id="text_17">
    <!-- m32 -->
    <g style="fill: #262626" transform="translate(391.545131 298.986575) scale(0.1 -0.1)">
     <use xlink:href="#DejaVuSansMono-Bold-6d"/>
     <use xlink:href="#DejaVuSansMono-Bold-33" transform="translate(60.205078 0)"/>
     <use xlink:href="#DejaVuSansMono-Bold-32" transform="translate(120.410156 0)"/>
    </g>
   </g>
   <g id="text_18">
    <!-- m33 -->
    <g style="fill: #262626" transform="translate(495.981131 298.986575) scale(0.1 -0.1)">
     <use xlink:href="#DejaVuSansMono-Bold-6d"/>
     <use xlink:href="#DejaVuSansMono-Bold-33" transform="translate(60.205078 0)"/>
     <use xlink:href="#DejaVuSansMono-Bold-33" transform="translate(120.410156 0)"/>
    </g>
   </g>
   <g id="text_19">
    <g id="patch_18">
     <path d="M 225.28125 413.650744 
L 485.35875 413.650744 
Q 488.05875 413.650744 488.05875 410.950744 
L 488.05875 319.922494 
Q 488.05875 317.222494 485.35875 317.222494 
L 225.28125 317.222494 
Q 222.58125 317.222494 222.58125 319.922494 
L 222.58125 410.950744 
Q 222.58125 413.650744 225.28125 413.650744 
z
" style="fill: #f5f5f5; stroke: #bdbdbd; stroke-linejoin: miter"/>
    </g>
    <!-- # Triton kernel: 16 registers per batch element -->
    <g style="fill: #262626" transform="translate(227.990391 326.620462) scale(0.09 -0.09)">
     <defs>
      <path id="DejaVuSansMono-23" d="M 2138 4594 
L 1813 3297 
L 2578 3297 
L 2906 4594 
L 3406 4594 
L 3078 3297 
L 3841 3297 
L 3841 2816 
L 2963 2816 
L 2700 1772 
L 3481 1772 
L 3481 1294 
L 2578 1294 
L 2253 0 
L 1753 0 
L 2081 1294 
L 1313 1294 
L 984 0 
L 488 0 
L 813 1294 
L 6 1294 
L 6 1772 
L 934 1772 
L 1197 2816 
L 366 2816 
L 366 3297 
L 1313 3297 
L 1638 4594 
L 2138 4594 
z
M 2463 2816 
L 1697 2816 
L 1434 1772 
L 2203 1772 
L 2463 2816 
z
" transform="scale(0.015625)"/>
      <path id="DejaVuSansMono-20" transform="scale(0.015625)"/>
      <path id="DejaVuSansMono-54" d="M 147 4666 
L 3706 4666 
L 3706 4134 
L 2247 4134 
L 2247 0 
L 1613 0 
L 1613 4134 
L 147 4134 
L 147 4666 
z
" transform="scale(0.015625)"/>
      <path id="DejaVuSansMono-72" d="M 3609 2778 
Q 3425 2922 3234 2987 
Q 3044 3053 2816 3053 
Q 2278 3053 1993 2715 
Q 1709 2378 1709 1741 
L 1709 0 
L 1131 0 
L 1131 3500 
L 1709 3500 
L 1709 2816 
Q 1853 3188 2151 3386 
Q 2450 3584 2859 3584 
Q 3072 3584 3256 3531 
Q 3441 3478 3609 3366 
L 3609 2778 
z
" transform="scale(0.015625)"/>
      <path id="DejaVuSansMono-69" d="M 800 3500 
L 2272 3500 
L 2272 447 
L 3413 447 
L 3413 0 
L 556 0 
L 556 447 
L 1697 447 
L 1697 3053 
L 800 3053 
L 800 3500 
z
M 1697 4863 
L 2272 4863 
L 2272 4134 
L 1697 4134 
L 1697 4863 
z
" transform="scale(0.015625)"/>
      <path id="DejaVuSansMono-74" d="M 1919 4494 
L 1919 3500 
L 3225 3500 
L 3225 3053 
L 1919 3053 
L 1919 1153 
Q 1919 766 2066 612 
Q 2213 459 2578 459 
L 3225 459 
L 3225 0 
L 2522 0 
Q 1875 0 1609 259 
Q 1344 519 1344 1153 
L 1344 3053 
L 409 3053 
L 409 3500 
L 1344 3500 
L 1344 4494 
L 1919 4494 
z
" transform="scale(0.015625)"/>
      <path id="DejaVuSansMono-6f" d="M 1925 3097 
Q 1488 3097 1263 2756 
Q 1038 2416 1038 1747 
Q 1038 1081 1263 739 
Q 1488 397 1925 397 
Q 2366 397 2591 739 
Q 2816 1081 2816 1747 
Q 2816 2416 2591 2756 
Q 2366 3097 1925 3097 
z
M 1925 3584 
Q 2653 3584 3039 3112 
Q 3425 2641 3425 1747 
Q 3425 850 3040 379 
Q 2656 -91 1925 -91 
Q 1197 -91 812 379 
Q 428 850 428 1747 
Q 428 2641 812 3112 
Q 1197 3584 1925 3584 
z
" transform="scale(0.015625)"/>
      <path id="DejaVuSansMono-6e" d="M 3284 2169 
L 3284 0 
L 2706 0 
L 2706 2169 
Q 2706 2641 2540 2862 
Q 2375 3084 2022 3084 
Q 1619 3084 1401 2798 
Q 1184 2513 1184 1978 
L 1184 0 
L 609 0 
L 609 3500 
L 1184 3500 
L 1184 2975 
Q 1338 3275 1600 3429 
Q 1863 3584 2222 3584 
Q 2756 3584 3020 3232 
Q 3284 2881 3284 2169 
z
" transform="scale(0.015625)"/>
      <path id="DejaVuSansMono-6b" d="M 738 4863 
L 1331 4863 
L 1331 2047 
L 2841 3500 
L 3541 3500 
L 2163 2181 
L 3756 0 
L 3053 0 
L 1759 1806 
L 1331 1403 
L 1331 0 
L 738 0 
L 738 4863 
z
" transform="scale(0.015625)"/>
      <path id="DejaVuSansMono-65" d="M 3475 1894 
L 3475 1613 
L 984 1613 
L 984 1594 
Q 984 1022 1282 709 
Q 1581 397 2125 397 
Q 2400 397 2700 484 
Q 3000 572 3341 750 
L 3341 178 
Q 3013 44 2708 -23 
Q 2403 -91 2119 -91 
Q 1303 -91 843 398 
Q 384 888 384 1747 
Q 384 2584 834 3084 
Q 1284 3584 2034 3584 
Q 2703 3584 3089 3131 
Q 3475 2678 3475 1894 
z
M 2900 2063 
Q 2888 2569 2661 2833 
Q 2434 3097 2009 3097 
Q 1594 3097 1325 2822 
Q 1056 2547 1006 2059 
L 2900 2063 
z
" transform="scale(0.015625)"/>
      <path id="DejaVuSansMono-6c" d="M 1997 1269 
Q 1997 881 2139 684 
Q 2281 488 2559 488 
L 3231 488 
L 3231 0 
L 2503 0 
Q 1988 0 1705 331 
Q 1422 663 1422 1269 
L 1422 4447 
L 500 4447 
L 500 4897 
L 1997 4897 
L 1997 1269 
z
" transform="scale(0.015625)"/>
      <path id="DejaVuSansMono-3a" d="M 1528 3322 
L 2316 3322 
L 2316 2375 
L 1528 2375 
L 1528 3322 
z
M 1528 953 
L 2316 953 
L 2316 0 
L 1528 0 
L 1528 953 
z
" transform="scale(0.015625)"/>
      <path id="DejaVuSansMono-31" d="M 844 531 
L 1825 531 
L 1825 4097 
L 769 3859 
L 769 4434 
L 1819 4666 
L 2450 4666 
L 2450 531 
L 3419 531 
L 3419 0 
L 844 0 
L 844 531 
z
" transform="scale(0.015625)"/>
      <path id="DejaVuSansMono-36" d="M 3097 4563 
L 3097 3981 
Q 2900 4097 2678 4158 
Q 2456 4219 2216 4219 
Q 1616 4219 1306 3767 
Q 997 3316 997 2438 
Q 1147 2750 1412 2917 
Q 1678 3084 2022 3084 
Q 2697 3084 3067 2670 
Q 3438 2256 3438 1497 
Q 3438 741 3056 325 
Q 2675 -91 1984 -91 
Q 1172 -91 794 492 
Q 416 1075 416 2328 
Q 416 3509 870 4129 
Q 1325 4750 2188 4750 
Q 2419 4750 2650 4701 
Q 2881 4653 3097 4563 
z
M 1972 2591 
Q 1569 2591 1337 2300 
Q 1106 2009 1106 1497 
Q 1106 984 1337 693 
Q 1569 403 1972 403 
Q 2391 403 2603 679 
Q 2816 956 2816 1497 
Q 2816 2041 2603 2316 
Q 2391 2591 1972 2591 
z
" transform="scale(0.015625)"/>
      <path id="DejaVuSansMono-67" d="M 2681 1778 
Q 2681 2425 2470 2761 
Q 2259 3097 1856 3097 
Q 1434 3097 1212 2761 
Q 991 2425 991 1778 
Q 991 1131 1214 792 
Q 1438 453 1863 453 
Q 2259 453 2470 793 
Q 2681 1134 2681 1778 
z
M 3256 225 
Q 3256 -563 2884 -969 
Q 2513 -1375 1791 -1375 
Q 1553 -1375 1293 -1331 
Q 1034 -1288 775 -1203 
L 775 -634 
Q 1081 -778 1331 -847 
Q 1581 -916 1791 -916 
Q 2256 -916 2468 -662 
Q 2681 -409 2681 141 
L 2681 166 
L 2681 556 
Q 2544 263 2306 119 
Q 2069 -25 1728 -25 
Q 1116 -25 750 465 
Q 384 956 384 1778 
Q 384 2603 750 3093 
Q 1116 3584 1728 3584 
Q 2066 3584 2300 3450 
Q 2534 3316 2681 3034 
L 2681 3488 
L 3256 3488 
L 3256 225 
z
" transform="scale(0.015625)"/>
      <path id="DejaVuSansMono-73" d="M 3041 3378 
L 3041 2816 
Q 2794 2959 2544 3031 
Q 2294 3103 2034 3103 
Q 1644 3103 1451 2976 
Q 1259 2850 1259 2591 
Q 1259 2356 1403 2240 
Q 1547 2125 2119 2016 
L 2350 1972 
Q 2778 1891 2998 1647 
Q 3219 1403 3219 1013 
Q 3219 494 2850 201 
Q 2481 -91 1825 -91 
Q 1566 -91 1281 -36 
Q 997 19 666 128 
L 666 722 
Q 988 556 1281 473 
Q 1575 391 1838 391 
Q 2219 391 2428 545 
Q 2638 700 2638 978 
Q 2638 1378 1872 1531 
L 1847 1538 
L 1631 1581 
Q 1134 1678 906 1908 
Q 678 2138 678 2534 
Q 678 3038 1018 3311 
Q 1359 3584 1991 3584 
Q 2272 3584 2531 3532 
Q 2791 3481 3041 3378 
z
" transform="scale(0.015625)"/>
      <path id="DejaVuSansMono-70" d="M 1172 441 
L 1172 -1331 
L 594 -1331 
L 594 3500 
L 1172 3500 
L 1172 3053 
Q 1316 3313 1555 3448 
Q 1794 3584 2106 3584 
Q 2741 3584 3102 3093 
Q 3463 2603 3463 1734 
Q 3463 881 3100 395 
Q 2738 -91 2106 -91 
Q 1788 -91 1548 45 
Q 1309 181 1172 441 
z
M 2859 1747 
Q 2859 2416 2648 2756 
Q 2438 3097 2022 3097 
Q 1603 3097 1387 2755 
Q 1172 2413 1172 1747 
Q 1172 1084 1387 740 
Q 1603 397 2022 397 
Q 2438 397 2648 737 
Q 2859 1078 2859 1747 
z
" transform="scale(0.015625)"/>
      <path id="DejaVuSansMono-62" d="M 2869 1747 
Q 2869 2416 2656 2756 
Q 2444 3097 2028 3097 
Q 1609 3097 1393 2755 
Q 1178 2413 1178 1747 
Q 1178 1084 1393 740 
Q 1609 397 2028 397 
Q 2444 397 2656 737 
Q 2869 1078 2869 1747 
z
M 1178 3053 
Q 1316 3309 1558 3446 
Q 1800 3584 2119 3584 
Q 2750 3584 3112 3098 
Q 3475 2613 3475 1759 
Q 3475 894 3111 401 
Q 2747 -91 2113 -91 
Q 1800 -91 1561 45 
Q 1322 181 1178 441 
L 1178 0 
L 603 0 
L 603 4863 
L 1178 4863 
L 1178 3053 
z
" transform="scale(0.015625)"/>
      <path id="DejaVuSansMono-61" d="M 2194 1759 
L 2003 1759 
Q 1500 1759 1245 1582 
Q 991 1406 991 1056 
Q 991 741 1181 566 
Q 1372 391 1709 391 
Q 2184 391 2456 720 
Q 2728 1050 2731 1631 
L 2731 1759 
L 2194 1759 
z
M 3309 1997 
L 3309 0 
L 2731 0 
L 2731 519 
Q 2547 206 2267 57 
Q 1988 -91 1588 -91 
Q 1053 -91 734 211 
Q 416 513 416 1019 
Q 416 1603 808 1906 
Q 1200 2209 1959 2209 
L 2731 2209 
L 2731 2300 
Q 2728 2719 2518 2908 
Q 2309 3097 1850 3097 
Q 1556 3097 1256 3012 
Q 956 2928 672 2766 
L 672 3341 
Q 991 3463 1283 3523 
Q 1575 3584 1850 3584 
Q 2284 3584 2592 3456 
Q 2900 3328 3091 3072 
Q 3209 2916 3259 2686 
Q 3309 2456 3309 1997 
z
" transform="scale(0.015625)"/>
      <path id="DejaVuSansMono-63" d="M 3316 178 
Q 3084 44 2839 -23 
Q 2594 -91 2338 -91 
Q 1525 -91 1067 396 
Q 609 884 609 1747 
Q 609 2609 1067 3096 
Q 1525 3584 2338 3584 
Q 2591 3584 2831 3518 
Q 3072 3453 3316 3316 
L 3316 2713 
Q 3088 2916 2858 3006 
Q 2628 3097 2338 3097 
Q 1797 3097 1506 2747 
Q 1216 2397 1216 1747 
Q 1216 1100 1508 748 
Q 1800 397 2338 397 
Q 2638 397 2875 489 
Q 3113 581 3316 775 
L 3316 178 
z
" transform="scale(0.015625)"/>
      <path id="DejaVuSansMono-68" d="M 3284 2169 
L 3284 0 
L 2706 0 
L 2706 2169 
Q 2706 2641 2540 2862 
Q 2375 3084 2022 3084 
Q 1619 3084 1401 2798 
Q 1184 2513 1184 1978 
L 1184 0 
L 609 0 
L 609 4863 
L 1184 4863 
L 1184 2975 
Q 1338 3275 1600 3429 
Q 1863 3584 2222 3584 
Q 2756 3584 3020 3232 
Q 3284 2881 3284 2169 
z
" transform="scale(0.015625)"/>
      <path id="DejaVuSansMono-6d" d="M 2113 3144 
Q 2219 3369 2383 3476 
Q 2547 3584 2778 3584 
Q 3200 3584 3373 3257 
Q 3547 2931 3547 2028 
L 3547 0 
L 3022 0 
L 3022 2003 
Q 3022 2744 2939 2923 
Q 2856 3103 2638 3103 
Q 2388 3103 2295 2911 
Q 2203 2719 2203 2003 
L 2203 0 
L 1678 0 
L 1678 2003 
Q 1678 2753 1589 2928 
Q 1500 3103 1269 3103 
Q 1041 3103 952 2911 
Q 863 2719 863 2003 
L 863 0 
L 341 0 
L 341 3500 
L 863 3500 
L 863 3200 
Q 966 3388 1120 3486 
Q 1275 3584 1472 3584 
Q 1709 3584 1867 3475 
Q 2025 3366 2113 3144 
z
" transform="scale(0.015625)"/>
     </defs>
     <use xlink:href="#DejaVuSansMono-23"/>
     <use xlink:href="#DejaVuSansMono-20" transform="translate(60.205078 0)"/>
     <use xlink:href="#DejaVuSansMono-54" transform="translate(120.410156 0)"/>
     <use xlink:href="#DejaVuSansMono-72" transform="translate(180.615234 0)"/>
     <use xlink:href="#DejaVuSansMono-69" transform="translate(240.820312 0)"/>
     <use xlink:href="#DejaVuSansMono-74" transform="translate(301.025391 0)"/>
     <use xlink:href="#DejaVuSansMono-6f" transform="translate(361.230469 0)"/>
     <use xlink:href="#DejaVuSansMono-6e" transform="translate(421.435547 0)"/>
     <use xlink:href="#DejaVuSansMono-20" transform="translate(481.640625 0)"/>
     <use xlink:href="#DejaVuSansMono-6b" transform="translate(541.845703 0)"/>
     <use xlink:href="#DejaVuSansMono-65" transform="translate(602.050781 0)"/>
     <use xlink:href="#DejaVuSansMono-72" transform="translate(662.255859 0)"/>
     <use xlink:href="#DejaVuSansMono-6e" transform="translate(722.460938 0)"/>
     <use xlink:href="#DejaVuSansMono-65" transform="translate(782.666016 0)"/>
     <use xlink:href="#DejaVuSansMono-6c" transform="translate(842.871094 0)"/>
     <use xlink:href="#DejaVuSansMono-3a" transform="translate(903.076172 0)"/>
     <use xlink:href="#DejaVuSansMono-20" transform="translate(963.28125 0)"/>
     <use xlink:href="#DejaVuSansMono-31" transform="translate(1023.486328 0)"/>
     <use xlink:href="#DejaVuSansMono-36" transform="translate(1083.691406 0)"/>
     <use xlink:href="#DejaVuSansMono-20" transform="translate(1143.896484 0)"/>
     <use xlink:href="#DejaVuSansMono-72" transform="translate(1204.101562 0)"/>
     <use xlink:href="#DejaVuSansMono-65" transform="translate(1264.306641 0)"/>
     <use xlink:href="#DejaVuSansMono-67" transform="translate(1324.511719 0)"/>
     <use xlink:href="#DejaVuSansMono-69" transform="translate(1384.716797 0)"/>
     <use xlink:href="#DejaVuSansMono-73" transform="translate(1444.921875 0)"/>
     <use xlink:href="#DejaVuSansMono-74" transform="translate(1505.126953 0)"/>
     <use xlink:href="#DejaVuSansMono-65" transform="translate(1565.332031 0)"/>
     <use xlink:href="#DejaVuSansMono-72" transform="translate(1625.537109 0)"/>
     <use xlink:href="#DejaVuSansMono-73" transform="translate(1685.742188 0)"/>
     <use xlink:href="#DejaVuSansMono-20" transform="translate(1745.947266 0)"/>
     <use xlink:href="#DejaVuSansMono-70" transform="translate(1806.152344 0)"/>
     <use xlink:href="#DejaVuSansMono-65" transform="translate(1866.357422 0)"/>
     <use xlink:href="#DejaVuSansMono-72" transform="translate(1926.5625 0)"/>
     <use xlink:href="#DejaVuSansMono-20" transform="translate(1986.767578 0)"/>
     <use xlink:href="#DejaVuSansMono-62" transform="translate(2046.972656 0)"/>
     <use xlink:href="#DejaVuSansMono-61" transform="translate(2107.177734 0)"/>
     <use xlink:href="#DejaVuSansMono-74" transform="translate(2167.382812 0)"/>
     <use xlink:href="#DejaVuSansMono-63" transform="translate(2227.587891 0)"/>
     <use xlink:href="#DejaVuSansMono-68" transform="translate(2287.792969 0)"/>
     <use xlink:href="#DejaVuSansMono-20" transform="translate(2347.998047 0)"/>
     <use xlink:href="#DejaVuSansMono-65" transform="translate(2408.203125 0)"/>
     <use xlink:href="#DejaVuSansMono-6c" transform="translate(2468.408203 0)"/>
     <use xlink:href="#DejaVuSansMono-65" transform="translate(2528.613281 0)"/>
     <use xlink:href="#DejaVuSansMono-6d" transform="translate(2588.818359 0)"/>
     <use xlink:href="#DejaVuSansMono-65" transform="translate(2649.023438 0)"/>
     <use xlink:href="#DejaVuSansMono-6e" transform="translate(2709.228516 0)"/>
     <use xlink:href="#DejaVuSansMono-74" transform="translate(2769.433594 0)"/>
    </g>
    <!-- m00 = tl.load(M_ptr + base + 0) -->
    <g style="fill: #262626" transform="translate(271.336641 336.817744) scale(0.09 -0.09)">
     <defs>
      <path id="DejaVuSansMono-30" d="M 1509 2344 
Q 1509 2516 1629 2641 
Q 1750 2766 1919 2766 
Q 2094 2766 2219 2641 
Q 2344 2516 2344 2344 
Q 2344 2169 2220 2047 
Q 2097 1925 1919 1925 
Q 1744 1925 1626 2044 
Q 1509 2163 1509 2344 
z
M 1925 4250 
Q 1484 4250 1267 3775 
Q 1050 3300 1050 2328 
Q 1050 1359 1267 884 
Q 1484 409 1925 409 
Q 2369 409 2586 884 
Q 2803 1359 2803 2328 
Q 2803 3300 2586 3775 
Q 2369 4250 1925 4250 
z
M 1925 4750 
Q 2672 4750 3055 4137 
Q 3438 3525 3438 2328 
Q 3438 1134 3055 521 
Q 2672 -91 1925 -91 
Q 1178 -91 797 521 
Q 416 1134 416 2328 
Q 416 3525 797 4137 
Q 1178 4750 1925 4750 
z
" transform="scale(0.015625)"/>
      <path id="DejaVuSansMono-3d" d="M 275 1638 
L 3578 1638 
L 3578 1100 
L 275 1100 
L 275 1638 
z
M 275 2906 
L 3578 2906 
L 3578 2375 
L 275 2375 
L 275 2906 
z
" transform="scale(0.015625)"/>
      <path id="DejaVuSansMono-2e" d="M 1528 953 
L 2316 953 
L 2316 0 
L 1528 0 
L 1528 953 
z
" transform="scale(0.015625)"/>
      <path id="DejaVuSansMono-64" d="M 2681 3053 
L 2681 4863 
L 3256 4863 
L 3256 0 
L 2681 0 
L 2681 441 
Q 2538 181 2298 45 
Q 2059 -91 1747 -91 
Q 1113 -91 748 401 
Q 384 894 384 1759 
Q 384 2613 750 3098 
Q 1116 3584 1747 3584 
Q 2063 3584 2303 3448 
Q 2544 3313 2681 3053 
z
M 991 1747 
Q 991 1078 1203 737 
Q 1416 397 1831 397 
Q 2247 397 2464 740 
Q 2681 1084 2681 1747 
Q 2681 2413 2464 2755 
Q 2247 3097 1831 3097 
Q 1416 3097 1203 2756 
Q 991 2416 991 1747 
z
" transform="scale(0.015625)"/>
      <path id="DejaVuSansMono-28" d="M 2766 4856 
Q 2350 4144 2145 3436 
Q 1941 2728 1941 2009 
Q 1941 1294 2145 584 
Q 2350 -125 2766 -844 
L 2266 -844 
Q 1794 -100 1562 604 
Q 1331 1309 1331 2009 
Q 1331 2706 1562 3412 
Q 1794 4119 2266 4856 
L 2766 4856 
z
" transform="scale(0.015625)"/>
      <path id="DejaVuSansMono-4d" d="M 269 4666 
L 1113 4666 
L 1919 2291 
L 2731 4666 
L 3578 4666 
L 3578 0 
L 2994 0 
L 2994 4122 
L 2163 1663 
L 1684 1663 
L 850 4122 
L 850 0 
L 269 0 
L 269 4666 
z
" transform="scale(0.015625)"/>
      <path id="DejaVuSansMono-5f" d="M 3853 -1259 
L 3853 -1509 
L 0 -1509 
L 0 -1259 
L 3853 -1259 
z
" transform="scale(0.015625)"/>
      <path id="DejaVuSansMono-2b" d="M 2188 3659 
L 2188 2272 
L 3578 2272 
L 3578 1741 
L 2188 1741 
L 2188 353 
L 1663 353 
L 1663 1741 
L 275 1741 
L 275 2272 
L 1663 2272 
L 1663 3659 
L 2188 3659 
z
" transform="scale(0.015625)"/>
      <path id="DejaVuSansMono-29" d="M 1088 4856 
L 1588 4856 
Q 2059 4119 2290 3412 
Q 2522 2706 2522 2009 
Q 2522 1306 2290 600 
Q 2059 -106 1588 -844 
L 1088 -844 
Q 1503 -119 1708 590 
Q 1913 1300 1913 2009 
Q 1913 2722 1708 3431 
Q 1503 4141 1088 4856 
z
" transform="scale(0.015625)"/>
     </defs>
     <use xlink:href="#DejaVuSansMono-6d"/>
     <use xlink:href="#DejaVuSansMono-30" transform="translate(60.205078 0)"/>
     <use xlink:href="#DejaVuSansMono-30" transform="translate(120.410156 0)"/>
     <use xlink:href="#DejaVuSansMono-20" transform="translate(180.615234 0)"/>
     <use xlink:href="#DejaVuSansMono-3d" transform="translate(240.820312 0)"/>
     <use xlink:href="#DejaVuSansMono-20" transform="translate(301.025391 0)"/>
     <use xlink:href="#DejaVuSansMono-74" transform="translate(361.230469 0)"/>
     <use xlink:href="#DejaVuSansMono-6c" transform="translate(421.435547 0)"/>
     <use xlink:href="#DejaVuSansMono-2e" transform="translate(481.640625 0)"/>
     <use xlink:href="#DejaVuSansMono-6c" transform="translate(541.845703 0)"/>
     <use xlink:href="#DejaVuSansMono-6f" transform="translate(602.050781 0)"/>
     <use xlink:href="#DejaVuSansMono-61" transform="translate(662.255859 0)"/>
     <use xlink:href="#DejaVuSansMono-64" transform="translate(722.460938 0)"/>
     <use xlink:href="#DejaVuSansMono-28" transform="translate(782.666016 0)"/>
     <use xlink:href="#DejaVuSansMono-4d" transform="translate(842.871094 0)"/>
     <use xlink:href="#DejaVuSansMono-5f" transform="translate(903.076172 0)"/>
     <use xlink:href="#DejaVuSansMono-70" transform="translate(963.28125 0)"/>
     <use xlink:href="#DejaVuSansMono-74" transform="translate(1023.486328 0)"/>
     <use xlink:href="#DejaVuSansMono-72" transform="translate(1083.691406 0)"/>
     <use xlink:href="#DejaVuSansMono-20" transform="translate(1143.896484 0)"/>
     <use xlink:href="#DejaVuSansMono-2b" transform="translate(1204.101562 0)"/>
     <use xlink:href="#DejaVuSansMono-20" transform="translate(1264.306641 0)"/>
     <use xlink:href="#DejaVuSansMono-62" transform="translate(1324.511719 0)"/>
     <use xlink:href="#DejaVuSansMono-61" transform="translate(1384.716797 0)"/>
     <use xlink:href="#DejaVuSansMono-73" transform="translate(1444.921875 0)"/>
     <use xlink:href="#DejaVuSansMono-65" transform="translate(1505.126953 0)"/>
     <use xlink:href="#DejaVuSansMono-20" transform="translate(1565.332031 0)"/>
     <use xlink:href="#DejaVuSansMono-2b" transform="translate(1625.537109 0)"/>
     <use xlink:href="#DejaVuSansMono-20" transform="translate(1685.742188 0)"/>
     <use xlink:href="#DejaVuSansMono-30" transform="translate(1745.947266 0)"/>
     <use xlink:href="#DejaVuSansMono-29" transform="translate(1806.152344 0)"/>
    </g>
    <!-- m01 = tl.load(M_ptr + base + 1) -->
    <g style="fill: #262626" transform="translate(271.336641 347.203463) scale(0.09 -0.09)">
     <use xlink:href="#DejaVuSansMono-6d"/>
     <use xlink:href="#DejaVuSansMono-30" transform="translate(60.205078 0)"/>
     <use xlink:href="#DejaVuSansMono-31" transform="translate(120.410156 0)"/>
     <use xlink:href="#DejaVuSansMono-20" transform="translate(180.615234 0)"/>
     <use xlink:href="#DejaVuSansMono-3d" transform="translate(240.820312 0)"/>
     <use xlink:href="#DejaVuSansMono-20" transform="translate(301.025391 0)"/>
     <use xlink:href="#DejaVuSansMono-74" transform="translate(361.230469 0)"/>
     <use xlink:href="#DejaVuSansMono-6c" transform="translate(421.435547 0)"/>
     <use xlink:href="#DejaVuSansMono-2e" transform="translate(481.640625 0)"/>
     <use xlink:href="#DejaVuSansMono-6c" transform="translate(541.845703 0)"/>
     <use xlink:href="#DejaVuSansMono-6f" transform="translate(602.050781 0)"/>
     <use xlink:href="#DejaVuSansMono-61" transform="translate(662.255859 0)"/>
     <use xlink:href="#DejaVuSansMono-64" transform="translate(722.460938 0)"/>
     <use xlink:href="#DejaVuSansMono-28" transform="translate(782.666016 0)"/>
     <use xlink:href="#DejaVuSansMono-4d" transform="translate(842.871094 0)"/>
     <use xlink:href="#DejaVuSansMono-5f" transform="translate(903.076172 0)"/>
     <use xlink:href="#DejaVuSansMono-70" transform="translate(963.28125 0)"/>
     <use xlink:href="#DejaVuSansMono-74" transform="translate(1023.486328 0)"/>
     <use xlink:href="#DejaVuSansMono-72" transform="translate(1083.691406 0)"/>
     <use xlink:href="#DejaVuSansMono-20" transform="translate(1143.896484 0)"/>
     <use xlink:href="#DejaVuSansMono-2b" transform="translate(1204.101562 0)"/>
     <use xlink:href="#DejaVuSansMono-20" transform="translate(1264.306641 0)"/>
     <use xlink:href="#DejaVuSansMono-62" transform="translate(1324.511719 0)"/>
     <use xlink:href="#DejaVuSansMono-61" transform="translate(1384.716797 0)"/>
     <use xlink:href="#DejaVuSansMono-73" transform="translate(1444.921875 0)"/>
     <use xlink:href="#DejaVuSansMono-65" transform="translate(1505.126953 0)"/>
     <use xlink:href="#DejaVuSansMono-20" transform="translate(1565.332031 0)"/>
     <use xlink:href="#DejaVuSansMono-2b" transform="translate(1625.537109 0)"/>
     <use xlink:href="#DejaVuSansMono-20" transform="translate(1685.742188 0)"/>
     <use xlink:href="#DejaVuSansMono-31" transform="translate(1745.947266 0)"/>
     <use xlink:href="#DejaVuSansMono-29" transform="translate(1806.152344 0)"/>
    </g>
    <!-- ... -->
    <g style="fill: #262626" transform="translate(347.192578 357.589181) scale(0.09 -0.09)">
     <use xlink:href="#DejaVuSansMono-2e"/>
     <use xlink:href="#DejaVuSansMono-2e" transform="translate(60.205078 0)"/>
     <use xlink:href="#DejaVuSansMono-2e" transform="translate(120.410156 0)"/>
    </g>
    <!-- m33 = tl.load(M_ptr + base + 15) -->
    <g style="fill: #262626" transform="translate(268.6275 367.724587) scale(0.09 -0.09)">
     <defs>
      <path id="DejaVuSansMono-33" d="M 2425 2497 
Q 2884 2375 3128 2064 
Q 3372 1753 3372 1288 
Q 3372 644 2939 276 
Q 2506 -91 1741 -91 
Q 1419 -91 1084 -31 
Q 750 28 428 141 
L 428 769 
Q 747 603 1056 522 
Q 1366 441 1672 441 
Q 2191 441 2469 675 
Q 2747 909 2747 1350 
Q 2747 1756 2469 1995 
Q 2191 2234 1716 2234 
L 1234 2234 
L 1234 2753 
L 1716 2753 
Q 2150 2753 2394 2943 
Q 2638 3134 2638 3475 
Q 2638 3834 2411 4026 
Q 2184 4219 1766 4219 
Q 1488 4219 1191 4156 
Q 894 4094 569 3969 
L 569 4550 
Q 947 4650 1242 4700 
Q 1538 4750 1766 4750 
Q 2447 4750 2855 4408 
Q 3263 4066 3263 3500 
Q 3263 3116 3048 2859 
Q 2834 2603 2425 2497 
z
" transform="scale(0.015625)"/>
      <path id="DejaVuSansMono-35" d="M 647 4666 
L 3009 4666 
L 3009 4134 
L 1222 4134 
L 1222 2988 
Q 1356 3038 1492 3061 
Q 1628 3084 1766 3084 
Q 2491 3084 2916 2656 
Q 3341 2228 3341 1497 
Q 3341 759 2895 334 
Q 2450 -91 1678 -91 
Q 1306 -91 998 -41 
Q 691 9 447 109 
L 447 750 
Q 734 594 1025 517 
Q 1316 441 1619 441 
Q 2141 441 2423 716 
Q 2706 991 2706 1497 
Q 2706 1997 2414 2275 
Q 2122 2553 1600 2553 
Q 1347 2553 1106 2495 
Q 866 2438 647 2322 
L 647 4666 
z
" transform="scale(0.015625)"/>
     </defs>
     <use xlink:href="#DejaVuSansMono-6d"/>
     <use xlink:href="#DejaVuSansMono-33" transform="translate(60.205078 0)"/>
     <use xlink:href="#DejaVuSansMono-33" transform="translate(120.410156 0)"/>
     <use xlink:href="#DejaVuSansMono-20" transform="translate(180.615234 0)"/>
     <use xlink:href="#DejaVuSansMono-3d" transform="translate(240.820312 0)"/>
     <use xlink:href="#DejaVuSansMono-20" transform="translate(301.025391 0)"/>
     <use xlink:href="#DejaVuSansMono-74" transform="translate(361.230469 0)"/>
     <use xlink:href="#DejaVuSansMono-6c" transform="translate(421.435547 0)"/>
     <use xlink:href="#DejaVuSansMono-2e" transform="translate(481.640625 0)"/>
     <use xlink:href="#DejaVuSansMono-6c" transform="translate(541.845703 0)"/>
     <use xlink:href="#DejaVuSansMono-6f" transform="translate(602.050781 0)"/>
     <use xlink:href="#DejaVuSansMono-61" transform="translate(662.255859 0)"/>
     <use xlink:href="#DejaVuSansMono-64" transform="translate(722.460938 0)"/>
     <use xlink:href="#DejaVuSansMono-28" transform="translate(782.666016 0)"/>
     <use xlink:href="#DejaVuSansMono-4d" transform="translate(842.871094 0)"/>
     <use xlink:href="#DejaVuSansMono-5f" transform="translate(903.076172 0)"/>
     <use xlink:href="#DejaVuSansMono-70" transform="translate(963.28125 0)"/>
     <use xlink:href="#DejaVuSansMono-74" transform="translate(1023.486328 0)"/>
     <use xlink:href="#DejaVuSansMono-72" transform="translate(1083.691406 0)"/>
     <use xlink:href="#DejaVuSansMono-20" transform="translate(1143.896484 0)"/>
     <use xlink:href="#DejaVuSansMono-2b" transform="translate(1204.101562 0)"/>
     <use xlink:href="#DejaVuSansMono-20" transform="translate(1264.306641 0)"/>
     <use xlink:href="#DejaVuSansMono-62" transform="translate(1324.511719 0)"/>
     <use xlink:href="#DejaVuSansMono-61" transform="translate(1384.716797 0)"/>
     <use xlink:href="#DejaVuSansMono-73" transform="translate(1444.921875 0)"/>
     <use xlink:href="#DejaVuSansMono-65" transform="translate(1505.126953 0)"/>
     <use xlink:href="#DejaVuSansMono-20" transform="translate(1565.332031 0)"/>
     <use xlink:href="#DejaVuSansMono-2b" transform="translate(1625.537109 0)"/>
     <use xlink:href="#DejaVuSansMono-20" transform="translate(1685.742188 0)"/>
     <use xlink:href="#DejaVuSansMono-31" transform="translate(1745.947266 0)"/>
     <use xlink:href="#DejaVuSansMono-35" transform="translate(1806.152344 0)"/>
     <use xlink:href="#DejaVuSansMono-29" transform="translate(1866.357422 0)"/>
    </g>
    <!--  -->
    <g style="fill: #262626" transform="translate(355.32 378.110306) scale(0.09 -0.09)"/>
    <!-- # All operations in-register (no memory traffic) -->
    <g style="fill: #262626" transform="translate(225.28125 388.245712) scale(0.09 -0.09)">
     <defs>
      <path id="DejaVuSansMono-41" d="M 1925 4109 
L 1259 1722 
L 2591 1722 
L 1925 4109 
z
M 1544 4666 
L 2309 4666 
L 3738 0 
L 3084 0 
L 2741 1216 
L 1106 1216 
L 769 0 
L 116 0 
L 1544 4666 
z
" transform="scale(0.015625)"/>
      <path id="DejaVuSansMono-2d" d="M 1113 2009 
L 2741 2009 
L 2741 1497 
L 1113 1497 
L 1113 2009 
z
" transform="scale(0.015625)"/>
      <path id="DejaVuSansMono-79" d="M 2681 1125 
Q 2538 759 2316 163 
Q 2006 -663 1900 -844 
Q 1756 -1088 1540 -1209 
Q 1325 -1331 1038 -1331 
L 575 -1331 
L 575 -850 
L 916 -850 
Q 1169 -850 1312 -703 
Q 1456 -556 1678 56 
L 325 3500 
L 934 3500 
L 1972 763 
L 2994 3500 
L 3603 3500 
L 2681 1125 
z
" transform="scale(0.015625)"/>
      <path id="DejaVuSansMono-66" d="M 3322 4863 
L 3322 4384 
L 2669 4384 
Q 2359 4384 2239 4257 
Q 2119 4131 2119 3809 
L 2119 3500 
L 3322 3500 
L 3322 3053 
L 2119 3053 
L 2119 0 
L 1544 0 
L 1544 3053 
L 609 3053 
L 609 3500 
L 1544 3500 
L 1544 3744 
Q 1544 4319 1808 4591 
Q 2072 4863 2631 4863 
L 3322 4863 
z
" transform="scale(0.015625)"/>
     </defs>
     <use xlink:href="#DejaVuSansMono-23"/>
     <use xlink:href="#DejaVuSansMono-20" transform="translate(60.205078 0)"/>
     <use xlink:href="#DejaVuSansMono-41" transform="translate(120.410156 0)"/>
     <use xlink:href="#DejaVuSansMono-6c" transform="translate(180.615234 0)"/>
     <use xlink:href="#DejaVuSansMono-6c" transform="translate(240.820312 0)"/>
     <use xlink:href="#DejaVuSansMono-20" transform="translate(301.025391 0)"/>
     <use xlink:href="#DejaVuSansMono-6f" transform="translate(361.230469 0)"/>
     <use xlink:href="#DejaVuSansMono-70" transform="translate(421.435547 0)"/>
     <use xlink:href="#DejaVuSansMono-65" transform="translate(481.640625 0)"/>
     <use xlink:href="#DejaVuSansMono-72" transform="translate(541.845703 0)"/>
     <use xlink:href="#DejaVuSansMono-61" transform="translate(602.050781 0)"/>
     <use xlink:href="#DejaVuSansMono-74" transform="translate(662.255859 0)"/>
     <use xlink:href="#DejaVuSansMono-69" transform="translate(722.460938 0)"/>
     <use xlink:href="#DejaVuSansMono-6f" transform="translate(782.666016 0)"/>
     <use xlink:href="#DejaVuSansMono-6e" transform="translate(842.871094 0)"/>
     <use xlink:href="#DejaVuSansMono-73" transform="translate(903.076172 0)"/>
     <use xlink:href="#DejaVuSansMono-20" transform="translate(963.28125 0)"/>
     <use xlink:href="#DejaVuSansMono-69" transform="translate(1023.486328 0)"/>
     <use xlink:href="#DejaVuSansMono-6e" transform="translate(1083.691406 0)"/>
     <use xlink:href="#DejaVuSansMono-2d" transform="translate(1143.896484 0)"/>
     <use xlink:href="#DejaVuSansMono-72" transform="translate(1204.101562 0)"/>
     <use xlink:href="#DejaVuSansMono-65" transform="translate(1264.306641 0)"/>
     <use xlink:href="#DejaVuSansMono-67" transform="translate(1324.511719 0)"/>
     <use xlink:href="#DejaVuSansMono-69" transform="translate(1384.716797 0)"/>
     <use xlink:href="#DejaVuSansMono-73" transform="translate(1444.921875 0)"/>
     <use xlink:href="#DejaVuSansMono-74" transform="translate(1505.126953 0)"/>
     <use xlink:href="#DejaVuSansMono-65" transform="translate(1565.332031 0)"/>
     <use xlink:href="#DejaVuSansMono-72" transform="translate(1625.537109 0)"/>
     <use xlink:href="#DejaVuSansMono-20" transform="translate(1685.742188 0)"/>
     <use xlink:href="#DejaVuSansMono-28" transform="translate(1745.947266 0)"/>
     <use xlink:href="#DejaVuSansMono-6e" transform="translate(1806.152344 0)"/>
     <use xlink:href="#DejaVuSansMono-6f" transform="translate(1866.357422 0)"/>
     <use xlink:href="#DejaVuSansMono-20" transform="translate(1926.5625 0)"/>
     <use xlink:href="#DejaVuSansMono-6d" transform="translate(1986.767578 0)"/>
     <use xlink:href="#DejaVuSansMono-65" transform="translate(2046.972656 0)"/>
     <use xlink:href="#DejaVuSansMono-6d" transform="translate(2107.177734 0)"/>
     <use xlink:href="#DejaVuSansMono-6f" transform="translate(2167.382812 0)"/>
     <use xlink:href="#DejaVuSansMono-72" transform="translate(2227.587891 0)"/>
     <use xlink:href="#DejaVuSansMono-79" transform="translate(2287.792969 0)"/>
     <use xlink:href="#DejaVuSansMono-20" transform="translate(2347.998047 0)"/>
     <use xlink:href="#DejaVuSansMono-74" transform="translate(2408.203125 0)"/>
     <use xlink:href="#DejaVuSansMono-72" transform="translate(2468.408203 0)"/>
     <use xlink:href="#DejaVuSansMono-61" transform="translate(2528.613281 0)"/>
     <use xlink:href="#DejaVuSansMono-66" transform="translate(2588.818359 0)"/>
     <use xlink:href="#DejaVuSansMono-66" transform="translate(2649.023438 0)"/>
     <use xlink:href="#DejaVuSansMono-69" transform="translate(2709.228516 0)"/>
     <use xlink:href="#DejaVuSansMono-63" transform="translate(2769.433594 0)"/>
     <use xlink:href="#DejaVuSansMono-29" transform="translate(2829.638672 0)"/>
    </g>
    <!-- row_sum = m00 + m01 + m02 + m03 -->
    <g style="fill: #262626" transform="translate(271.336641 398.442994) scale(0.09 -0.09)">
     <defs>
      <path id="DejaVuSansMono-77" d="M 0 3500 
L 569 3500 
L 1178 672 
L 1678 2478 
L 2169 2478 
L 2675 672 
L 3284 3500 
L 3853 3500 
L 3034 0 
L 2484 0 
L 1925 1919 
L 1369 0 
L 819 0 
L 0 3500 
z
" transform="scale(0.015625)"/>
      <path id="DejaVuSansMono-75" d="M 609 1325 
L 609 3494 
L 1184 3494 
L 1184 1325 
Q 1184 853 1351 631 
Q 1519 409 1869 409 
Q 2275 409 2490 695 
Q 2706 981 2706 1516 
L 2706 3494 
L 3284 3494 
L 3284 0 
L 2706 0 
L 2706 525 
Q 2553 222 2289 65 
Q 2025 -91 1672 -91 
Q 1134 -91 871 261 
Q 609 613 609 1325 
z
" transform="scale(0.015625)"/>
      <path id="DejaVuSansMono-32" d="M 1166 531 
L 3309 531 
L 3309 0 
L 475 0 
L 475 531 
Q 1059 1147 1496 1619 
Q 1934 2091 2100 2284 
Q 2413 2666 2522 2902 
Q 2631 3138 2631 3384 
Q 2631 3775 2401 3997 
Q 2172 4219 1772 4219 
Q 1488 4219 1175 4116 
Q 863 4013 513 3803 
L 513 4441 
Q 834 4594 1145 4672 
Q 1456 4750 1759 4750 
Q 2444 4750 2861 4386 
Q 3278 4022 3278 3431 
Q 3278 3131 3139 2831 
Q 3000 2531 2688 2169 
Q 2513 1966 2180 1606 
Q 1847 1247 1166 531 
z
" transform="scale(0.015625)"/>
     </defs>
     <use xlink:href="#DejaVuSansMono-72"/>
     <use xlink:href="#DejaVuSansMono-6f" transform="translate(60.205078 0)"/>
     <use xlink:href="#DejaVuSansMono-77" transform="translate(120.410156 0)"/>
     <use xlink:href="#DejaVuSansMono-5f" transform="translate(180.615234 0)"/>
     <use xlink:href="#DejaVuSansMono-73" transform="translate(240.820312 0)"/>
     <use xlink:href="#DejaVuSansMono-75" transform="translate(301.025391 0)"/>
     <use xlink:href="#DejaVuSansMono-6d" transform="translate(361.230469 0)"/>
     <use xlink:href="#DejaVuSansMono-20" transform="translate(421.435547 0)"/>
     <use xlink:href="#DejaVuSansMono-3d" transform="translate(481.640625 0)"/>
     <use xlink:href="#DejaVuSansMono-20" transform="translate(541.845703 0)"/>
     <use xlink:href="#DejaVuSansMono-6d" transform="translate(602.050781 0)"/>
     <use xlink:href="#DejaVuSansMono-30" transform="translate(662.255859 0)"/>
     <use xlink:href="#DejaVuSansMono-30" transform="translate(722.460938 0)"/>
     <use xlink:href="#DejaVuSansMono-20" transform="translate(782.666016 0)"/>
     <use xlink:href="#DejaVuSansMono-2b" transform="translate(842.871094 0)"/>
     <use xlink:href="#DejaVuSansMono-20" transform="translate(903.076172 0)"/>
     <use xlink:href="#DejaVuSansMono-6d" transform="translate(963.28125 0)"/>
     <use xlink:href="#DejaVuSansMono-30" transform="translate(1023.486328 0)"/>
     <use xlink:href="#DejaVuSansMono-31" transform="translate(1083.691406 0)"/>
     <use xlink:href="#DejaVuSansMono-20" transform="translate(1143.896484 0)"/>
     <use xlink:href="#DejaVuSansMono-2b" transform="translate(1204.101562 0)"/>
     <use xlink:href="#DejaVuSansMono-20" transform="translate(1264.306641 0)"/>
     <use xlink:href="#DejaVuSansMono-6d" transform="translate(1324.511719 0)"/>
     <use xlink:href="#DejaVuSansMono-30" transform="translate(1384.716797 0)"/>
     <use xlink:href="#DejaVuSansMono-32" transform="translate(1444.921875 0)"/>
     <use xlink:href="#DejaVuSansMono-20" transform="translate(1505.126953 0)"/>
     <use xlink:href="#DejaVuSansMono-2b" transform="translate(1565.332031 0)"/>
     <use xlink:href="#DejaVuSansMono-20" transform="translate(1625.537109 0)"/>
     <use xlink:href="#DejaVuSansMono-6d" transform="translate(1685.742188 0)"/>
     <use xlink:href="#DejaVuSansMono-30" transform="translate(1745.947266 0)"/>
     <use xlink:href="#DejaVuSansMono-33" transform="translate(1806.152344 0)"/>
    </g>
    <!-- m00 /= row_sum; m01 /= row_sum; ... -->
    <g style="fill: #262626" transform="translate(260.500078 408.828712) scale(0.09 -0.09)">
     <defs>
      <path id="DejaVuSansMono-2f" d="M 2778 4666 
L 3372 4666 
L 916 -594 
L 319 -594 
L 2778 4666 
z
" transform="scale(0.015625)"/>
      <path id="DejaVuSansMono-3b" d="M 1569 947 
L 2356 947 
L 2356 300 
L 1741 -897 
L 1259 -897 
L 1569 300 
L 1569 947 
z
M 1528 3322 
L 2316 3322 
L 2316 2375 
L 1528 2375 
L 1528 3322 
z
" transform="scale(0.015625)"/>
     </defs>
     <use xlink:href="#DejaVuSansMono-6d"/>
     <use xlink:href="#DejaVuSansMono-30" transform="translate(60.205078 0)"/>
     <use xlink:href="#DejaVuSansMono-30" transform="translate(120.410156 0)"/>
     <use xlink:href="#DejaVuSansMono-20" transform="translate(180.615234 0)"/>
     <use xlink:href="#DejaVuSansMono-2f" transform="translate(240.820312 0)"/>
     <use xlink:href="#DejaVuSansMono-3d" transform="translate(301.025391 0)"/>
     <use xlink:href="#DejaVuSansMono-20" transform="translate(361.230469 0)"/>
     <use xlink:href="#DejaVuSansMono-72" transform="translate(421.435547 0)"/>
     <use xlink:href="#DejaVuSansMono-6f" transform="translate(481.640625 0)"/>
     <use xlink:href="#DejaVuSansMono-77" transform="translate(541.845703 0)"/>
     <use xlink:href="#DejaVuSansMono-5f" transform="translate(602.050781 0)"/>
     <use xlink:href="#DejaVuSansMono-73" transform="translate(662.255859 0)"/>
     <use xlink:href="#DejaVuSansMono-75" transform="translate(722.460938 0)"/>
     <use xlink:href="#DejaVuSansMono-6d" transform="translate(782.666016 0)"/>
     <use xlink:href="#DejaVuSansMono-3b" transform="translate(842.871094 0)"/>
     <use xlink:href="#DejaVuSansMono-20" transform="translate(903.076172 0)"/>
     <use xlink:href="#DejaVuSansMono-6d" transform="translate(963.28125 0)"/>
     <use xlink:href="#DejaVuSansMono-30" transform="translate(1023.486328 0)"/>
     <use xlink:href="#DejaVuSansMono-31" transform="translate(1083.691406 0)"/>
     <use xlink:href="#DejaVuSansMono-20" transform="translate(1143.896484 0)"/>
     <use xlink:href="#DejaVuSansMono-2f" transform="translate(1204.101562 0)"/>
     <use xlink:href="#DejaVuSansMono-3d" transform="translate(1264.306641 0)"/>
     <use xlink:href="#DejaVuSansMono-20" transform="translate(1324.511719 0)"/>
     <use xlink:href="#DejaVuSansMono-72" transform="translate(1384.716797 0)"/>
     <use xlink:href="#DejaVuSansMono-6f" transform="translate(1444.921875 0)"/>
     <use xlink:href="#DejaVuSansMono-77" transform="translate(1505.126953 0)"/>
     <use xlink:href="#DejaVuSansMono-5f" transform="translate(1565.332031 0)"/>
     <use xlink:href="#DejaVuSansMono-73" transform="translate(1625.537109 0)"/>
     <use xlink:href="#DejaVuSansMono-75" transform="translate(1685.742188 0)"/>
     <use xlink:href="#DejaVuSansMono-6d" transform="translate(1745.947266 0)"/>
     <use xlink:href="#DejaVuSansMono-3b" transform="translate(1806.152344 0)"/>
     <use xlink:href="#DejaVuSansMono-20" transform="translate(1866.357422 0)"/>
     <use xlink:href="#DejaVuSansMono-2e" transform="translate(1926.5625 0)"/>
     <use xlink:href="#DejaVuSansMono-2e" transform="translate(1986.767578 0)"/>
     <use xlink:href="#DejaVuSansMono-2e" transform="translate(2046.972656 0)"/>
    </g>
   </g>
  </g>
 </g>
 <defs>
  <clipPath id="p4d35d3bd76">
   <rect x="7.2" y="7.2" width="696.24" height="376.992"/>
  </clipPath>
 </defs>
</svg>
